<svg id="Layer_1" data-name="Layer 1" xmlns="http://www.w3.org/2000/svg" viewBox="0 0 331 493.13"><defs><style>.cls-1{fill:#fff;}</style></defs><title>Bee_Head</title><path d="M143,647c2.39-10.47,4.73-21,7.19-31.4,3.23-13.77,6.27-27.6,10-41.25a184.76,184.76,0,0,1,8.15-22.84C174,538,180.17,524.7,185.92,511.22c7.1-16.62,19.94-26.72,36.3-33.24,11.87-4.73,23.73-9.56,35.27-15,7.14-3.39,13.67-8,21.05-12.48-2.54-5.61-5.72-10.7-7.17-16.25-2.11-8.09-2.87-16.52-4.42-24.77-.65-3.47-2-6.79-2.72-10.26A60.85,60.85,0,0,1,263.05,389c-.44-16.77-.69-33.54-1.06-50.3-.28-12.6-.49-25.2-1-37.78-.56-13,4.71-24.69,7.59-36.92.81-3.47,1.91-6.88,3.33-11.9l17,28.72a37.09,37.09,0,0,0,2-7.09c.33-2.83-1-6-.27-8.63,2.33-8.79,5.61-17.33,7.82-26.15a167.38,167.38,0,0,0,3.45-21.19c.22-1.82-1.16-3.83-2-6.43,2.94-3.56,6.41-8.13,10.35-12.25.8-.84,3.64-.52,5.06.21,1.62.83,2.69,2.71,4.42,4.59,3.68-4.73,7.4-9.54,11.17-14.32a55.73,55.73,0,0,1,4.44-5.25c3.25-3.22,5.16-7.88,10.15-9.25a45,45,0,0,0,6.79-2.44c1.6-.72,3-1.92,4.51-2.8,5.59-3.21,11-6.74,16.87-9.45,4.34-2,9.22-2.88,13.79-4.45,13.72-4.73,25.46-.82,35.5,8.69,4.7,4.46,8.45,9.92,12.62,14.93-.12.67-.25,1.33-.38,2-2.58.4-5.17,1.12-7.75,1.1-1.88,0-3.75-1.44-5.62-1.44-2.09,0-4.18.92-5.46,1.23-3.9-4.41-7.37-10.31-12.5-13.73-10.1-6.74-13.3-6.66-22.58,4.29,8.68-.32,17,.49,23.59,5.66,6.25,4.91,13.11,10.39,8.56,20.32-5.32-8.26-12.89-14.14-22.89-15.94-6.58-1.2-13.51-2.49-20-1.53-3.83.57-7.44,5.06-10.37,8.47-3.26,3.79-5.65,8.35-8,12,6.71-.91,14.11-2.93,21.44-2.71,14.7.46,28.54,4,38.95,15.72,2.84,3.19,4.88,6.31,4.61,10.9-.2,3.37.68,6.8.17,10.76a56.73,56.73,0,0,1-3.61-4.46c-7.63-11.55-19.13-16-32.17-17.06-10.42-.88-20.79.11-30.44,4.44-14.72,6.61-24.09,17.46-26.16,34-1.37,11-3.29,21.87-5,32.89,5.7-4,11.1-7.87,16.62-11.59,9.27-6.23,19.89-9.32,30.67-10.54C378.61,263,390.29,263.24,401,269c11.49,6.21,22.86,18.18,18.19,35.47-1,3.75-.7,7.85-1.19,11.76a12.49,12.49,0,0,1-1.88,4.83c-2.87-11.34-9.77-19.26-19.44-24.86-9.35-5.41-19.43-6.62-30.19-5.53-11.86,1.19-22.32,5.8-32.69,11a17.8,17.8,0,0,0-1.84,1.15c7.33,1.69,14.73,3.27,22.06,5.12,14.46,3.66,22.19,14.66,27.83,27.13A62.51,62.51,0,0,1,387,365.37c-1.22,17.42-5.25,33.82-16.57,47.73-2.21,2.72-3,5.37-.62,8.77,1.69,2.45,2.26,5.67,3.32,8.55l1.57-.11V414.54c7.56-1,13.45-5.26,17.24-12.43,1.59-3,2.36-6.82,4.69-9,6.86-6.44,6-15.35,8.23-23.19,2.55-8.9,4-18.1,6.17-27.13a79.15,79.15,0,0,1,5.25-15.7c-.81,5.73-1.29,11.54-2.5,17.19C411.06,357.15,408,370,405,382.77c-.55,2.36-.95,4.89-2.1,7-4.26,7.66-2.14,16.5-4.82,24.41a2.41,2.41,0,0,0,0,1.48c2.24,6,4.53,12,6.82,18,4.58-1.08,6.2-.24,8,4.51l-6.23,1.79c5.76,15-1.3,26.41-9.51,37.29a113,113,0,0,1-27,25.15c-2.75,1.88-4.63,4-4.22,7.61.15,1.38-.39,2.83-.77,5.22,5.31-3.63,10.26-6.8,15-10.26,10.95-8,21-17.12,28.58-28.45,5.79-8.63,10.12-17.94,9.23-28.76,11.49,5.17,22.58,10.49,33.95,15.13,7.14,2.92,14.71,4.8,22.08,7.14V647ZM360.92,411c2.15-2.69,4-5,5.85-7.31,9.41-12,12.67-26.16,12.88-40.75.12-7.55-2.21-15.59-5.23-22.64-4.61-10.74-11.68-19.84-24.28-22.35-6.31-1.26-12.72-3.58-19-3.26-9.37.47-16.86,5.56-22,13.73-2.24,3.57-4.85,6.9-7.34,10.4-5.85-6.62-6.64-15.9-13.59-21.67-3.26-2.7-9.44-6-12.55-5.05-4.17,1.3-10.2,8.46-9.54,12.75,1.08,7.06.69,14.33,5.82,20.69,6.32,7.84,10.83,17.15,17.16,25,4.9,6,3.59,11.66,1.71,17.77a31.32,31.32,0,0,1-2.79,6.23,4.21,4.21,0,0,1-2.57,1.76c-4.38.92-8.8,1.64-13.2,2.44l-.58,1,15.52,8c.45,6.44,7.09,5.06,11.48,6.17,2.5.63,5.73-1.61,8.08-2.39l6.95,3.11c-.68,3.06,6.06,7.71-2,11.18l20.85,6.34c-9,11.55-16.78,25.32-32.84,28.19l-10.46-2A7.43,7.43,0,0,0,289,460c.92,5.34,9.26,2.19,9.53,8.41l.65-1.4c3.66.71,7,1.42,10.45,2,2.4.41,4.89,1.13,7.26.89,13.2-1.37,21.95-10.22,30.55-19,5.89-6,11-12.79,16.79-18.89,5.35-5.61,5.7-6.17,1.7-13C364.35,416.18,362.52,413.53,360.92,411Zm2.66,50.88c10.39-3.47,31.42-31.74,32.71-41.86Zm-82.93-92.64-13.73-23.16-1.45.46,1.12,9.82h-2.76C270,360.71,272.53,368.67,280.65,369.27Zm40.26,67.16c-1.88-1.55-3.84-3.91-6.35-5-2.85-1.27-6.5-2.57-9.24-1.81-3.81,1-7.09,4-11.75,6.84Zm95.48-259.17c4-4.65,2.27-10.23-.45-13.67-3.25-4.09-7.61-4.57-12.24-2.27C418,172.89,415.17,172.32,416.39,177.26ZM350.56,521.53c-7.77-6.21-13.59-4.56-15.6,3.89ZM271.9,294.42c1.15-4.1-3.19-9-7.6-8.84C263.54,291.33,268.42,292.26,271.9,294.42Zm50.73-32.74c-.67-2.64-1.21-4.7-2-7.71C316.52,261.15,316.52,261.15,322.63,261.68Z" transform="translate(-143 -153.87)"/><path class="cls-1" d="M360.92,411c1.6,2.5,3.43,5.15,5.05,7.92,4,6.86,3.65,7.42-1.7,13-5.81,6.1-10.9,12.88-16.79,18.89-8.6,8.77-17.35,17.62-30.55,19-2.37.24-4.86-.48-7.26-.89-3.41-.59-6.79-1.3-10.45-2l-.65,1.4c-.27-6.22-8.61-3.07-9.53-8.41a7.43,7.43,0,0,1,.17-1.58l10.46,2c16.06-2.87,23.8-16.64,32.84-28.19l-20.85-6.34c8.11-3.47,1.37-8.12,2-11.18l-6.95-3.11c-2.35.78-5.58,3-8.08,2.39-4.39-1.11-11,.27-11.48-6.17l-15.52-8,.58-1c4.4-.8,8.82-1.52,13.2-2.44a4.21,4.21,0,0,0,2.57-1.76,31.32,31.32,0,0,0,2.79-6.23c1.88-6.11,3.19-11.73-1.71-17.77-6.33-7.83-10.84-17.14-17.16-25-5.13-6.36-4.74-13.63-5.82-20.69-.66-4.29,5.37-11.45,9.54-12.75,3.11-1,9.29,2.35,12.55,5.05,6.95,5.77,7.74,15.05,13.59,21.67,2.49-3.5,5.1-6.83,7.34-10.4,5.15-8.17,12.64-13.26,22-13.73,6.26-.32,12.67,2,19,3.26,12.6,2.51,19.67,11.61,24.28,22.35,3,7.05,5.35,15.09,5.23,22.64-.21,14.59-3.47,28.79-12.88,40.75C364.94,406.05,363.07,408.34,360.92,411Zm-56.08-12.49c9.66.48,19.5.86,29.32,1.52,3.26.22,4.86-1.15,5.8-4a19.42,19.42,0,0,1,1.46-3c6.18-11.46,12.14-23.22,10.36-36.64A55.57,55.57,0,0,1,353,335c.36-1.44.66-2.9,1-4.36-5,6-9.33,12.31-16.78,15.36-14.89,6.09-25.91,16.83-35.16,29.61a5.24,5.24,0,0,0-.88,3.62C302.18,385.27,303.44,391.31,304.84,398.54Z" transform="translate(-143 -153.87)"/><path class="cls-1" d="M363.58,461.91l32.71-41.86C395,430.17,374,458.44,363.58,461.91Z" transform="translate(-143 -153.87)"/><path class="cls-1" d="M280.65,369.27c-8.12-.6-10.68-8.56-16.82-12.88h2.76l-1.12-9.82,1.45-.46Z" transform="translate(-143 -153.87)"/><path class="cls-1" d="M320.91,436.43H293.57c4.66-2.84,7.94-5.8,11.75-6.84,2.74-.76,6.39.54,9.24,1.81C317.07,432.52,319,434.88,320.91,436.43Z" transform="translate(-143 -153.87)"/><path class="cls-1" d="M416.39,177.26c-1.22-4.94,1.56-4.37-12.69-15.94,4.63-2.3,9-1.82,12.24,2.27C418.66,167,420.42,172.61,416.39,177.26Z" transform="translate(-143 -153.87)"/><path class="cls-1" d="M350.56,521.53,335,525.42C337,517,342.79,515.32,350.56,521.53Z" transform="translate(-143 -153.87)"/><path class="cls-1" d="M271.9,294.42c-3.48-2.16-8.36-3.09-7.6-8.84C268.71,285.38,273.05,290.32,271.9,294.42Z" transform="translate(-143 -153.87)"/><path class="cls-1" d="M322.63,261.68c-6.11-.53-6.11-.53-2-7.71C321.42,257,322,259,322.63,261.68Z" transform="translate(-143 -153.87)"/><path d="M304.84,398.54c-1.4-7.23-2.66-13.27-3.68-19.34a5.24,5.24,0,0,1,.88-3.62c9.25-12.78,20.27-23.52,35.16-29.61,7.45-3.05,11.77-9.36,16.78-15.36-.32,1.46-.62,2.92-1,4.36a55.57,55.57,0,0,0-1.22,21.45c1.78,13.42-4.18,25.18-10.36,36.64a19.42,19.42,0,0,0-1.46,3c-.94,2.84-2.54,4.21-5.8,4C324.34,399.4,314.5,399,304.84,398.54Zm13.68-33.68,1.21,1.94a28.2,28.2,0,0,0,3.2-.59c2.17-.67,4.46-2.32,6.41-2,2.28.43,4.1,3,6.41,3.83a41.78,41.78,0,0,0,9.56,2.13c.68.09,2.25-1.58,2.28-2.47a137.83,137.83,0,0,0-.21-14.8c-.36-4.45-3.21-4.75-6.71-3.15-4.72,2.15-9.54,4.08-14.09,6.53-1.32.71-1.63,3.11-2.81,4.34A49.11,49.11,0,0,1,318.52,364.86Zm-.2,22.29a37.37,37.37,0,0,1,6,.07,28.39,28.39,0,0,1,6,1.87c5.69,2.28,8.33,1.18,10.69-4.95C333.17,383.45,325.48,381.86,318.32,387.15Zm-9.38-.44-1,1.08c1.23,1.68,2.15,4.41,3.73,4.86,7.32,2.1,14.81,3.87,22.51.25C324.35,396.52,317.06,390,308.94,386.71Z" transform="translate(-143 -153.87)"/><path class="cls-1" d="M318.52,364.86a49.11,49.11,0,0,0,5.25-4.21c1.18-1.23,1.49-3.63,2.81-4.34,4.55-2.45,9.37-4.38,14.09-6.53,3.5-1.6,6.35-1.3,6.71,3.15a137.83,137.83,0,0,1,.21,14.8c0,.89-1.6,2.56-2.28,2.47a41.78,41.78,0,0,1-9.56-2.13c-2.31-.86-4.13-3.4-6.41-3.83-1.95-.35-4.24,1.3-6.41,2a28.2,28.2,0,0,1-3.2.59Z" transform="translate(-143 -153.87)"/><path class="cls-1" d="M318.32,387.15c7.16-5.29,14.85-3.7,22.66-3-2.36,6.13-5,7.23-10.69,4.95a28.39,28.39,0,0,0-6-1.87A37.37,37.37,0,0,0,318.32,387.15Z" transform="translate(-143 -153.87)"/><path class="cls-1" d="M308.94,386.71c8.12,3.24,15.41,9.81,25.24,6.19-7.7,3.62-15.19,1.85-22.51-.25-1.58-.45-2.5-3.18-3.73-4.86Z" transform="translate(-143 -153.87)"/></svg>