<svg id="Layer_1" data-name="Layer 1" xmlns="http://www.w3.org/2000/svg" viewBox="0 0 400.49 663.13"><defs><style>.cls-1{fill:#fff;}</style></defs><title>folsomDog</title><path d="M393.71,615.13c2,1.62,4,3.23,6.64,5.37.52-1.31,1.45-2.46,1.21-3.26-1.33-4.5,1.48-4.36,4.25-3.81,5.65,1.13,8.78,5.25,11.33,10a30.62,30.62,0,0,0,6.17,8.45l-4-10.06c7.25,7.65,7.14,10.22-1.57,17.41a10.32,10.32,0,0,0,2,.79c11.15,1.92,15.86,11.34,21.83,19.08,12,15.51,24.53,30.68,34.9,47.22,4.36,6.95,9.24,13.47,13.65,20.34.75,1.15.64,2.86.92,4.31H334l1.05-8.36-1.25-.46c-.8,1.86-1.61,3.72-2.41,5.57l-3.52-2.58L324,731H311c-.34-3.21-.69-6.42-1.07-10l3.24.77c-.67-2.11-2.1-4.28-1.84-6.22.59-4.52,2.11-8.91,3-13.4.4-2-.26-4.33.36-6.26q3.92-12.31,8.36-24.46c1.13-3.07,4.36-6,4.13-8.81-.59-7.26,4.57-13.16,3.39-20.82-.66-4.29,3.16-9,2.35-14.8-.85-6.12,2.17-12.69,1.84-19a164.13,164.13,0,0,0-4.1-29.47c-1-4.26-4.83-8.3-8.31-11.38s-8.82-4.27-12.26-7.45c-5.88-5.44-13.43-7.69-20.1-11.43-7.57-4.24-16.61-4.34-25.41-2.58-9.07,1.82-17.07,5.94-25.26,10-21.58,10.8-35.82,28.33-46.16,49.28-10,20.28-17.84,41.5-24.77,63.05-4.65,14.48-8.27,29.14-9.44,44.36-.47,6.2-1.29,12.37-2,18.55H121c.67-13.87,1.08-27.76,2.1-41.6,1-13.51,2.28-27,4-40.45a253.6,253.6,0,0,1,5.58-29.71c3.2-12.48,7.15-24.78,11.14-37,1.46-4.48,4-8.62,6.39-12.76C141.6,595,135.35,621,133,647.82c3.34-16.2,6.36-32.47,10.1-48.57,6-25.94,17.89-49.06,36.11-68.54,13-14,29.36-21.71,48.57-23.85,15.72-1.75,30.11,1.81,44,8.51,11.44,5.53,22.77,11.3,34.39,17.09-.15-7.74-6-12.18-14.55-17.19-3.24-1.9-6.74-3.36-10.06-5.13a37.27,37.27,0,0,1-8.87-6.16l27.55,14.21.76-1.27c-8.45-5.56-16.58-11.73-25.45-16.53A292.56,292.56,0,0,0,241,484.24c-8.26-3.16-17.32-4.24-26-6.23-.64-.14-1.39.1-2-.11-5.89-2.06-11-1.74-14.09,4.65l1.89,1.29c-6.28,2.38-7.68,1.74-9.47-3.65a12.66,12.66,0,0,0-2.07-3.39c-2.18-2.9-2.06-5.83-1.45-9.38,1-5.84.89-11.87,1.19-17.82.15-3.14.08-6.3.28-9.44.47-7.43,2.52-9,8.81-7.62-.48-6.64-1-13.47-1.47-20.29l1.06-.09c.14,1.64.27,3.28.39,4.71,2.45-10.77,4.92-21.62,7.38-32.47l1.88.37c-2.21,15.88.8,32.42-7,47.91,1.14.44,2.26,1.23,3.4,1.25,26.9.49,51.34,10.1,75.72,20.09a5.58,5.58,0,0,0,4.62-.69c5.39-4.06,11.45-5.46,18-5.21,5.2.2,11.79,7,11.56,14.45-.23,7.68,3,11.06,9.3,14.18,8.59,4.25,16.61,9.63,26.39,15.43l-.49-9.81-1.59-.11,2.95-2.32L341,468a3.42,3.42,0,0,1-2.46-.7c-9.22-10.23-18.29-20.61-26.53-31.63l5.66,4.66,3.5-.58c-.15,1.38-.3,2.75-.49,4.45.33,0,1.19.34,1.39.1,4.74-5.83,10.79-3.46,16.24-2.14a104.34,104.34,0,0,1,17,6c3.67,1.59,7,3.71,7.83,8.53s5.78,3.32,8.83,4.07c6.31,1.58,12.86,2.21,19.33,3.1a9.36,9.36,0,0,0,4.41-.31c10-3.84,19.56-1.1,28.76,2.69,6.86,2.83,13.23,4,20.45.9,3-1.29,7.2.52,10.53-.34,4.28-1.1,9.31-2.55,12-5.62a23.62,23.62,0,0,1,5.47-4.38c1,8.91-7.63,18-16.88,18.57-3.61.22-7.19,1-10.78,1.5a8.21,8.21,0,0,1-2.94.31c-13.11-3.72-26.5-1.27-39.75-1.7-4.32-.14-8.75,1.81-13,1.39-6.74-.67-16.87,2.54-20,8.07a19.8,19.8,0,0,0-2.39,8.89c-.14,5.85.46,11.72.66,15.9-4.2,4.74-9.47-1.38-12.35,4.77,1.74.16,2.9.57,3.86.29,4.4-1.25,8.47-1.39,12.73,1,2.84,1.59,6.44,1.76,9.42,3.16,4.12,1.95,5.91,5.54,5.64,10.17-.16,2.82-.06,5.66,0,8.49.05,6.67-2.29,12-9.8,15.52,2.31,6.62,4.56,13.29,7,19.9,3.24,8.84,6.46,17.68,10,26.4,1.53,3.77,3.83,7.22,6,11.14l9.09-1.39-.05.6-15.54,5.34c-1.29-1.1-3.47-2-3.73-3.33-1.38-7.08-3.36-13.72-8.81-18.91a9.89,9.89,0,0,1-2-3.94c-2.63-7.58-5.17-15.18-7.74-22.77l-1.78.11c-.21,9,.26,18.08-.8,27-1.32,11,5.23,18.48,10.27,26.67,2.29,3.72,5.5,3.55,8.77.55ZM372.17,550l.95,0c1.37,2.81,3,2.49,4.94.52,7.77-7.75,9.52-23.44-2-30.43a74.71,74.71,0,0,0-7.61-3.64c-4.35,5.85-8.38,11.65-12.87,17.08a7.53,7.53,0,0,1-5.72,2.47c-3-.38-4,.11-3.89,3.15a9,9,0,0,1-.61,3l8.66,6.75-.78,1.09-4.64-3.15c3.66,7.43,9.7,8.22,15.88,8.26.47,2,.89,3.77,1.47,6.26,1.39-2.74,2.3-4.56,3.43-6.79l-8.93-3.46,6.44-.82s.23-.88.52-1.94c2,3.26,3.92,6.28,6.19,9.91C373,555,372.6,552.48,372.17,550Zm3.33,162c4.67-3.64,10.06-6.54,13.62-10.93,4.5-5.53,5.52-12.8,4.43-19.92-1.33-8.65-3.95-16.83-10.85-23-.79-.7-.95-2.17-1.77-2.79-1.31-1-3.7-2.59-4.27-2.15-2.8,2.13-5.71,4.52-7.51,7.46-2,3.31-2.91,7.33-4.31,11-.17.45-.67.83-.7,1.26-.58,7.88-1.26,15.76-1.56,23.66-.1,2.71.77,5.45,1.25,8.58l3.93-3c.19,2,.34,3.69.57,6.08l8.94-15.57,1.35.43C377.61,699.2,376.61,705.27,375.5,712ZM259.62,469.08c1.4-1.85,3.8-4.88,6-8.05a2.54,2.54,0,0,0-.44-2.31c-.39-.48-1.47-.3-2.15-.62-4.77-2.23-9.52-4.52-14.27-6.79,2.61,5.77,1.89,10-2.32,11.43C251,464.34,252,471.54,259.62,469.08ZM407,618.69a27.55,27.55,0,0,1,.19,3.41c-.36,4.67-7.94,8.55-11.71,6.23-1.17-.72-2.93-.47-4.41-.67-.1,1.92-.68,4-.08,5.69.33.9,2.94,1.83,4.08,1.45a138.76,138.76,0,0,0,15.11-6c1.55-.74,3.74-3.09,3.47-4.14C412.88,621.81,411.77,618.44,407,618.69ZM355,579.07c0-4.48-.09-8.08.08-11.66a3.08,3.08,0,0,1,1.57-2.21c3.94-1.74,4.36-3,2.29-6.63C353.85,564.11,348.29,569.88,355,579.07ZM241.11,473.34l16.46,6.29C253.14,475.33,248.47,471.7,241.11,473.34Zm23.73-21.07.73-1.63-14-4.64-.48,1.45ZM392.67,607.14l1.56-.64L388.17,592l-1.35.56Z" transform="translate(-121 -67.87)"/><path class="cls-1" d="M157,731c.67-6.18,1.49-12.35,2-18.55,1.17-15.22,4.79-29.88,9.44-44.36,6.93-21.55,14.76-42.77,24.77-63.05,10.34-20.95,24.58-38.48,46.16-49.28,8.19-4.1,16.19-8.22,25.26-10,8.8-1.76,17.84-1.66,25.41,2.58,6.67,3.74,14.22,6,20.1,11.43,3.44,3.18,8.73,4.33,12.26,7.45s7.3,7.12,8.31,11.38a164.13,164.13,0,0,1,4.1,29.47c.33,6.29-2.69,12.86-1.84,19,.81,5.75-3,10.51-2.35,14.8,1.18,7.66-4,13.56-3.39,20.82.23,2.79-3,5.74-4.13,8.81q-4.46,12.13-8.36,24.46c-.62,1.93,0,4.23-.36,6.26-.9,4.49-2.42,8.88-3,13.4-.26,1.94,1.17,4.11,1.84,6.22l-3.24-.77c.38,3.57.73,6.78,1.07,10Z" transform="translate(-121 -67.87)"/><path class="cls-1" d="M324,731l3.87-5.83,3.52,2.58c.8-1.85,1.61-3.71,2.41-5.57l1.25.46L334,731Z" transform="translate(-121 -67.87)"/><path d="M344.17,155.2l2.58.47-1.36-.9-12.08,12.69c16.91,13,29.5,26.64,25.18,49l-1-2.13-.94,3.6-1.22,4.7c-1.56-3.48-2.71-6.07-3.34-7.48-2.61.36-4.39.55-6.15.86s-4.83.22-5.29,1.23c-1.69,3.72-2.5,7.84-3.73,11.78-.74,2.38-1.64,4.7-2.64,7.52l6.56-.76c.6,1.68,1.19,3.37,1.79,5.06l.7-.34-.31-6a36.31,36.31,0,0,1,4,3c1,1,2.65,2.57,2.41,3.47-3.27,12.32-4.13,24.87-4.54,37.54-.1,3.13-2.42,6.3-4.1,9.24-2.57,4.53-5.59,8.81-8.2,13.32s-4.45,9.19-9.83,11.08c-.76.27-1.15,1.5-1.79,2.22-6.16,6.89-12.85,13.12-21.5,16.8-2.8,1.19-5.55,2.07-7.7-1.48-.49-.82-2.63-1-3.94-.88-6.53.69-12.82.38-18.6-3.17a3.48,3.48,0,0,0-1.83-.59c-5.84.27-9.74-2.68-13.08-7.15-1.32-1.76-3.77-2.65-5.6-4.07-2.46-1.91-5.79-3.48-7-6-2.76-5.74-5.75-11.85-6.36-18-1.65-16.84-1.81-33.76,3.41-50.25.82-2.61.17-5.65.8-8.35,3.07-13.21,7.73-25.82,16.35-36.49,4.33-5.37,3-11.42,1.91-16.74-1.82-9.11-.32-17.8.65-26.65a21,21,0,0,1,.85-4.9c1.14-3-.54-7.62,5-8.36,1-.14,2.15-2.9,2.49-4.59,3.95-19.33,16.3-33.74,28.25-48.37,3.57-4.37,7.81-8.19,11.38-12.55,2.79-3.41,5.93-5.71,10.29-4.14,4.68,1.7,6.07,6.13,6.12,10.5.1,7.78-.94,15.59-.61,23.36.6,14.55,1.71,29.08,2.87,43.6.49,6.13,2.95,7.84,9.1,8.09,3.41.14,6.79.92,10.18,1.4H326.07c.55,2.09,1,3.88,1.55,5.92ZM323.46,228c.55-2,.52-4.39,1.68-5.65,2.62-2.84,1.88-6.27,2.38-9.44.18-1.13-1-2.47-1.87-4.32l-3.08,11.18c-.52-1.95-.9-3.32-1.27-4.7l-1.62.15c.31,2.62,1.55,5.61.7,7.79C319.07,226.36,319.2,227.78,323.46,228Zm3.69-39.35c-.4-2.48-.53-5.21-.89-5.24-3.68-.31-7.4-.19-11.05-.19.53,2.73.93,4.8,1.47,7.55L320,186.3Zm-26.43,10.72c3.15-2.65,6-5.56,9.35-7.74,2.9-1.89,2.22-3,1.12-3.86l-10.78,6.48Z" transform="translate(-121 -67.87)"/><path d="M439,286.11a52.51,52.51,0,0,0,.74,6.31c1.87,7.73.34,15.37-2.38,22.3-2.95,7.55-10.66,10.48-18,12.13-12.75,2.85-25.63.76-38.27-1.09-10.31-1.51-18.07-8.54-24.84-15.92-2.14-2.34-2.52-7.23-2.1-10.76.61-5,2.71-9.83,4.52-15.9l6.38,8.45-1.26,1.08-2.49-2-.84.66,4.6,5.87c2.39-5.72-2-12.8,6.53-16l-2.2-.84-6.53,6c-3.69-7.07,3.33-8.64,5.83-12.64l.85,4.1C371,276.18,372,275,373.07,274c.94-.87,2.05-2.22,3.08-2.21,2.25,0,2.84-.27,1.49-2.32-.05-.08,1-1.3,1.62-1.36,6.48-.66,13-1.2,19.55-1.49l-3.88.87c.13,2.33.26,4.62.38,6.91l-2.53-5.76-7.36,8.79c4.69,1.44,8.1,1.52,9.75-3.17,1.33-.08,2.65-.1,4-.26,4.33-.52,5.67-2.54,4.72-6.15,1.87,0,3.8.1,5.71,0,12.32-.74,20.19,6.54,27.38,15.09C437.65,284,438.35,285,439,286.11Zm-40.31,22.23c-4.68-1.17-9-2.69-13.4-3.24-6.49-.8-8.63,1-9.59,6.64,6.89,6.21,13.8,1.2,20.67.1C397.31,311.69,397.91,309.63,398.73,308.34Zm-5.69-11c-10.8-6-16.36-4-17.43,4.93Z" transform="translate(-121 -67.87)"/><path d="M380.67,423.16c2.57,1.65,5,3.65,7.74,4.87,17.6,7.8,36.49,11,55.1,15.18,6.1,1.35,12.42,1.63,18.6,2.67a49.92,49.92,0,0,1,12.11,3.62c-3.68,3.82-7.61,1.44-11.13.89-5.58-.86-10.93-3.08-16.5-4-11.75-2-23.67-3.11-35.34-5.49-11.39-2.32-22.55-5.72-30.84-14.87a28.6,28.6,0,0,0-6-5c-4-2.47-2-6.49-2.93-9.74,2.2.11,4.67-.39,6.54.46,5.14,2.31,9.82,5.77,15.08,7.63,4.08,1.44,8.78,1.15,13.49,1.65l-.54,1.62c8.51,3.69,17.83,4.38,26.95,3.09a48.68,48.68,0,0,1,11.2.1c3,.23,6.32-.9,9.26-2,5.4-2.07,10.63-4.59,15.85-6.88-.09.21-.44,1-.78,1.87l.6.73,19.27-15.19,8.55,2.52c-4.08-4.61-7.7-8.19-10.67-12.24a15.37,15.37,0,0,1-2.62-7.52c-.51-6.25-3.55-12-1.91-18.8,1.52-6.33,5.15-9.91,10.45-11.68,8.09-2.71,16.08-.62,22.74,4.18,7.15,5.15,8.49,13.09,4,20.77a57.24,57.24,0,0,0-7.37,19.74c-2.27,13.56-10.59,21.23-23.34,25.58S463,435,449.28,433.23c-6.66-.84-13.61-.16-20.34.59C412,435.71,397.18,430.31,383,422a6.62,6.62,0,0,0-1.28-.42Z" transform="translate(-121 -67.87)"/><path d="M475,243.39c-5.26-7.49-11.72-15.38-16.69-24.11-6-10.59-10.19-22.26-16.36-32.75-3.92-6.66-1.38-11.91,1.42-16.89,5.89-10.49,12.6-20.53,19.22-30.59a118.36,118.36,0,0,1,9.87-12.79c1.22-1.41,4-3.06,5.16-2.53,1.57.73,2.85,3.31,3.13,5.26a44.83,44.83,0,0,1,0,10c-.82,10.52-1.7,21-2.78,31.54a11.69,11.69,0,0,1-2.22,5.28c-3.47,4.86-3.86,10.23-3.72,16,.23,9.68.92,19.49-.35,29-.88,6.64-.41,12.39,2.27,18.3A18.08,18.08,0,0,1,475,243.39Z" transform="translate(-121 -67.87)"/><path d="M352.47,387.13c-.33,4.45-.75,12.48-1.57,20.48-.46,4.54-6.86,11.2-10.95,10.69-6.26-.79-12.83-1.83-18.4-4.54-3.87-1.88-7.31-6.28-9.13-10.36a26.9,26.9,0,0,1,.59-23.46,4.52,4.52,0,0,0,.44-.88c2.2-9.48,9.13-13.36,17.77-15.93,5-1.5,7.51,1.88,10.66,3.93C347.83,370.94,353.65,375.15,352.47,387.13Z" transform="translate(-121 -67.87)"/><path d="M237.76,330.51c9.38,8.25,15.85,17.36,15.19,29.91-.58,11.22,1.68,21.36,8.91,30.32,1,1.22.22,5.37-1.16,6.69-7.47,7.19-15.19,7.6-23,.61-3.15-2.82-5-7.44-6.6-11.56-2-4.93-3.84-10.13-4.35-15.35-.62-6.45-1-13.4.72-19.48C229.6,344.38,234.1,337.8,237.76,330.51Z" transform="translate(-121 -67.87)"/><path d="M439,286.11c-.69-1.07-1.39-2.14-2.09-3.21.87-2.67,2.37-5.32,2.47-8,.21-5.39-.35-10.8-.62-16.72l-4.69,3.89c-10.19-4.44-14.71-12.81-16.09-23.31a95.25,95.25,0,0,1-1-10.79c-.11-6,3.28-9.89,10.09-12,5.08-1.59,8.28.51,11.34,4.74,5.32,7.36,7.25,14.42,2.92,23.13-1.52,3.05-.24,7.5-.24,11.31l1.35,0,1.65-4.82c1.27,9.59,2.26,19.43,4,29.14.89,5.07,3.18,9.87,4.54,14.88,1.94,7.13-.54,10.69-7.2,10.33C448.05,296.87,442.9,291.73,439,286.11Z" transform="translate(-121 -67.87)"/><path d="M483.82,271.12c5.32,10.36,4.43,21.13,1.47,30.86-1.46,4.82-8.66,8-13.52,11.63-2.68,2-5.91,3.23-9,4.88-5.92-7.2-5.75-12.27.21-20.07,5.7-7.45,10.83-15.34,16.33-22.95C480.37,274,482,272.84,483.82,271.12Z" transform="translate(-121 -67.87)"/><path d="M287.18,415l-3-1.75c.29,4.12.64,8,.82,11.88.26,5.61-1,6.74-6.71,8.07-2.14.5-4,2.32-6,3.54l-.82-1.07,2.83-4.51c-4-.26-5.12,6.11-9,3.1-2.2-1.71-3.76-4.25-5.91-6.78.86-1.42,1.91-3.13,3.6-5.9l-1.15,6.66,8.84-7.53-9.17-1.36c2.67-6.11,5.29-12.08,8-18.29C278.55,401.48,282.15,409.34,287.18,415Z" transform="translate(-121 -67.87)"/><path d="M378.89,374c-4.67-2.11-11.94-1.94-16.27-8-1.86-2.59-2-5.52.72-7.81,3.24-2.73,4.17-7.62,9.27-8.79,2.85-.66,11.62-.42,13.88,1.62,4.58,4.13,4.77,9.83,5.19,15.24C392,369.68,385.05,374,378.89,374Z" transform="translate(-121 -67.87)"/><path d="M235.77,195.65c-2.29,9.52-4.1,19.22-7,28.57s-6.85,18.07-10.45,27.32c-4-1.85-4.42-3.79-3.39-6.86a32.08,32.08,0,0,0,2-10.13c-.06-8.5,3.22-15.72,7.42-22.76a64,64,0,0,0,4.53-8.64C230.92,198.05,231.5,197.24,235.77,195.65Z" transform="translate(-121 -67.87)"/><path d="M452.6,360c4.78,0,6.9,3,6.38,7-.83,6.28-5,9.56-10.34,11.61-2.66,1-5.69,1.11-8.55,1.62.3-3.06.11-6.27,1-9.15C443,365.05,447.63,361.71,452.6,360Z" transform="translate(-121 -67.87)"/><path d="M410.4,168.12c-10.66,3-24.32-2.76-24-10.31C395.34,159,403.93,160.42,410.4,168.12Z" transform="translate(-121 -67.87)"/><path d="M217.75,483.85H203v-1h14.87Z" transform="translate(-121 -67.87)"/><path class="cls-1" d="M375.5,712c1.11-6.68,2.11-12.75,3.12-18.82l-1.35-.43-8.94,15.57c-.23-2.39-.38-4-.57-6.08l-3.93,3c-.48-3.13-1.35-5.87-1.25-8.58.3-7.9,1-15.78,1.56-23.66,0-.43.53-.81.7-1.26,1.4-3.69,2.28-7.71,4.31-11,1.8-2.94,4.71-5.33,7.51-7.46.57-.44,3,1.16,4.27,2.15.82.62,1,2.09,1.77,2.79,6.9,6.13,9.52,14.31,10.85,23,1.09,7.12.07,14.39-4.43,19.92C385.56,705.41,380.17,708.31,375.5,712Z" transform="translate(-121 -67.87)"/><path class="cls-1" d="M372.17,550c.43,2.48.86,5,1.46,8.33-2.27-3.63-4.16-6.65-6.19-9.91-.29,1.06-.52,1.92-.52,1.94l-6.44.82,8.93,3.46c-1.13,2.23-2,4.05-3.43,6.79-.58-2.49-1-4.24-1.47-6.26-6.18,0-12.22-.83-15.88-8.26l4.64,3.15.78-1.09-8.66-6.75a9,9,0,0,0,.61-3c-.13-3,.89-3.53,3.89-3.15a7.53,7.53,0,0,0,5.72-2.47c4.49-5.43,8.52-11.23,12.87-17.08a74.71,74.71,0,0,1,7.61,3.64c11.49,7,9.74,22.68,2,30.43-2,2-3.57,2.29-4.94-.52l3-1.95a60.83,60.83,0,0,0-6.41-4.93c-1.3-.76-3.08-.69-4.65-1v4.75l1.38-.1-.25-2.19Z" transform="translate(-121 -67.87)"/><path class="cls-1" d="M393.71,615.13l-5.84,5.38c-3.27,3-6.48,3.17-8.77-.55-5-8.19-11.59-15.67-10.27-26.67,1.06-8.9.59-18,.8-27l1.78-.11c2.57,7.59,5.11,15.19,7.74,22.77a9.89,9.89,0,0,0,2,3.94c5.45,5.19,7.43,11.83,8.81,18.91.26,1.3,2.44,2.23,3.73,3.33Z" transform="translate(-121 -67.87)"/><path class="cls-1" d="M259.62,469.08c-7.63,2.46-8.58-4.74-13.17-6.34,4.21-1.39,4.93-5.66,2.32-11.43,4.75,2.27,9.5,4.56,14.27,6.79.68.32,1.76.14,2.15.62a2.54,2.54,0,0,1,.44,2.31C263.42,464.2,261,467.23,259.62,469.08Z" transform="translate(-121 -67.87)"/><path class="cls-1" d="M407,618.69c4.81-.25,5.92,3.12,6.65,5.92.27,1-1.92,3.4-3.47,4.14a138.76,138.76,0,0,1-15.11,6c-1.14.38-3.75-.55-4.08-1.45-.6-1.67,0-3.77.08-5.69,1.48.2,3.24,0,4.41.67,3.77,2.32,11.35-1.56,11.71-6.23A27.55,27.55,0,0,0,407,618.69Z" transform="translate(-121 -67.87)"/><path class="cls-1" d="M355,579.07c-6.74-9.19-1.18-15,3.94-20.5,2.07,3.67,1.65,4.89-2.29,6.63a3.08,3.08,0,0,0-1.57,2.21C354.94,571,355,574.59,355,579.07Z" transform="translate(-121 -67.87)"/><path d="M372.17,550l-6-5.38.25,2.19-1.38.1v-4.75c1.57.31,3.35.24,4.65,1a60.83,60.83,0,0,1,6.41,4.93l-3,1.95Z" transform="translate(-121 -67.87)"/><path class="cls-1" d="M241.11,473.34c7.36-1.64,12,2,16.46,6.29Z" transform="translate(-121 -67.87)"/><path class="cls-1" d="M264.84,452.27l-13.77-4.82.48-1.45,14,4.64Z" transform="translate(-121 -67.87)"/><path class="cls-1" d="M392.67,607.14l-5.85-14.54,1.35-.56,6.06,14.46Z" transform="translate(-121 -67.87)"/><path class="cls-1" d="M323.46,228c-4.26-.17-4.39-1.59-3.08-5,.85-2.18-.39-5.17-.7-7.79l1.62-.15c.37,1.38.75,2.75,1.27,4.7l3.08-11.18c.85,1.85,2.05,3.19,1.87,4.32-.5,3.17.24,6.6-2.38,9.44C324,223.56,324,225.92,323.46,228Z" transform="translate(-121 -67.87)"/><path class="cls-1" d="M344.17,155.2l-16.55,6c-.53-2-1-3.83-1.55-5.92h18.19Z" transform="translate(-121 -67.87)"/><path class="cls-1" d="M327.15,188.6l-7.2-2.3-3.27,4.42c-.54-2.75-.94-4.82-1.47-7.55,3.65,0,7.37-.12,11.05.19C326.62,183.39,326.75,186.12,327.15,188.6Z" transform="translate(-121 -67.87)"/><path class="cls-1" d="M300.72,199.32l-.31-5.12,10.78-6.48c1.1.86,1.78,2-1.12,3.86C306.73,193.76,303.87,196.67,300.72,199.32Z" transform="translate(-121 -67.87)"/><path class="cls-1" d="M398.73,308.34c-.82,1.29-1.42,3.35-2.32,3.5-6.87,1.1-13.78,6.11-20.67-.1,1-5.59,3.1-7.44,9.59-6.64C389.75,305.65,394.05,307.17,398.73,308.34Z" transform="translate(-121 -67.87)"/><path class="cls-1" d="M393,297.37l-17.43,4.93C376.68,293.39,382.24,291.33,393,297.37Z" transform="translate(-121 -67.87)"/><path class="cls-1" d="M395.17,274.24c-1.65,4.69-5.06,4.61-9.75,3.17l7.36-8.79,2.53,5.76Z" transform="translate(-121 -67.87)"/></svg>