<svg id="Layer_1" data-name="Layer 1" xmlns="http://www.w3.org/2000/svg" viewBox="0 0 569 449.96"><defs><style>.cls-1{fill:#fff;}</style></defs><title>HalfFaceMask</title><path d="M446.12,632.22H225.7c-.19-1.66-.26-3.34-.59-5-1.07-5.35-2.73-10.64-3.21-16A131.21,131.21,0,0,1,222,593a5.49,5.49,0,0,0-1.19-4.4c-1.41-1.74-2.85-3.61-1.55-6.66,2.2-5.17,3.9-10.78-1.75-15.27-.07-.06,0-.3,0-.36l10,1.65c-.17,1.91-.36,3.42-.37,4.93a2.47,2.47,0,0,0,1.67.46c2.9-.73,2.6-3.24,2.68-5.09,2.32-1.47,4.14-1.33,5.36,1-.45.34-.89.68-1.34,1-2.81,2-2.41,4.93-1.74,7.55.61,2.39,2.84.39,4.29.83.82.24,1.91-.23,2.63.12,1,.5,2.61,1.63,2.5,2.21-.59,3.09,1.23,5.5,1.92,8.19.2.77,1.11,1.35,1.7,2,.55-.63,1.41-1.18,1.59-1.9.58-2.38,2.22-2.79,4.25-2.59a17,17,0,0,1,2.32.56l1-.32c-3.45-7.79-3.15-15.93-2.93-23.84L243.23,565c1.24-4.31,1.07-4.19-.93-7.23a4,4,0,0,1,.52-3.83c2.34-1.86,1.78-3.3.13-5.06-.25-.27-.14-.87-.19-1.26l4.23-2.05c-1.41-5.2-5.53-7.85-9.35-11.25.14,2.62.26,5,.38,7.29l-.59.16-1-2.85a6.06,6.06,0,0,0-1.4-.63c-4.09-1-5.2-5.64-9-7.34a8,8,0,0,0-4.47-.74c-2.78.33-5.44.6-7.43-2-.08-.1-.34-.06-.65-.11l-.38,2.1L211,529c-.31,4.06-.81,7.79-.81,11.52,0,4.22.54,8.44.65,12.67,0,1.08-.65,2.19-1,3.28l-.69,0c-.75-2.41-1.49-4.83-2.3-7.44-2.82,2-4.4,5.39-8.88,5.74,1.73-2,2.23-4.26,5.33-3.4a41.93,41.93,0,0,0-2.25-5.18c-1.57-2.64-3.74-5-5-7.74-.92-2-2.56-2.8-4-2.54a5.58,5.58,0,0,0-3.42,3.13c-1.6,4.13-2.75,8.44-4,12.62H170.12l.93.88a24.71,24.71,0,0,0,1-2.71c1.61-6.22,4.12-12.39,4.58-18.7,1-13.33,1.11-26.74,1-40.11,0-9.72-.79-19.45-1.62-29.15-.32-3.77-1.11-7.65-3.86-10.76a3.2,3.2,0,0,1-.14-2.9c1.06-2.08.07-3-1.68-3.2-5.71-.8-11.48-2.24-17.15-2-6.31.33-12.48,2-17.14,7.35a46.63,46.63,0,0,1-11,9.3c-7.44,4.5-14.3,9.45-19.46,16.6-3.61,5-9.29,7.69-14.87,8.69-6.41,1.15-12.82,1.78-18.9,4.39A75,75,0,0,1,61,493.19c-6.39,1.66-12.85,3.05-19.32,4.37-4.88,1-9.82,1.69-14.74,2.52V488.69a5.74,5.74,0,0,0,1.55-.68c4-3.47,8.67-2.91,13.39-2.81,4,.09,8-.31,11.94-.6a8.22,8.22,0,0,0,2.33-.89,58.42,58.42,0,0,0,7.3-3.11c2.9-1.68,5.53-3.82,8.28-5.76l-.37-1-3.45-.63,3.87-3.61c-2.39.9-4.31,2.65-6.57,3.49s-4.7,2.26-7.88-.35l19-11.35c1-1.39,1.46-2.39,2.22-2.94a73.13,73.13,0,0,1,6.52-4.28c2-1.16,4-2.56,6.22-3s3.15-1.23,2.83-4c2.43,3,3.73-3.66,6.36.64V442c.88.7,1.44,1.21,2.05,1.62s1.37.8,2.15,1.25c0-3.78,0-3.78,3.43-2.25,1.09.5,4.85-1.13,5.4-2.3,1.44-3.09,1.59-6.88,4.91-9,.19-.12-.17-1.11-.39-2.27l11.44-1.76.3,1-6.59,3.24.25.72c2.58,0,5.17-.12,7.74,0,2.76.17,5.49.58,8.25.89a1.46,1.46,0,0,0,.21-.48c.38-5.95-8.09-12.61-14.07-11q-5.64,1.47-11.25,3.1c-4.19,1.21-8.64,2.27-12.7.8s-7.8-.74-11.67-1.2c-.89-.1-1.89.62-2.83,1-2,.77-4,1.86-6.13,2.25-2.8.51-4.71-2-4-4.82.45-1.91.85-3.82,1.28-5.73l-.73-.47c-2.31,1.62-4.54,3.38-7,4.84-3.26,2-5,2.09-8.36,1,8.92-3,14.6-9.7,20.36-16.19,2.67-3,5.12-4.83,9.12-3a1.28,1.28,0,0,0,1.08-.1c2.81-1.92,6-.51,8.92-.87,1.18-.14,2.53,1,3.81,1.63-.74,1.5-1.2,3.24-2.27,4.46-2.23,2.57-4.77,4.86-7.19,7.27,2.47.67,3.84,3.7,6.43,1.5,1.66-1.42,3.78-2.29,5.69-3.41l.38.51-6.59,5.1c1.79,2.11,4.56,1.72,7.22,1.48,2.5-.22,5-.64,7.47-1,4.2-.61,8.6-.41,12.18-3.37a11.73,11.73,0,0,1,3.38-1.9c1.77-.65,3.88-2.1,4.46,1.51.13.81,1.54,1.54,2.49,2.06a55.67,55.67,0,0,0,5.37,2.5c2.08.85,4.19,1.66,6.33,2.34a43.2,43.2,0,0,0,4.4.89l3.09-5.55c.37,7.52.37,7.52,1,7.61l1.83-8.33a1.65,1.65,0,0,1,.48,1.63c-1.73,6.88-1.57,7.32,4.64,10.46a30.5,30.5,0,0,0,4.32,1.37c-.23-3.86-.52-7.14-.58-10.42,0-2.15-.26-3.93-3.24-4,1.84-4.66,1-8.78-1.74-12.95-1.13,3.13-2.23,6.15-3.31,9.18-.11.32-.3.72-.2,1,.37,1.11.4,1.08.09,1.28-1.17.77-2.33,1.55-4,2.69,1-3.54,1.48-6.93,2.79-10,3.4-7.94,4.5-16.15,4.34-24.73-.08-4.77.73-9.57,1.3-14.35a12.27,12.27,0,0,1,1.44-3.33,15.47,15.47,0,0,0,1.54-3.28c.63-3.11,1.09-6.25,1.51-9.4.69-5,1.28-10.09,2-15.73-.89.8-1.24,1.13-1.59,1.45a6.25,6.25,0,0,1,.9-3.41c.38-.73.9-1.39,1.28-2.12,1.46-2.83,2.94-5.66,4.31-8.54.72-1.51,1.67-3.09,1.75-4.68.29-5.66.29-11.33.3-17a7.93,7.93,0,0,0-.74-3c-1.41-3.32-2.92-6.59-4.6-10.36l2.27,1.05c-1.15-4.71.46-9.46-2.23-13.64-.22-.35-.33-1.15-.13-1.32,1.89-1.61.78-3.58.74-5.42-.11-4.34-1.86-8.61-.34-13,.66-1.92,1-4,1.38-5.47l2.93-3-.51-.49-1.22.57-.74-.49c.71-1.12,1.87-3.3,2.07-3.21,2,.84,1.85-.93,2.38-1.76,2.51-3.87,1.8-9.18,5.68-12.47,2.91-2.47,5.67-5.11,8.49-7.67l.92.8c-1.22,2.16-2.81,4.2-3.57,6.52-.71,2.17-.54,4.63-.76,7a1.59,1.59,0,0,1-.55-.83,1.83,1.83,0,0,0-.35-.44l-.89,0q-1.8,8.35-3.61,16.71l.49.15,14.12-28.35a11.84,11.84,0,0,1-.87,3.29,28.13,28.13,0,0,0-1.25,3.09,15.37,15.37,0,0,0,0,3.12l2.61-4.38c2.42,3.5-.06,6-1.25,8.81l-.75-1.21v6c1.28-2.73,2.24-4.74,3.25-6.89-1.44,10-2.85,19.79-4.25,29.56-.52-3.54-.68-7.13-.92-10.72a20.09,20.09,0,0,0-.6-2.83l2.49-8.77-1.35-.35L195,254.66l.76.18.94-2.64c-1.2,11.39,1.11,22.49,3.1,33l-3.85-.47a5.93,5.93,0,0,0,3,2c2.12.28,1.56,1.92,1.93,3.09a14.63,14.63,0,0,1,.33,1.87l.8-.24-1-7.1.49-.1c.78,2.75,1.56,5.51,2.41,8.53l-3.66-.51c1,2.81,1.85,5.17,2.7,7.52a6.48,6.48,0,0,1,.45,1c.44,2.66.82,5.33,1.27,8,.22,1.32.2,2.86.89,3.88,2.68,3.89,5.82,7.47,8.34,11.45a19.41,19.41,0,0,0,4.49,4.83,18.28,18.28,0,0,0,4.64,2.42c3.64,1.44,7.31,2.8,11,4.05,1.71.57,3.74.45,5.23,1.31,1.25.72,3.82,1.12,2.78,3.7l1.63,1c.18,1.38.26,2,.37,2.84l-1.91-.21c.39.48.84.83.79,1-1,3.5,1.33,4.22,3.86,5.27,3.71,1.55,6.16,4.53,8.36,8.77l-6.31-2.38,2.67,5.67-4.67-1,1-5.11-5.19-.51c-.85,1-1.78,2.87-3.3,3.74-3.58,2.06-9.19,1.23-11.93-1.65-1.29-1.36-1.89-3.35-3-4.94-.57-.83-1.45-1.88-2.3-2-2.12-.26-5,3.18-4.9,5.37a15.2,15.2,0,0,1-.64,3.1c4.07,4.06,9.62,5.13,16,4-.8.94-1.72,2-2.73,2.1-2.59.23-5.24-.2-7.82,0-2.29.22-2.85-.53-2.1-3-.92,1-1.52,1.63-2.06,2.22l-8.31-6L203,364.21c1.53,13,3,25.13,4.4,37.18l1.45-.69c-.11,2.35-.22,4.67-.35,7.53l2.84-1.56c.09,1.19.16,2.21.24,3.24l5,1.39c.58,2.79,1.1,3,4.15.8a1.56,1.56,0,0,1,1-.25c2,.27,2,.29,1.49-1.83a25.48,25.48,0,0,0,5-.06,45.33,45.33,0,0,0,7.26-2.21,8.58,8.58,0,0,0,3.64-2.37c2.54-3.29,4.57-7,7.21-10.19,6.49-7.9,11.47-9.72,22.48-6.62,7.91,2.22,14.61,6.75,21.66,10.67,3.68,2,6.8,5.4,11.61,5.25,1.51-.05,3.09,1,4.57,1.65,1.78.81,3.7,2.73,5.18,2.42,2.25-.47,1.81.84,2,1.65.81,0,1.47-.28,1.92-.07,1.07.52,2,1.32,3.07,1.87,4.05,2.13,8.15,4.18,12.21,6.3,2.63,1.37,5.09,3.36,7.88,4a16.71,16.71,0,0,1,6.64,3.08v-2.54c2.48.65,4.69,1.38,7,1.76a5.78,5.78,0,0,0,3.65-.43c1.51-.91,3.94-1.37,3.42-4.11a6.45,6.45,0,0,1,.94-.32c-.08,1.43-.14,2.67-.21,4l6.73-.86-2-1.5,4.69-1.93h-3.82c-.77-2.2,5.56.11,2-3.53a25.68,25.68,0,0,0,4.54-2.18c1.15-.85,2.91-2.95,2.67-3.29-1.52-2.18.7-1.86,1.5-2.47l-2.22-3.57c1.14.71,1.63,1.2,2.19,1.3s1.4-.14,1.5-.45c.49-1.42.77-2.92,1.11-4.34-3.6,2.44-2.33-3-5.26-3.14,2.55-1.73,4.51-3,6.43-4.4.34-.24.79-.79.72-1.1-.42-1.82.75-1.79,2-2.24a4.71,4.71,0,0,0,2.5-2.52c.25-.65-.71-1.77-1.36-3.19.22-1.06,1.83-2.16,2.75-3.42,1.71-2.35,5-3.52,7.35-5.46a10.42,10.42,0,0,0,3.25-4.19c1.77-4.8,3.22-9.72,4.72-14.61,1.88-6.12,3.3-12.42,1.62-18.7-1.54-5.76-2.57-11.76-5.76-17a3,3,0,0,0-.34-.45c-1.54-1.67-2.11-3.85-4.9-4.84-2.27-.81-3.42-4.33-5.55-6-2.4-1.94-5.77-2.67-7.26-5.81-.05-.09-.72.11-.9.13-.16-1.27-.28-2.28-.44-3.54l1.57-2.14,5.38.47,0-.54-7.94-1.51,1,1.86c-2.05-.67-3.83-1.16-5.52-1.86-.77-.32-1.28-1.43-2-1.6-4.77-1.06-9.58-1.93-14.36-3-.51-.11-.83-1.05-1.25-1.61l12.85.69-2.39-1.39,3.75-1.43,0-.6-2.32-.57.63-1.14-6-.35,0-.58,1.74-1.09-.18-.32-2.26.57,1.29-1.47c-3.2.38-6.23,1.13-9.12-.75l1.23,1.3-2.54,1.54-1.08-2.22h-3.54l3.29,2-.18.75c-3.81-.78-7.95,1.76-11.5-1.75a2.16,2.16,0,0,0-1.21-.46c-3.17-.39-6.34-.72-9.51-1.09-2.09-.25-4.18-.53-6.27-.79-.06.31-.11.62-.17.94,10.79.87,20.78,4.84,31.08,7.58H342.86l-.12.56,4.93,2-.42,1L337,288.93l-.76.95,2.81.22-.83,1.18c-3.52-1.57-7.48-.51-11-2.42-2.28-1.24-5-1.78-7.17-3.14s-5.17-.69-6.5-3.64c-.52-1.15-4.7-1.35-6-1.37a29.07,29.07,0,0,1-7.15-.83c-2.79-.75-5.4-2.15-8.16-3-2.55-.83-5.2-1.37-7.81-2l.06-.56,3.16-.6c-1.94-1.12-3.48-2.76-4.87-2.64-2.45.21-3.74-1-5.24-2.35a28.65,28.65,0,0,0-2.57-1.85v3c-1.73-1.15-3.42-2.18-5-3.35s-2.89-2.34-4.35-3.48a7.14,7.14,0,0,0-2-1.25c-2.14-.67-4.57-.81-6.45-1.9s-3.26-3.2-5-4.7c-.46-.39-1.44-.18-2.18-.25l0,.52,7.16,5.42c-7-1.84-11.83-5.59-16.22-10.19l-.64,1.49-1.1-2.47-.72.24,1.89,4.5-.9.47c-1-1.8-1.85-3.62-2.87-5.37-.27-.46-.9-.71-1.36-1.06a8.06,8.06,0,0,0-.54,1.59,5.66,5.66,0,0,0,.15,1.46l-.68.17-2.22-7.94-1.19.15c.27,3.63.54,7.27.76,10.19a67,67,0,0,1-11-23.23l-4.11-2.24,1.85-2.23-.9.06c-.37-1.35-.73-2.69-1.09-4l-2.34,1.91c.49-1.58.78-2.5,1-3.42.56-1.86,1.9-3.93,1.47-5.53-.78-2.92-2.06-5.63-1.32-8.76.28-1.16,0-2.64.64-3.47s2-.73,3.22-1.09l-2-4.41.8-.43c.73,1.09,1.47,2.17,2.26,3.34.23-3.11-.49-6.39,2.41-8.93s5.5-1.64,8,.24l-2.25-4.73,2.8-.71-1-2.95,4.27.53-1.09-1.76h63.22c1.24,2.45,3.8,3.48,6,4.4a34,34,0,0,1,9.67,5.58c3.29,2.91,7.49,4.59,11.33,6.74,6.23,3.48,11.45,8.63,18.43,11,2.77.93,5.24,2.75,7.91,4,.45.21,1.23-.24,2.5-.53l-5.69-3.18.63-1c2.66,1.88,5.32,3.78,8,5.63a9.88,9.88,0,0,0,2.35,1.27c1.37-1.88,2.18-.09,3.17.38l2.07,1,.27-.47c-1.49-1.16-3-2.33-4.58-3.6.3-.7.64-1.46,1-2.22-9.47-3.79-10.73-4.52-11.6-6.3l4.61.76-.1-.09,6.39,4.69c.5-1.17.86-2,1.24-2.92,2,1,3.89,2.1,5.92,2.95s4.06,1.36,6.1,2c-.84-1.17-1.68-2.48-2.74-2.7a10.25,10.25,0,0,1-6.68-4.87c-.71-1.07-1.24-2.52-2.26-3.09-4.09-2.29-8.39-4.2-12.5-6.47a39.66,39.66,0,0,1-4.88-3.76l.65-.8,43.78,24.19-2.49-2.75c1.57.58,3.67,1.23,4,2.42.7,2.29,1.25,1.24,2,.34a4,4,0,0,0,.64-1.1c-1.95-1.62-3.82-3.19-5.71-4.74-.19-.15-.54-.09-.77-.21a52.19,52.19,0,0,1-4.85-2.74c-1.21-.83-2.13-2.08-3.32-2.95-1.34-1-2.6-3.63-2.11-4.58l6.11,5.19.51-.54-8.81-9.06.85-.78,15.84,15.66.59-.58c-3.07-3.34-5.92-6.92-9.25-10-6.09-5.59-12.45-10.86-18.71-16.26h2.28c3.31,2.63,6.6,5.28,9.92,7.9,1.06.84,2.19,1.58,3.29,2.36l.85-1L372,185.9a21.41,21.41,0,0,1,4.87,3.06c1.95,1.41,3.86,3.5,6,3.86a14,14,0,0,1,6.6,3.16c5.77,4.58,10.66,10.1,15.9,15.25.68.68,1.41,1.3,2.12,1.94l.81-.65a29.26,29.26,0,0,0-2.63-4.32c-6.51-7.43-12.21-15.65-21.3-20.49-2-1.07-3.26-3.6-4.86-5.45h4c4.32,3.41,8.67,6.78,12.95,10.24,2.38,1.92,6,2.4,7,5.94.05.17.77.12,1.16.23a4.67,4.67,0,0,1,1.87.66c2.63,2.52,5.15,5.16,7.79,7.66a10,10,0,0,0,2.39,1.25l.4-.77-14.14-13.39.66-.79,8.69,6.45.67-.85-19.19-16.63H396c10.6,7.39,18.62,17.49,27.26,26.27.37-1.52.75-3,1.1-4.42l-5.52-8.06.66-.55a42.53,42.53,0,0,0,5.15,4.37c1.73,1.07,3.82,1.57,6.46,2.59-4.22-6.64-8-12.58-12.12-19.06l9.8,5.71c-.72-2.43-1.38-4.64-2-6.85h10.82c3.49,2.59,6.92,5.22,7.92,9.83,0,.08.15.13.18.21.47,1.21,1,2.41,1.4,3.63.56,1.56,1.15,3.12,1.6,4.71,1.35,4.66,3,9.28,3.85,14a157.33,157.33,0,0,1,1.74,15.65c.37,4.29,2.43,8.41,1.07,12.92a6.63,6.63,0,0,0,.51,4.34c.73,1.56,2.86,2.83-.43,3.9-.37.12-.61,1.15-.63,1.77-.08,2.56-.11,5.12-.06,7.69,0,1.66.17,3.26-2.52,2.5,1,3,1.58,5.77,2.87,8.18a116.32,116.32,0,0,1,9.48,24.63c.5,1.86.07,4,.07,6l-.74,0c-.48-.63-.95-1.27-1.94-2.6.3,2.1.49,3.35.67,4.61l-.76.15a26,26,0,0,0-1-3.84,19.37,19.37,0,0,0-2-3.25c-.39-.56-1.05-.95-1.34-1.55-2.36-4.9-4.42-10-7.07-14.72-2-3.64-4.85-6.82-7.21-10.29-1.27-1.86-2.3-3.88-3.44-5.83A88.07,88.07,0,0,0,444.39,277c2.86,5.87,6.33,11.46,9,17.42,2.75,6.12,4.91,12.52,7.21,18.84,1.76,4.81,3.38,9.67,5,14.54a6.73,6.73,0,0,1,.12,2.42c0,1-.52,2.16-.23,3.07,2.22,7.1,4.73,14.12,6.86,21.26,1.15,3.88,1.74,7.93,2.59,11.9l-1.43.42-3.56-12.11-1,.29c.38,2.13.77,4.26,1.15,6.37l-2.35.6,2.34,3.29-1.05.6c-.91-1.71-1.81-3.42-2.8-5.3-.93,4.35,3.76,5.92,4.32,9.58-3.16-1.72-4.27-5.83-7.48-6.17,1,2.91,2,5.93,3.22,8.8.29.67,1.69.85,2.58,1.25l1-.77a28.36,28.36,0,0,0,.57,5.57c1.27,4.13,2.89,8.16,4.28,12.27a7,7,0,0,1,0,2.29c-2.56-.47-1.63,1.47-1.78,2.62s-.24,2.39-.37,3.71l-2.26-.93c2,1.71,2.26,3.66,2.09,6.12-.49,7.19-.65,14.4-.93,21.55H466c-.79-4.22-1.38-8.29-2.36-12.26-.93-3.74-.47-8.08-4.54-10.74.46,7.46.91,14.92,1.37,22.48l-7.7.45c0,.15,0-.26.17-1.11-1.7,1.32-4.31-1.71-5.24,2l-.94-1.81-.83.43c.41.63.79,1.27,1.23,1.88s1.05.88,1.09,1.36c.23,2.45.28,4.91.41,7.36q.22,4.56.46,9.1l.87,0c-.22-4.95-.44-9.9-.67-14.88L451,432l-.42,9.23,1.22,0q-.41-4.61-.82-9.21c1.15-2.23-1.1-1.86-2-2.35l.46-2.62,2.42.13c.25,5.05.51,10.48.78,15.9.09,1.75.27,3.5.27,5.25,0,.29-.74.58-1.56,1.17-.37,2.85-.37,2.85.72,3.06v-2.33l.43-.06.78,2.43c1-.14,1.89-.21,2.78-.4,2.86-.61,5.71-1.27,8.56-1.91l-.07.06,2,.11-.3-2,5.51,1.29c-.72.2-1.54.38-2.32.64s-1.56.64-2.72,1.12c16.6,13.24,20.88,31.39,22.65,51.22a15.33,15.33,0,0,0,3-1.36c1.06-.78,1.88-1.88,2.87-2.76,1.88-1.68,2.95-1.43,3.53,1,1.2,5,3.15,10.18-2.64,13.87-.46.29-.73.86-1.16,1.2-6.27,4.9-7.81,11.39-6.39,18.88a1,1,0,0,1-.08.62c-2.61,4.17-5.28,8.3-7.84,12.5a19.17,19.17,0,0,0-1.24,3.52c2.23-.7,3.95-1.79,5.44-1.54s3.76,1.09,2.4,4l1.09-.18c.17-.92.33-1.84.55-3.09l3.79-3.08c.41,1.2,1.24,2.36.95,3-1.94,4.31-4.14,8.51-6.19,12.76A23.69,23.69,0,0,0,486,566c-1.12,3.91-2.1,7.86-3.25,11.77-1.62,5.48-1.22,11.46-4.12,16.63-.12.22,0,.57,0,.84-1.28,6.92-2.5,13.86-3.87,20.76-1.08,5.44-2.35,10.85-3.53,16.27h-8.54a22.32,22.32,0,0,1,1.64-10.41c1.92-4.21,3.67-8.5,5.18-12.87,3.15-9.19,5.94-18.5,9.18-27.65,1.91-5.39,4.49-10.54,6.5-15.9.4-1.06-.4-2.57-.65-3.87-1,.25-2.18.21-2.83.8a14.92,14.92,0,0,0-3.6,4.35c-3.88,8.39-9.58,15.49-15.39,22.54-2.83,3.43-5.54,6.95-8.25,10.35l1.52,1.4c-1.52,3.4-2.83,6.33-4.12,9.2l-1.66-1.24c-1.92,2.24-2.3,5.41-5.1,6.92-.52.28-.09,2.3-.1,3.52a31.76,31.76,0,0,0,3.52-.09,6.22,6.22,0,0,0,1.79-.85l.72.52Q448.55,625.59,446.12,632.22Zm-66.7-390.71.62.46a1.26,1.26,0,0,0,.51.11l.63.46a46.77,46.77,0,0,1,5.16,3.32c1.93,1.61,3.51,3.62,5.39,5.28,2.89,2.55,5.92,4.94,8.88,7.4l-.34.3-14.73-8.63,3.09-.31c-1.3-1.51-2.44-2.68-4.47-2.36l2.53,2-4.34-1.18c.74,1.08,1,1.8,1.51,2.15,2.37,1.62,4.94,3,7.2,4.71,6,4.61,11.88,9.27,17.64,14.11,4.32,3.64,6,9.14,8.94,13.75,1.31,2,2.81,4,4.22,6,.62,5.9,4.44,10.36,6.58,15.58l.89-.4q-3.75-7.58-7.51-15.14L420.39,284c3.92,3.09,4.07,8.78,9.2,10.05a3.79,3.79,0,0,0-.25-1.21c-1.66-2.85-3.33-5.69-5.07-8.5-1.09-1.75-2.28-3.44-3.49-5.11-.31-.43-1-.57-1.31-1-4.36-5.56-9.58-10.49-12.73-17a21.74,21.74,0,0,0-2.95-4.77c-1.81-2.09-4.25-3.67-4.92-6.63,0-.13-.82-.06-1.25-.13s-1.11-.06-1.37-.35c-1.09-1.21-2-2.62-3.1-3.79-2.3-2.39-4.69-4.69-7.08-7-.29-.27-.86-.26-1.74-.5l3.2,3.51-.51.49a10.21,10.21,0,0,1-1.08-.73c-2.71-2.31-5.24-4.89-8.15-6.92-5.24-3.65-10.68-7-16.09-10.4a5.83,5.83,0,0,0-2.3-.32l-.2.62,7.28,5.45-3,.42,1.18,1.51L364,233l-2.76-2.37-2.9-2.85,4.84,1.78.42-.89L356.08,225a10,10,0,0,0-1.79-1.17c-2.14-.84-4.73-1.09-6.37-2.48-2.58-2.19-4.53-5.11-8.43-5-.22,0-.46-.29-.66-.48a24.9,24.9,0,0,0-2.92-2.72q-4.49-3-9.16-5.73c-2.48-1.46-5.15-2.6-7.58-4.15-3-1.92-5.86-4.12-8.35-5.89l-4.63-1.18,7.37,6.43-.63.74-7.15-5.19-.2.31,2.84,3.23-.69.82-15.47-11.82-.47.61,14.55,13.45-.53.67c-2.64-2.11-5.29-4.21-8.23-6.54L294.81,201l-2-2.15-.11,1.36c-1.51-.41-3,1.61-4.64-.19-.52-.58-1.78-.5-2.71-.71l-.08.51,6.61,3L288.93,204c7.7,3.64,14.91,7.27,22.3,10.5s14.68,5.93,22,8.87l-.13.54-10-2.91a3.36,3.36,0,0,0,2,1.72c1.14.37,2.35.51,3.51.81,4.68,1.2,8.39,5.59,14,4,1.21-.35,2.86,1.1,4.38,1.4a20.11,20.11,0,0,0,4,0v.54l-2.06.27,2.07.92,1.75,1.22c2.61.85,5.21,1.72,7.83,2.52,1.26.39,2.61.52,3.84,1,2.75,1,5.45,2.17,8.17,3.26l6.29,3,.27-.07.28,0ZM444.1,425.73h-3.69l.84,5.4.37-.05c.12-1.47.24-2.94.38-4.68l1.15,1.27,1-2c.76,1.86-.58,4.7,2.44,5.43.24,2.83.57,5.63.69,8.44s0,5.36,0,8l1-.07q-.47-9.56-.94-19.11l-.77,0-.16,1.51h-.82a21.51,21.51,0,0,0-.07-3.41C445.43,426.22,444.58,426,444.1,425.73ZM272.43,261.36l-7.55-4.56-.7,1.21,7.59,4c.15,1.49-.06,3.12,1.88,3.77,4,1.37,8.07,2.8,12.11,4.2l.29-.75C281.74,266.23,278,262.26,272.43,261.36Zm143-8.94c5.25,4.47,9.2,10.06,12.95,15.74,4.59,6.95,8.81,14.14,13.17,21.24a23.54,23.54,0,0,1,1.16,2.43l-.43.63-17.17-8.31a53.29,53.29,0,0,0,8.45,5.2c3,1.55,6.57,2.4,6.81,6.7.05.94.1,1.88.14,2.65,1,.21,2.28.13,2.52.61a71.79,71.79,0,0,1,3.61,8.3c1.12,3.13,1.83,6.41,2.94,9.54s2.6,6.4,3.92,9.6l.85-.33-5.47-14.05.67-.35a5.8,5.8,0,0,1,1.08,1.39c.91,2.59,1.6,5.26,2.64,7.79s2.38,5,3.63,7.49,2.54,4.94,3.82,7.41l.65-.33-6.59-16.17.62-.24,5.32,8.18.81-.39a11.81,11.81,0,0,0-.4-2c-.75-2-1.66-3.94-2.36-5.94-1.83-5.21-3.5-10.45-5.44-15.63-4.39-11.74-11.21-22.15-17.69-32.71a121.77,121.77,0,0,0-23.59-28.31c-5.25-4.57-11-8.59-16.48-12.86l-.57.69,2.14,2.45-1.41-.07c3.65,3.14,7.35,6.26,11,9.48,2.79,2.48,5.53,5,8.15,7.67.54.55.46,1.71.66,2.58-1.61-1.52-3.2-3.06-4.82-4.57-2.94-2.76-5.77-5.65-8.87-8.22-2.28-1.88-4-4.78-7.5-4.86-.18,0-.35-1-.57-1.7l-4.86-1.84c2.77,2,4.48,5.11,7.49,6.76a14.28,14.28,0,0,1,2.18,1.73c1.4,1.19,2.7,2.51,4.17,3.59a79.44,79.44,0,0,1,14.94,14.25l7,8.75a12.47,12.47,0,0,0-2.22-4.39C420.15,258.79,417.79,255.61,415.44,252.42Zm-112.88-3.59-.91-1.53,8.4,2.86.17-.5-9-3.64.29-.78c2.67.94,5.41,1.72,8,2.87,5.47,2.42,10.85,5,16.27,7.58a5.25,5.25,0,0,0,1.28.53c3.5.62,7,1.17,10.52,1.84.41.09.7.8,1.12,1.3-2.21,0-4-.07-5.72,0-1.57.09-3.13.38-4.7.58l.52,1.45c6.17-.87,8.71-.09,13.91,1.51,5.37,1.65,8.82,7.05,14.95,7.07,1.21,0,2.51,1.15,3.59,2a7.64,7.64,0,0,1,1.36,2.17c3.77.15,5.66,3.71,8.61,5.45l-2.83-1.05c3,2.45,6.31,4.36,9.41,6.53,4.3,3,9.63,4.1,13.45,8.07,4.51,4.7,9.51,8.93,14.29,13.36a35,35,0,0,1,3,2.83c2.36,2.77,4.63,5.63,6.93,8.45l1-.71c-3.39-5.26-6.79-10.51-10.32-16l4.13-.74c-3.05-.65-6.93,1.28-7-3.88-3.56,2.22-6.08.95-8.25-1.66a13.49,13.49,0,0,0-1.57-1.93c-.95-.8-2-1.4-3.05-2.12a45.86,45.86,0,0,1-3.79-2.81c-1.08-1-1.79-2.44-3-3.09-1.74-.95-3.92-1.1-5.64-2.07a50.68,50.68,0,0,1-5.7-4.27,57.06,57.06,0,0,1-4.47-3.55c-1-.94-1.53-2.56-2.66-3.2-1.93-1.1-4.27-1.46-6.24-2.5-3-1.6-5.9-3.51-8.84-5.29l.2-.69c6.62-.21,12.71,2.64,19.07,3.92,5.35,1.07,9.76,4.06,13.66,8.28l-2.49.29c1.15.45,2.57,0,3.33.55,1.21.83,2,2.3,2.91,3.49l-.47.3c3.63,2.79,7.39,5.71,11.2,8.56a4.73,4.73,0,0,0,1.74.38c-2.15,3.61-4.25.75-6.45,0l1.73,1.65-1.08.73,7.63,4.87,1-1.06-4.56-4c0,.23.89.12,1.42-.37.35-.33.18-1.22.24-1.86-.65-1.76-1.41-3.29-3.46-4-.74-.27-1-1.8-1.22-2.17a35.71,35.71,0,0,1-3.18-2.66c-1.41-1.51-2.69-3.13-4-4.7a5.47,5.47,0,0,0-1.88-1.66c-1.33-.58-2.74-.95-4.12-1.4l.2-.59,2.51-.56-3.92-.55c.59-.75.88-1.13.86-1.11l-12.44-7.31.51-1.25a28.58,28.58,0,0,1,4.64,1.62c1.76,1,3.39,3.39,4.93,3.27,3.76-.29,5.42,2.66,7.54,4.3,4.81,3.74,9,8.33,13.28,12.67.64.63.6,1.95,1.24,2.59A18.7,18.7,0,0,0,404,287.7a68.35,68.35,0,0,0-8.84-12.09c-3.47-4.08-7.68-7.14-11.85-10.43-3.84-3-8.08-5.26-11.87-8.11l.77-.28c-3.38-1.38-7.05-2.83-10.67-4.4-1.39-.61-2.59-1.67-4-2.21-4.82-1.84-9.75-3.42-14.53-5.36a49.54,49.54,0,0,1-6.34-3.73l2-.39-7.67-3a4.42,4.42,0,0,1-1.41.43,11.29,11.29,0,0,1-2.22-.26l-.14.69,13.2,5.94a1.78,1.78,0,0,1-1.53.37c-8.67-3.22-16.61-7.88-24.54-12.54a1.24,1.24,0,0,1-.44-.34c-2-2.87-5.21-3.47-8.32-4.3l2.58,1.76c-.81.21-1.57.68-2,.47-2.8-1.47-5.58-3-8.28-4.67s-5.55-3-8.76-3l-.29.86,4.34,1.58.08.78-4,.45.13,1.28c-1.93-1.05-3.67-2-5.39-2.92-3.66-2-3.65-2.06-5-1.66l1.85,2.1-9.1-2.62-.1.41,13.21,11.16c-4.31-1.93-8.32-4.21-12.42-6.34a5.23,5.23,0,0,0-2.74-.14c-.22,0-.38.77-.56,1.19l-.62-1.39-4,1.5c1.19,2.51.33,6,3.13,8.35-.12-2.11-.22-4-.36-6.44l3.18,4.73-2.58-1.49c1.28,3.75,4.23,4.54,7.59,5.09L274,240.05l4.83,4.37-4.37-.84,3,2.44c.57-1.31,1.6-1.1,2.12-.26.32.52-.21,1.56-.35,2.34l-3-1.63-.33.52,3.76,3.27-.3.37-7.41-4c-.86,4.38,3.67,6.22,5.55,9.82l-2.64-1.07c1.34,1.64,2.38,3,3.51,4.23.19.21.74.06,1.09.17a5.87,5.87,0,0,1,2,.81c1.13.92,2,2.29,3.21,3,2.71,1.48,5.6,2.64,8.34,3.9l-1,1.83,2.89-1.62c.45,1.3,1.07,2.26,2.29.72,1.66,1.93,3.71,1.76,5.87,1.09a.45.45,0,0,1,.28,0c3.23,1.09,6.42,2.33,9.71,3.2,1.35.36,2.91-.06,4.36-.2,0,0,0-.84,0-1.68l5.53,3.29-.2.37-4-1.14,1.79,2.28-5.79-.45,1,2.09-8-2.16-.19.7,2.28.83a106.61,106.61,0,0,0,29.86,3.94l-8.79-1.83c1.21-.78,1.75-1.13,2.52-1.61l-6.39-.86,2.7-1.08-9.72-6.31V270h-7.26c-2.51-2.36-4.48-4.21-6.44-6.07l.3-.52,9.85,5.6.95-1.1c-2.86-1.6-3.21-2.22-2.24-4.07,5.33,3.18,10.7,6.29,15.95,9.59,2.27,1.43,2.62,1.61,4.19.33-2.26-1-4.83-2-7.14-3.33-3.21-1.88-6.56-3.71-9.21-6.24-1.81-1.73-2.92-4.1-5.76-4.53-.3,0-.47-1-.7-1.48l13.17,2.19.17-.78c-2.78-.81-5.6-1.52-8.34-2.47-4.78-1.64-6.4-2.82-6.11-4h-3.36l2.49,1.59-.2.68L304.43,254l.88-1-2.45-1.4.81-.92ZM472.68,534.51l.6-.75c.18-2.33-.22-4.93.66-7a143.91,143.91,0,0,1,6.91-13c2.36-4.19,5.53-7.81,6-13.09.53-5.93-.78-11.16-2.58-16.73-3.15-9.7-9.83-15.8-18.09-20.75-2.4-1.44-3.3-.82-3.46,2a9.77,9.77,0,0,0,0,1.71c1.34,13.76-1.22,27.19-3.59,40.62-.75,4.21-2.24,8.3-3.21,12.48-.38,1.67-.85,3.49,1.6,4.48A14.28,14.28,0,0,1,462,527.6c1.1,1.08,1.85,1.64,3.6,1.26,3.56-.77,5.07.57,5.6,4C471.34,533.46,472.18,534,472.68,534.51Zm-27.27-1.63c.74-.87.92-1,1-1.15,1.85-7.16,6.86-12.94,8.72-20.1.1-.35.44-.65.51-1,.83-3.87,1.85-7.73,2.35-11.65a70.65,70.65,0,0,0,.07-8.84l-1.24.64c1-8.91,3.14-17.42.05-26a7.42,7.42,0,0,0-1.59,3.28c-.55,3.25-.66,6.6-1.48,9.78-1.22,4.78-3.09,9.39-4.33,14.17-1,3.9-1.47,8-2.18,11.93l-.36.06V487.7l-1.17-.12-1.6,6.31c-.26-.59-.52-1.16-.78-1.73l-.6.1v7.29l-.71,0-1.59-12.22-2.73,1.21c-.46-.09-1.35-.52-1.66-.26a3.23,3.23,0,0,0-1.2,2.11c0,2.44.53,4.89.38,7.32a17.42,17.42,0,0,1-1.48,6.58c-1.15,2.28-.61,4.19-.33,6.27h.92c-.09-1.72-.19-3.44-.28-5.16l1.16-.2c.95,3.45,1.91,6.9,2.79,10.09l2.8-.67c.28-.6.86-1.8,1.44-3l.75.25v18.78c-.83.63-1.72,1-1.92,1.53-.44,1.25.85,3.44,2.7,4.32.72-7.46,1.43-14.71,2.14-22l.83.08C448.82,520.57,445.82,526.27,445.41,532.88ZM264.8,394.25c-1.09,6.47-2.27,12.82-3.15,19.2-.27,1.92.55,4,.43,5.94-.2,3.28-.77,6.53-1.16,9.8-.27,2.24-.51,4.48-.76,6.72,1.69-1,3.34-2.08,3.76-3.5,1.29-4.3,2.09-8.73,3.09-13.11,1.54-6.76,3.2-13.47,7.07-19.38,1.18-1.8,2.25-3.65,3.35-5.44-7.24-5.69-9.28-5.52-13.47-5.55,1.67,1.31,1.42,2.48-1.16,4.7Zm-47.54,79.89c-.36-1.43-.38-2.68-1-3.56a26.87,26.87,0,0,0-3.64-4.27c-4.45-4.36-9.06-8.56-13.42-13-.86-.88-1.1-2.57-1.2-3.91-.19-2.38,0-4.79,0-7.18l-1.12-.12q-.5,3.78-1,7.59c-2.74-.94-1.7-2.93-1-5.42l-7.2,5,26.83,31c.24-.6.45-1.08.84-2l3.73,7.46c2.34-4.18-2.07-6.85-3.32-10.77l5,1.79.19-.47ZM347.5,489l-3.33-1.59c-1.86.72-5.19-3.67-7.6.09-1.4-.76-2.07-.68-2.71.92a21.7,21.7,0,0,1-2.48,3.72c-.3.45-.61.9-.86,1.37-1,2-1.81,4.12-3.14,5.86-1.68,2.2-4.39,3.75-2.74,7.28a49.51,49.51,0,0,1,1.95,6.23c1.59-1,2.89-1.43,3.69-2.34s1.06-2.59,1.93-3.58a49.16,49.16,0,0,1,6.35-6.39c2.33-1.82,3.66-4.46,5.93-6.29C346.25,492.88,348.1,491.36,347.5,489ZM200.67,344.22c2.24-2.76,4.05-4.36,6.9-2l-.5-2.64,5.3,4.07c.19-3.78.56-4.07,2.54-2.89l2-2.36c1.81,3.38,3.83,4.77,4.8,4.16.17-1.59.3-2.76.43-3.95-2.58-1.81-5.11-3.83-7.87-5.46a47,47,0,0,0-7.34-3.39c-2.71-1-6.48.13-7.67-3.67a28.11,28.11,0,0,0,3.27-2.17,12.25,12.25,0,0,0,1.66-2.6,23.46,23.46,0,0,1-3.26-2,15.21,15.21,0,0,1-2-2.69c-.56-.75-1.16-1.46-1.51-1.9A81.34,81.34,0,0,0,200.67,344.22ZM347.74,514.44l.26.14-3.22,9.17c3.4-5,6.18-9.88,9.65-14.13s9.14-4.64,13.76-5.38c-2.95-1.18-6.44-2.63-10-3.95-.48-.17-1.22.2-1.78.45-8.08,3.67-13.56,9.52-15.64,19.2l3.54-3.09v3C345.56,517.93,346.65,516.19,347.74,514.44Zm69.14-17,3.52-13.51c.79,1.59,1.67,3.38,2.56,5.16.45-1.77.07-3.61.53-5.19,1-3.36.19-6.43-.77-9.56-.56-1.86-1.12-3.73-1.65-5.6s-1-4.08-1.73-6c-.36-.89-1.42-1.51-2.17-2.25a28.31,28.31,0,0,0-.58,9.55c1.14,7,.21,13.77-1,20.6C415.23,492.61,414.69,494.81,416.88,497.44ZM186.06,471.32c-1.81,3.94-.33,28,2.29,31.76.78-3.33,1.67-6.3,2.13-9.34.75-4.93,1-9.95,1.9-14.85.42-2.24-.17-3.34-1.89-4.41C189,473.57,187.65,472.47,186.06,471.32Zm43.2,1.66a10,10,0,0,1-.71-1.87c-.55-3.32-1-6.65-1.51-9.8-2.35-.28-3.19.21-3.78,2-1.22,3.66-2.89,7.18-4.42,10.88l1.4.62L221.6,472c.64,1.85.75,4.08,1.71,4.54,2.9,1.39,6.14,2.09,9,3V465.24l-1-.15C230.66,467.63,230,470.16,229.26,473Zm-143.81-.29c1.33,2.3,1.31,2.24,4.23,1.45a6,6,0,0,1,2.37.29c4.1.66,5-.26,3.81-4.35a14,14,0,0,0-1.68-3.38c-2.18-3.5-4.93-3.33-6.92.33a2.79,2.79,0,0,1-1.5,1.2,15.29,15.29,0,0,0-10.4,9.37,11.05,11.05,0,0,0-.3,2.67Zm269.88-19.78c.93.76,2,2.39,3.33,2.54s2.66-1.24,4.61-2.29v5.73l3.06-3.07L379,467.49c1.58-.94,1.42-2.86-.3-4.36q-3-2.64-5.87-5.46c-3.82-3.77-7.57-7.59-11-11.07C359.45,448.85,357.51,450.76,355.33,452.91ZM262,486.18a24.38,24.38,0,0,0-1.49-3.95c-1.24-2.23-5.1-3.23-8-2A5.43,5.43,0,0,0,249,486c.21,3.38,1.94,5.86,4.78,6.43a63,63,0,0,1,4.68-4.72C259.41,486.94,260.77,486.69,262,486.18Zm19.32,82.24c.82-1.12,4.78,1.35,3.29-2.91-1.7,0-3.59.36-5.27-.08-3.63-.94-2.51,1-2.11,2.1l-3.27,5.58,2.86,2-3,.3-.07.74,10.65,1.54.14-.62L281.75,576l5.68-4.17ZM439.5,302.26l-1.12.86c7.6,16.53,13.38,33.84,21.9,50a1.81,1.81,0,0,0-.14-1.58c-1.05-2.21-2.27-4.34-3.14-6.62-.62-1.64-.61-3.51-1.16-5.19-1.27-3.91-4.22-7-4.3-11.64-.06-3.13-2.48-6.21-3.79-9.33-1.53-3.65-2.86-7.39-4.55-11A42.43,42.43,0,0,0,439.5,302.26ZM242.33,535.08c-2.87-7.52-5.56-14.71-8.37-21.85-.8-2.05-1.63-4.48-4.79-2.81.57,1.72,1.15,3.56,1.8,5.38,1.44,4.11,3.25,8.12,4.29,12.32C236.25,532.1,239.15,533.43,242.33,535.08Zm-26-28.51c-1-5.41-1.89-10.36-2.79-15.32l-.42,0v9.4h-.28c-.52-1.83-1.05-3.65-1.57-5.48l-.8.05.44,6.6-.87.08c-.41-3.21-.82-6.43-1.23-9.61-2,.82-1.86,13.24.27,15.7C211.33,507.66,212.86,504.53,216.3,506.57ZM343.35,237.51l-13.52-7.06c2.94.13,5.35,2.21,8.24,2.12a8.91,8.91,0,0,0-3.43-2.36c-3-.86-6.3-1.12-9.24-2.23-4.4-1.66-8.62-3.78-12.87-5.81-3-1.44-6-3-8.95-4.58a3.16,3.16,0,0,0,1.49,2.08c4.45,2.43,8.94,4.81,13.41,7.19a26.31,26.31,0,0,0,3.06,1.51c1.34.51,2.79.77,4.12,1.3a25.78,25.78,0,0,1,4.49,2.16c1.06.68,1.74,1.93,2.79,2.61,2.55,1.65,6,1.54,8.18,4C341.25,238.63,342.33,238,343.35,237.51ZM95.27,464.2c.82,2.26,1,4.55,2.17,5.68,4.2,3.9,4.11-2.82,6.79-3.17a6.23,6.23,0,0,0,0-3.12c-.27-.87-1.23-1.53-1.9-2.25a2.65,2.65,0,0,0-3.91-.25c-.43.38.25,2,.44,3.11Zm354.58-7.59c-.52,8.3-1,16.3-1.52,24.3l1.14.11c.2-.95.42-1.9.6-2.85a11.73,11.73,0,0,1,.48-2.7,21.64,21.64,0,0,0,.6-17.7C451,457.34,450.39,457.08,449.85,456.61ZM335.26,522c5.24-12.13,11.7-22.89,26.69-26-8.51-.12-16,3.28-23.13,14.82A23,23,0,0,0,335.26,522Zm3-67.44.39.6-25.48,20.24c10.19-5.42,19.1-12.64,28.66-19.86ZM218.47,509.9l1.25,0c-.69-8.16-1.37-16.31-2.05-24.39-1.24.49-3,5.09-2.6,7.05s.58,3.86,1,5.77C216.8,502.18,217.65,506,218.47,509.9Zm213.3,35.83c1.11-5.79,2.09-10.91,3.06-16l-2.23-.87-3.1,4.68c-.23,1.4-.53,3.27-.7,4.31v3.7l.38-.25Zm-24.4-64L401.9,486c3,2,5.06,4.83,8.71,4.89a3.05,3.05,0,0,0,2.22-1.33c.25-.4-.28-1.51-.73-2.09C410.64,485.56,409.05,483.75,407.37,481.74ZM310.73,451.9c.17-1.37.35-2.74.52-4.1l.7.09c-.57,4.36.95,6.59,4.21,6.52,0-1.47-.09-3,0-4.42a12.56,12.56,0,0,1,.74-2.48c-1.47-.36-1-3.39-3.75-2.34-2.36.9-5.3.55-5.9,4ZM182.49,499l-.8,0v24.95a9.39,9.39,0,0,0,1.1-2.17c.76-4.08,1.43-8.17,2.12-12.25a1.41,1.41,0,0,0-.1-.56Q183.65,504,182.49,499Zm209.93-21.15.76-.13a12.45,12.45,0,0,0-.37-3.26c-2.11-5.42-4.34-10.79-6.68-16.51V463l-2-.27c1.09,2.2,1.87,4.08,2.92,5.8.79,1.31,2.1,2.3,2.84,3.63A60,60,0,0,1,392.42,477.84Zm-19.39,49a57.36,57.36,0,0,1-4.14,6.19c-1.65,1.9-3.77,3.38-5.58,5.15s-3.9,1.92-6.17,1.16-4.32-1.43-6.48-2.14a7,7,0,0,0,6.7,3.83c3.9-.17,7.78-1.18,10.37-4.08,2.29-2.56,3.7-5.91,5.46-8.93C373.3,527.85,373.12,527.5,373,526.86Zm24.56-283.3c-5.86-6-13.34-10.05-20.64-14.33,5,4.26,10.09,8.45,15.15,12.63.22.18.4.47.65.54C394.35,242.81,396,243.18,397.59,243.56Zm29.8,256c-.37-2.27-.75-4.57-1.13-6.86a71.19,71.19,0,0,0-1.15,9.32c0,.57.39,1.67.6,1.67,3.12,0,1.66,2,1.69,3.5a42,42,0,0,0,.65,4.84l.82-.17a25.58,25.58,0,0,1-.72-4.18c0-2.59.2-5.19.23-7.78C428.38,499.76,427.57,499.62,427.39,499.56Zm-154,49.9,1.1-.72c-.4-1.36-.37-3.21-1.27-4-2.8-2.45-5.49-2.54-8.07-.8Zm-78.29-38.68-.74,0c-.19,5.44-2.91,11,.74,17.06Zm242.82-85.15-.83-.11v5l-1.8-.5c.35,2.15.66,4.08,1,6l.6-.11c-.11-1.54-.21-3.07-.32-4.61l.88-.05,1.14,12.52.58-.1Q438.56,434.65,437.94,425.63Zm-369.37,43c2.51-.06,5.69.72,8.14-2.5l-1.89.1,1.88-2.78-.62-.72a14.17,14.17,0,0,0-3,1.55C71.45,465.71,70,467.31,68.57,468.67Zm122.67-11c-1.57,4.93-.62,7.19,3.82,8.9ZM464.14,357.6l.73-.32c-1.44-4.72-2.89-9.43-4.35-14.2l1.34.72.19-.19-3.18-2.52C460.1,346.73,462.41,352.08,464.14,357.6ZM428.71,476.41l-1.14.23,2.94,16.64.87-.16Zm-319-14.82.74-.88c-.49-.83-.79-2.11-1.5-2.41-2.07-.88-4-.33-6.27,1.73ZM203,317.75c1,2.07,1.46,4.65,4.6,5,1,.12,2,.37,3,.56l.31-1ZM458.3,550.92c4.61.88,5.72.33,6.33-2.9C461.91,547.56,460.09,548.78,458.3,550.92Zm-15-12.14c-3.46,3.77-4.36,6.86-2.7,8.53C441.52,544.38,442.4,541.58,443.29,538.78ZM237,496.74l-1,.11q1.68,6.56,3.37,13.09l.8-.19Q238.52,503.24,237,496.74Zm-68-94.41c2.12-2.07,1.59-7.35-.84-8.81ZM270.05,536.92l-.27.68,14.5,7.18.32-.68ZM435.78,320.07l.71-.34-6.38-13.5-.63.31Zm-33.27,161,.38.72,7-2.69-.33-1.27a5.22,5.22,0,0,0-2.1.31,11.31,11.31,0,0,0-1.92,2.09c-.1-.52-.18-.86-.3-1.46ZM196.74,496.62c-.44,3-.89,6-1.33,9l.91.11C198.65,503,197,499.7,196.74,496.62ZM322.17,283.74l.28-.76L310,278.55l-.26.7ZM449,602.36c1.14.68,2.24,1.89,3.07,1.73,2.2-.43,1.36-2.21,1.28-3.76Zm-5.87,6.15c.22.44.45.89.67,1.34l5.84-3.58C445.82,604.8,445.22,608.14,443.15,608.51ZM174,412.46l.5,0q.28-4.41.56-8.84l-1.06,0Zm70.32,110.3,1-.36-3.81-8.73-.85.37Q242.44,518.39,244.29,522.76ZM458.08,339.08l1.05-.48-2.73-6.4-1.25.56ZM423,553.2c-1.21-.62-2-1.33-2.47-1.19a2.63,2.63,0,0,0-1.58,1.66c-.1.42,1.06,1.62,1.28,1.54A14.09,14.09,0,0,0,423,553.2ZM439,526c2.62-4-1.92-5.79-1.84-8.56C437.76,520.09,438.32,522.73,439,526ZM374.81,243.63l-.52.84,6.66,4.2.57-.92ZM299.13,542.45l-.24-.64-9.77,3.38.31.84ZM426,467.51l1.15-.28-2.31-7.2-.6.15C424.86,462.62,425.45,465.07,426,467.51Z" transform="translate(-26.92 -182.26)"/><path d="M595.92,521.72c-2.54-.91-5.14-1.68-7.62-2.75-6.73-2.91-13.38-6-20.14-8.91-7.11-3-12.66-8-18.27-13.16-4.32-4-6.57-9-8.93-13.95-1.84-3.82-4.24-6.12-7.94-7.38s-7.61-2.29-11.4-3.48a16.31,16.31,0,0,1-8.38-6.29c-2.37-3.16-5.24-6.5-8.67-8.19-5.8-2.87-10-6.06-8.84-13.38l-13.06,3.1-.15-.65c4-1,8-2.25,12-2.93,5-.83,5.36-5.57,3.44-8.73a36.79,36.79,0,0,1-1.7-3.83l15.87,3.42c.19-4.38-2.54-8.57-.22-13.6,4.89,14.2,14.43,17.28,27.41,12.13-.13.61-.11.84-.2.91-4,2.86-5.06,4.5-.83,8.18a17.5,17.5,0,0,0,10.32,4.31c2.32.21,4.64.45,7.26.7l-14-16c.34-.9.77-2.05,1.33-3.59,1.37,2.33,2.55,4.32,3.72,6.32,1.52,2.6,3.13,2.45,5.86,1.68,2.15-.61,4.8.42,7.19.91a11.2,11.2,0,0,1,2.73,1.49c-1.27.55-2.61,1-3.85,1.7-1.5.82-2.41,1.76-.78,3.51a10.09,10.09,0,0,1,1.8,3.62c.09.24-.81,1.13-1.33,1.21-3.48.51-7,.9-10.45,1.29-3.28.37-5.47-2.06-8.11-3.29-4.62-2.14-9-4.83-13.74-6.61-1.92-.71-4.57.13-6.78.68-3.57.88-5.77,3.72-7.83,6.49-1.65,2.22-1.36,4.83,0,7.05,1.08,1.79,3.43,3.06,3.93,4.91,1.08,4,3.84,3.83,6.85,3.9.61,0,1.17.79,1.79,1.12,4.2,2.24,8.45,4.39,12.61,6.7,1.07.59,1.84,1.71,2.86,2.43,2.11,1.46,4.3,2.82,6.76,4.42l-2.61-.39,9.9,5.41-.33.73-2.49.13,0,.39,5.29,1.39c0-.07-.19.36-.46.84l8.45,4.51-1.85,1.13,9.54,2.1c1.07,1.71,2,3.12,3.06,4.86a33.14,33.14,0,0,1,15.89,4.63l5.15-.54Z" transform="translate(-26.92 -182.26)"/><path class="cls-1" d="M352.33,205.76l-4.61-.76c.87,1.78,2.13,2.51,11.6,6.3-.33.76-.67,1.52-1,2.22,1.61,1.27,3.09,2.44,4.58,3.6l-.27.47-2.07-1c-1-.47-1.8-2.26-3.17-.38a9.88,9.88,0,0,1-2.35-1.27c-2.69-1.85-5.35-3.75-8-5.63l-.63,1,5.69,3.18c-1.27.29-2.05.74-2.5.53-2.67-1.29-5.14-3.11-7.91-4-7-2.35-12.2-7.5-18.43-11-3.84-2.15-8-3.83-11.33-6.74a34,34,0,0,0-9.67-5.58c-2.16-.92-4.72-1.95-6-4.4h2.28a17.7,17.7,0,0,0,3.27,2.89c5,2.63,10.17,5.08,15.28,7.58l7.54,3.6.35-.7a34.27,34.27,0,0,0-3.44-2c-1.4-.64-2.72-2.08-4.49-.81,1.1-2-.92-2.41-1.87-3-2.4-1.52-5.09-2.59-7.47-4.15-1.19-.77-1.95-2.21-2.9-3.35h56.95c6.26,5.4,12.62,10.67,18.71,16.26,3.33,3.06,6.18,6.64,9.25,10l-.59.58-15.84-15.66-.85.78,8.81,9.06-.51.54-6.11-5.19c-.49.95.77,3.61,2.11,4.58,1.19.87,2.11,2.12,3.32,2.95a52.19,52.19,0,0,0,4.85,2.74c.23.12.58.06.77.21,1.89,1.55,3.76,3.12,5.71,4.74a4,4,0,0,1-.64,1.1c-.77.9-1.32,1.95-2-.34-.36-1.19-2.46-1.84-4-2.42l2.49,2.75-43.78-24.19-.65.8a39.66,39.66,0,0,0,4.88,3.76c4.11,2.27,8.41,4.18,12.5,6.47,1,.57,1.55,2,2.26,3.09a10.25,10.25,0,0,0,6.68,4.87c1.06.22,1.9,1.53,2.74,2.7-2-.67-4.13-1.21-6.1-2s-4-2-5.92-2.95c-.38.91-.74,1.75-1.24,2.92l-6.39-4.69,6.11,3c.43-.94.43-.94-8.24-5.91l-.37,1ZM342.94,202l.39-.88-15.26-7.21c-.17.38-.34.75-.5,1.13Zm-1.63-12.61-7.22-1.94C336.16,189.73,338.21,190.94,341.31,189.39Z" transform="translate(-26.92 -182.26)"/><path class="cls-1" d="M446.12,632.22q2.43-6.65,4.87-13.28l-.72-.52a6.22,6.22,0,0,1-1.79.85,31.76,31.76,0,0,1-3.52.09c0-1.22-.42-3.24.1-3.52,2.8-1.51,3.18-4.68,5.1-6.92l1.66,1.24c1.29-2.87,2.6-5.8,4.12-9.2l-1.52-1.4c2.71-3.4,5.42-6.92,8.25-10.35,5.81-7.05,11.51-14.15,15.39-22.54a14.92,14.92,0,0,1,3.6-4.35c.65-.59,1.87-.55,2.83-.8.25,1.3,1.05,2.81.65,3.87-2,5.36-4.59,10.51-6.5,15.9-3.24,9.15-6,18.46-9.18,27.65-1.51,4.37-3.26,8.66-5.18,12.87a22.32,22.32,0,0,0-1.64,10.41Z" transform="translate(-26.92 -182.26)"/><path d="M108.37,632.22c1.78-3,3.26-6.29,5.42-9q8.44-10.66,17.41-20.9c8.63-9.81,17.46-19.43,26.24-29.1a36.43,36.43,0,0,1,3.2-2.72c.64-.56,1.67-1.13,1.76-1.8.68-5.11,5.17-3.64,8.1-4.82.4-.16.95.06,1.43.1a5.32,5.32,0,0,1-.68,1.61c-4.7,4.95-9.61,9.7-14.11,14.83-5.57,6.34-10.82,13-16.19,19.5-4.6,5.59-9.14,11.23-13.77,16.79-4.33,5.21-8.74,10.35-13.12,15.52Z" transform="translate(-26.92 -182.26)"/><path class="cls-1" d="M426.76,182.26c.65,2.21,1.31,4.42,2,6.85L419,183.4c4.13,6.48,7.9,12.42,12.12,19.06-2.64-1-4.73-1.52-6.46-2.59a42.53,42.53,0,0,1-5.15-4.37l-.66.55,5.52,8.06c-.35,1.38-.73,2.9-1.1,4.42-8.64-8.78-16.66-18.88-27.26-26.27Z" transform="translate(-26.92 -182.26)"/><path class="cls-1" d="M379.48,182.26c1.6,1.85,2.85,4.38,4.86,5.45,9.09,4.84,14.79,13.06,21.3,20.49a29.26,29.26,0,0,1,2.63,4.32l-.81.65c-.71-.64-1.44-1.26-2.12-1.94-5.24-5.15-10.13-10.67-15.9-15.25a14,14,0,0,0-6.6-3.16c-2.16-.36-4.07-2.45-6-3.86A21.41,21.41,0,0,0,372,185.9l6.21,5.58-.85,1c-1.1-.78-2.23-1.52-3.29-2.36-3.32-2.62-6.61-5.27-9.92-7.9Z" transform="translate(-26.92 -182.26)"/><path class="cls-1" d="M393.72,182.26l19.19,16.63-.67.85-8.69-6.45-.66.79L417,207.47l-.4.77a10,10,0,0,1-2.39-1.25c-2.64-2.5-5.16-5.14-7.79-7.66a4.67,4.67,0,0,0-1.87-.66c-.39-.11-1.11-.06-1.16-.23-1-3.54-4.62-4-7-5.94-4.28-3.46-8.63-6.83-12.95-10.24Z" transform="translate(-26.92 -182.26)"/><path d="M304.87,182.26c.95,1.14,1.71,2.58,2.9,3.35,2.38,1.56,5.07,2.63,7.47,4.15.95.6,3,1,1.87,3l0,0c-5.1-2.51-10.23-5-15.27-7.59a17.7,17.7,0,0,1-3.27-2.89Z" transform="translate(-26.92 -182.26)"/><path d="M46.34,608.46q-9,6.94-18,13.89a8.47,8.47,0,0,1-1.47.75v-.57c5.88-4.51,11.75-9,17.66-13.52a5.29,5.29,0,0,1,1.81-.47Z" transform="translate(-26.92 -182.26)"/><path class="cls-1" d="M399.15,289.08a4.73,4.73,0,0,1-1.74-.38c-3.81-2.85-7.57-5.77-11.2-8.56l.47-.3c-.94-1.19-1.7-2.66-2.91-3.49-.76-.53-2.18-.1-3.33-.55l2.49-.29c-3.9-4.22-8.31-7.21-13.66-8.28-6.36-1.28-12.45-4.13-19.07-3.92l-.2.69c2.94,1.78,5.81,3.69,8.84,5.29,2,1,4.31,1.4,6.24,2.5,1.13.64,1.65,2.26,2.66,3.2a57.06,57.06,0,0,0,4.47,3.55,50.68,50.68,0,0,0,5.7,4.27c1.72,1,3.9,1.12,5.64,2.07,1.2.65,1.91,2.14,3,3.09a45.86,45.86,0,0,0,3.79,2.81c1,.72,2.1,1.32,3.05,2.12a13.49,13.49,0,0,1,1.57,1.93c2.17,2.61,4.69,3.88,8.25,1.66.07,5.16,3.95,3.23,7,3.88l-4.13.74c3.53,5.47,6.93,10.72,10.32,16l-1,.71c-2.3-2.82-4.57-5.68-6.93-8.45a35,35,0,0,0-3-2.83c-4.78-4.43-9.78-8.66-14.29-13.36-3.82-4-9.15-5.06-13.45-8.07-3.1-2.17-6.4-4.08-9.41-6.53l2.83,1.05c-2.95-1.74-4.84-5.3-8.61-5.45A7.64,7.64,0,0,0,361.2,272c-1.08-.85-2.38-2-3.59-2-6.13,0-9.58-5.42-14.95-7.07-5.2-1.6-7.74-2.38-13.91-1.51l-.52-1.45c1.57-.2,3.13-.49,4.7-.58,1.75-.09,3.51,0,5.72,0-.42-.5-.71-1.21-1.12-1.3-3.5-.67-7-1.22-10.52-1.84a5.25,5.25,0,0,1-1.28-.53c-5.42-2.54-10.8-5.16-16.27-7.58-2.58-1.15-5.32-1.93-8-2.87l-.29.78,9,3.64-.17.5-8.4-2.86c.34.56.63,1,.91,1.53-1-.14-2.84-.18-2.87-.45-.3-2.32-2.84-2.36-3.61-4.07l-2.37.84a56.45,56.45,0,0,0,5.42,4,21.75,21.75,0,0,0,4.54,1.48l-.81.92,2.45,1.4-.88,1,5.78,1.41.2-.68-2.49-1.59h3.36c-.29,1.18,1.33,2.36,6.11,4,2.74.95,5.56,1.66,8.34,2.47l-.17.78-13.17-2.19c.23.52.4,1.43.7,1.48,2.84.43,4,2.8,5.76,4.53,2.65,2.53,6,4.36,9.21,6.24,2.31,1.35,4.88,2.29,7.14,3.33-1.57,1.28-1.92,1.1-4.19-.33-5.25-3.3-10.62-6.41-15.95-9.59-1,1.85-.62,2.47,2.24,4.07l-.95,1.1-9.85-5.6-.3.52c2,1.86,3.93,3.71,6.44,6.07h7.26v-1.16l9.72,6.31-2.7,1.08,6.39.86c-.77.48-1.31.83-2.52,1.61l8.79,1.83a106.61,106.61,0,0,1-29.86-3.94l-2.28-.83.19-.7,8,2.16-1-2.09,5.79.45-1.79-2.28,4,1.14.2-.37-5.53-3.29c0,.84,0,1.68,0,1.68-1.45.14-3,.56-4.36.2-3.29-.87-6.48-2.11-9.71-3.2a.45.45,0,0,0-.28,0c-2.16.67-4.21.84-5.87-1.09-1.22,1.54-1.84.58-2.29-.72L292,269.24l1-1.83c-2.74-1.26-5.63-2.42-8.34-3.9-1.24-.68-2.08-2.05-3.21-3a5.87,5.87,0,0,0-2-.81c-.35-.11-.9,0-1.09-.17-1.13-1.26-2.17-2.59-3.51-4.23l2.64,1.07c-1.88-3.6-6.41-5.44-5.55-9.82l7.41,4,.3-.37L275.89,247l.33-.52,3,1.63c.14-.78.67-1.82.35-2.34-.52-.84-1.55-1-2.12.26l-3-2.44,4.37.84L274,240.05l1.45-1.34c-3.36-.55-6.31-1.34-7.59-5.09l2.58,1.49-3.18-4.73c.14,2.48.24,4.33.36,6.44-2.8-2.33-1.94-5.84-3.13-8.35l4-1.5.62,1.39c.18-.42.34-1.17.56-1.19a5.23,5.23,0,0,1,2.74.14c4.1,2.13,8.11,4.41,12.42,6.34l-13.21-11.16.1-.41,9.1,2.62L279,222.6c1.38-.4,1.37-.39,5,1.66,1.72,1,3.46,1.87,5.39,2.92l-.13-1.28,4-.45-.08-.78-4.34-1.58.29-.86c3.21,0,6,1.3,8.76,3s5.48,3.2,8.28,4.67c.41.21,1.17-.26,2-.47l-2.58-1.76c3.11.83,6.32,1.43,8.32,4.3a1.24,1.24,0,0,0,.44.34c7.93,4.66,15.87,9.32,24.54,12.54a1.78,1.78,0,0,0,1.53-.37l-13.2-5.94.14-.69a11.29,11.29,0,0,0,2.22.26,4.42,4.42,0,0,0,1.41-.43l7.67,3-2,.39a49.54,49.54,0,0,0,6.34,3.73c4.78,1.94,9.71,3.52,14.53,5.36,1.41.54,2.61,1.6,4,2.21,3.62,1.57,7.29,3,10.67,4.4l-.77.28c3.79,2.85,8,5.08,11.87,8.11,4.17,3.29,8.38,6.35,11.85,10.43A68.35,68.35,0,0,1,404,287.7a18.7,18.7,0,0,1-3.38-2.14c-.64-.64-.6-2-1.24-2.59-4.32-4.34-8.47-8.93-13.28-12.67-2.12-1.64-3.78-4.59-7.54-4.3-1.54.12-3.17-2.31-4.93-3.27a28.58,28.58,0,0,0-4.64-1.62l-.51,1.25,12.44,7.31s-.27.36-.86,1.11l3.92.55-2.51.56-.2.59c1.38.45,2.79.82,4.12,1.4a5.47,5.47,0,0,1,1.88,1.66c1.33,1.57,2.61,3.19,4,4.7a35.71,35.71,0,0,0,3.18,2.66c.2.37.48,1.9,1.22,2.17,2,.73,2.81,2.26,3.46,4ZM283.77,234.54l-.69,1c4.1,2.09,7,6.17,11.82,7.08l.46-.74Zm6.43,9.87c-2.35-4.69-3.71-5.41-5.72-3.42Zm23.95,2.89-.33,1,9.13,4.31.31-.72Z" transform="translate(-26.92 -182.26)"/><path class="cls-1" d="M472.68,534.51c-.5-.55-1.34-1-1.44-1.66-.53-3.42-2-4.76-5.6-4-1.75.38-2.5-.18-3.6-1.26a14.28,14.28,0,0,0-4.51-3.09c-2.45-1-2-2.81-1.6-4.48,1-4.18,2.46-8.27,3.21-12.48,2.37-13.43,4.93-26.86,3.59-40.62a9.77,9.77,0,0,1,0-1.71c.16-2.85,1.06-3.47,3.46-2,8.26,4.95,14.94,11.05,18.09,20.75,1.8,5.57,3.11,10.8,2.58,16.73-.48,5.28-3.65,8.9-6,13.09a143.91,143.91,0,0,0-6.91,13c-.88,2-.48,4.63-.66,7Z" transform="translate(-26.92 -182.26)"/><path class="cls-1" d="M358.38,227.76l2.9,2.85-.66.65c-3.19-.26-6.28-2.12-9.59-.65l-2.07-.92,2.06-.27v-.54a20.11,20.11,0,0,1-4,0c-1.52-.3-3.17-1.75-4.38-1.4-5.62,1.63-9.33-2.76-14-4-1.16-.3-2.37-.44-3.51-.81a3.36,3.36,0,0,1-2-1.72l10,2.91.13-.54c-7.35-2.94-14.78-5.7-22-8.87s-14.6-6.86-22.3-10.5l2.91-1.18-6.61-3,.08-.51c.93.21,2.19.13,2.71.71,1.6,1.8,3.13-.22,4.64.19l.11-1.36,2,2.15,2.77-2.07c2.94,2.33,5.59,4.43,8.23,6.54l.53-.67-14.55-13.45.47-.61,15.47,11.82.69-.82-2.84-3.23.2-.31,7.15,5.19.63-.74-7.37-6.43,4.63,1.18c2.49,1.77,5.33,4,8.35,5.89,2.43,1.55,5.1,2.69,7.58,4.15q4.67,2.73,9.16,5.73a24.9,24.9,0,0,1,2.92,2.72c.2.19.44.48.66.48,3.9-.1,5.85,2.82,8.43,5,1.64,1.39,4.23,1.64,6.37,2.48a10,10,0,0,1,1.79,1.17l.08-.08-3.79.55.27,1,2-.77-.25.76,4,1.43Zm-17.2-4.55.63-.53,7.29,2.67a3.68,3.68,0,0,0,.13-.87c-3.07-1-6.16-2-9.46-3.09,0,2.37.89,3.65,3.25,4.16Z" transform="translate(-26.92 -182.26)"/><path class="cls-1" d="M445.41,532.88c.41-6.61,3.41-12.31,1.34-18.25l-.83-.08c-.71,7.26-1.42,14.51-2.14,22-1.85-.88-3.14-3.07-2.7-4.32.2-.57,1.09-.9,1.92-1.53V511.89l-.75-.25c-.58,1.21-1.16,2.41-1.44,3l-2.8.67c-.88-3.19-1.84-6.64-2.79-10.09l-1.16.2c.09,1.72.19,3.44.28,5.16h-.92c-.28-2.08-.82-4,.33-6.27a17.42,17.42,0,0,0,1.48-6.58c.15-2.43-.37-4.88-.38-7.32a3.23,3.23,0,0,1,1.2-2.11c.31-.26,1.2.17,1.66.26l2.73-1.21L442,499.59l.71,0v-7.29l.6-.1c.26.57.52,1.14.78,1.73l1.6-6.31,1.17.12V504l.36-.06c.71-4,1.18-8,2.18-11.93,1.24-4.78,3.11-9.39,4.33-14.17.82-3.18.93-6.53,1.48-9.78a7.42,7.42,0,0,1,1.59-3.28c3.09,8.55.95,17.06-.05,26l1.24-.64A70.65,70.65,0,0,1,458,499c-.5,3.92-1.52,7.78-2.35,11.65-.07.36-.41.66-.51,1-1.86,7.16-6.87,12.94-8.72,20.1C446.33,531.88,446.15,532,445.41,532.88Z" transform="translate(-26.92 -182.26)"/><path class="cls-1" d="M415.53,252.51c-.21-.88-.13-2-.67-2.59-2.62-2.65-5.36-5.19-8.15-7.67-3.62-3.22-7.32-6.34-11-9.48l1.41.07L395,230.39l.57-.69c5.51,4.27,11.23,8.29,16.48,12.86a121.77,121.77,0,0,1,23.59,28.31c6.48,10.56,13.3,21,17.69,32.71,1.94,5.18,3.61,10.42,5.44,15.63.7,2,1.61,3.94,2.36,5.94a11.81,11.81,0,0,1,.4,2l-.81.39-5.32-8.18-.62.24,6.59,16.17-.65.33c-1.28-2.47-2.57-4.93-3.82-7.41s-2.59-4.92-3.63-7.49-1.73-5.2-2.64-7.79a5.8,5.8,0,0,0-1.08-1.39l-.67.35,5.47,14.05-.85.33c-1.32-3.2-2.76-6.35-3.92-9.6s-1.82-6.41-2.94-9.54a71.79,71.79,0,0,0-3.61-8.3c-.24-.48-1.56-.4-2.52-.61,0-.77-.09-1.71-.14-2.65-.24-4.3-3.83-5.15-6.81-6.7a53.29,53.29,0,0,1-8.45-5.2l17.17,8.31.43-.63a23.54,23.54,0,0,0-1.16-2.43c-4.36-7.1-8.58-14.29-13.17-21.24-3.75-5.68-7.7-11.27-12.95-15.74Zm30,48.21.65-.52c-2.48-1.78-.74-6.49-6-7.21Z" transform="translate(-26.92 -182.26)"/><path class="cls-1" d="M364.7,231.74l-1.18-1.51,3-.42-7.28-5.45.2-.62a5.83,5.83,0,0,1,2.3.32c5.41,3.4,10.85,6.75,16.09,10.4,2.91,2,5.44,4.61,8.15,6.92a10.21,10.21,0,0,0,1.08.73l.51-.49-3.2-3.51c.88.24,1.45.23,1.74.5,2.39,2.29,4.78,4.59,7.08,7,1.12,1.17,2,2.58,3.1,3.79.26.29.9.27,1.37.35s1.22,0,1.25.13c.67,3,3.11,4.54,4.92,6.63a21.74,21.74,0,0,1,2.95,4.77c3.15,6.48,8.37,11.41,12.73,17,.33.42,1,.56,1.31,1,1.21,1.67,2.4,3.36,3.49,5.11,1.74,2.81,3.41,5.65,5.07,8.5a3.79,3.79,0,0,1,.25,1.21c-5.13-1.27-5.28-7-9.2-10.05l1.43,5.13.05-.05c-1.42-2-2.92-3.92-4.23-6-3-4.61-4.62-10.11-8.94-13.75-5.76-4.84-11.68-9.5-17.64-14.11-2.26-1.75-4.83-3.09-7.2-4.71-.52-.35-.77-1.07-1.51-2.15l4.34,1.18-2.53-2c2-.32,3.17.85,4.47,2.36l-3.09.31,14.73,8.63.34-.3c-3-2.46-6-4.85-8.88-7.4-1.88-1.66-3.46-3.67-5.39-5.28a46.77,46.77,0,0,0-5.16-3.32l-.63-.46A1.26,1.26,0,0,1,380,242l-.62-.46,0,.05-1.59-1.21c-4-3-9.11-4.48-11.94-9A5.77,5.77,0,0,0,364.7,231.74Zm9.29,4.52.89-.93-6.33-4.68-.4.51Z" transform="translate(-26.92 -182.26)"/><path class="cls-1" d="M264.8,394.25l-2-.62c2.58-2.22,2.83-3.39,1.16-4.7,4.19,0,6.23-.14,13.47,5.55-1.1,1.79-2.17,3.64-3.35,5.44-3.87,5.91-5.53,12.62-7.07,19.38-1,4.38-1.8,8.81-3.09,13.11-.42,1.42-2.07,2.48-3.76,3.5.25-2.24.49-4.48.76-6.72.39-3.27,1-6.52,1.16-9.8.12-2-.7-4-.43-5.94C262.53,407.07,263.71,400.72,264.8,394.25Z" transform="translate(-26.92 -182.26)"/><path class="cls-1" d="M217.26,474.14,221,476.2l-.19.47-5-1.79c1.25,3.92,5.66,6.59,3.32,10.77l-3.73-7.46c-.39.94-.6,1.42-.84,2l-26.83-31,7.2-5c-.72,2.49-1.76,4.48,1,5.42q.51-3.81,1-7.59l1.12.12c0,2.39-.14,4.8,0,7.18.1,1.34.34,3,1.2,3.91,4.36,4.45,9,8.65,13.42,13a26.87,26.87,0,0,1,3.64,4.27C216.88,471.46,216.9,472.71,217.26,474.14Z" transform="translate(-26.92 -182.26)"/><path class="cls-1" d="M347.5,489c.6,2.34-1.25,3.86-3,5.28-2.27,1.83-3.6,4.47-5.93,6.29a49.16,49.16,0,0,0-6.35,6.39c-.87,1-1,2.59-1.93,3.58s-2.1,1.37-3.69,2.34a49.51,49.51,0,0,0-1.95-6.23c-1.65-3.53,1.06-5.08,2.74-7.28,1.33-1.74,2.1-3.9,3.14-5.86.25-.47.56-.92.86-1.37a21.7,21.7,0,0,0,2.48-3.72c.64-1.6,1.31-1.68,2.71-.92,2.41-3.76,5.74.63,7.6-.09Z" transform="translate(-26.92 -182.26)"/><path class="cls-1" d="M200.67,344.22a81.34,81.34,0,0,1-3.26-29.46c.35.44,1,1.15,1.51,1.9a15.21,15.21,0,0,0,2,2.69,23.46,23.46,0,0,0,3.26,2,12.25,12.25,0,0,1-1.66,2.6,28.11,28.11,0,0,1-3.27,2.17c1.19,3.8,5,2.64,7.67,3.67a47,47,0,0,1,7.34,3.39c2.76,1.63,5.29,3.65,7.87,5.46-.13,1.19-.26,2.36-.43,3.95-1,.61-3-.78-4.8-4.16l-2,2.36c-2-1.18-2.35-.89-2.54,2.89l-5.3-4.07.5,2.64C204.72,339.86,202.91,341.46,200.67,344.22Z" transform="translate(-26.92 -182.26)"/><path class="cls-1" d="M347.74,514.44c-1.09,1.75-2.18,3.49-3.4,5.46v-3l-3.54,3.09c2.08-9.68,7.56-15.53,15.64-19.2.56-.25,1.3-.62,1.78-.45,3.53,1.32,7,2.77,10,3.95-4.62.74-10.17,1-13.76,5.38s-6.25,9.08-9.65,14.13l3.22-9.17Z" transform="translate(-26.92 -182.26)"/><path class="cls-1" d="M416.88,497.44c-2.19-2.63-1.65-4.83-1.3-6.81,1.22-6.83,2.15-13.62,1-20.6a28.31,28.31,0,0,1,.58-9.55c.75.74,1.81,1.36,2.17,2.25.76,1.93,1.15,4,1.73,6s1.09,3.74,1.65,5.6c1,3.13,1.76,6.2.77,9.56-.46,1.58-.08,3.42-.53,5.19-.89-1.78-1.77-3.57-2.56-5.16Z" transform="translate(-26.92 -182.26)"/><path class="cls-1" d="M186.06,471.32c1.59,1.15,2.95,2.25,4.43,3.16,1.72,1.07,2.31,2.17,1.89,4.41-.92,4.9-1.15,9.92-1.9,14.85-.46,3-1.35,6-2.13,9.34C185.73,499.3,184.25,475.26,186.06,471.32Z" transform="translate(-26.92 -182.26)"/><path class="cls-1" d="M229.26,473c.73-2.82,1.4-5.35,2.06-7.89l1,.15V479.5c-2.84-.9-6.08-1.6-9-3-1-.46-1.07-2.69-1.71-4.54l-1.36,2.81-1.4-.62c1.53-3.7,3.2-7.22,4.42-10.88.59-1.76,1.43-2.25,3.78-2,.48,3.15,1,6.48,1.51,9.8A10,10,0,0,0,229.26,473Z" transform="translate(-26.92 -182.26)"/><path class="cls-1" d="M85.45,472.69l-10.39,7.58a11.05,11.05,0,0,1,.3-2.67,15.29,15.29,0,0,1,10.4-9.37,2.79,2.79,0,0,0,1.5-1.2c2-3.66,4.74-3.83,6.92-.33a14,14,0,0,1,1.68,3.38c1.15,4.09.29,5-3.81,4.35a6,6,0,0,0-2.37-.29C86.76,474.93,86.78,475,85.45,472.69Z" transform="translate(-26.92 -182.26)"/><path class="cls-1" d="M355.62,290.5l-2.37-.65c-10.3-2.74-20.29-6.71-31.08-7.58.06-.32.11-.63.17-.94,2.09.26,4.18.54,6.27.79,3.17.37,6.34.7,9.51,1.09a2.16,2.16,0,0,1,1.21.46c3.55,3.51,7.69,1,11.5,1.75l.18-.75-3.29-2h3.54l1.08,2.22,2.54-1.54-1.23-1.3c2.89,1.88,5.92,1.13,9.12.75l-1.29,1.47,2.26-.57.18.32-1.74,1.09,0,.58,6,.35-.63,1.14,2.32.57,0,.6-3.75,1.43,2.39,1.39Zm8-2.16c0-.33,0-.66,0-1-5-3.94-10.31-1.41-15.56,0Z" transform="translate(-26.92 -182.26)"/><path class="cls-1" d="M355.33,452.91c2.18-2.15,4.12-4.06,6.42-6.31,3.46,3.48,7.21,7.3,11,11.07q2.85,2.82,5.87,5.46c1.72,1.5,1.88,3.42.3,4.36l-12.62-11.67-3.06,3.07v-5.73c-1.95,1-3.37,2.43-4.61,2.29S356.26,453.67,355.33,452.91Z" transform="translate(-26.92 -182.26)"/><path class="cls-1" d="M262,486.18c-1.18.51-2.54.76-3.45,1.54a63,63,0,0,0-4.68,4.72c-2.84-.57-4.57-3.05-4.78-6.43a5.43,5.43,0,0,1,3.43-5.79c2.89-1.22,6.75-.22,8,2A24.38,24.38,0,0,1,262,486.18Z" transform="translate(-26.92 -182.26)"/><path class="cls-1" d="M281.27,568.42l6.16,3.39L281.75,576l2.75,1.12-.14.62-10.65-1.54.07-.74,3-.3-2.86-2,3.27-5.58c-.4-1.13-1.52-3,2.11-2.1,1.68.44,3.57.08,5.27.08C286.05,569.77,282.09,567.3,281.27,568.42Z" transform="translate(-26.92 -182.26)"/><path class="cls-1" d="M439.5,302.26a42.43,42.43,0,0,1,3.7,5.51c1.69,3.57,3,7.31,4.55,11,1.31,3.12,3.73,6.2,3.79,9.33.08,4.64,3,7.73,4.3,11.64.55,1.68.54,3.55,1.16,5.19.87,2.28,2.09,4.41,3.14,6.62a1.81,1.81,0,0,1,.14,1.58c-8.52-16.13-14.3-33.44-21.9-50Z" transform="translate(-26.92 -182.26)"/><path class="cls-1" d="M242.33,535.08c-3.18-1.65-6.08-3-7.07-7-1-4.2-2.85-8.21-4.29-12.32-.65-1.82-1.23-3.66-1.8-5.38,3.16-1.67,4,.76,4.79,2.81C236.77,520.37,239.46,527.56,242.33,535.08Z" transform="translate(-26.92 -182.26)"/><path class="cls-1" d="M216.3,506.57c-3.44-2-5,1.09-7.25,1.38-2.13-2.46-2.3-14.88-.27-15.7.41,3.18.82,6.4,1.23,9.61l.87-.08-.44-6.6.8-.05c.52,1.83,1,3.65,1.57,5.48h.28v-9.4l.42,0C214.41,496.21,215.31,501.16,216.3,506.57Z" transform="translate(-26.92 -182.26)"/><path class="cls-1" d="M415.44,252.42c2.35,3.19,4.71,6.37,7,9.58a12.47,12.47,0,0,1,2.22,4.39l-7-8.75a79.44,79.44,0,0,0-14.94-14.25c-1.47-1.08-2.77-2.4-4.17-3.59a14.28,14.28,0,0,0-2.18-1.73c-3-1.65-4.72-4.76-7.49-6.76l4.86,1.84c.22.68.39,1.7.57,1.7,3.52.08,5.22,3,7.5,4.86,3.1,2.57,5.93,5.46,8.87,8.22,1.62,1.51,3.21,3,4.82,4.58C415.53,252.51,415.44,252.42,415.44,252.42Z" transform="translate(-26.92 -182.26)"/><path class="cls-1" d="M343.35,237.51c-1,.45-2.1,1.12-2.23,1-2.19-2.5-5.63-2.39-8.18-4-1.05-.68-1.73-1.93-2.79-2.61a25.78,25.78,0,0,0-4.49-2.16c-1.33-.53-2.78-.79-4.12-1.3a26.31,26.31,0,0,1-3.06-1.51c-4.47-2.38-9-4.76-13.41-7.19a3.16,3.16,0,0,1-1.49-2.08c3,1.53,5.92,3.14,8.95,4.58,4.25,2,8.47,4.15,12.87,5.81,2.94,1.11,6.2,1.37,9.24,2.23a8.91,8.91,0,0,1,3.43,2.36c-2.89.09-5.3-2-8.24-2.12Z" transform="translate(-26.92 -182.26)"/><path class="cls-1" d="M95.27,464.2H98.9c-.19-1.12-.87-2.73-.44-3.11a2.65,2.65,0,0,1,3.91.25c.67.72,1.63,1.38,1.9,2.25a6.23,6.23,0,0,1,0,3.12c-2.68.35-2.59,7.07-6.79,3.17C96.23,468.75,96.09,466.46,95.27,464.2Z" transform="translate(-26.92 -182.26)"/><path class="cls-1" d="M449.85,456.61c.54.47,1.13.73,1.3,1.16a21.64,21.64,0,0,1-.6,17.7,11.73,11.73,0,0,0-.48,2.7c-.18.95-.4,1.9-.6,2.85l-1.14-.11C448.83,472.91,449.33,464.91,449.85,456.61Z" transform="translate(-26.92 -182.26)"/><path class="cls-1" d="M335.26,522a23,23,0,0,1,3.56-11.16c7.12-11.54,14.62-14.94,23.13-14.82C347,499.13,340.5,509.89,335.26,522Z" transform="translate(-26.92 -182.26)"/><path class="cls-1" d="M338.27,454.58l3.57,1c-9.56,7.22-18.47,14.44-28.66,19.86l25.48-20.24Z" transform="translate(-26.92 -182.26)"/><path class="cls-1" d="M218.47,509.9c-.82-3.86-1.67-7.72-2.44-11.59-.38-1.91-.58-3.86-1-5.77s1.36-6.56,2.6-7.05c.68,8.08,1.36,16.23,2.05,24.39Z" transform="translate(-26.92 -182.26)"/><path class="cls-1" d="M431.77,545.73l-2.59-4.44-.38.25v-3.7c.17-1,.47-2.91.7-4.31l3.1-4.68,2.23.87C433.86,534.82,432.88,539.94,431.77,545.73Z" transform="translate(-26.92 -182.26)"/><path class="cls-1" d="M407.37,481.74c1.68,2,3.27,3.82,4.73,5.73.45.58,1,1.69.73,2.09a3.05,3.05,0,0,1-2.22,1.33c-3.65-.06-5.74-2.93-8.71-4.89Z" transform="translate(-26.92 -182.26)"/><path class="cls-1" d="M310.73,451.9l-3.45-2.74c.6-3.44,3.54-3.09,5.9-4,2.76-1.05,2.28,2,3.75,2.34a12.56,12.56,0,0,0-.74,2.48c-.12,1.46,0,2.95,0,4.42-3.26.07-4.78-2.16-4.21-6.52l-.7-.09C311.08,449.16,310.9,450.53,310.73,451.9Z" transform="translate(-26.92 -182.26)"/><path class="cls-1" d="M182.49,499q1.15,5,2.32,9.95a1.41,1.41,0,0,1,.1.56c-.69,4.08-1.36,8.17-2.12,12.25a9.39,9.39,0,0,1-1.1,2.17V499Z" transform="translate(-26.92 -182.26)"/><path class="cls-1" d="M392.42,477.84a60,60,0,0,0-2.51-5.68c-.74-1.33-2.05-2.32-2.84-3.63-1.05-1.72-1.83-3.6-2.92-5.8l2,.27v-5.06c2.34,5.72,4.57,11.09,6.68,16.51a12.45,12.45,0,0,1,.37,3.26Z" transform="translate(-26.92 -182.26)"/><path class="cls-1" d="M272.43,261.36c5.57.9,9.31,4.87,13.62,7.88l-.29.75c-4-1.4-8.07-2.83-12.11-4.2-1.94-.65-1.73-2.28-1.88-3.77Z" transform="translate(-26.92 -182.26)"/><path class="cls-1" d="M373,526.86c.09.64.27,1,.16,1.18-1.76,3-3.17,6.37-5.46,8.93-2.59,2.9-6.47,3.91-10.37,4.08a7,7,0,0,1-6.7-3.83c2.16.71,4.32,1.41,6.48,2.14s4.33.66,6.17-1.16,3.93-3.25,5.58-5.15A57.36,57.36,0,0,0,373,526.86Z" transform="translate(-26.92 -182.26)"/><path class="cls-1" d="M397.59,243.56c-1.63-.38-3.24-.75-4.84-1.16-.25-.07-.43-.36-.65-.54C387,237.68,382,233.49,377,229.23,384.25,233.51,391.73,237.56,397.59,243.56Z" transform="translate(-26.92 -182.26)"/><path class="cls-1" d="M360.62,231.26l.66-.65L364,233c1.31,1,2.59,2,3.95,3,.9.61,1.92,1,2.87,1.56.6.33,1.17.71,1.76,1.07-2.72-1.09-5.42-2.24-8.17-3.26-1.23-.45-2.58-.58-3.84-1-2.62-.8-5.22-1.67-7.83-2.52Z" transform="translate(-26.92 -182.26)"/><path class="cls-1" d="M427.39,499.56c.18.06,1,.2,1,.34,0,2.59-.26,5.19-.23,7.78a25.58,25.58,0,0,0,.72,4.18l-.82.17a42,42,0,0,1-.65-4.84c0-1.48,1.43-3.48-1.69-3.5-.21,0-.63-1.1-.6-1.67a71.19,71.19,0,0,1,1.15-9.32C426.64,495,427,497.29,427.39,499.56Z" transform="translate(-26.92 -182.26)"/><path class="cls-1" d="M273.41,549.46l-8.24-5.52c2.58-1.74,5.27-1.65,8.07.8.9.79.87,2.64,1.27,4Z" transform="translate(-26.92 -182.26)"/><path class="cls-1" d="M195.12,510.78v17c-3.65-6.11-.93-11.62-.74-17.06Z" transform="translate(-26.92 -182.26)"/><path d="M372.62,238.58c-.59-.36-1.16-.74-1.76-1.07-.95-.53-2-.95-2.87-1.56-1.36-.93-2.64-2-3.95-3l.66-1.24a5.77,5.77,0,0,1,1.23-.41c2.83,4.54,8,6,11.94,9l1,1.24Z" transform="translate(-26.92 -182.26)"/><path class="cls-1" d="M437.94,425.63q.62,9,1.22,18l-.58.1-1.14-12.52-.88.05c.11,1.54.21,3.07.32,4.61l-.6.11c-.31-1.93-.62-3.86-1-6l1.8.5v-5Z" transform="translate(-26.92 -182.26)"/><path class="cls-1" d="M68.57,468.67c1.4-1.36,2.88-3,4.54-4.35a14.17,14.17,0,0,1,3-1.55l.62.72-1.88,2.78,1.89-.1C74.26,469.39,71.08,468.61,68.57,468.67Z" transform="translate(-26.92 -182.26)"/><path class="cls-1" d="M444.1,425.73c.48.27,1.33.49,1.38.83a21.51,21.51,0,0,1,.07,3.41h.82l.16-1.51.77,0q.46,9.56.94,19.11l-1,.07c0-2.68.09-5.37,0-8s-.45-5.61-.69-8.44c-3-.73-1.68-3.57-2.44-5.43Z" transform="translate(-26.92 -182.26)"/><path class="cls-1" d="M191.24,457.67l3.82,8.9C190.62,464.86,189.67,462.6,191.24,457.67Z" transform="translate(-26.92 -182.26)"/><path class="cls-1" d="M464.14,357.6c-1.73-5.52-4-10.87-5.27-16.51l3.18,2.52-.19.19-1.34-.72c1.46,4.77,2.91,9.48,4.35,14.2Z" transform="translate(-26.92 -182.26)"/><path class="cls-1" d="M428.71,476.41l2.67,16.71-.87.16-2.94-16.64Z" transform="translate(-26.92 -182.26)"/><path class="cls-1" d="M109.67,461.59l-7-1.56c2.23-2.06,4.2-2.61,6.27-1.73.71.3,1,1.58,1.5,2.41Z" transform="translate(-26.92 -182.26)"/><path class="cls-1" d="M421.82,289.12q3.75,7.58,7.51,15.14l-.89.4c-2.14-5.22-6-9.68-6.58-15.59C421.87,289.07,421.82,289.12,421.82,289.12Z" transform="translate(-26.92 -182.26)"/><path class="cls-1" d="M399.12,289.09c-.06.64.11,1.53-.24,1.86-.53.49-1.43.6-1.42.37l4.56,4-1,1.06-7.63-4.87,1.08-.73-1.73-1.65c2.2.71,4.3,3.57,6.45,0Z" transform="translate(-26.92 -182.26)"/><path d="M303.67,250.63a21.75,21.75,0,0,1-4.54-1.48,56.45,56.45,0,0,1-5.42-4l2.37-.84c.77,1.71,3.31,1.75,3.61,4.07,0,.27,1.87.31,2.87.45Z" transform="translate(-26.92 -182.26)"/><path class="cls-1" d="M203,317.75l7.95,4.58-.31,1c-1-.19-2-.44-3-.56C204.45,322.4,204,319.82,203,317.75Z" transform="translate(-26.92 -182.26)"/><path class="cls-1" d="M196.69,252.2l-.94,2.64-.76-.18,2.75-11.49,1.35.35-2.49,8.77Z" transform="translate(-26.92 -182.26)"/><path class="cls-1" d="M458.3,550.92c1.79-2.14,3.61-3.36,6.33-2.9C464,551.25,462.91,551.8,458.3,550.92Z" transform="translate(-26.92 -182.26)"/><path class="cls-1" d="M443.29,538.78c-.89,2.8-1.77,5.6-2.7,8.53C438.93,545.64,439.83,542.55,443.29,538.78Z" transform="translate(-26.92 -182.26)"/><path class="cls-1" d="M237,496.74q1.58,6.51,3.14,13l-.8.19q-1.68-6.54-3.37-13.09Z" transform="translate(-26.92 -182.26)"/><path class="cls-1" d="M168.93,402.33l-.84-8.81C170.52,395,171.05,400.26,168.93,402.33Z" transform="translate(-26.92 -182.26)"/><path d="M360.62,231.26l-7.84.57L351,230.61C354.34,229.14,357.43,231,360.62,231.26Z" transform="translate(-26.92 -182.26)"/><path class="cls-1" d="M270.05,536.92l14.55,7.18-.32.68-14.5-7.18Z" transform="translate(-26.92 -182.26)"/><path class="cls-1" d="M435.78,320.07l-6.3-13.53.63-.31,6.38,13.5Z" transform="translate(-26.92 -182.26)"/><path class="cls-1" d="M272.43,261.36l-.66.66-7.59-4,.7-1.21Z" transform="translate(-26.92 -182.26)"/><path class="cls-1" d="M402.51,481.1l2.73-2.3c.12.6.2.94.3,1.46a11.31,11.31,0,0,1,1.92-2.09,5.22,5.22,0,0,1,2.1-.31l.33,1.27-7,2.69Z" transform="translate(-26.92 -182.26)"/><path class="cls-1" d="M196.74,496.62c.22,3.08,1.91,6.33-.42,9.09l-.91-.11C195.85,502.6,196.3,499.61,196.74,496.62Z" transform="translate(-26.92 -182.26)"/><path class="cls-1" d="M322.17,283.74l-12.46-4.49.26-.7L322.45,283Z" transform="translate(-26.92 -182.26)"/><path class="cls-1" d="M356.08,225l7.56,3.64-.42.89-4.84-1.78.08.1-2.3-2.93Z" transform="translate(-26.92 -182.26)"/><path class="cls-1" d="M449,602.36l4.35-2c.08,1.55.92,3.33-1.28,3.76C451.26,604.25,450.16,603,449,602.36Z" transform="translate(-26.92 -182.26)"/><path class="cls-1" d="M443.15,608.51c2.07-.37,2.67-3.71,6.51-2.24l-5.84,3.58C443.6,609.4,443.37,609,443.15,608.51Z" transform="translate(-26.92 -182.26)"/><path class="cls-1" d="M174,412.46v-8.84l1.06,0q-.27,4.43-.56,8.84Z" transform="translate(-26.92 -182.26)"/><path class="cls-1" d="M244.29,522.76q-1.84-4.37-3.71-8.72l.85-.37,3.81,8.73Z" transform="translate(-26.92 -182.26)"/><path class="cls-1" d="M458.08,339.08l-2.93-6.32,1.25-.56,2.73,6.4Z" transform="translate(-26.92 -182.26)"/><path class="cls-1" d="M423,553.2a14.09,14.09,0,0,1-2.77,2c-.22.08-1.38-1.12-1.28-1.54a2.63,2.63,0,0,1,1.58-1.66C421,551.87,421.74,552.58,423,553.2Z" transform="translate(-26.92 -182.26)"/><path class="cls-1" d="M439,526c-.71-3.28-1.27-5.92-1.84-8.56C437.11,520.22,441.65,522.06,439,526Z" transform="translate(-26.92 -182.26)"/><path class="cls-1" d="M374.81,243.63l6.71,4.12-.57.92-6.66-4.2Z" transform="translate(-26.92 -182.26)"/><path class="cls-1" d="M299.13,542.45l-9.7,3.58-.31-.84,9.77-3.38Z" transform="translate(-26.92 -182.26)"/><path class="cls-1" d="M426,467.51c-.59-2.44-1.18-4.89-1.76-7.33l.6-.15,2.31,7.2Z" transform="translate(-26.92 -182.26)"/><path class="cls-1" d="M451,432q.42,4.6.82,9.21l-1.22,0L451,432Z" transform="translate(-26.92 -182.26)"/><path class="cls-1" d="M444.1,425.7l-1,2L442,426.4c-.14,1.74-.26,3.21-.38,4.68l-.37.05-.84-5.4h3.69Z" transform="translate(-26.92 -182.26)"/><path class="cls-1" d="M378.91,241.59l-1-1.24,1.59,1.21-.28,0Z" transform="translate(-26.92 -182.26)"/><path class="cls-1" d="M379.42,241.51l.62.46Z" transform="translate(-26.92 -182.26)"/><path class="cls-1" d="M380.55,242.08l.63.46Z" transform="translate(-26.92 -182.26)"/><path d="M317.43,332.11l2.06,2.27c.1-.55.22-1.19.42-2.25.47,1.36.81,2.32,1.39,4v-6.34l.37,0c.48,2,.95,3.95,1.43,5.93l.53-.06c.28-1.54.56-3.09,1-5.39.44,2.19.74,3.71,1,5.08l1.8-1.56.67,3.77c.8-1.25,1.25-1.94,1.84-2.85l1,1.67.18-2.3,1.94,2.27.7-.46.27-3,1.59,5.74c1.63-.38,2.78-1,3.71-.79a22.24,22.24,0,0,1,4.28,2.15l3.36-2.41c.9,1.36,1.62,3.18,2.95,4.22,1,.8,2.81.6,4.21.36l2.88,2,.51-.58c.29,1.3.59,2.59.86,3.89.46,2.18,2,1.51,3.47,1.48,1.88-.05,4.06-2,6,1.31l-3.81.93c-.28,1.46,2.14,5.26-2.86,5l.49,2.86,4.2-1.32-1.88,3,2.84,3.05c-3.91,1.45-6.36,1.44-11.71-1.25-5.93,4-11.75,7.77-19.72,5.24.46-.83.86-1.57,1.31-2.37l-2.11-.55,4-1.45.61,3,.46-.15,2.23-7.13-2.62-2.24c-2.6,1.54-5.28,3.93-8.37,4.78-6.53,1.81-10.92-4-12.31-8.58-.83-2.75-1.83-3.25-4.46-2.08a25.85,25.85,0,0,0-9.08,6.9c-.28.33-1,.25-1.4.53-1,.69-2.55,1.41-2.62,2.23-.23,2.52-2,2.72-4.29,3.87l3.44-6.93-.39-.67L292.13,361l-.75-.52c1.57-2.27,3.12-4.55,4.73-6.8.43-.6,1.12-1,1.58-1.63.76-1,2.26-2.54,2-3-1-1.68-1.85-3.45-4.26-4.31-2.05-.74-3.2.95-5,.4-2.19-.69-4.66-.44-6.88-1s-2-2.45-.9-4c.92-1.27,2.3-2.23,3.13-3.54.47-.75.41-1.47,1.53-.76.34.22,1,0,1.52-.15,1.4-.47,2.76-1,4.51-1.7,0,.3,0-.15-.06-.57a6.61,6.61,0,0,0-.46-1.11c.45,0,.75-.14.92,0a6.13,6.13,0,0,0,6.63-.76c1-.8,2-2.61,3.9-1.27.13.09,1-1.24,1.69-1.54,2.08-.9,4.23-1.62,6.61-2.51,1,1,2.18,2.2,4.23.13,1.08-1.09,3.29-1,4.92-1.62a12.8,12.8,0,0,0,2.35-1.5l1.13,2.26c-2,.6-4.1,1.15-6.11,1.85-.41.15-.66.82-.95,1.28-.47.75-.91,1.53-1.36,2.3-.44.4-.82,1-1.34,1.16-2,.75-3.41,1.65-1.67,3.84a13.51,13.51,0,0,1,1.72-.43C317.63,335.16,318.6,334.26,317.43,332.11Z" transform="translate(-26.92 -182.26)"/><path d="M260.28,365.91c-.71,5.23-1.38,10.24-2.07,15.37-2.21-.69-3.71-3.26-5.34-.19-.2.37-1.65,0-2.52.1-1.61.12-3.23.21-4.83.47-1.33.21-2.68.34-2.85,2.34-.09,1-1.2,1.92-1.47,2.33-2-1.27-3.72-2.31-5.39-3.39-.24-.15-.57-.48-.53-.65a1.27,1.27,0,0,1,.63-.81c1.55-.63,3.18-1.07,4.69-1.8a5.46,5.46,0,0,0,2.11-1.85c3.84-6,10.2-8.54,16.11-11.7A6.63,6.63,0,0,1,260.28,365.91Z" transform="translate(-26.92 -182.26)"/><path d="M189.7,220.3c-.14,1.09-.25,1.92-.36,2.74l.78.11.8-5.75,4.5-2.89-.11-.86,7.37-6.1c1.48,1.24.48,3.06-.2,4.36-3.8,7.24-9.23,12.63-17.13,17.24.87-.63-.5-3.28,2.22-2.27,0-.44.09-.89.08-1.33C187.6,223.64,186.76,221.44,189.7,220.3Z" transform="translate(-26.92 -182.26)"/><path d="M318.14,388.55c-3-.76-6.18-1.52-9.37-2.38-5.07-1.37-8.42-5.11-11.78-9.23a59.15,59.15,0,0,1,7.4,1.8c3.06,1.16,5.95,2.78,8.93,4.17a2.12,2.12,0,0,0,1.24.16c2.65-.52,2.59,2.07,3.67,3.29C318.59,386.77,318.19,387.86,318.14,388.55Z" transform="translate(-26.92 -182.26)"/><path d="M204.44,267c-2.82-9.93-1.15-19.64,1.33-29.32C206.5,247.5,207.16,257.32,204.44,267Z" transform="translate(-26.92 -182.26)"/><path d="M257.37,286.42a3.94,3.94,0,0,1-2.74-3.32,4.55,4.55,0,0,0-1.26-2.72c-3.26-2.8-6.67-5.43-10.28-8.33l.18,2.39L240,268.6l.44-.52c1.1.85,2.17,1.76,3.31,2.55,2.33,1.61,4.71,3.13,7,4.74,2.58,1.77,5.09,3.64,7.68,5.4a25.28,25.28,0,0,1,2.44,1.23,11,11,0,0,1,1.52,2.52l-4.3-1.07-.16.5-1.77-2.25-.65.38C256.14,283.5,256.74,284.92,257.37,286.42Z" transform="translate(-26.92 -182.26)"/><path d="M65.45,397.26c-3.42,3.66-6.82,7.32-10.26,10.95a1.79,1.79,0,0,1-1.23.59c-1.22-.15-2.42-.48-3.62-.73.52-1,.77-2.42,1.59-3,4.15-3,8.45-5.74,12.7-8.57Z" transform="translate(-26.92 -182.26)"/><path d="M329.74,320.53a49.31,49.31,0,0,1,6.66-2,20,20,0,0,1,5.92.14c2.11.3,4.15,1.05,6.25,1.42.62.1,2,.7,1.83-1,0-.07.77-.41,1-.28,1.19.73,2.31,1.57,4,2.73-1.4.31-2.74,1-4,.84-4.5-.39-9-1-13.53-1.59l-.05-1c-1.25.7-2.41,1.86-3.61,1.9C332.54,321.66,330.92,320.85,329.74,320.53Z" transform="translate(-26.92 -182.26)"/><path d="M276,319.91c-.19,0-1,.11-1.09-.12-3.54-6.32-9.2-11.37-11.57-18.39l1-.78c1.72,2.08,3.77,4,5.09,6.26C271.85,311.08,273.82,315.52,276,319.91Z" transform="translate(-26.92 -182.26)"/><path d="M69.27,406.06c.48,3.9-5.48,11.29-8.94,11.37l.72-2.62-1-.5Z" transform="translate(-26.92 -182.26)"/><path d="M284.62,371.56l-5.52-1.1-.68-3.72C279.43,366.26,280.32,366.74,284.62,371.56Z" transform="translate(-26.92 -182.26)"/><path class="cls-1" d="M317.43,332.11c1.17,2.15.2,3.05-1.92,3.31a13.51,13.51,0,0,0-1.72.43c-1.74-2.19-.33-3.09,1.67-3.84.52-.19.9-.76,1.34-1.16Z" transform="translate(-26.92 -182.26)"/><path d="M218.05,230.76c.23,1.76.47,3.53.68,5.29.24,2,.44,4,.66,6.08l-1.07.12q-.6-5.56-1.21-11.14Z" transform="translate(-26.92 -182.26)"/><path d="M242.7,260.48l-2.59-3.27-1,1.3-3.91-2.66.56-.8C237.43,257.64,242.21,255.55,242.7,260.48Z" transform="translate(-26.92 -182.26)"/><path d="M178.61,240.8l2-3.59.72.56-1.77,4.58-1.63-2Z" transform="translate(-26.92 -182.26)"/><path d="M568.55,432.84l1.87-2.64c3.25,1.8,6.57,3.6,9.85,5.46,2.05,1.15,4.05,2.38,6.68,3.93-.93,1.46-1.74,4.36-3.42,5-3.77,1.46-7.65-.71-9.33-3.63S570.52,435.64,568.55,432.84Z" transform="translate(-26.92 -182.26)"/><path d="M556.23,429.64c.32.54.64,1.08.88,1.46l-4.19,3.77c-1.65-3-3.56-5.78-4.71-8.82a5,5,0,0,1,4.11-6.69c1.42,1.58,2.28,3,3.53,3.82C557.6,424.32,558,428.15,556.23,429.64Z" transform="translate(-26.92 -182.26)"/><path d="M532.06,428.87a4.06,4.06,0,0,0-1,.78c-2.09,2.64-4.85,2.33-6.07-.8a21.07,21.07,0,0,1-1.38-5c-.26-2,.1-4.19,2.59-4.43,2.75-.27,3,2.1,3.66,4.11A57.12,57.12,0,0,0,532.06,428.87Z" transform="translate(-26.92 -182.26)"/><path d="M453.57,431.06l.9.43.35-.33-2.29-2.45.48-.5,1.32,1.22.62-1.3c3.58,4.56,2.85,10,3.15,15.2.15,2.62-1.24,5.66,2.29,7.45-4.18-.89-5.16-2.08-5.16-5.65v-7.05h-.83V450.4h-.83Zm3.32.8-1.14,0,.78,16,.36,0Z" transform="translate(-26.92 -182.26)"/><path d="M464.6,450.31c-1.31-.63-2.56-1.57-3.93-1.81-2.32-.41-1.52-1.75-1.56-3.21-.16-5.2-.62-10.4-.88-15.61,0-.66.4-1.35.85-2.72.1,1.72.15,2.71.2,3.69l.73-.22c.49,1.25,1.38,2.48,1.42,3.75.17,4.73.07,9.48.07,14,1.14.85,2.07,1.55,3,2.23Zm-4.84-2.76.6,0V431.81l-.6,0Z" transform="translate(-26.92 -182.26)"/><path d="M589,421.21c-3.16,1.62-6.69,2.43-7.49,6.73a2.27,2.27,0,0,1-2,.63,15.28,15.28,0,0,1-2.41-2.7c.87-.7,2.13-2.18,2.55-2,2.36,1.19,3.54-1,5.28-1.49C586.32,422.07,587.65,421.62,589,421.21Z" transform="translate(-26.92 -182.26)"/><path d="M462.91,431.31l.73,15.4.52.07.33-3.19.35,0q.32,2.55.63,5.13c-3.82-.65-2.93-3.21-2.91-5.57,0-3.18-.27-6.36-.42-9.54,0-.77,0-1.55,0-2.32Z" transform="translate(-26.92 -182.26)"/><path d="M475.77,374.84c-2.7-1-3.6-4-2.32-7.2C475.93,369.53,475.74,372,475.77,374.84Z" transform="translate(-26.92 -182.26)"/><path d="M467.19,447.36c-.38-.56-1.05-1.12-1.08-1.71-.26-4.37-.42-8.76-.51-13.14,0-.46.57-.93.88-1.39l.71.18Z" transform="translate(-26.92 -182.26)"/><path d="M471.6,447.19V432.65h.49v14.42Z" transform="translate(-26.92 -182.26)"/><path d="M136.78,559c-12.86,3.31-22.54,12.72-34.57,17.93,2.5-3.31,5.49-5.28,10.7-7.78,4.56-2.19,8.89-4.86,13.46-7,3.26-1.54,6.75-2.58,10.13-3.85Z" transform="translate(-26.92 -182.26)"/><path d="M46.39,608.54a37.59,37.59,0,0,1,4.27-4c3.08-2.13,6.32-4,9.56-5.91a8.68,8.68,0,0,1,2.72-.6c-1.21,2.77-4.78,2.28-6.38,5.11-.86,1.52-3.56,2-5.55,2.82l-4.67,2.51Z" transform="translate(-26.92 -182.26)"/><path d="M213.43,557.89a49.63,49.63,0,0,1,4.67-2.08,140.12,140.12,0,0,1,14.44-4c-3.73,1.38-7.48,2.7-11.17,4.19a8.4,8.4,0,0,0-3.18,2.14c-1.52,1.74-2.65,1.35-3.9-.18-.12-.14-.56,0-.86,0Z" transform="translate(-26.92 -182.26)"/><path d="M213.43,557.88c-.34,1.08-.77,2.15-1,3.26s-.26,2.18-.39,3.27l-.72.16-4.08-4.93,6.21-1.75Z" transform="translate(-26.92 -182.26)"/><path d="M235.53,564.12c-.27-3.62,0-4,4-4.1l-3.1,4.73Z" transform="translate(-26.92 -182.26)"/><path d="M342.94,202l-15.37-7c.16-.38.33-.75.5-1.13l15.26,7.21Z" transform="translate(-26.92 -182.26)"/><path d="M352.33,205.76l-2.6-2,.37-1c8.67,5,8.67,5,8.24,5.91l-6.11-3Z" transform="translate(-26.92 -182.26)"/><path d="M317.11,192.77c1.77-1.27,3.09.17,4.49.81a34.27,34.27,0,0,1,3.44,2l-.35.7-7.54-3.6Z" transform="translate(-26.92 -182.26)"/><path d="M341.31,189.39c-3.1,1.55-5.15.34-7.22-1.94Z" transform="translate(-26.92 -182.26)"/><path d="M283.77,234.54l11.59,7.34-.46.74c-4.82-.91-7.72-5-11.82-7.08Z" transform="translate(-26.92 -182.26)"/><path d="M290.2,244.41,284.48,241C286.49,239,287.85,239.72,290.2,244.41Z" transform="translate(-26.92 -182.26)"/><path d="M314.15,247.3l9.11,4.6-.31.72-9.13-4.31Z" transform="translate(-26.92 -182.26)"/><path d="M341.18,223.21l1.84,2.34c-2.36-.51-3.22-1.79-3.25-4.16,3.3,1.06,6.39,2.05,9.46,3.09a3.68,3.68,0,0,1-.13.87l-7.29-2.67Z" transform="translate(-26.92 -182.26)"/><path d="M356.16,224.93l2.3,2.93-4-1.43.25-.76-2,.77-.27-1Z" transform="translate(-26.92 -182.26)"/><path d="M445.55,300.72,440.23,293c5.23.72,3.49,5.43,6,7.21Z" transform="translate(-26.92 -182.26)"/><path d="M374,236.26l-5.84-5.1.4-.51,6.33,4.68Z" transform="translate(-26.92 -182.26)"/><path d="M363.63,288.34l-15.54-1c5.25-1.45,10.51-4,15.56,0C363.65,287.68,363.64,288,363.63,288.34Z" transform="translate(-26.92 -182.26)"/><path class="cls-1" d="M456.89,431.86v16l-.36,0-.78-16Z" transform="translate(-26.92 -182.26)"/><path class="cls-1" d="M459.76,447.55v-15.7l.6,0v15.71Z" transform="translate(-26.92 -182.26)"/></svg>