<svg id="Layer_1" data-name="Layer 1" xmlns="http://www.w3.org/2000/svg" viewBox="0 0 424.22 677.91"><defs><style>.cls-1{fill:#fff;}</style></defs><title>HatGas</title><path d="M292.11,457.09l-6.2,2.26c-.44-.75-.61-1.41-1-1.67s-1,0-1.53,0c-1.78.28-3,1.48-4.17,2.67-.43.44-.75,1.07-1.26,1.35-4.56,2.51-7.54,6.65-10.81,10.48-.94,1.1-1.54,2.69-3.53,2.26-.29-.06-.83.59-1.1,1-.71,1.11-1.33,2.27-2.06,3.54a9.82,9.82,0,0,1-2-.85,54.7,54.7,0,0,0-13.56-6.64,127.12,127.12,0,0,1-13.95-6.48C215.47,457.33,200,449.55,184.47,442c-5.57-2.7-11.42-4.84-17.13-7.25-1.12-.48-2.21-1-3.31-1.54l.16-.53a25.7,25.7,0,0,1,4.94,1.1c2.27,1,3.92.55,5.11-1.19-.34-2.44-1.11-4.77-.88-7,.37-3.45-1.39-5.38-3.78-7.2a16.44,16.44,0,0,1-2.62-2.45,6.71,6.71,0,0,1-.89-2c-.12-.31,0-.82-.22-1-1.39-1.06-1.3-2.66-1.44-4.09-.34-3.41-1.81-6.54-2.41-9.85a80.29,80.29,0,0,1-.86-9.32c-.12-1.73.38-3.61-.15-5.17-1.19-3.52-1.27-7.17-1.68-10.75-.3-2.57-1.07-5.09-1.07-7.66,0-2.23-.25-4.47.61-6.74,1-2.65,1.79-5.4,2.94-8,.84-1.9,1.89-3.7,2.67-5.61a21,21,0,0,0,.76-3.53c2.05.41,2.41,2.52,3.75,3.59a15.07,15.07,0,0,1,4.07,5.91,9.83,9.83,0,0,0,4.38,5,13.35,13.35,0,0,1,3.84,3.18c1.76,2.1,4,3,6.55,3.66,4.53,1.26,9.13,2,13.71.9,2.79-.67,5.4-2.12,8.09-3.22,2.36-.95,3.88-2.77,5.5-4.69a46.69,46.69,0,0,0,10.1-18.72,109.69,109.69,0,0,0,2-11.15c.28-2,.07-4,.36-6a16.26,16.26,0,0,0-.47-7.14c-.15-.52.19-1.18.26-1.59a3.39,3.39,0,0,0,3.58-2.26c1.84,2.44,3.6,4.73,5.31,7.08a14.39,14.39,0,0,1,1.11,2.18c.08.15.13.48.16.47,1.76-.22,1.76,2.44,3.58,2.18.27,0,.62.48.93.74l3.58,3-1,.53c.86,1.39,1.65,2.64,2.42,3.91a11.35,11.35,0,0,0,.64,1.13c1.41,1.82,2.55,1.84,4,.1a4.19,4.19,0,0,0,.41-.58l4.62.57c.14-.29.24-.51.33-.74s.16-.47.17-.47c1.9.54,2.91-2.18,4.89-1.33.93.41,1.88.79,2.81,1.2a1.91,1.91,0,0,1,.45.36l1.91-1.61c.48.71.86,1.28,1.25,1.84.56.81,1,.89,1.88.17a24,24,0,0,1,4-2.16l1.19,1.35c1.41-.47,3.07-.51,3.51-1.26,1.2-2.05,2.37.67,3.43-.33.06-1.13.12-2.36.19-3.74.89,0,1.82-.14,2.07-1.29.19-.86,1-1.77-.43-2.42-.26-.12-.37-1-.29-1.42.25-1.37.64-2.71.94-4-4.73-4-7.46-9.39-11.06-14.33-1.84.12-4.16.86-6.19-.89.61-1,.19-1.77-.47-2.57a10.78,10.78,0,0,1-2.15.43,13.51,13.51,0,0,1-2.47-.47l1-1.33a10,10,0,0,0-2.34-1.85,8.06,8.06,0,0,0-2.76-.07l-2.83-2.73-1,1.51-1.84-.39.14-1.82c-2.3,1.56-4.95-.23-7.44,1.16-.29-2.11-1.63-2.45-3.11-2.48a2.29,2.29,0,0,1-1.91-1.09c-1.52-1.89-3.39-3.34-6-3-1,.12-2,.41-3.14.65,2.6.95,2.8,1.41,1.55,2.62l-3.43-1.79.43-1.6c-3.43-2.9-5.12-6.76-7.68-10.49h-1.86c-.13-1.46-1.14-2.3-2.42-3a48.63,48.63,0,0,1-6.86-4.39,29.77,29.77,0,0,0-8.08-3.79c-3.05-1-6.17-2.12-9.5-2-3.41-2-7.48-.1-10.94-1.85a.39.39,0,0,0-.26,0c-2.54.87-4.19-.42-5.58-2.31-.48-.66-.9-1.37-1.5-2.29l-3.61.54a7.89,7.89,0,0,1,1-2.28,31.43,31.43,0,0,1,3.85-3.24c2.76-2,5-4.17,4.64-8-.11-1.14,0-2.3,0-3.46,0-2.84-1.25-4.23-4-4.61-4.12-.56-8.32-.73-12.33-1.71-5.14-1.25-10.35-.92-15.48-1.58a41.62,41.62,0,0,1-8.8-2.66c-4-1.49-7.93-3.2-11.89-4.8-1.94-.77-3.12-2.4-4.44-3.87a1.47,1.47,0,0,1-.21-.75c-.58-4.34-1.62-5.44-5.82-6.19-.06,0-.1-.11-.27-.3,1.44-1.17,3.27-1.16,4.9-1.61,2.21-.62,4.48-1,6.71-1.53q15.92-3.65,31.8-7.32c5.69-1.31,11.34-2.75,17-3.94,4.23-.88,8.52-1.43,12.77-2.15,4.89-.82,9.76-1.74,14.65-2.49s9.62-1.34,14.44-1.92q10.66-1.29,21.34-2.45c5.72-.64,11.43-1.32,17.16-1.79,7.84-.64,15.72-1,23.56-1.68,9.49-.86,19-.36,28.47-.41q7.46,0,14.9.11c6.47.13,12.94.21,19.4.57,5.26.29,10.51.9,15.76,1.48,10.91,1.2,21.84,2.2,32.66,4.1,8.18,1.44,16.42,2.6,24.6,4,6.44,1.14,12.83,2.54,19.24,3.82,5.72,1.14,11.47,2.18,17.16,3.43,6.9,1.52,13.76,3.23,20.64,4.82,2.23.51,4.53.78,6.72,1.41,8.15,2.35,16.41,4.4,24.29,7.62a6.15,6.15,0,0,1,2.08,1.13,6.11,6.11,0,0,0,3.43,2.24c.74.14,1.28,1.41,2.24,2.58l-2.88.26a4.91,4.91,0,0,0-.29,1.73c.6,2.8-1.12,4.56-2.87,6.13-2,1.79-3.57,4.09-6.26,5.09a59.25,59.25,0,0,0-5.4,2.58,8.65,8.65,0,0,0-1.69,1c-1.7,1.4-3.39,2.76-5.67,3.12-1.87.29-3.48,1.6-5.6,1.15-.74-.15-1.67.91-2.58,1.18a54.14,54.14,0,0,1-14.47,2.55c-2.25,0-4.5.79-6.77,1.23a8.6,8.6,0,0,0-.71,5.2c.48,2.87.35,5.81,1.43,8.61a5.18,5.18,0,0,1-.19,2.87,9.37,9.37,0,0,0,.26,5.47,47.57,47.57,0,0,1,1.17,5.45c.22,1,.37,2.09.63,3.12.84,3.31,1.77,6.61,2.53,9.94a8.72,8.72,0,0,1-.13,2.87c-.21,1.74-.65,3.48-.69,5.23-.09,4.88,0,9.77-.07,14.65a22.43,22.43,0,0,1-.74,3.57c-.64,3.47-1.59,6.93-1.78,10.42-.22,4,.25,7.95.42,11.93a2.18,2.18,0,0,1-.06,1.06c-1.67,2.94-.34,5.85,0,8.77,0,.25,0,.51,0,1.28-1.69-2.39-1-5.26-2.78-7.12L451,346.33c-2.39-.78-2.73-3.36-4.92-3.75-.36-.07-.54-.87-.91-1.22-.69-.67-1.46-1.25-2.33-2,.47-1.15-.85-2.16-1.16-3.56l-2.49-.36c-.67-1.3-1.29-2.31-1.73-3.4a8.27,8.27,0,0,1-.29-2.07c-.09-.7.08-1.79-.3-2-2-1.34-1.54-3.29-1.6-5.17,0-.79-.26-1.95-.8-2.26-1.42-.83-2.88-2.07-4.74-1.23a2.08,2.08,0,0,0-1.09,1c-.85,2.75-3.07,4.6-4.47,7a18.41,18.41,0,0,0-1,1.77c-1.51,3.34-4,6-6.18,8.86-.57.77-1.25,1.46-2.05,2.38,2.25,2.95,4.52,5.75,6.61,8.69a113.28,113.28,0,0,1,6.71,10.19c.9,1.6.84,3.73,1.2,5.62a8.57,8.57,0,0,0,.44,2.56,73.46,73.46,0,0,0,5,7.8c.71.94,1.12,1.67.79,2.72,1.65,1.11,3.2,2,5.52,1.71-1.21-1.29-2.55-2.34-1.76-4.28l1.64-.12c-.06-.58-.12-1.05-.2-1.79l2.2.85c.12,1.07-1.64,1.5-.62,2.62a2.25,2.25,0,0,0,2.85.59,6.75,6.75,0,0,1,2.32-.15c.47,2.42-1.52,3.14-2.54,4.44,3,1.79,4.8,1.45,7-1.43l1.75,1,2.25-1.93c-.52-2.59-3.37-1.46-4.19-3.2,1.51-2,1.47-1.88,3.64-.88,1.37.64,2.57,1.87,4.34,1.44,1-.25,2.08-.36,3.69-.63-3.29,4.93-8.32,6.26-12.42,9,.07,1.36,1.14,1.88,2.05,2.53,5.7,4.06,11.63,7.85,17,12.27,6.86,5.6,13.37,11.64,19.89,17.64,3.5,3.23,6.69,6.8,10,10.2a30,30,0,0,0,2.36,2.14c5.57,4.67,10,10.53,16,14.74,4.35,3,8.23,6.76,13.09,9.08a15.62,15.62,0,0,1,2.25,1.75c-4.1-.68-7.57-1.32-11.06-1.8-2.62-.36-5.27-.58-7.92-.69-.69,0-1.39.67-2.13.91a4.72,4.72,0,0,1-2.18.39c-2.24-.41-4.41-1.29-6.65-1.47-5-.4-9.44-2.33-13.81-4.43a91.59,91.59,0,0,1-24-17c-6.87-6.68-13.76-13.35-20.58-20.08-3.54-3.49-6.95-7.11-10.41-10.67-.38-.39-.75-.76-1.13-1.13-3.31-3.21-3.64-3.24-7.52-.93-2.67,1.59-5.42,3.05-8,4.74a49.24,49.24,0,0,0-5.48,4.18,10.77,10.77,0,0,1-5.08,2.7c-4.3.82-8.26,2.68-12.19,4.5-4.59,2.11-9.07,4.46-13.54,6.82a44.19,44.19,0,0,0-8.94,6.16,104.07,104.07,0,0,1-8.8,6.84,31,31,0,0,0-8,8.78c-3.65,5.72-6,12-8,18.44-2.65,8.36-5.45,16.68-8,25.07-1.33,4.39-2.22,8.91-3.34,13.37a10.87,10.87,0,0,1-.89,2.49c-2.65,4.86-4.12,10.16-5.94,15.34-.59,1.67-1.29,3.3-1.85,5-.33,1-.48,2-.72,3.07a9.64,9.64,0,0,1-.42,1.51q-7.21,17.15-14.46,34.29c-2.55,6-5.12,12.08-7.63,18.14-1,2.54-2.18,4.82-5.85,3.72-.76,2.17-1.46,4.15-2.17,6.12a1.9,1.9,0,0,0,.88,2.49c1.54,1,2.91,2.14,4.89,2.49,2.18.38,4.6.72,6,3.06a14.24,14.24,0,0,0,3.39-4.22c7.21-10.84,14-22,22.77-31.71a235.8,235.8,0,0,1,17.27-16.93A270.11,270.11,0,0,1,385,519.94a218.28,218.28,0,0,1,47.07-23.34A224.28,224.28,0,0,1,464,487.38c6.94-1.38,13.94-2.51,20.94-3.58,5.59-.85,11.22-1.54,16.85-2.12a19.7,19.7,0,0,1,5.78.34c2.81.57,4.54,2.8,6,5a75.09,75.09,0,0,1,4.09,7.74c.82,1.64,1.23,3.78,3.9,2.68,1.4,1.25,3.22.26,4.75.88.34.14,1.07.11,1.17-.08.52-.95,1-1.08,1.8-.29.11.11.43.2.47.15,1.34-1.59,3.44-.17,4.91-1.24.13-.1.38-.23.46-.18,2.25,1.54,4.7-.11,7,.45v18.12c-5.34-1.19-10.67-2.41-16-3.56a8.26,8.26,0,0,0-2.15.11l-.15.59c.52.39,1.05.75,1.55,1.17A14,14,0,0,1,528,516c1.65,2.39,3.12,4.91,4.58,7.43s2.71,4.9,4.1,7.44c2-.37,3.85-.56,5.36.88V565.9c-1.85-.55-3.7-1.1-5.56-1.63-.75-.22-1.51-.41-2.28-.59-3.46-.8-7.54.74-10.29-2.75-.1-.12-.32-.15-.48-.2-4.4-1.32-8.82-2.55-13.18-4a7.1,7.1,0,0,0-4.13-.13,6,6,0,0,1-2.28.06c-1.39-.22-2.75-.57-4.13-.86-2.73-.58-5.53-.69-8.12-2.09a32,32,0,0,0-19-3.53,147.28,147.28,0,0,1-16.11.64A15.56,15.56,0,0,0,450,552a14.16,14.16,0,0,1-6,1.06,9.85,9.85,0,0,0-3.56.7c-3.52,1.43-6.95,3.07-10.47,4.51-2,.82-3.89,1.66-5.14,3.56a2,2,0,0,1-1.57.74c-2.68-.24-4.55,1.26-6.36,2.84a4.53,4.53,0,0,1-2.55,1.17c-2.51.34-4.94,1.22-6.41,3.36a15.3,15.3,0,0,1-5.15,4.43,9.54,9.54,0,0,0-2.19,1.47c-3.22,3.5-6.38,7-9.52,10.62-.32.36-.34,1-.54,1.45a43.76,43.76,0,0,1-2.76,6.2c-2.73,4.34-6,8.37-8.53,12.79-3.1,5.33-5.78,10.91-8.5,16.46-1.91,3.88-3.58,7.88-5.37,11.83-1,2.17-2,4.31-2.94,6.51-.71,1.7-1.24,3.48-1.89,5.21-.78,2.07-1.76,4.07-2.37,6.19-1,3.48-1.85,7-2.64,10.54a51.13,51.13,0,0,0-.71,5.24c-.37,3.25-.37,6.58-1.14,9.73-1.27,5.21-1,10.55-1.81,15.8s-1.06,10.37-1.57,15.55c-.38,3.78-.79,7.55-1.18,11.32-.53,5-1.11,10-1.56,15-.46,5.19-.79,10.4-1.18,15.6H263.85c.94-3.78,1.81-7.58,2.84-11.34,1.76-6.4,3.48-12.83,5.46-19.16a331.79,331.79,0,0,1,12.38-32.25,9.5,9.5,0,0,0,.66-3.85c-.09-2.91-.48-5.8-.61-8.71-.19-4.42-.37-8.85-.33-13.28a23.57,23.57,0,0,1,.89-6.54c2.56-8.39,5.27-16.73,8-25.06.69-2.09,1.68-4.1,2.58-6.12a3.13,3.13,0,0,0-.21-3.2,29.5,29.5,0,0,1-2.39-5.57,64.45,64.45,0,0,1-2-7.69,27.13,27.13,0,0,1-.13-4.69c0-2.75,0-5.5-.15-8.23a2.13,2.13,0,0,0-2.16-2.25c.76-1.79.66-2.56-.91-3.21-3.25-1.36-6.6-2.29-9.82.12a1.6,1.6,0,0,1-2.35-.17,9,9,0,0,1-1.27-1.35c-2.11-3.08-.44-8.64,3-10.09,2.18-.91,3.05-2.85,3.75-4.89,1-2.85,1.79-5.76,2.92-8.54,1.28-3.2,2.83-6.28,4.26-9.42,1.07-2.33,2.24-4.63,3.18-7,1.26-3.23,2.4-6.49,3.46-9.79.61-1.93,1-4,1.42-5.93a15.58,15.58,0,0,1,.48-1.78c.89-2.4,1.8-4.8,2.7-7.19.35-.91.71-1.82,1-2.74.22-.62.37-1.27.58-2a7,7,0,0,0-6.89,1.63,13.5,13.5,0,0,1-5.89,2.75,4.48,4.48,0,0,1-4.77-1.6c-.89-1.09-2-2-3-3-2-2.23-2-4.55.2-6.5,2.93-2.55,6.1-4.81,9.17-7.19.69-.55,1.42-1.05,2.09-1.63,4.14-3.6,8.21-7.3,12.44-10.8,2.57-2.13,4-4.94,5.37-7.81.66-1.34,1.47-2.61,2.13-3.95a62.77,62.77,0,0,0,2.7-5.76c.67-1.77.14-2.76-1.62-3.65a18.71,18.71,0,0,0-2-.77l-2.16-.81,5,.32c-.86-2.95-.91-5.53.72-7.91a19.82,19.82,0,0,0,3.75-2.05,6.19,6.19,0,0,0,1.45-2.77c1.1-3.26,2.11-6.56,3.14-9.84.45-1.43.91-2.86,1.32-4.3a4.4,4.4,0,0,0-.8-3.91c-1,.37-1.88.53-2.24,1.84-.22.83-1.06,1.5-1.64,2.22-.17.19-.62.33-.61.46.3,3.2-4.11,4.62-3,8.09-1.82,2-1.52,5.22-4.11,6.81-.92.56-1.47,1.67-2.28,2.44a3.22,3.22,0,0,1-4.34.39,31.72,31.72,0,0,1-4.3-3.43c-.85-.83-1.5-1.74-2.86-1.5-.25,0-.63.1-.76,0-1.65-1.62-3.52-.61-5.32-.5l6.53-1.93c.79-.23,1.74-.54,1.43-1.51a2.76,2.76,0,0,0-1.65-1.69,6.23,6.23,0,0,0-3,.43,6.88,6.88,0,0,0-2.23,1.4c-1.06.95-2.5,1.55-3.26,3.37Zm61.51-155c1,1.41,2,2.89,1.53,4.95-.12.58.75,1.51,1.36,2.05a5.51,5.51,0,0,0,1.91.65,10.67,10.67,0,0,0-.65,2.38,2.68,2.68,0,0,0,.51,1.92c1.54,1.45,3.22,2.74,4.8,4.06-.66.43-1.94.78-2.26,1.54a26.64,26.64,0,0,0-2,6.75c-.28,2.23,1,4.2,2.29,6,2-.24,1.83,1.48,2.33,2.59.29.63.59,1.25.87,1.89,1.09,2.56,3.44,3.86,5.44,5.51.19,0,.36,0,.53-.05,4-.74,5.53-3.16,4.47-7.1a25.47,25.47,0,0,1-1.19-6.5c1.4.31,2.53.29,2.81,2,.19,1.15,2.5,2,3.63,1.51a18.57,18.57,0,0,1,6.92-1.38,8.79,8.79,0,0,0,3.86-1.41,13.85,13.85,0,0,0,4.92-5.48,37.2,37.2,0,0,1,7.59-9.84c4-3.62,6.71-8.22,9-13a6.57,6.57,0,0,0,.22-1.65l-1.22.45c-2.89,1-4.42.49-5.83-2.3-.8-1.58-1.31-3.29-2-4.91-.36-.83-.86-1.59-1.4-2.58a31.83,31.83,0,0,0-3.33,3.56,6.38,6.38,0,0,1-4.68,2.57c-3.33.56-6.44,1.56-8.56,4.55-1.79,2.52-3.78,4.89-5.74,7.28a5,5,0,0,1-5.27,1.25c-1.54-.7-1.91-2.16-2-3.77-.08-2.35.11-4.56,1.59-6.57a5.93,5.93,0,0,0,.6-5.82,12.39,12.39,0,0,1-.94-3.58c-.12-3.31-1.74-5.41-4.94-6.55.24-1.85.48-3.64.78-5.88a19.9,19.9,0,0,1,2.15,1.34c2.16,1.79,4.28,3.64,6.44,5.43a3.09,3.09,0,0,0,1.41.65c.45.07,1.14,0,1.36-.26a1.45,1.45,0,0,0-.08-1.38,13.77,13.77,0,0,0-2.12-2,7.58,7.58,0,0,1-2.89-4.92,34.56,34.56,0,0,1,.19-13.44c1.2-5,4.9-7.73,8.64-10.53.05,0,.17,0-.08,0l3.6,4.4a2,2,0,0,1,.4.68c.47,2.08,1.85,3.85,1.23,6.31-.58,2.28-1.4,3.39-3.67,3-1.12-.21-2.19-.65-3.29-1a5.93,5.93,0,0,0-5.27.49,4.82,4.82,0,0,0,3.67,3.29c4.55.9,9.1,1.78,13.82,2.7,0-.66,0-1.17,0-1.67-.24-2.91-.35-5.84-.77-8.72a75.57,75.57,0,0,0-1.76-8.3c-.65-2.5-2.63-3.77-4.79-5-1.44-.82-2.93-1.39-4.25-.85-3.9,1.6-8.46,2.28-10.59,6.71a2.46,2.46,0,0,1-.75.72,29.56,29.56,0,0,0-4.79,4.89c-1.7,2-2.29,4-1.52,6.32a11.6,11.6,0,0,0-3,1.52c-3,2.91-5.93,6-8.88,9,.3,1.17.56,2.7.06,3-1.47.92-1,1.77-.54,2.89a21.36,21.36,0,0,1,1.1,3.18c.1.4-.17.9-.4,2l-2.82-3.83c-.69.93-1.3,1.78-1.93,2.62s-1,1.59,0,2.58c1.46,1.5,2.72,3.18,4.06,4.79-1.3,3.17-1.9,4.25,1.46,6.54Zm59.53-52.53c.76,2.11,1.26,3.75,1.94,5.31,1.71,3.94,3.28,7.87,1.72,12.28a5.46,5.46,0,0,0-.05,2.1,27.43,27.43,0,0,1-2.2,11.62c-.29.74-.53,1.73-1.85,1.81-.22-2.29-.42-4.54-.66-6.78s-.52-4.42-.78-6.61c4.31-2,4.5-2.46,3.76-6.11l-8.76,7.77a1.82,1.82,0,0,0-.27,2.41q2.6,5.69,5.11,11.39a16.87,16.87,0,0,1,.94,3c.61,2.78,1.16,5.57,1.75,8.44.38-.22.6-.27.65-.4,4.72-10.43,8.2-21.16,7.62-32.81a29.58,29.58,0,0,0-1.05-6.75c-1.89-6.5-6.62-10.77-12-14.42a13.19,13.19,0,0,0-3.91-1.54c-1.27-.34-2.66-.26-3.9-.65-2.47-.76-4.69.11-6.95.8-1.17.35-1.32,1.15-1,2.31.68,2.24,2.21,3.9,3.47,5.87,1.44-1.27,2.15-3,4.12-3.4A14.23,14.23,0,0,0,404.1,244c2.39-1.1,3.07-1,4.14,1.39A6.62,6.62,0,0,0,413.15,249.53ZM194.42,416.14c.34-1.51,1.19-2.73.75-4.29-.38-1.3-.3-2.74-.57-4.08a12.29,12.29,0,0,0-.9-2.25c-.58.28-1,0-.65-.5.74-1.11-.19-1.77-.46-2.64-.41-1.29-2.14-1.7-2.08-3.26-1.66-.66-1.76-3.07-3.77-3.35-.78-.12-1.56-.28-2.32-.47-1.21-.31-2.31-.31-2.85.91l-.91-1.25c-.5.4-1.17.71-1.46,1.24a27,27,0,0,0-1.31,3.27l.34.94c-.86,1-1.93,1.7-2.06,2.54-.28,1.7-2,2.07-2.62,3.33-.12.23-1,.11-1.46.09s-.94-.12-1.43-.19a4.7,4.7,0,0,0,3.88,5.18c.25.07.46.28.71.36,4.24,1.41,7.6,4.39,11.49,6.4,2.22,1.14,4.37,2.84,7.18,1.79a1.29,1.29,0,0,1,1,.18c1.65,1,1.76,1,3.14-.43l-1.19-1.84-1.54,1.09C196.17,417.17,195.46,416.53,194.42,416.14ZM327.81,298.4c1.91-1,1.79,1.66,3.1,1.72.86-1.91.76-1.79-.57-2.91-1.59-1.34-3.54-2.37-3.3-5.16a7.79,7.79,0,0,0-1.18-5.71,22.77,22.77,0,0,0-6.66-5.92,8.63,8.63,0,0,0-2.79-.48c-.23,2.92-.74,5.55-.57,8.14a79.92,79.92,0,0,0,1.51,9.4,118.36,118.36,0,0,0,3.47,14.25c.1.34.56.57.86.85.21-.31.45-.6.64-.93.11-.17,2.37-3.1,2.51-3.14l3.19-1c-1.81-1.72,1.07-2.58.32-4.34C327.74,301.82,328,300.08,327.81,298.4Zm34,258.77.79.22c.67-.55,1.35-1.08,2-1.64q8.31-7.2,16.61-14.41a21.7,21.7,0,0,0,2.64-2.61c1.1-1.36.71-2.54-1-2.91-3.11-.67-6.15-.75-8.76,1.57-2.43,2.16-5,4.19-7.33,6.44a10.6,10.6,0,0,0-2.35,3.48,79.29,79.29,0,0,0-2.6,7.51A8.37,8.37,0,0,0,361.79,557.17Zm26.36-270.06a3.13,3.13,0,0,0,3.64,1.95c1.39-.43,2.41,0,3.56.26s2.18.56,3.49.91a11.76,11.76,0,0,0,.91-2.55c.23-2.31.5-4.74-2.72-5.36-.18,0-.39-.34-.45-.56-.87-3.13-3.45-3.24-6.16-3.65.67,2.94,3.26,4.75,3.46,7.61Zm23.3,84.09c-1.49-.52-2.87-1.57-4.18,0a3.22,3.22,0,0,0,.45,3.94C409.2,374.19,411.05,373.58,411.45,371.2Zm-28.28,28.86c-2.74.76-2.92,1-1.87,2.68C382.88,401.45,382.88,401.45,383.17,400.06Zm-55.9-87.88L329.1,310c-.79-.17-1.51-.55-1.79-.34C326.57,310.19,326.44,311,327.27,312.18Zm-.74,43.53c1,.14,1.64-.17,1.59-1.16,0-.29-.84-.85-1.09-.76C326.11,354.14,326.13,354.92,326.53,355.71ZM353.89,414c.3,1,.51,1.69.77,2.52C356.07,414.23,356.06,414.2,353.89,414Zm-25.54-96.79c-.72.38-1.4.74-.88,1.7a.93.93,0,0,0,.89.27C329.1,318.58,329.16,317.92,328.35,317.16Zm11.49-14.33-.81-1c-.31.32-.84.64-.86,1s.52.65.82,1Z" transform="translate(-117.86 -74)"/><path class="cls-1" d="M346.47,751.91c.39-5.2.72-10.41,1.18-15.6.45-5,1-10,1.56-15,.39-3.77.8-7.54,1.18-11.32.51-5.18.74-10.42,1.57-15.55s.54-10.59,1.81-15.8c.77-3.15.77-6.48,1.14-9.73a51.13,51.13,0,0,1,.71-5.24c.79-3.53,1.63-7.06,2.64-10.54.61-2.12,1.59-4.12,2.37-6.19.65-1.73,1.18-3.51,1.89-5.21.91-2.2,2-4.34,2.94-6.51,1.79-3.95,3.46-7.95,5.37-11.83,2.72-5.55,5.4-11.13,8.5-16.46,2.56-4.42,5.8-8.45,8.53-12.79a43.76,43.76,0,0,0,2.76-6.2c.2-.48.22-1.09.54-1.45,3.14-3.57,6.3-7.12,9.52-10.62a9.54,9.54,0,0,1,2.19-1.47,15.3,15.3,0,0,0,5.15-4.43c1.47-2.14,3.9-3,6.41-3.36A4.53,4.53,0,0,0,417,565.4c1.81-1.58,3.68-3.08,6.36-2.84a2,2,0,0,0,1.57-.74c1.25-1.9,3.14-2.74,5.14-3.56,3.52-1.44,6.95-3.08,10.47-4.51a9.85,9.85,0,0,1,3.56-.7,14.16,14.16,0,0,0,6-1.06,15.56,15.56,0,0,1,6.44-1.17,147.28,147.28,0,0,0,16.11-.64,32,32,0,0,1,19,3.53c2.59,1.4,5.39,1.51,8.12,2.09,1.38.29,2.74.64,4.13.86a6,6,0,0,0,2.28-.06,7.1,7.1,0,0,1,4.13.13c4.36,1.45,8.78,2.68,13.18,4,.16,0,.38.08.48.2,2.75,3.49,6.83,2,10.29,2.75.77.18,1.53.37,2.28.59,1.86.53,3.71,1.08,5.56,1.63v186Z" transform="translate(-117.86 -74)"/><path class="cls-1" d="M542.08,531.78c-1.51-1.44-3.35-1.25-5.36-.88-1.39-2.54-2.69-5-4.1-7.44s-2.93-5-4.58-7.43a14,14,0,0,0-2.72-2.46c-.5-.42-1-.78-1.55-1.17l.15-.59a8.26,8.26,0,0,1,2.15-.11c5.34,1.15,10.67,2.37,16,3.56Z" transform="translate(-117.86 -74)"/><path d="M196.16,751.91c-.27-4.6.92-8.86,2.63-13.1.87-2.16.91-4.63,1.49-6.92.47-1.85,1.16-3.65,1.79-5.45a20.66,20.66,0,0,1,1.56-3.89,4.49,4.49,0,0,1,2.3-1.87c1-.32,1.38.82,1.76,1.62.26.54.54,1.07.75,1.47-2.38,2.47-4.55,4.88-5,8.49a90.57,90.57,0,0,1-1.67,9.79c-.33,1.5-1.31,2.84-1.84,4.31-.64,1.82-1.12,3.7-1.67,5.55Z" transform="translate(-117.86 -74)"/><path d="M542.08,464.09l-2.15-2.89,2.15.23Z" transform="translate(-117.86 -74)"/><path d="M257.48,79.78a18.08,18.08,0,0,0,2.3-1.07c1.5-1,1.46-1,2.75.39a2.58,2.58,0,0,0,.9.42c1.54-2.15,1.55-2.16,4.3-1.85.79.09,1.57.27,2.36.35.61.06,1.47.28,1.8,0,1.34-1.24,2.68-.88,4.15-.41a3.3,3.3,0,0,0,1.74-.16c.93-.25,1.83-.63,2.57-.89l3.26,2.27-.35-3a1.82,1.82,0,0,1,.7-.16c1.1.2,2.19.46,3.29.67.33.07.91.17,1,0,1.09-1.71,3.2-.4,4.48-1.55a1,1,0,0,1,1-.06c2.89,1.55,5.81.78,8.47-.3,2.21-.89,4-.33,5.74.59.92.47,1.67.91,2.7.46a1.27,1.27,0,0,1,1,0,2.9,2.9,0,0,0,3.69-.21c1.65.13,2.86.15,4,.35s2.54-.44,3.38,1a1,1,0,0,0,.93.29c1.15-.82,2.21,0,3.31.06,1.37,0,2.67.64,4.14.16a3.88,3.88,0,0,1,3.65,1.12,3,3,0,0,0,4.06.28,2.43,2.43,0,0,1,2.15.07,4,4,0,0,0,3,.46c2.46-.51,2.63-.38,3.85,2.19H351l.23-.5L349,79.06l6.21.84,5,3.53.58-.33c-.05-.81-.09-1.61-.14-2.5,1.4-.61,2.83-1.2,4.36,0a1.41,1.41,0,0,0,1.22,0c.8-.41,1.27-.1,1.9.36.32.23,1,0,1,.19l1.5,1.71c3.81-2.53,6.43-1.88,7.57,1.2,2.31.34,2.57.28,4-1,1.41.92,2,3,4.28,3,.1-.61.2-1.23.32-2,1.55.68,2.88,1.35,4.63.85,1.47-.42,2,.67,1.53,2.78,1.3,1.53,2.31.46,3.36-.55l3.24,1.52c1.35.13,2.52,0,3.38.4s2.26.59,2.16,2.27c-.07,1.09,1,1.46,1.94,1.17,1.71-.52,3.28-.71,4.59.88.24.28.81.3,1.22.43,2.06.66,4.15,1.23,6.15,2a5.14,5.14,0,0,1,2.25,1.82,4,4,0,0,0,3.06,2.08,4.71,4.71,0,0,1,1.45.62c1.16.57,2.32,1.16,3.7,1.86a2.59,2.59,0,0,0,2.18,2.26,1.16,1.16,0,0,1,.67.36c1.67,2.29,3.49,4.5,4.92,6.94,1,1.68,1.19,3.72,3.06,5,1,.68,1.43,2.16,2.12,3.3-.33.37-.66.76-1.14,1.29l2.12,2.46c-.47.5-1.63.9-.69,1.86,2.44,2.51,2.67,5.66,3.18,8.93a76.81,76.81,0,0,1,.75,8.8,50.84,50.84,0,0,0,.74,5.16l-1.72.89c.2,1.12,1,2.68.55,3.68-.81,1.8.49,2.19,1.24,3.05l.47.52a21.72,21.72,0,0,0-1,2c-.38,1-1.36,1.84-.32,3,.25.29,0,1,0,1.53s-.25,1-.07,1.14c1.55,1.67,1,4,1.79,5.84.64,1.55-.45,2.79-.6,4.29H445.3c3.89,3,3.14,6.59,2.06,10.39l-7.26-1c-5-.71-10-1.34-15-2.14-8.2-1.34-16.37-2.91-24.59-4.14-7.52-1.12-15.08-2-22.63-2.82s-15-1.59-22.46-2.14-15.21-.73-22.81-1.22c-4.85-.31-9.68-.88-14.52-1.34-4-.38-7.92-.79-11.89-1.11-6.88-.56-13.76-1.07-20.64-1.58-1.59-.11-3.19-.15-4.78-.17-7.9-.14-15.79-.46-23.68-.34-10.45.16-20.89.57-31.33,1.06-5.12.23-10.22.88-15.32,1.31-2.47.21-5.09,1-7.37.39-2.88-.72-5.24,1-7.9.67-.43-.05-.89.1-1.32,0-1.37-.17-1.74-.87-1.29-2.31,1-3.2,1.11-3.32,4.1-4.34l-.73-4.07c-.38-1.18,2-.48,1.45-2.35-.21-.78.65-1.86,1.07-2.79a12.21,12.21,0,0,1,.8-1.31l-1.12-1.52c1.51-.19,2.14-.87,1.84-2.39l-3.1-.14c1-2.87,4-3.64,5-6.27l-.71-1.49,2.39-2.17-1.94-2.06c1.67-3,3.38-6.07,5.1-9.18l-3.15-2.54a18.51,18.51,0,0,0,1.21-1.69c.23-.42.57-1.12.39-1.38-.87-1.32.14-1.71,1-2.18.53-.3,1.27-.35,1.66-.76,1.45-1.51,1.3-2-.81-3.46.57-1.63-.18-3.8,2-4.82.19-.09.18-.62.27-.94l.76-2.66,1.38.61.21-.36-2.35-1.52,3.88-2.57-1.2-1.76a8.46,8.46,0,0,1,2-2c.59-.29,1.05-.06,1.11-1.09.08-1.34,1.37-1.68,3.47-1.21a54.11,54.11,0,0,1,4.28-5.32c1.39-1.37,3.23-2.27,4.78-3.49a20.51,20.51,0,0,0,2.23-2.39,5.9,5.9,0,0,1,1.22.11,4.24,4.24,0,0,0,3.71-.86,9,9,0,0,1,6.35-1.94,5.29,5.29,0,0,0,2.7-.83c1.57-.88,3.06-1.42,4.34-.1l3.51-1.38c.86,1.34,1.64,2.23,3,.76a1.33,1.33,0,0,1,.93-.33C257.1,81.9,257.91,81.28,257.48,79.78Zm106.41,8.44c.35-1.1.2-1.85-.84-2-1.26-.15-1.94.52-2.09,2Zm42.32,9.58c.66,1.51,1.44,1.7,2.27,1.06.31-.24.27-.91.5-1.79ZM218.05,137.3c-.34-.3-.57-.66-.82-.68s-.42.41-.62.64a3.17,3.17,0,0,0,.77.52C217.51,137.82,217.74,137.54,218.05,137.3Zm-8.14-21.64c.22-.39.45-.63.4-.76a.72.72,0,0,0-.56-.37c-.17,0-.36.24-.54.38Z" transform="translate(-117.86 -74)"/><path d="M217,501.94a36.92,36.92,0,0,0,2.3-3.12c.57-1,.7-2.05-.47-2.79a26,26,0,0,0-10.6-4.18c-1.06,2.67.06,5,.76,7.72-1-.33-1.62-.5-2.24-.79-6.95-3.16-14-6.19-20.8-9.58-2.74-1.35-5.09-3.48-7.62-5.24a10.73,10.73,0,0,0-5.38-2,6.92,6.92,0,0,1-2.47-.88c-5.22-2.68-10.39-5.41-16.19-6.7a13.51,13.51,0,0,1-6.12-3.63,29.44,29.44,0,0,1-4.55-4.65,4.61,4.61,0,0,0-1.67-1.27,14.21,14.21,0,0,1-6-5.62c2-.11,3.89-.28,5.74-.29a2.64,2.64,0,0,0,2.74-1.61c1-2,2-3.93,3.08-5.87.92-1.65,1.19-1.78,3-1.07,1.47.58,2.86,1.35,4.42,2.1.85-1.47,1.64-2.89,2.48-4.28.63-1-.06-1.65-.69-2.24s-1.53-1.31-2.67-2.28c2.63-.6,4.6.2,6.49.88a280.81,280.81,0,0,1,27.06,11.64c4.78,2.29,9.48,4.76,14.25,7.1,7.29,3.59,14.67,7,21.91,10.73,7.65,3.91,15.19,8,22.78,12.08,1.25.66,2.53,1.27,3.76,2a6.26,6.26,0,0,1,1.9,1.67c-4.05-.42-7-3.54-11.31-4.27a13.25,13.25,0,0,0,4.39,3.87,23.82,23.82,0,0,1,2.18,1.48,1.79,1.79,0,0,1,.47,2.37c-1.27,2.51-2.5,5-3.78,7.62l-5.75-.67-.31.58a26.37,26.37,0,0,0,2,1.78c1.06.78,2,1.67,1.62,3.07s-1.84,1.86-3.19,1.87a20.9,20.9,0,0,1-5.55-.33c-5.23-1.41-10.38-3.07-15.56-4.65C217.25,502.36,217.17,502.16,217,501.94ZM169.7,456c-1.48,3.61-1.47,4.41.32,5.67,2.48-2.15,2.93-3,4.4-8.62-1-1.46-2.07.25-3-.18l-3.25-1.67a14.94,14.94,0,0,0-.54,2.83,3.73,3.73,0,0,1-2.05,3.87,7.58,7.58,0,0,0-1.35,1.1c1.67,1.49,2.21,1.57,2.92.16.44-.87,1.74-1.42,1.25-2.72Zm20.51,28.1c1.36-2.13,2.41-3.76,3.53-5.5-.93-2.23-1.69-2.67-4.51-2.4.13.34.22.68.37,1,1.68,3.3,1.62,3.44-2.3,4.32Z" transform="translate(-117.86 -74)"/><path d="M216.77,287.25c-1.36,1-2.09-.34-2.56-1-2.72-4-6.69-6.25-10.76-8.42a8.78,8.78,0,0,0-9.1,0c-1.66,1-3.39,1.84-5.11,2.69-3.08,1.52-5.44,3.92-7.82,6.3a3.31,3.31,0,0,0-1,3.35c.32,1.61.72,3.39-.92,4.66-.38.3-.87.47-1.25.77s-.92.63-1.07,1.05c-3.05,8.75-4.34,17.67-2.57,26.88.08.43.16.87.22,1.31.17,1.2-.82,2.65.92,3.52,1.12.57,1.58,1.94,3.19,2.15,1.14.15,2.15,1.36,3.21,2.11.36.25.67.66,1.05.74,1.36.29,2.81.14,4,1.14,1,.83,2.16,1.5,3.3,2.28v2.31l-2.58.48c-1.24,2.33-.7,4.05,1.41,5.45a2.44,2.44,0,0,1,.8,1.58c.35,2.9,2.31,4.69,4.37,6.36a36.49,36.49,0,0,1,5.3,5.21c-.86.17-1.32.3-1.8.35q-2.73.31-5.48.58c-2.73.27-5-1.06-7.16-2.35a83,83,0,0,1-7.77-5.47,14.63,14.63,0,0,1-2.41-2.77c-2.82-3.62-5.5-7.31-6.78-11.82-.26-.91-.93-1.7-1.28-2.59-.46-1.18-1.53-2.15-1.13-3.65.07-.28-.57-.75-.88-1.14-.39.38-1.07.73-1.12,1.15a13.63,13.63,0,0,0,.11,2.71l-1.81-1.52c.79-2.59-.49-4.82-1.41-7.12l1.07-.36c-1.55-1.68-1.6-3.7-1.68-5.73-.07-1.56-.21-3.12-.32-4.69a13.37,13.37,0,0,1,.41-4.43c.59-2.27.66-4.67,1-7a34,34,0,0,1,1-4.58c.7-2.27,1.56-4.5,2.36-6.74a6.18,6.18,0,0,1,.53-1.44,59,59,0,0,1,10.77-12.33,24.3,24.3,0,0,1,16.31-6,20.67,20.67,0,0,1,8.83,2.59,29.89,29.89,0,0,1,6.76,4.12c2.79,2.52,5.12,5.55,7.66,8.35.34.37.74.68,1.1,1Z" transform="translate(-117.86 -74)"/><path d="M242.21,631.63c2.55-2.29,2.39-3.74,0-4.86s-2.85-3.22-1.2-5c.82-.89,1.26-1.65.44-2.77s-.56-2.69-.43-4.28a6.17,6.17,0,0,1,1.3.51,3,3,0,0,0,4.52-1.06c.3-.53.6-1.36,1-1.46a2.23,2.23,0,0,0,1.83-2.2c0-.17.12-.43.24-.46,2.21-.7,2.53-3.26,4.33-4.37a3.42,3.42,0,0,1,3.21-.62,2.14,2.14,0,0,0,2.87-1.55c.51-2.12.91-4.27,1.41-6.7l-2.34.63c-.25-1.06-.52-2.17-.78-3.28l-.62,0c-.08,1.32-.15,2.64-.25,4.36-.84-.06-1.83.17-2.32-.22-.83-.66-.37-1.51,1.56-3.19l-.69-2.72c5-1,5-1,6.73-.39.15,1.2.35,2.38.43,3.56.1,1.7.7,3.59-1.47,4.57-.13.06-.3.34-.25.43.66,1.32-.77,2.4-.48,3.54.47,1.88-.74,3.1-1.35,4.8.25.6.57,1.41.79,1.94-.54.68-1.17,1.15-1.3,1.72a3.72,3.72,0,0,0,.22,2.31c.61,1.23.3,2.16-.9,3.29,2.18.1,2,1.57,2.06,2.93l3.52.29a3.73,3.73,0,0,1,3.37,4.78,9.79,9.79,0,0,1-2.85,4.7,20.84,20.84,0,0,0-5.48,8.24,8.46,8.46,0,0,1-5.3,5.56c-1.55.54-3.08,3.5-2.93,5.19a3.58,3.58,0,0,1,.05,1.45c-.63,1.71-6,6.86-7.73,7.62l-4.53-6.12c.38-.26,1.13-.51,1.46-1a3.57,3.57,0,0,0,.67-2.3c-.17-.79-1.47-.63-2.47.23a10.6,10.6,0,0,1-2.55,1.77c1-2.81,2.94-5.2,2.75-8.43l-3-2.36c0-1,.63-1.13,1.43-1.49,2.56-1.13,3.18-3.23,1.9-5.88l-1.93.75c.45-2.75.88-5.31,1.32-8,1.5.14,2.05,1.17,2.43,2.52A25.25,25.25,0,0,0,242.21,631.63Zm12.93.12c-1.55-.5-1.93.77-2.47,1.56-1.12,1.65-2.08,3.41-3.16,5.09a2.5,2.5,0,0,1-1.06.93c-1.77.73-1.78.7-.56,2.76l1.65-2.26c2.63,2.36,3,2.35,4.76-.09L252,638.32c.5-1.06.5-2.08,1.8-2.76A2.85,2.85,0,0,0,255.14,631.75Zm-6.77.75c1-2.67,1.93-5.33,1.63-8.23C248.47,626.82,246.92,629.35,248.37,632.5Zm4.43-15.85c-1,.12-1.67,1.17-1.12,1.81a14.51,14.51,0,0,0,3,2.35c.16.11.86-.26,1-.56s-.23-1-.45-1c-1.08-.18-1.39-.78-1.48-1.79C253.68,617.14,253,616.86,252.8,616.65Zm3.4-6.58c-.52-1.66-1.2-2.23-2-1.63s-1.1,3.16-.44,4.19Zm-10.72,25c1.58-2.88,1.52-5-.13-6.88A14.08,14.08,0,0,0,245.48,635.07Z" transform="translate(-117.86 -74)"/><path d="M211.47,715.78a15.73,15.73,0,0,0-2,.85c-.82.47-1.77,1-2.36,0a2.32,2.32,0,0,1-.11-2.93c.39-.46.54-1.12.93-1.58a3.72,3.72,0,0,0,1.15-3.08.93.93,0,0,1,.16-.75c2.64-2.13,1.66-5.63,3.16-8.25a81.66,81.66,0,0,0,3.58-8.24c.73-1.7,1.09-3.77,2.31-5,2.08-2.07,2.37-5,4.26-7.12.72-.79,1.23-1.73,2.77-1.72.07.61.43,1.47.15,1.84-.91,1.18,0,3-1.77,4a5.12,5.12,0,0,0-1.9,2.4c-2.41,5.09-4.75,10.22-7.07,15.36a5.87,5.87,0,0,0-.49,2,10.62,10.62,0,0,1-2.11,5.86A5.62,5.62,0,0,0,211.47,715.78Z" transform="translate(-117.86 -74)"/><path d="M453.23,348.83l2.58-.46c1.4,3,1.81,5.87.17,9.12a9.13,9.13,0,0,1-2.77-1.16c-.61-.54-1.27-2-1-2.36C453.42,352.46,453.28,350.77,453.23,348.83Z" transform="translate(-117.86 -74)"/><path d="M448,346.15c.23.71.82,1.53.63,2.1-.61,1.83,0,3.5.41,5.17.26,1.17-.13,2-.64,3.23-.67-.65-1.41-1-1.41-1.44,0-3,.1-6,.18-9Z" transform="translate(-117.86 -74)"/><path d="M441.61,362.07l1.79-3.14c2.34.12,2.34.12,2,4.17C443.72,363.9,442.6,363,441.61,362.07Z" transform="translate(-117.86 -74)"/><path d="M234.87,655.47l1.72-2c2.58,2.77,2.58,2.77.4,4.81Z" transform="translate(-117.86 -74)"/><path d="M440.2,346.73c0-1.63,0-2.9,0-4.17a3.63,3.63,0,0,1,.4-1.48,1,1,0,0,1,.85-.37c.27,0,.73.39.72.58a18,18,0,0,1-.51,3.6C441.47,345.54,440.77,346,440.2,346.73Z" transform="translate(-117.86 -74)"/><path d="M251.58,326l-.46-1.13,1.94-1.47c.12,1.53,1.7.87,2.68,1.48l-3.61,1.69Z" transform="translate(-117.86 -74)"/><path d="M449.41,362.5c0-.85-1.43-1.81.13-2.69a1.81,1.81,0,0,1,.94,2.37,1.87,1.87,0,0,1-2.43,1.5Z" transform="translate(-117.86 -74)"/><path d="M266.38,585.56c-.4-1.34-3.14-1.35-2.1-3.7C266,582.64,266.77,583.75,266.38,585.56Z" transform="translate(-117.86 -74)"/><path d="M154.65,366.07c-.76-1.32-1.32-2.49-.24-3.86C155.9,363.61,155.93,364,154.65,366.07Z" transform="translate(-117.86 -74)"/><path d="M454.46,371.07c-1.41.92-2,.87-2.48-.23-.14-.34-.11-1.09,0-1.16a1.67,1.67,0,0,1,1.35,0A5.46,5.46,0,0,1,454.46,371.07Z" transform="translate(-117.86 -74)"/><path d="M251.58,326l.55.57c-.17,1-.34,2-.53,3.2-1.23-.75-1.57-1.32.43-2l-2.29-.25Z" transform="translate(-117.86 -74)"/><path d="M454,360.58c2.38,1.26,2.55,1.72,1.46,3.42C455,363,454.58,362,454,360.58Z" transform="translate(-117.86 -74)"/><path d="M216.75,287.28l2.15,4.32c-1.93-1.07-2.48-2.21-2.14-4.34C216.77,287.25,216.75,287.28,216.75,287.28Z" transform="translate(-117.86 -74)"/><path d="M519.43,457.48l-2.76.75-.36-1.84,3,1.15Z" transform="translate(-117.86 -74)"/><path d="M158,402.07c-1.11-.47-1.19-1.13-.49-1.85a1,1,0,0,1,.94,0C159.27,401.11,158.52,401.55,158,402.07Z" transform="translate(-117.86 -74)"/><path d="M249.84,325.15l-1.58,1-.23-.33,1.62-1.06Z" transform="translate(-117.86 -74)"/><path d="M278.6,325.27l1.13.51c-.12.21-.31.62-.36.6a7,7,0,0,1-1-.51Z" transform="translate(-117.86 -74)"/><path d="M519.35,457.54l1.33,1.41c-1.36-.15-1.36-.15-1.26-1.46Z" transform="translate(-117.86 -74)"/><path d="M275.85,325.59l.86,1.68C275.83,327.19,274.86,327.22,275.85,325.59Z" transform="translate(-117.86 -74)"/><path class="cls-1" d="M353.62,302.06l1.31-1.79c-3.36-2.29-2.76-3.37-1.46-6.54-1.34-1.61-2.6-3.29-4.06-4.79-1-1-.63-1.72,0-2.58s1.24-1.69,1.93-2.62l2.82,3.83c.23-1.08.5-1.58.4-2a21.36,21.36,0,0,0-1.1-3.18c-.49-1.12-.93-2,.54-2.89.5-.32.24-1.85-.06-3,2.95-3,5.84-6.07,8.88-9a11.6,11.6,0,0,1,3-1.52c-.77-2.35-.18-4.34,1.52-6.32a29.56,29.56,0,0,1,4.79-4.89,2.46,2.46,0,0,0,.75-.72c2.13-4.43,6.69-5.11,10.59-6.71,1.32-.54,2.81,0,4.25.85,2.16,1.22,4.14,2.49,4.79,5a75.57,75.57,0,0,1,1.76,8.3c.42,2.88.53,5.81.77,8.72,0,.5,0,1,0,1.67-4.72-.92-9.27-1.8-13.82-2.7a4.82,4.82,0,0,1-3.67-3.29,5.93,5.93,0,0,1,5.27-.49c1.1.32,2.17.76,3.29,1,2.27.41,3.09-.7,3.67-3,.62-2.46-.76-4.23-1.23-6.31a2,2,0,0,0-.4-.68l-3.6-4.4c.25.06.13,0,.08,0-3.74,2.8-7.44,5.5-8.64,10.53a34.56,34.56,0,0,0-.19,13.44,7.58,7.58,0,0,0,2.89,4.92,13.77,13.77,0,0,1,2.12,2,1.45,1.45,0,0,1,.08,1.38c-.22.28-.91.33-1.36.26a3.09,3.09,0,0,1-1.41-.65c-2.16-1.79-4.28-3.64-6.44-5.43a19.9,19.9,0,0,0-2.15-1.34c-.3,2.24-.54,4-.78,5.88,3.2,1.14,4.82,3.24,4.94,6.55a12.39,12.39,0,0,0,.94,3.58,5.93,5.93,0,0,1-.6,5.82c-1.48,2-1.67,4.22-1.59,6.57.07,1.61.44,3.07,2,3.77a5,5,0,0,0,5.27-1.25c2-2.39,3.95-4.76,5.74-7.28,2.12-3,5.23-4,8.56-4.55a6.38,6.38,0,0,0,4.68-2.57A31.83,31.83,0,0,1,402,290.1c.54,1,1,1.75,1.4,2.58.71,1.62,1.22,3.33,2,4.91,1.41,2.79,2.94,3.33,5.83,2.3l1.22-.45a6.57,6.57,0,0,1-.22,1.65c-2.32,4.82-5,9.42-9,13a37.2,37.2,0,0,0-7.59,9.84,13.85,13.85,0,0,1-4.92,5.48,8.79,8.79,0,0,1-3.86,1.41,18.57,18.57,0,0,0-6.92,1.38c-1.13.49-3.44-.36-3.63-1.51-.28-1.72-1.41-1.7-2.81-2a25.47,25.47,0,0,0,1.19,6.5c1.06,3.94-.51,6.36-4.47,7.1-.17,0-.34,0-.53.05-2-1.65-4.35-2.95-5.44-5.51-.28-.64-.58-1.26-.87-1.89-.5-1.11-.33-2.83-2.33-2.59-1.29-1.82-2.57-3.79-2.29-6a26.64,26.64,0,0,1,2-6.75c.32-.76,1.6-1.11,2.26-1.54-1.58-1.32-3.26-2.61-4.8-4.06a2.68,2.68,0,0,1-.51-1.92,10.67,10.67,0,0,1,.65-2.38,5.51,5.51,0,0,1-1.91-.65c-.61-.54-1.48-1.47-1.36-2.05C355.6,305,354.61,303.47,353.62,302.06Zm14.87-28.63c-.06-2.24-1.46-3-3.07-3.55-1.24,2.1,1.25,2.81,1.4,4.5Zm5.89,48.68c-.15,1.82-.26,3.22-.39,4.78,1.27-1.2,3.13-1.77,2.9-4.13Z" transform="translate(-117.86 -74)"/><path class="cls-1" d="M413.15,249.53a6.62,6.62,0,0,1-4.91-4.15c-1.07-2.37-1.75-2.49-4.14-1.39a14.23,14.23,0,0,1-3.19,1.21c-2,.36-2.68,2.13-4.12,3.4-1.26-2-2.79-3.63-3.47-5.87-.35-1.16-.2-2,1-2.31,2.26-.69,4.48-1.56,6.95-.8,1.24.39,2.63.31,3.9.65a13.19,13.19,0,0,1,3.91,1.54c5.35,3.65,10.08,7.92,12,14.42a29.58,29.58,0,0,1,1.05,6.75c.58,11.65-2.9,22.38-7.62,32.81-.05.13-.27.18-.65.4-.59-2.87-1.14-5.66-1.75-8.44a16.87,16.87,0,0,0-.94-3q-2.5-5.72-5.11-11.39a1.82,1.82,0,0,1,.27-2.41l8.76-7.77c.74,3.65.55,4.11-3.76,6.11.26,2.19.54,4.4.78,6.61s.44,4.49.66,6.78c1.32-.08,1.56-1.07,1.85-1.81a27.43,27.43,0,0,0,2.2-11.62,5.46,5.46,0,0,1,.05-2.1c1.56-4.41,0-8.34-1.72-12.28C414.41,253.28,413.91,251.64,413.15,249.53Z" transform="translate(-117.86 -74)"/><path class="cls-1" d="M194.42,416.14c1,.39,1.75,1,.87,2.77l1.54-1.09,1.19,1.84c-1.38,1.38-1.49,1.38-3.14.43a1.29,1.29,0,0,0-1-.18c-2.81,1-5-.65-7.18-1.79-3.89-2-7.25-5-11.49-6.4-.25-.08-.46-.29-.71-.36a4.7,4.7,0,0,1-3.88-5.18c.49.07,1,.17,1.43.19s1.34.14,1.46-.09c.66-1.26,2.34-1.63,2.62-3.33.13-.84,1.2-1.53,2.06-2.54l-.34-.94a27,27,0,0,1,1.31-3.27c.29-.53,1-.84,1.46-1.24l.91,1.25c.54-1.22,1.64-1.22,2.85-.91.76.19,1.54.35,2.32.47,2,.28,2.11,2.69,3.77,3.35-.06,1.56,1.67,2,2.08,3.26.27.87,1.2,1.53.46,2.64-.33.5.07.78.65.5a12.29,12.29,0,0,1,.9,2.25c.27,1.34.19,2.78.57,4.08C195.61,413.41,194.76,414.63,194.42,416.14Z" transform="translate(-117.86 -74)"/><path class="cls-1" d="M327.81,298.4c.15,1.68-.07,3.42.53,4.8.75,1.76-2.13,2.62-.32,4.34l-3.19,1c-.14,0-2.4,3-2.51,3.14-.19.33-.43.62-.64.93-.3-.28-.76-.51-.86-.85a118.36,118.36,0,0,1-3.47-14.25,79.92,79.92,0,0,1-1.51-9.4c-.17-2.59.34-5.22.57-8.14a8.63,8.63,0,0,1,2.79.48,22.77,22.77,0,0,1,6.66,5.92,7.79,7.79,0,0,1,1.18,5.71c-.24,2.79,1.71,3.82,3.3,5.16,1.33,1.12,1.43,1,.57,2.91C329.6,300.06,329.72,297.42,327.81,298.4Z" transform="translate(-117.86 -74)"/><path class="cls-1" d="M361.79,557.17a8.37,8.37,0,0,1,0-2.35,79.29,79.29,0,0,1,2.6-7.51,10.6,10.6,0,0,1,2.35-3.48c2.35-2.25,4.9-4.28,7.33-6.44,2.61-2.32,5.65-2.24,8.76-1.57,1.68.37,2.07,1.55,1,2.91a21.7,21.7,0,0,1-2.64,2.61q-8.29,7.23-16.61,14.41c-.65.56-1.33,1.09-2,1.64Zm12.42-12.58-.69-.76c-1.48.83-2.87,1.73-3.17,3.59Z" transform="translate(-117.86 -74)"/><path class="cls-1" d="M388.15,287.11l5.73-1.39c-.2-2.86-2.79-4.67-3.46-7.61,2.71.41,5.29.52,6.16,3.65.06.22.27.52.45.56,3.22.62,3,3.05,2.72,5.36a11.76,11.76,0,0,1-.91,2.55c-1.31-.35-2.39-.69-3.49-.91s-2.17-.69-3.56-.26A3.13,3.13,0,0,1,388.15,287.11Z" transform="translate(-117.86 -74)"/><path class="cls-1" d="M292.11,457.09l-2.27.13c.76-1.82,2.2-2.42,3.26-3.37a6.88,6.88,0,0,1,2.23-1.4,6.23,6.23,0,0,1,3-.43,2.76,2.76,0,0,1,1.65,1.69c.31,1-.64,1.28-1.43,1.51L292,457.15Z" transform="translate(-117.86 -74)"/><path class="cls-1" d="M411.45,371.2c-.4,2.38-2.25,3-3.73,4a3.22,3.22,0,0,1-.45-3.94C408.58,369.63,410,370.68,411.45,371.2Z" transform="translate(-117.86 -74)"/><path class="cls-1" d="M383.17,400.06c-.29,1.39-.29,1.39-1.87,2.68C380.25,401.07,380.43,400.82,383.17,400.06Z" transform="translate(-117.86 -74)"/><path class="cls-1" d="M327.27,312.18c-.83-1.15-.7-2,0-2.56.28-.21,1,.17,1.79.34Z" transform="translate(-117.86 -74)"/><path class="cls-1" d="M326.53,355.71c-.4-.79-.42-1.57.5-1.92.25-.09,1.08.47,1.09.76C328.17,355.54,327.48,355.85,326.53,355.71Z" transform="translate(-117.86 -74)"/><path class="cls-1" d="M353.89,414c2.17.25,2.18.28.77,2.52C354.4,415.64,354.19,414.93,353.89,414Z" transform="translate(-117.86 -74)"/><path class="cls-1" d="M328.35,317.16c.81.76.75,1.42,0,2a.93.93,0,0,1-.89-.27C327,317.9,327.63,317.54,328.35,317.16Z" transform="translate(-117.86 -74)"/><path class="cls-1" d="M339.84,302.83l-.85.91c-.3-.32-.85-.67-.82-1s.55-.66.86-1Z" transform="translate(-117.86 -74)"/><path class="cls-1" d="M363.89,88.22H361c.15-1.45.83-2.12,2.09-2C364.09,86.37,364.24,87.12,363.89,88.22Z" transform="translate(-117.86 -74)"/><path class="cls-1" d="M406.21,97.8l2.77-.73c-.23.88-.19,1.55-.5,1.79C407.65,99.5,406.87,99.31,406.21,97.8Z" transform="translate(-117.86 -74)"/><path class="cls-1" d="M218.05,137.3c-.31.24-.54.52-.67.48a3.17,3.17,0,0,1-.77-.52c.2-.23.43-.66.62-.64S217.71,137,218.05,137.3Z" transform="translate(-117.86 -74)"/><path class="cls-1" d="M209.91,115.66l-.7-.75c.18-.14.37-.38.54-.38a.72.72,0,0,1,.56.37C210.36,115,210.13,115.27,209.91,115.66Z" transform="translate(-117.86 -74)"/><path class="cls-1" d="M169.7,456l-1.32.44c.49,1.3-.81,1.85-1.25,2.72-.71,1.41-1.25,1.33-2.92-.16a7.58,7.58,0,0,1,1.35-1.1,3.73,3.73,0,0,0,2.05-3.87,14.94,14.94,0,0,1,.54-2.83l3.25,1.67c.95.43,2-1.28,3,.18-1.47,5.59-1.92,6.47-4.4,8.62C168.23,460.38,168.22,459.58,169.7,456Z" transform="translate(-117.86 -74)"/><path class="cls-1" d="M190.21,484.07l-2.91-2.6c3.92-.88,4-1,2.3-4.32-.15-.3-.24-.64-.37-1,2.82-.27,3.58.17,4.51,2.4C192.62,480.31,191.57,481.94,190.21,484.07Z" transform="translate(-117.86 -74)"/><path class="cls-1" d="M255.14,631.75a2.85,2.85,0,0,1-1.36,3.81c-1.3.68-1.3,1.7-1.8,2.76l2.32,1.42c-1.72,2.44-2.13,2.45-4.76.09l-1.65,2.26c-1.22-2.06-1.21-2,.56-2.76a2.5,2.5,0,0,0,1.06-.93c1.08-1.68,2-3.44,3.16-5.09C253.21,632.52,253.59,631.25,255.14,631.75Z" transform="translate(-117.86 -74)"/><path class="cls-1" d="M248.37,632.5c-1.45-3.15.1-5.68,1.63-8.23C250.3,627.17,249.42,629.83,248.37,632.5Z" transform="translate(-117.86 -74)"/><path class="cls-1" d="M252.8,616.65c.24.21.88.49.92.83.09,1,.4,1.61,1.48,1.79.22,0,.56.76.45,1s-.84.67-1,.56a14.51,14.51,0,0,1-3-2.35C251.13,617.82,251.77,616.77,252.8,616.65Z" transform="translate(-117.86 -74)"/><path class="cls-1" d="M256.2,610.07l-2.48,2.56c-.66-1-.45-3.55.44-4.19S255.68,608.41,256.2,610.07Z" transform="translate(-117.86 -74)"/><path class="cls-1" d="M245.48,635.07a14.08,14.08,0,0,1-.13-6.88C247,630.09,247.06,632.19,245.48,635.07Z" transform="translate(-117.86 -74)"/><path d="M368.49,273.43l-1.67.95c-.15-1.69-2.64-2.4-1.4-4.5C367,270.43,368.43,271.19,368.49,273.43Z" transform="translate(-117.86 -74)"/><path d="M374.38,322.11l2.51.65c.23,2.36-1.63,2.93-2.9,4.13C374.12,325.33,374.23,323.93,374.38,322.11Z" transform="translate(-117.86 -74)"/><path d="M374.21,544.59l-3.86,2.83c.3-1.86,1.69-2.76,3.17-3.59Z" transform="translate(-117.86 -74)"/></svg>