<svg id="Layer_1" data-name="Layer 1" xmlns="http://www.w3.org/2000/svg" viewBox="0 0 557.88 263"><defs><style>.cls-1{fill:#fff;}</style></defs><title>Leash2</title><path d="M243.6,546c-3.06-6.38-6.18-12.73-9.14-19.15a42,42,0,0,1-1.69-5.74l22.8,4.6.32-1-2.9,2.36,4.41-.83c.14.67.3,1.38.45,2.09.82-.54,2.41-1.29,2.33-1.57-1.19-4.1,1.56-6.81,3.12-10,.52-1.05.08-2.57.08-4.14l-3.91-.28,0-.55c5.06-.59,10.22-.75,15.16-1.87,5.13-1.17,10.06-3.25,15-4.91,1-14.62,1.5-19.67-4.79-31.82-.87,1.18-1.88,2-2.07,2.94-.72,3.61-1,7.31-1.8,10.88-.51,2.21-1.75,4.25-2.83,6.74-4.27-4.26-4-9.57-4.88-14.35s-.92-9.67-1.33-14.52l-1.25.05-4.73,39.7c-1.19-4.25-2.66-7.71-3.08-11.3-1-8.68-1.13-17.48-2.44-26.11-.64-4.21-3-8.19-4.83-12.18a154,154,0,0,0-7-14.32c-1.31-2.27-3.88-3.77-5.57-5.86-.79-1-.83-2.53-1.21-3.82a26,26,0,0,1,3.53-.06c.57,0,1.21.95,1.63.83,5.29-1.49,10.54-3.09,16.16-4.76L261.06,424c2.78-3.54,5.56-7.15,3.37-12.38-7.56,1.66-14.78,3.8-21.13,8.36a55.14,55.14,0,0,1-8,4.77c-1.07.53-2.62.09-4.31.09.74-.59,1.45-.87,1.48-1.21.62-6.74,6.37-6.13,10.69-7.45,5.54-1.69,11.13-3.21,18-5.18l-3-1.93c4.53-3.66,9.09-7.36,13.67-11,.3-.23.84-.21,1-.48,1.53-1.94,3.8-3.77,4.22-5.95.33-1.67-1.68-3.81-3.14-6.71,1.82-1.71,3.88-4.62,6.7-6.14,8.9-4.79,17.95-9.33,27.22-13.33,2.55-1.1,6.11-.26,9.12.23a20.35,20.35,0,0,0,13.42-2.66l-5.15-.4c1.76-2.94,4.33-3.86,7.41-4.06a15.26,15.26,0,0,0,3.31-1l-2.82-2.67c41.28-25.77,87-40.95,133.5-54.23-4,2.61-8.4,4.83-12,8-2.37,2-3.71,5.34-5.37,8.16-.66,1.11-.1,3.69-2.69,1.75a.72.72,0,0,0-.62.19c-1,4.61-5.24,4.08-8.35,5.64l4.83-.63L439,326.22l.26.52,1.32-.36c-.75,2.54-1.66,5.35-2.41,8.19-.82,3.12-1.5,6.26-2.41,10.12l5.12-3.61,1.2,5.2c1.16-3.58,2-6.25,3-9.13l2.48,2.16c-1-3.13-1.84-5.59-2.64-8.05,2.53,1.76,2.59,1.76,4-.14a1.06,1.06,0,0,1,.67-.34c2.67-.15,5.33-.27,8-.4.05-.93.11-2.13.17-3.33h.63c.27.65.53,1.29,1,2.43.9-4.27,1.7-8,2.5-11.79l1.39.09V326l3.32-3.22a8.59,8.59,0,0,0,.61.87,5.41,5.41,0,0,0,1.09.66c.08-1.67.15-3.07.22-4.47l-.79,0,4.63-4.91c.56,1.59,1.09,3.1,1.37,3.91,3.35-1.69,6.47-3.08,9.41-4.79s5.43-3.57,8.13-5.38l-.12.12,7.13-2.43-2.08-1.21c1.35-2.4,3.15-4.77,4.06-7.44,1.28-3.77,4.76-2.15,7-3.95l-14.1-1.39-.15-.46c5.65-1.62,11.3-3.26,16.95-4.85,3.55-1,5.62,1.27,7.79,3.48.62.63,1.78.74,2.69,1.09.08-.65.16-1.3.24-1.91,3.25,1.4,10.53-4.48,9.11,6l1.28-.89c-.14-2.07-.28-4.14-.45-6.71l2.28,4.27,1.14-2.74c3.93,4.16,8.94,7.62,6.78,14.69,1.08-.52,1.86-.89,2.64-1.24.06,0,.2.12.34.21,0,3.29-1.62,5-5,5.29-1.21.12-2.34,1.07-3.87,1.81-3.86-2.42-8.22-.42-12.57.82-2.06.58-4.06,1.39-6.09,2.13-.73.26-1.68.41-2.1.95-2.13,2.73-4.06,5.3-8.27,5.13-1.13,0-2.38,2.75-3.93,4.69l5.12.56c0,3.71,2.37,4.94,5.66,4.54,6.72-.82,13.39-2.15,20.13-2.7,6.32-.51,12.7-.35,19.05-.34a3.38,3.38,0,0,1,1.8,1c-.32,2.89-1.07,5.19-.69,7.3.71,3.87,2.2,7.59,3.14,11.43a47.19,47.19,0,0,1,.7,6.11,50.19,50.19,0,0,0-5.34,5.44c-.49.64.09,2.51.7,3.48,2.44,3.87,5.26,7.5,7.61,11.42a6,6,0,0,1-2.5,8.66c-3.53,1.66-4.45,4.63-5.25,7.81-.46,1.86-.78,2.86-3,1.55-.51-.3-2,1.3-3.11,1.66s-2.31.22-4.45.36a34.1,34.1,0,0,0,3.6-3.27,19.06,19.06,0,0,0,1.64-3.24c-1.62-4.91-5.33-6.22-10.64-4.66a136.45,136.45,0,0,1-18.64,3.77c-4.62.68-5.67,1.61-4.83,6.22l-2.9.52,5.19,4.15-2.47.66,3.75,2.52-5-.23c1.18,2.55,2,4.69,3.14,6.65q2.93,5.1,6.19,10a3,3,0,0,0,2.32,1.3c.63-.11,1-1.38,1.58-2.18a6.9,6.9,0,0,1,1.49.85c1.14,1,2.17,2.16,3.29,3.2.85.79,1.74,2.1,2.66,2.14,4.57.23,9.16.11,13,.11,2.71,3.92,6.62,3.45,10.07,5.11-2.51.46-5,1.11-7.54,1.35-4.47.41-8.6,1.71-11.81,4.83-3,2.9-6.13,4.39-10.39,4-3.61-.36-7.28-.07-10.88-.07-.21.86-.38,1.58-.55,2.3-2.8-1.74-3.48,1.55-4.68,2.48-3.08,2.39-2.8,2.75-6.76,1.12l2.21-1.21c-3.67-.59-6.62-1.85-9.15-1.29-3.36.75-2.8,4.72-1.4,6.18,2.81,2.94,2.32,6.66,3.62,9.88,2.77,6.9,5.08,14,7.46,21,.93,2.74,1.54,5.6,2.49,9.08-4.09-2-5.8-6.1-8.83-9.79a30.36,30.36,0,0,1-1.89,3.41c-.62.84-1.55,2.11-2.28,2.08a7.71,7.71,0,0,1-3.68-1.61c-2-1.39-3.72-3.06-5.64-4.51a27.45,27.45,0,0,0-2.75-1.43c-2.64-1.54-5.31-3.05-7.87-4.71s-5.23-3.78-8-5.44c-1-.61-2.47-.52-4.2-.84,4.08,12.69,8.22,24.33,15.41,34.5,4.38,6.2,10.14,10.65,18,12.25,2.85.58,6.4-.41,8.59,2.58l-.08-.09c1.81,9.14-3,17.38-3.51,26.21-.14,2.6-.46,5.19-.7,7.79h-114a102.51,102.51,0,0,0,3.14-10c1.13-5.33,1.69-10.79,2.75-16.14,2.48-12.46,5-24.92,7.79-37.33.35-1.58,1.95-3.87,3.23-4.07,2.87-.44,5.23-.65,6.58-3.79.35-.84,2.56-.87,3.92-1.27-.45,1.06-.92,2.12-1.35,3.19-.08.2,0,.47.05.9,1.91-.17,3.92-.81,5.68-.41,5.41,1.24,10.74,2.88,16.09,4.37,2.45.68,6.79-2.37,7.14-4.75.63-4.22,1.54-8.4,2.29-12.61.92-5.19,5.66-9.68,2-15.81-1.37-2.31,3.12-6.7,6.1-6.72,4.14,0,7.48,2.57,9.07,7.27l-5.06-.67c4.49,8.52,5.8,8.88,10.4,2.9a9,9,0,0,0,.88-2,90.69,90.69,0,0,0,3.53-8.65c1.08-3.59,2.58-7.39,2.31-11a9,9,0,0,1,4-8.78c-1.76-3.91-.42-6.61,3.8-6.86-3.43-2.58-.21-3.91.81-5.57,3.52-5.73,3.56-6.56.28-10.37,0-2.88,1-6.41-.2-7.41-2.72-2.33-6.48-3.44-9.59-4.93.19-.86,1.16-3.77.81-3.94-5.44-2.63-1.49-5.58-.74-8.4l4.62,2.16c-1.53,2.68.08,6,4.59,8.59a8.72,8.72,0,0,1,.94-2.5c1.73-2.14,2.18-4,.47-4.62-3.63-1.39-3.26-4.88-4.83-7.31a11.62,11.62,0,0,0-10.89-5.13c-3.11.05-6.72-.46-9.19.93-5,2.82-5.33,11.3-1.21,15.44,1.59,1.6,3.28,3.12,4.77,4.81,4.54,5.17,7.49,10.6,5.63,18.09-1.53,6.16-3.09,12.41-1.92,19.11.84,4.78,1,10.05-2.72,14.4l-7.77-13.83c2.22-.58,3.78-.65,4.87-1.4.55-.38.67-2.24.22-3a10.75,10.75,0,0,0-3.19-3.18c-5.42-3.77-11.72-6.78-11.31-15,0-.75-.72-1.55-1.56-3.23V408c-1.61-1.06-2.53-2-3.63-2.34-2.06-.68-4.67-2.07-6.28-1.38-8.46,3.63-16.79,7.64-24.92,12-1.86,1-3.83,3.74-3.92,5.76-.61,13.35-.77,26.71-.93,40.07,0,3.22.66,6.44.64,9.66a4.52,4.52,0,0,1-1.91,3.13c-2.63,1.73-5.49,3.13-9,5.09l-8.29-18.26L368,474.91c.55,1,1.55,1.92,1.57,2.9.12,5.32-.84,10.81.17,15.92,1.44,7.24,4.44,14.19,4,21.77-.25,4.23-.81,8.45-1.23,12.68l-.91-.09-1-1.71-.92.14.4,4c3.19-.62,1.72,2,1.7,2.92-.05,4.19-.43,8.38-.69,12.57h-25.5c-.8-4.7-1.58-9.3,0-14.1a15,15,0,0,0,.12-7.59c-.95-4.36-2.1-8.47-2-13.16.14-6.65-1.41-13.33-2.29-20.4-7.86,4.26-15.24,8.31-22.68,12.26-2,1.08-2.35,2.62-1.59,4.52,2.23,5.58,2.9,11.43,6.26,17,3.57,5.93,3.23,14.22,4.6,21.47H311.35c.23-4.36,2.06-9.5.38-12.92-3.85-7.82-6.5-15.4-4.33-24.37-2.66-.24-4.3-.43-4.11,3.11.51,9.86.65,19.75.84,29.62a24.93,24.93,0,0,1-.75,4.56H289.83l-1.38-11.74-.51.06c.71-7,1.4-13.82,2.06-20.41H265.07c-.35,1.59-.31,3.52-1.16,4.89-2.74,4.45-2.73,5.68,1.41,9.59.94-2.6,1.83-5,2.77-7.63a19.71,19.71,0,0,0,2.45,3.1c2.92,2.44,2,4.35-.39,6.53-1.25,1.12-2,2.83-3,4.27l.51.23,3.48-3.49c2,3.12,3.75,5.88,5.5,8.64l.69-.22c-.46-2.88-.93-5.75-1.44-8.92,3.62,4.41,4.23,9,2.64,12.8l-4.68,2.3h-4.78l-3.82-8.54-6.08,2-.26,1.13,3.34,1.08L258,546Zm80.86-98.58a23.8,23.8,0,0,0-1.12,4.05c-.34,6.17-.41,12.36-.92,18.52-.18,2.12-1.46,4.14-2,6.26-.79,3-3,5-4.56,7.4-1.84,2.91-1.21,7.38-1.73,11.94l25.81-12.09A105,105,0,0,0,324.46,447.42ZM366,415.17c-3.43,5.11-2.77,17,.75,22.5a44.91,44.91,0,0,1,7.26,25l12.2-7.05c-2.42-2.16-4.32-3.79-6.13-5.52a5,5,0,0,1-1.49-2.23A125.57,125.57,0,0,1,376,435.31C374.93,427.55,371.41,421.16,366,415.17Zm-59.86,35.2c9.65-5.71,14.2-13.56,12.46-21.68C313.72,435.62,308.49,441.77,306.17,450.37Zm142.49-5.46c-.07,4.95,1.87,8.67,5.17,9.16.4-3,.8-6,1.15-8.58ZM282.73,425.12c-2.1,4.67-4.05,9-6.22,13.86C283.13,436.1,285.53,431.94,282.73,425.12Zm160-48.31c-.82-6.09-1.62-12-2.5-18.51l-3.88,2.49.47.75,3.06-1.62V375.1Zm83.46-27.22-.43-1.1-12.19,4.73c.19.49.39,1,.58,1.49C518.46,353.82,523.1,353.71,526.17,349.59ZM263.27,529.16l-1.13-.74c-1.47,1.52-5.49-.4-4.84,3.75.16,1,1.84,1.76,2.82,2.64ZM493.33,367.47l-.7-.11v-3l-1.32.08.45,9.61,1.5.16c.67-2.78,1.33-5.55,2-8.32l-.95-.23C494,366.25,493.65,366.86,493.33,367.47Zm35.86-6.61c-1.73-5.36-5.12-.43-7.27-1.5C523.74,362,526.34,360.9,529.19,360.86Z" transform="translate(-34 -283)"/><path d="M50.74,283c4.82,8.09,9.46,16.3,14.5,24.25C72.47,318.66,80,329.89,87.4,341.19a240.81,240.81,0,0,0,13.93,19.7l-1.07-3.15.59-.48,8.38,10.63,3-1.66-3.81-1.66,1.46-1.32c3.87,4.61,7.19,9.69,11.12,15.3l2.47-5.43-.57-.45-1.9,1.5c-1-3.16-2.2-6.33-3-9.58-.18-.72.8-1.74,1.25-2.62a15.15,15.15,0,0,1,1.91,1.44,21.68,21.68,0,0,1,1.7,2.2l1.17-7.75,5.2-2.41v28.72l1,.23,2.29-11.32c.82,8.49,6.08,15.32,9.43,23.81l-11.75,10.18-3.55-3.93c2.15,5.26,2.19,5.63-2.48,8.45-6.11,3.7-12.09,8-18.72,10.34-5.31,1.88-8.1,5.19-10.62,9.51A4.57,4.57,0,0,1,93.27,433c-4.2,2.59-8.44,5.13-13.38,8.11-.7-4.76-1.69-9-1.82-13.32-.11-3.69.16-7.21-3.34-9.58a7.54,7.54,0,0,0-1.58-8.88c-.27-.28-.73-.62-.71-.9.47-5.53-4.26-6.94-7.47-9.59a6.23,6.23,0,0,1-2.15-2.53c-3.33-11-6.49-22.11-9.8-33.14-2.89-9.66-6.24-19.19-8.78-28.93-1.4-5.4-1.76-11.11-2.22-16.71-.52-6.34-3.61-11.18-8-15.41V283Z" transform="translate(-34 -283)"/><path class="cls-1" d="M371.12,546c.26-4.19.64-8.38.69-12.57,0-1,1.49-3.54-1.7-2.92l-.4-4,.92-.14,1,1.71.91.09c.42-4.23,1-8.45,1.23-12.68.44-7.58-2.56-14.53-4-21.77-1-5.11-.05-10.6-.17-15.92,0-1-1-1.93-1.57-2.9l17.24-13.23,8.29,18.26c3.54-2,6.4-3.36,9-5.09a4.52,4.52,0,0,0,1.91-3.13c0-3.22-.68-6.44-.64-9.66.16-13.36.32-26.72.93-40.07.09-2,2.06-4.76,3.92-5.76,8.13-4.33,16.46-8.34,24.92-12,1.61-.69,4.22.7,6.28,1.38,1.1.37,2,1.28,3.63,2.34V397.53c.84,1.68,1.6,2.48,1.56,3.23-.41,8.2,5.89,11.21,11.31,15a10.75,10.75,0,0,1,3.19,3.18c.45.75.33,2.61-.22,3-1.09.75-2.65.82-4.87,1.4l7.77,13.83c3.69-4.35,3.56-9.62,2.72-14.4-1.17-6.7.39-12.95,1.92-19.11,1.86-7.49-1.09-12.92-5.63-18.09-1.49-1.69-3.18-3.21-4.77-4.81-4.12-4.14-3.81-12.62,1.21-15.44,2.47-1.39,6.08-.88,9.19-.93a11.62,11.62,0,0,1,10.89,5.13c1.57,2.43,1.2,5.92,4.83,7.31,1.71.66,1.26,2.48-.47,4.62a8.72,8.72,0,0,0-.94,2.5c-4.51-2.59-6.12-5.91-4.59-8.59L472,373.17c-.75,2.82-4.7,5.77.74,8.4.35.17-.62,3.08-.81,3.94,3.11,1.49,6.87,2.6,9.59,4.93,1.18,1,.2,4.53.2,7.41,3.28,3.81,3.24,4.64-.28,10.37-1,1.66-4.24,3-.81,5.57-4.22.25-5.56,2.95-3.8,6.86a9,9,0,0,0-4,8.78c.27,3.6-1.23,7.4-2.31,11a90.69,90.69,0,0,1-3.53,8.65,9,9,0,0,1-.88,2c-4.6,6-5.91,5.62-10.4-2.9l5.06.67c-1.59-4.7-4.93-7.31-9.07-7.27-3,0-7.47,4.41-6.1,6.72,3.66,6.13-1.08,10.62-2,15.81-.75,4.21-1.66,8.39-2.29,12.61-.35,2.38-4.69,5.43-7.14,4.75-5.35-1.49-10.68-3.13-16.09-4.37-1.76-.4-3.77.24-5.68.41,0-.43-.13-.7-.05-.9.43-1.07.9-2.13,1.35-3.19-1.36.4-3.57.43-3.92,1.27-1.35,3.14-3.71,3.35-6.58,3.79-1.28.2-2.88,2.49-3.23,4.07-2.76,12.41-5.31,24.87-7.79,37.33-1.06,5.35-1.62,10.81-2.75,16.14a102.51,102.51,0,0,1-3.14,10Zm10.38-78.78v31.44c1.89-3.46,4.18-7.5,6.3-11.64a4.52,4.52,0,0,0,.36-3.21C386.13,478.43,383.89,473.12,381.5,467.22Zm3.16,58.36-1.16-.66c-.94,1.35-2.25,2.6-2.68,4.1-.26.91.85,2.21,1.35,3.34l1.48-.25Z" transform="translate(-34 -283)"/><path d="M568,546c-3.45-5-7.05-10-10.32-15.17a197.49,197.49,0,0,1-10.11-17.41c-.66-1.33.62-4.11,1.72-5.75,3.33-5,8.4-9.28,10.12-14.69,1.53-4.82-.31-10.81-1-16.23a69.8,69.8,0,0,0-2.62-11.67c-.5-1.62-2.05-3-3.29-4.31-4.74-5-9.54-10-14-15.53,3.49,2.67,7.09,5.21,10.43,8.05s6.56,6.09,10.12,9.43c2.25-4.68,3.47.79,6.19.22l-3.37-5.36,4.56,1.66-2-3.83c3.91,1.27,7.93,3.92,11.52,3.44,6.14-.82,7.46,4.7,11.81,6.61-.64-1.63-1.19-3-1.91-4.9l6.1,3.35V546Z" transform="translate(-34 -283)"/><path class="cls-1" d="M328.08,546c-1.37-7.25-1-15.54-4.6-21.47-3.36-5.57-4-11.42-6.26-17-.76-1.9-.45-3.44,1.59-4.52,7.44-3.95,14.82-8,22.68-12.26.88,7.07,2.43,13.75,2.29,20.4-.11,4.69,1,8.8,2,13.16a15,15,0,0,1-.12,7.59c-1.61,4.8-.83,9.4,0,14.1Z" transform="translate(-34 -283)"/><path class="cls-1" d="M273.89,546l4.68-2.3c1.59-3.85,1-8.39-2.64-12.8.51,3.17,1,6,1.44,8.92l-.69.22c-1.75-2.76-3.51-5.52-5.5-8.64l-3.48,3.49-.51-.23c1-1.44,1.71-3.15,3-4.27,2.43-2.18,3.31-4.09.39-6.53a19.71,19.71,0,0,1-2.45-3.1c-.94,2.59-1.83,5-2.77,7.63-4.14-3.91-4.15-5.14-1.41-9.59.85-1.37.81-3.3,1.16-4.89H290c-.66,6.59-1.35,13.41-2.06,20.41l.51-.06L289.83,546Z" transform="translate(-34 -283)"/><path class="cls-1" d="M303.38,546a24.93,24.93,0,0,0,.75-4.56c-.19-9.87-.33-19.76-.84-29.62-.19-3.54,1.45-3.35,4.11-3.11-2.17,9,.48,16.55,4.33,24.37,1.68,3.42-.15,8.56-.38,12.92Z" transform="translate(-34 -283)"/><path class="cls-1" d="M258,546l4.34-4.36L259,540.56l.26-1.13,6.08-2,3.82,8.54Z" transform="translate(-34 -283)"/><path d="M211.69,500.48a14.21,14.21,0,0,1-2.89-1c-5.55-3.32-11-6.86-16.61-10a63,63,0,0,0-9.3-3.9c-.44-.16-1.27.73-1.94,1.13-1.35-3.57-2.86-4-5.63-1.56l-1.55-3.66-3.55,1.15c.08,5.71-.89,6.7-5.88,8.22-6.8,2.07-13.47,4.52-20.2,6.8-.6.21-1.21.39-2,.64-1.52-3-3.39-5.7-4.35-8.72-1.2-3.75-2.92-2.92-5.38-1.34,6.23.83,5.22,6.66,7.94,10.31l-10.85,3.91.12.55,8-1.75.17.43L135,503.18l5.19,3.15-2.39,4.42-5.49-6.2c-2.44.15-5.68.72-8.87.48-7.34-.53-17.56,5.45-18.39,11.56-.74,5.35-.73,10.8-1.1,16.21,0,.3-.49.57-1,1.17-1.75-4.85-3.52-9.42-5-14.08-.33-1.08.57-2.5.61-3.77.11-4.52,0-9.05.16-13.57.08-2.43.49-4.85.8-7.7,1,.93,1.56,1.47,2.12,2,4.63,4.55,4.63,4.55,10.72,1.54l3.16-1.56c4.06-2,4.06-2,8.31,1.33-3.4-4.63-1.6-6.49,1.75-8,8.15-3.62,16.28-7.3,24.31-11.17,5.14-2.47,10.22-5.13,15.1-8.08,3.24-1.95,3.23-5.24.29-8.43q-7-7.56-14.15-14.95c-4.31-4.45-8.1-9.57-14.38-11.64-.55-.19-.84-1.2-1.44-2.64,7.37,4.15,11.29-.78,15.85-5-5.23.33-8.86,7.29-14.76,2.69,1.69-1.38,3.22-2.75,5.16-.38.22.27,1.61.06,2-.36a3,3,0,0,0,.68-2.31c-.52-2.22-2.36-4.54,1.15-6.06a3.05,3.05,0,0,0-.22-2.51c-1.81-2-3.73-3.77-1.28-6.59.18-.2-.41-1.08.35-1.17.69-1,2.19-2.51,1.92-3-1.75-3.1-1.82-6.36-2.19-9.77-.49-4.43-2.36-8.7-3.53-13.07A25.13,25.13,0,0,1,140,382c.69,0,1.07-.11,1.19,0,2.39,2.67,4.6,3,8,.95,3.13-1.95,7.1-2.56,10.64-3.9a7.94,7.94,0,0,0,3.7-2.89c-1.81.47-3.62.95-5.43,1.4-3.68.92-6.48-1-7.87-4.71-.56-1.49-2.32-3.56-3.5-3.54-1.6,0-3.21,1.71-2.66,4.14a3.8,3.8,0,0,1-.45,2.64c-.45.72-1.44,1.1-2.19,1.63-.43-.87-1.41-1.91-1.2-2.58.84-2.69,2.26-5.2,3.05-7.9a19.85,19.85,0,0,0,1.14-7.52c-.28-2.4.3-5.58-3.36-6.85-.72-.25-.59-3.63-.42-5.53s.89-4,.7-6.26l-1.45,3.06-1.07-.36q1.61-4.81,3.19-9.64a10.93,10.93,0,0,0,.87-3.23c0-2.5-.28-5-.45-7.49l1.17-.11,1.5,3.07c1.17-2.55,2.08-5.07,3.42-7.35,2.09-3.56,5.88-5.28,9.35-6.82,1.94-.86,3.93,1.49,4.65,3.81.94,3,1.81,6.05,2.62,8.76l8.76-6.9-.42-2.86.85-.58c2.93,3.51,5.61,7.46,10.42,6.75,0,4.22-.12,8.14.12,12,0,.62,1.68,1.15,2.92,2,0-.24.17.26,0,.52-6.4,9.68-6.45,16.15.18,25.6a46,46,0,0,0,7.66,9c1.54,1.29,4.5.88,6.79,1.24-.22,1.15-.45,2.34-.82,4.23l-9.95-2.75c3.54,2,5.71,4.89,6,9l-5.82-5.24-.27.47,7.09,11.09.54-.23q-.82-3.1-1.66-6.21l2.47-.68c.78,5.14,1.55,10.21,2.38,15.65a25.79,25.79,0,0,1,3.56-3.12,25.09,25.09,0,0,1,4.51-1.76l-1,5,3.1.36a28.48,28.48,0,0,1-4.4,15.06c-2,3.07-5.76,5-8.79,7.39-.33.26-1,.07-1.5.1-2.44.1-2.67.52-1.63,3.14l-5,1.33c-.33,2.92-.85,5.8-5,5.31-.48-.06-1,.86-1.59,1.18-1.26.69-2.63,1.93-3.86,1.82-6.83-.65-13.63-1.64-20.13-2.47-.41,1.18-1.47,2.73-1.3,4.14a9.2,9.2,0,0,0,2.25,5.11c5.19,5.25,10.62,10.27,16,15.31a27.42,27.42,0,0,0,3.49,2.37c-2.4,2.76-4.79,5.54-7.22,8.28-.31.35-1.08.84-1.26.71-1.92-1.33-2.38,0-2.84,1.44l3,.82,4.52,7c6.47-1.22,12.84-1.78,14.19-9.4L181,457.19l4.49-1.11-1.68-1.45,10.4-14.87a53.71,53.71,0,0,0,4.18-6.11c.83-1.67.81-3.75,1.45-5.55a12.25,12.25,0,0,1,2.52-3.86c.45,6.11,6.6,7,9.28,10.71-3.87,6.8-7.55,13.5-11.47,20.06a59.15,59.15,0,0,1-5.45,7.12c-2.15,2.59-1.73,4.17,1.26,5.78,5.41,2.92,10.72,6,16.31,9.2l1.92-2.49,9.82,9.12c-3.26,2.58-9.9,1.46-10,8.14l.12-.15ZM172,344.1c-7.31-5.63-14.79-.75-23.29,2.17,1,4.41,1.59,9,3.09,13.34,1.88,5.44,7.76,2,11.51,4.44,1.81-4.45,7.41-7.24,5-13.68C167.83,349.07,170.46,346.59,172,344.1Zm28.83,142.22-12.42-7.81a13.09,13.09,0,0,0-.25,2.49c3.77,1,2.67,3.68,2.25,5.32Zm-37.76-92.47q1.59-6.21,3.2-12.41A11.69,11.69,0,0,0,163.07,393.85Zm35,49.25L197,445.27l4.31,2.66c.29-1.05,1.12-2.75.79-3A16.2,16.2,0,0,0,198.11,443.1Z" transform="translate(-34 -283)"/><path d="M214.42,378.74,206,370c4.67-7.91,3.35-17.28,3.59-26.39l1.12.06c.68,3.6,1.28,7.21,2.09,10.78.15.64,1.18,1.08,2.26,1.25a40.08,40.08,0,0,1,3.25,19.54C217.9,378.85,215.37,378.16,214.42,378.74Z" transform="translate(-34 -283)"/><path d="M254.14,510.93l-26.6,1.18c11.61-13.18,13.73-7.79,26.57-2.47Z" transform="translate(-34 -283)"/><path d="M214,491.88l1.86-2.1c1.86,1.1,3.48,2,5.05,3,2.12,1.34.73,2.66-.4,3.36-4,2.5-3.21,7.34-6.09,10.87l-2.26-1.65-3.38,4-4.7-4.91,7.58-2.94c.62.28,1.61,1,1.79.77,1.83-1.79,2.17-8.2.67-10.5Z" transform="translate(-34 -283)"/><path d="M540.2,406.23c-.2-5.19,2.31-8.3,6.82-10.08,2.47-1,4.77-3.18,7.67-.86.24.2,1.13-.48,1.74-.67s1.23-.27,1.85-.4c-.11,1,.12,2.53-.38,2.82-5.19,3-10.49,5.75-15.77,8.56A13.27,13.27,0,0,1,540.2,406.23Z" transform="translate(-34 -283)"/><path d="M231.7,496.39c-4.35,2.5-4.36,8.27-9.13,10.11-.54.2-.08,3-.08,4.76-1.54,0-3.36.05-5.17-.06-.27,0-.8-1.07-.68-1.2a14.75,14.75,0,0,1,2.44-2.3c.09-.07.81.71,1.27,1.12-.36-7.12,3.44-13.26,9.53-15.19Z" transform="translate(-34 -283)"/><path d="M205,333.84c-1.12.65-2.13,1.73-2.9,1.58a4.94,4.94,0,0,1-3.08-2.1c-2-3.79-3.82-7.71-5.6-11.63a7.26,7.26,0,0,1-.79-3.39c0-.41,1.83-1.17,2.43-.9s1,1.59,1.57,2.43c1.19,1.85,2.47,3.64,3.59,5.53C201.82,328,203.26,330.66,205,333.84Z" transform="translate(-34 -283)"/><path d="M131.79,368.92c.9-5,2.25-8.16,5.88-9.88.45-.21,1.37-.25,1.58,0,2.05,2.56,2,8.09-.12,10.85C137,368.91,135.84,364.07,131.79,368.92Z" transform="translate(-34 -283)"/><path d="M504.52,512.09c-.67-2.51.54-6-3.45-6.91-.07,0,.27-1.77,1-1.52l3.47-.27-.07-.87-1.65-.8.34-1.13,6.4,1.81c-.09.4-.18.8-.28,1.2h-3.83l2.22,3.52c-1.71,1.94-3,3.4-4.28,4.87Z" transform="translate(-34 -283)"/><path class="cls-1" d="M214.15,491.73c1.5,2.3,1.16,8.71-.67,10.5-.18.18-1.17-.49-1.79-.77v-1Z" transform="translate(-34 -283)"/><path d="M522.74,499.35c-.51.25-1.45.49-1.46.76a19.72,19.72,0,0,0,.36,3.22h-4.33l-2.24-3.1,7.46-1.56Z" transform="translate(-34 -283)"/><path d="M550.1,405.26l8.71-1,.1.95-3.75,4Z" transform="translate(-34 -283)"/><path d="M206.93,355.87c0,4.07.47,9.11-4.15,12.68Z" transform="translate(-34 -283)"/><path d="M491.28,308.64l-.86-2.28-2.05.61c1.28-1.89,2.32-3.41,3.36-4.93,2.29,1.88,2.29,1.88-.57,6.71Z" transform="translate(-34 -283)"/><path class="cls-1" d="M324.46,447.42a105,105,0,0,1,15.46,36.08l-25.81,12.09c.52-4.56-.11-9,1.73-11.94,1.52-2.4,3.77-4.39,4.56-7.4.56-2.12,1.84-4.14,2-6.26.51-6.16.58-12.35.92-18.52A23.8,23.8,0,0,1,324.46,447.42Z" transform="translate(-34 -283)"/><path class="cls-1" d="M366,415.17c5.38,6,8.9,12.38,9.93,20.14a125.57,125.57,0,0,0,2.66,12.52,5,5,0,0,0,1.49,2.23c1.81,1.73,3.71,3.36,6.13,5.52L374,462.63a44.91,44.91,0,0,0-7.26-25C363.26,432.2,362.6,420.28,366,415.17Z" transform="translate(-34 -283)"/><path class="cls-1" d="M306.17,450.37c2.32-8.6,7.55-14.75,12.46-21.68C320.37,436.81,315.82,444.66,306.17,450.37Z" transform="translate(-34 -283)"/><path class="cls-1" d="M448.66,444.91l6.32.58c-.35,2.59-.75,5.59-1.15,8.58C450.53,453.58,448.59,449.86,448.66,444.91Z" transform="translate(-34 -283)"/><path class="cls-1" d="M282.73,425.12c2.8,6.82.4,11-6.22,13.86C278.68,434.13,280.63,429.79,282.73,425.12Z" transform="translate(-34 -283)"/><path class="cls-1" d="M442.71,376.81l-2.85-1.71V359.92l-3.06,1.62-.47-.75,3.88-2.49C441.09,364.8,441.89,370.72,442.71,376.81Z" transform="translate(-34 -283)"/><path class="cls-1" d="M526.17,349.59c-3.07,4.12-7.71,4.23-12,5.12-.19-.5-.39-1-.58-1.49l12.19-4.73Z" transform="translate(-34 -283)"/><path class="cls-1" d="M263.27,529.16l-3.15,5.65c-1-.88-2.66-1.64-2.82-2.64-.65-4.15,3.37-2.23,4.84-3.75Z" transform="translate(-34 -283)"/><path class="cls-1" d="M493.33,367.47c.32-.61.65-1.22,1-1.83l.95.23c-.67,2.77-1.33,5.54-2,8.32l-1.5-.16-.45-9.61,1.32-.08v3Z" transform="translate(-34 -283)"/><path class="cls-1" d="M529.19,360.86c-2.85,0-5.45,1.12-7.27-1.5C524.07,360.43,527.46,355.5,529.19,360.86Z" transform="translate(-34 -283)"/><path d="M381.5,467.22c2.39,5.9,4.63,11.21,6.66,16.59a4.52,4.52,0,0,1-.36,3.21c-2.12,4.14-4.41,8.18-6.3,11.64Z" transform="translate(-34 -283)"/><path d="M384.66,525.58l-1,6.53-1.48.25c-.5-1.13-1.61-2.43-1.35-3.34.43-1.5,1.74-2.75,2.68-4.1Z" transform="translate(-34 -283)"/><path class="cls-1" d="M172,344.1c-1.54,2.49-4.17,5-3.69,6.27,2.41,6.44-3.19,9.23-5,13.68-3.75-2.44-9.63,1-11.51-4.44-1.5-4.31-2.1-8.93-3.09-13.34C157.21,343.35,164.69,338.47,172,344.1Zm-12.38,8.22,8.73-6v-1.07c-3.39,0-6.92-.56-10.11.23-1.61.4-3,3.1-3.7,5.05-.3.91,1.2,2.77,2.31,3.68.58.47,2.08-.2,3.17-.35Z" transform="translate(-34 -283)"/><path class="cls-1" d="M181,457.19l10.47,8.86c-1.35,7.62-7.72,8.18-14.19,9.4l-4.52-7-3-.82c.46-1.43.92-2.77,2.84-1.44.18.13.95-.36,1.26-.71,2.43-2.74,4.82-5.52,7.22-8.28Z" transform="translate(-34 -283)"/><path class="cls-1" d="M200.83,486.32H190.41c.42-1.64,1.52-4.36-2.25-5.32a13.09,13.09,0,0,1,.25-2.49Z" transform="translate(-34 -283)"/><path class="cls-1" d="M163.07,393.85a11.69,11.69,0,0,1,3.2-12.41Q164.66,387.65,163.07,393.85Z" transform="translate(-34 -283)"/><path class="cls-1" d="M197.48,382q.84,3.11,1.66,6.21l-.54.23-7.09-11.09.27-.47,5.82,5.24Z" transform="translate(-34 -283)"/><path class="cls-1" d="M198.11,443.1a16.2,16.2,0,0,1,3.95,1.81c.33.27-.5,2-.79,3L197,445.27Z" transform="translate(-34 -283)"/><path d="M159.62,352.32l.4,1.55c-1.09.15-2.59.82-3.17.35-1.11-.91-2.61-2.77-2.31-3.68.66-2,2.09-4.65,3.7-5.05,3.19-.79,6.72-.23,10.11-.23v1.07Z" transform="translate(-34 -283)"/></svg>