<svg id="Layer_1" data-name="Layer 1" xmlns="http://www.w3.org/2000/svg" viewBox="0 0 427.43 275.08"><defs><style>.cls-1{fill:#fff;}</style></defs><title>Leash</title><path d="M341.24,291.78c-1.63-3.21-1.93-6.71-2.52-10.19-.51-3.08,1-5,2.73-7a8.9,8.9,0,0,1,1.55-1.63,2.29,2.29,0,0,1,1.57-.46c1.32.24,2.61.68,3.86,1l-1.32.33.18.45,2.46-1a2.27,2.27,0,0,1,.22-.07c-.28,3.25-.56,6.49-.83,9.74l.74.11c.79-1.65,3.27-2.42,2.36-5l-.05.06,1.45,2-.69-.05c1.68-6.8,3.11-13.67,5.12-20.37,1.13-3.76,3.18-7.26,4.93-10.82.31-.63,1.2-1,1.81-1.47,2.47-2,4.95-4,7.39-6,.23-.19.18-.72.22-.89l5.71-2.79c.59.87.53.74,1.86.06a10.82,10.82,0,0,1,3.55-1.08c1.83-.22,3.7-.19,5.55-.23.57,0,1.15.15,1.72.11,5.88-.42,11.15,1.67,16,4.5a78.91,78.91,0,0,1,9.79,7.38,4.37,4.37,0,0,1,1.11,2.86c.68.41,1.69.67,1.95,1.26.7,1.57,1,3.35,3.22,3.52.16,0,.36,1,.32,1.51,0,.23-1.58-.43-.69.75.27.36,1.17.24,1.94.36,1.95,2.52,6.2,3.25,7.4,7.16l-2.8-.14c.75-.46,0,2.25,1.87,1.69,1.2-.36,3,.79,4.37,1.57a7.44,7.44,0,0,1,2.13,2.41c2,3.06.71,5.93-.6,8.8a12.48,12.48,0,0,0-.48,1.5l.51.26,1.83-3.09c.84,2.24,1.56,4.19,2.31,6.21-3.61.63-3.86.57-5.07-1.21l-1.74,1,1.88,3c-2.16.25-2.54,1.24-2,3.22.38,1.35-.31,3-.3,4.46,0,1.82.47,3.66.37,5.47-.27,4.58-.74,9.14-1.15,14.05h5.47l.09.52-1.59.64a8.37,8.37,0,0,0,1.6.58c2.95.31,6.47,3.64,6.94,6.63a1.39,1.39,0,0,1-.06.86c-1.2,2.1-1.13,2.1-1.24,3.4a13,13,0,0,1-6.78,10.81,13.69,13.69,0,0,1-3,.82l1.94.3c-2.65,1.28-7,.86-9.72-1.1-2,3.66-3,7.24-2.31,11.58.46,2.81,2.27,5,2.55,7.78a2.15,2.15,0,0,0,3.3,1.41c3.2-2.43,6.44-1.82,10-.44l-2,.52c2.5,1.79,2.95,4.19,3.3,6.81.14,1.07,1.64,2.29,2.81,2.83,1.92.89,3.62,1.7,4.86,3.62a7.73,7.73,0,0,0,5.58,3.47,8.8,8.8,0,0,1,3.69,1c2.87,1.94,6.22,2,9.36,2.88,1.7.47,3.68.49,5.06,1.42,3.91,2.63,8.79,3,12.6,5.81.4.3,1.1.2,1.39.58,1.21,1.25,2.45,2.47,3.62,3.75a55.47,55.47,0,0,1,3.7,4.27,39.14,39.14,0,0,1,3.74,5.76c1.33,2.67,2.34,5.5,3.42,8.29a46.43,46.43,0,0,1,1.86,5.31c1.92,7.47,3.73,15,4.28,22.7a20.6,20.6,0,0,0,1,5.18c.46,1.31,1.84,2.31,2.22,3.62.67,2.35.7,4.89,1.4,7.23.31,1,1.62,1.72,2.44,2.6a8,8,0,0,1,.74,1.14c-1.62.61-.36,1.37,0,1.79,2.21,2.37,2.52,5.14,2,8.16-.07.4.17.85.17,1.28a1.24,1.24,0,0,1-.24.86c-1.15,1.08-5.83.3-6.66-1.1a5.36,5.36,0,0,1-.24-1.15c0,2.74.37,5-.11,7.09s-1.81,4.06-2.72,6.1a5,5,0,0,0-.36,1.54c-.74,6-1.57,11.94-2.15,17.93a40.47,40.47,0,0,0,.33,6.2H409.41c.11-3.71,1.6-7.31,1.55-11l-.67-.07q-.87,5.56-1.75,11.11h-3.05c0-1.89-.39-4,1.59-4.47.17-1.42.3-2.47.43-3.52a24.09,24.09,0,0,0-2.09,3.87c-.6,1.35-1.12,2.75-1.67,4.12H266.07c0-3-.07-6.06,0-9.09.21-5.51.54-11,.79-16.54.07-1.55,0-3.12.1-4.66s1.13-3.42.55-4.54c-1.05-2.06-.88-3.9-.66-6,.41-3.81,1-4.34,5.06-3.72.31,0,.71-.52,1.07-.79l3-.5-3.51-2.27-.3.45.87,2.38c-.24-.16-.57-.26-.69-.48a12,12,0,0,1-.91-7.69c.09-.56,1.08-1.15,1.78-1.37.4-.14,1,.41,2,.83l-1.93.61a15,15,0,0,0,0,2.7,6.13,6.13,0,0,0,1,2.63c.81,1,2.18,1.21,2.78,2.72s2.09,3,3.19,4.47l.5-.37c-2.36-3.47-5-6.79-5.23-11.15l2.08-1.05-1.46-1.86,2.15-.19c0-1.61-.32-3.26.07-4.72.73-2.76,2-5.36,2.8-8.1,1.51-5.31,1.13-11,3.94-16.08,1.47-2.64,2.27-5.64,3.5-8.41q2.81-6.33,5.81-12.57c.28-.58,1.09-.9,1.66-1.34l-2,10,.85.25c1-2.6,1.89-5.2,2.89-7.78a3.49,3.49,0,0,1,1-1.67c2.52-1.63,5.11-3.15,7.68-4.71l-.38-.61-2.53,1.42a42.08,42.08,0,0,1-4.09,2.28,22.37,22.37,0,0,1-3.59.86c-.19-2.72,3.35-2.23,3.78-4.41,4.87-1.6,7.49-6.44,12.1-8.46.74-.32,1-1.57,1.76-2,3.77-2.26,7.61-4.42,11.44-6.59,2.33-1.32,4.72-2.48,7.57-2.14,0,.93.08,1.64.12,2.38h1.79c.48-1.66.87-3,1.4-4.88l-3.84,1.82-.33-.46,5.09-3.68c.4,2.9.75,5.55,1.11,8.19l1.12-.05c-.31-3.07-1.93-6.2-.34-8.94,2.79.81,4.3-2.18,6.42-2l.49-2.6,1.42-.12c.76,3.87,1.37,7.58,2.26,11.23.29,1.2,1.28,2.23,2.07,3.52a10.4,10.4,0,0,1,.94-1.64c1.1-1.19,3-2.17.86-4.05,0,0,.09-.24.16-.39l1.76.3c-2.56-.8-1.83-2.88-2-4.65a26.27,26.27,0,0,0-1-3.82l-3.07,5.43c-.18-1.83-.71-3.43-.37-4.83.57-2.39,2.64-3.6,5.67-4.56-5.88-2.51-9.84-5.45-4.47-11.72l-.64-.15-1.15.36c-.6-.93-.91-2-1.59-2.36a86.34,86.34,0,0,1-10.29-6.8c-3-2.41-6.44-4.36-9.67-6.52-.59-.39-1.18-1.23-1.71-1.19-1.91.15-2.29-2.21-4.13-2.25-.77,0-1.52-1-2.28-1.57-1-.82-1.81-2.2-3-2.62-3.1-1.15-5.46-3.31-8.08-5.13-1.24-.87-2.48-1.73-3.74-2.57a22.27,22.27,0,0,0-2.54-1.57,3.42,3.42,0,0,0-1.3-.12,10,10,0,0,0-1.68-2.09c-1.94-1.4-4-2.57-6-4-2.52-1.81-4.89-3.85-7.44-5.62-2.91-2-5.95-3.85-8.91-5.8-2.67-1.76-5.31-3.57-7.95-5.39-3.59-2.48-7.14-5-10.76-7.47-2.8-1.87-5.76-3.52-8.54-5.43-3.6-2.48-7.08-5.15-10.66-7.67-1.76-1.23-3.71-2.21-5.45-3.47-1.34-1-2.43-2.24-3.73-3.25-1-.78-2.25-1.27-3.25-2.07-1.33-1.06-2.36-2.57-3.79-3.41-4.31-2.53-8-5.9-11.95-8.83-1.86-1.37-3.39-3.79-6.81-2.75.66,1.53.91,3.45,2,4.29,1.4,1.09,1.86,2.39,1.27,3.51-.87,1.65-2.2,3.92-3.66,4.2-2.77.54-3.31.4-3.5,3.19a5.63,5.63,0,0,1-5.07,5.24c-.11,1.57-.21,3.16-.33,5a10.57,10.57,0,0,0-.88-1.09c-.13-.12-.37-.12-.56-.18-1.11,3.21.25,7.78-4.71,8.8-.41.52-.86,1.06-1.37,1.14-1.79.27-3.6.38-5,.52-.68,1.78-1.32,3.23-1.79,4.74-1.33,4.25-2.55,8.53-3.86,12.78-1.89,6.16-3.85,12.3-5.75,18.45-.69,2.25-1.2,4.56-2,6.78-.67,2-1.8,3.88-2.31,5.91-.7,2.83-1,5.75-1.49,8.68-2.7,0-4.37-1.52-4.19-4.37.15-2.46.65-4.91,1-7.36l.25.11v8c4.23-12.17,9-24.06,11.95-36.63l-3.29-.51,2.09-1.44c-1.38-1.26-1.34-1.2.55-2.21a3.55,3.55,0,0,0,1.34-1.65c1-2.24,1.81-4.52,2.75-6.9l-1.84-.74,2.65-.77-.14-.59-3.24-.46-.81,1.65a17.42,17.42,0,0,0-1.43-2.79c-.08-.12-1.24.67-1.95.82-.4.08-1.21-.19-1.28-.46-.48-1.67-1.54-1.41-2.28-1.18-1.08,2.65-2,4.95-3,7.34l2.52.29c-2,2.54-2.95-1.06-4.53-.24,0,.31-.15.78,0,1,1.4,1.82,1.09,3-1,3.4a6.76,6.76,0,0,0-5.06,4,25.51,25.51,0,0,1-3.6,5.73,71,71,0,0,0-8.91,12.55,11.26,11.26,0,0,0-1.47,2.56,44,44,0,0,0-.6,4.9c0,.1-.18.18-.41.39l-1-1.75c-.8,1.73-1.4,3.1-2.07,4.43a14.88,14.88,0,0,1-1.39,2.34c-.55.71-1.35,1.23-1.85,2-1.14,1.65-2.15,3.39-3.24,5.07-3.41,5.24-6.67,10.59-10.34,15.63-1.63,2.23-3,4.8-5.77,6.19-1.46.73-2.41,2.56-3.47,4-.82,1.12-1.46,2.38-2.31,3.81.37.94-.75,4.52-1.77,4.32-3-.58-3.4,2.24-4.05,3.43-1.28,2.31-2.83,2.44-5,2.56-1.49.09-3.25-.12-4.14,1.91A3.12,3.12,0,0,1,90,383.05V327.72a14.85,14.85,0,0,0,2.19-1.4c.86-.78,1.58-1.71,2.42-2.64l-1.06-2.05L90,326.41v-4.36a9.23,9.23,0,0,0,4.14-4.62L90,320.75v-2.18c.86-.55,2.11-.91,2.5-1.7,1-1.95,1.22-4.33,3.7-5.19a.42.42,0,0,0,.25-.33c-.25-3,3.1-2.78,4.22-4.57.05-.08.4,0,.61,0,.61.82.87,1.44-.18,2.31-.81.67-1.17,1.88-1.73,2.85l.36.22q3.57-3.9,7.12-7.81l-.21-.26L104,306.32l3-4.29c.28-.38.82-.77.81-1.15-.07-3.43,1.42-5.72,4.69-6.86.44-.15.78-.61.67-.52l.56-3.12,3.33-2.64.62.85s.19-.13.2-.23a5,5,0,0,1,1.6-3.86c.52-.48,1.87-2,.31-3.54-.32-.3.82-2.61,1.73-3.59,1.23-1.33.53-1.89-.32-2.48l2.31-5.31c2.25-.22,3-2.69,3.7-5.21l.66.35-1.4,3.75.42.18,4.87-9.53,6.39,5.67-3.38,2.62,4.66,9.53c-.87-1.38-1.67-2.81-2.65-4.11A7.61,7.61,0,0,0,135,271.5c-.56,1.12-1.76,2.4-1.53,3.31.37,1.38,1.73,2.49,2.56,3.58l3.47-1.47c1.74-1,3.44-2.17,5.26-3.06.38-.18,1.24.46,1.79.84a17.94,17.94,0,0,1,1.48,1.42c1.25,1.12,2.36.95,3.49-.31l-1.29,2.3a6.82,6.82,0,0,1,1.12.89c1.15,1.39,2.3,2.26,4.26,1.26,2.65-1.35,5.93-1.35,8.43-4.11-4.16-3.43-8.86-4.58-13.92-4.79.79-2.93.81-2.89,3.22-4.56,1.11-.76,2-1.31,2.08-3.26,0-1.37,2.5-2.73,4-4a31.27,31.27,0,0,1,2.6-1.77q4.35-3.13,8.67-6.31a2.71,2.71,0,0,0,.63-.88,6.7,6.7,0,0,1,1.11-1.86,15.34,15.34,0,0,1,4.09-2.82c1.53-.58,3.39-.27,5-.75,2.58-.8,5.07-1.92,7.79-3l.51.65L200.85,237l.64.59-1.92,2.71-.48-.32-.19,2.82a.93.93,0,0,0,.22.29c1.66,1.09,4.43-.07,5.29,2.63,2.38.1,4.18,2.07,5.09,3.42,1.51,2.24,3.63,3.1,5.58,4.42a37.92,37.92,0,0,0,3.44,1.87l6.94,5.94.44-.56L222.55,258a46.15,46.15,0,0,1,5.13,2.54c3.16,2.08,6.17,4.4,9.29,6.56,2.21,1.54,4.45,3,6.73,4.46,2.84,1.79,5.8,3.4,8.58,5.27,2.58,1.73,5,3.79,7.51,5.56s5.12,3.15,7.6,4.84c2.1,1.44,4,3.11,6.09,4.61s4.09,2.87,6.14,4.3c3.8,2.64,7.56,5.32,11.39,7.9s8,5.19,11.89,7.86c3,2,5.81,4.21,8.76,6.24,1.81,1.24,3.73,2.3,5.57,3.5.83.55,1.52,1.3,2.36,1.82a22.7,22.7,0,0,0,2.77,1.32c.29.13.79,0,.93.23,2.41,3.43,5.93,5.31,9.6,7a2.05,2.05,0,0,1,.95.75,3.53,3.53,0,0,0,4.26,1.7l1.56,3.2a9.89,9.89,0,0,1,1.4-9c-.61,2.75-1.36,5.54,0,8.21a10.28,10.28,0,0,0,2.94,3.54c2.16,1.58,4.06,4.13,7.11,3.63,1.57-.27,3-1.56,4.34-2.79l-2.46.29c-1.05-4.11-2.11-8.23-3.32-12.91,1.29-2.63-1.76-3.29-3.4-4.76,0-.14,0-.28,0-.42l.61-.44a8.44,8.44,0,0,0,2.31.76,2.74,2.74,0,0,0,2.75-1.8L347.5,321l.46-1.82L347,319c-.3-1.92-.19-3.82-.94-5.26s-2.33-2.28-3.4-3.25c.73-1.43,2.45,1.11,2.43-1.3V299l-.59,0,.61,10.16c-1.21.24-2.06.09-2-1.5a5.41,5.41,0,0,0-.41-1.75c-1.36,0-2.8.44-3.56-.09-1.53-1.08-1.17-3.63.39-5.63-2.8-2.81-.55-5.25.75-7.72,1.65.94,3.55,2,5.62.42s3-3.17,2.09-6.09l-2.5,5.86c-.28-2.14-.5-3.87-.75-5.76H341.5c-.09,1.63-.17,3.23-.26,4.84ZM415,268.35a28.13,28.13,0,0,1-.71-3.25c-.26-2.86-.31-5.74-.65-8.59a36.57,36.57,0,0,0-1.23-4.73l-.31.09q1.22,8.76,2.42,17.52l.55-.08c0-.34-.09-.68-.13-1,1,.77,1.91,2.09,2.9,2.14s1.83-1.35,2.74-2.11l-.4-.51-1.8.8-.94-2-1.75.84-.12-.26.76-.91-.66-.26Zm-8.62,25.4-.07-.06c1.81,2.15,2.29,2.05,5.66-1.17-1-2.87-1.78-4.1-3-3.9a6.27,6.27,0,0,0-3.39,1.65C404.35,291.54,405.59,292.7,406.38,293.75Zm-28.32-9.12c-.66,3.77-.62,3.94,2.2,4.72.54.14,1.26-.38,2-.64l-2.25-.55,6-10.82c-2.74,2-5.53,4-7.56,6.82Zm21.09-25.55a9.62,9.62,0,0,0,.64-2.2,51.56,51.56,0,0,0,0-6.09c-.29-3.91-2.31-7.2-4.1-10.56,0,0-.26,0-.23,0,1,2.77,2.42,5.5,3,8.39.63,3.41.52,7,.73,10.44.15.66.57,1.41.4,2-.36,1.23.95,2.68-.9,3.81-1.18.72-1.78,2.4-2.61,3.63-1-2.55-1.91-3.15-3.83-2.58-1.37.42-1.32,1.51-1.05,2.42.74,2.59,2.2.4,3.36.27l-.28.64,1.8,1.17-.6.84a24.86,24.86,0,0,0,5.07-2c.12-.06.16-.39.15-.59q-.27-4.75-.61-9.5A6.57,6.57,0,0,0,399.15,259.08ZM368.37,404.27a14.72,14.72,0,0,0-2.29-.18,8.47,8.47,0,0,0-3,.53,13.65,13.65,0,0,0-2.71,2.09,12.64,12.64,0,0,0-1.06,1.13l-4-11.41c-1.65,2.74-3.16,5.22-4.63,7.73-.5.84-1.43,1.86-1.25,2.59.6,2.52,1.6,4.95,2.45,7.41l.41-.12V412l.4-.09c.38.8.75,1.59,1.12,2.39l.47-.14c-.21-1-.41-2-.68-3.33l4.25,2.21c-2.56,1.3-2.56,1.3-2.22,3.66,1.17-1.17,2.89,2.93,3.85-.56.32.57.67,1.19,1,1.81a1.84,1.84,0,0,0,.51-1.5c-.25-1.82-.55-3.63-.83-5.45a9.44,9.44,0,0,0,3.13,3.58c2.52,2.13,2.35,2.33,5.08.65l-1.41-.88-2.19.91a9.84,9.84,0,0,1-.65-2c-.23-2.06-.17-4.16-.58-6.17-.28-1.38.53-1.46,1.29-1.62s1.79,0,2.64-.24c.33-.07.54-.66.81-1l2.14,6c2-2.36,2-2.71,0-4.25l.91-1.07-1.93-.19c-1.24-5.8-2.58-11.5-6.62-16.09,1,2.54,2.27,5,3.21,7.54S367.61,401.57,368.37,404.27Zm-18-119c-.23,3.27-.47,6.53-.7,9.8l.69,0v-9.81c-1.42-2.08-2.46-4.14-1.8-6.89.26-1.07-.68-2.43-1.07-3.66l-.5,0L345,280l-.29,0,.16-2.82-.42,0c-.18,1.23-.35,2.45-.51,3.58l2.11.74.28-3.41h.44v6.3h-5.66c.92-2.68,2.91-4.83,1.64-8.25a37.1,37.1,0,0,0-2.14,5.43c-.83,3.76-.18,4.32,3.85,4,1.89-.16,4.15-1.45,4.71,1.32Zm18.56-35c-1.84-1.66-3.09-.15-4.42.84-1.86-.68-2.08.7-2.09,1.87,0,2.09.44,4.2.28,6.28-.23,3.15,2.42,6.24.15,9.4-.06.08,0,.29.06.41.37.75.76,1.5,1.32,2.59l3.39-1.23L366.26,269l2.77-1.42.56,1.37c1.77-.5,2.6-1.5,2.36-3.33-.62-4.8-1.18-9.61-1.78-14.42-.19-1.54-.43-3.09-.64-4.63l-.23,0ZM344,426.58l4.26-4.36,5.73,6.47-.8,1.64L349,429.14c.66,1.44,1.19,2.62,1.84,4.07,1.08-.64,2.81-1.13,3.55-2.26s.36-2.82.47-4.27l.23-.12c.16,1,.33,2,.56,3.41l1.73-1.65c-.33,1.12.27,2-.5,3.14-.54.78.38,2.61.73,4,.84,3.24,1.85,6.45,2.55,9.73.48,2.23,1.42,3.62,3,3.5-.27-1-.53-2-.8-2.95l.27-.08c.55,1.18,1.1,2.36,1.74,3.75l3.8-1.86-.23-.45-1.89.88-.29-.49a20.33,20.33,0,0,1,2.18-1.21c1.86-.76,2.1-2,1.29-3.68a16.08,16.08,0,0,1-.94-2c-.87-2.66-1.62-5.36-2.52-8s-1.89-5.13-2.86-7.74l-1.27.74-.3-.44,1.74-1.26-.13-.55-2.17.57c.11-.52.23-1,.37-1.69l-1.54.64-.26-.43,2.54-1.85c-1.08-.91-2.65-.33-3.44,1.22a5.4,5.4,0,0,0-.48-2c-.44-.61-1.34-1.44-1.84-1.32a3.14,3.14,0,0,0-1.81,1.75c-.21.5.38,1.33.61,2-2.25.23-1.45-2.2-2.08-2.62l-2.79-.16c.27.83.54,1.69.81,2.53-3.17-1.89-7.15,1.21-6.78,4.67L341.88,428l3.44,3.1C344.82,429.37,344.42,428,344,426.58ZM322.26,401.5c.18,2,.77,3.55.35,4.8a21.67,21.67,0,0,0-.79,8.79,8.38,8.38,0,0,1-.18,1.92c-.64,3.91-1.28,7.82-2,12.1.67-.35.83-.39.88-.48,4.42-7.22,5.31-15.36,6.05-23.53.05-.57-.52-1.25-.91-1.8a8.4,8.4,0,0,0-1.19-1.11l1.44-.67q-.72-3.88-1.45-7.79h-.39c-.08.75-.17,1.5-.25,2.28a8.75,8.75,0,0,1-1.65-.81c-2.92-2.29-4.47-2.2-7.3.21a29.29,29.29,0,0,1-4.44,3.12c-3.13,1.79-4.14,3.63-3.62,7.06-.14,0-.32.09-.4,0a2.92,2.92,0,0,0-4.23.47c-1.14,1.41-.32,2.47,1.29,3,.08,0,.09.26.15.39l2.42,4.65,3-.44-5.18-7.15.46-.32,8.92,11.65.64-.38c-.72-1.17-1.5-2.32-2.15-3.53a2.41,2.41,0,0,1-.14-1.46c1.71-.57,1.06-1.61.74-2.72-.12-.41.26-1,.48-1.64a18.05,18.05,0,0,1,2.86,2c1.53,1.63,2.13.5,2.61-.79.83-2.23,1.52-4.51,2.34-6.75C320.74,402.26,321.28,402.12,322.26,401.5ZM345.63,397l-.63.15c-.75-2.51-1.59-5-2.23-7.53-.91-3.62-2-6.13-3.11-6.69.15,3.41,3.64,14.05,4.54,14.43-.17,1.41-.34,2.76-.51,4.11-2.29-6-3.7-12.24-6.56-18.19l1.48.07,0-.49-3.94-.44a32.57,32.57,0,0,0,.66,3.42c1.71,5.75,3.42,11.5,5.29,17.2.24.75,1.36,1.75,2,1.71,2.76-.17,4-2.55,5.83-4.68-.16,1.49-.28,2.65-.4,3.82l.59.06c1.58-5.26,4.31-10.18,4.89-16.1l-1.75.74-1-3.72-1.07.91.14-.62c-2.5-1.1-5.29-1-8.05-1.79C343.08,388.19,344.9,392.46,345.63,397Zm28,55.7.19.72a10.68,10.68,0,0,0,2.94,0c4.37-1.25,8-3.8,11.48-6.68,2.67-2.24,5.25-4.58,7.81-6.95a3.28,3.28,0,0,0,1-1.85c.15-1.31-.23-2.73.11-4,1.43-5.21,1.51-10.5,1.38-16.13l-7.35-.44-.06.32,2.23,1.06-.13.45-3.3-.24,0,.49,4.5,1.38c-1.4.25-2.3.43-3.2.57-3.79.6-7.69.85-11.34,1.92-1.9.55-2.33-.06-3-1.29s-1.39-2.23-2.09-3.34l-.65.4,3.52,6.46,19.44-4,.4.31L381,441.9l.63.51,16.05-19.09c.35,2.16-1,3.85-2.34,5.38-4.24,4.84-8.63,9.55-12.94,14.33a20.08,20.08,0,0,0-1.43,2l.59.48q5.88-5.82,11.78-11.62l.84.59a8.59,8.59,0,0,1-1.28,2.59c-3.37,3.26-6.86,6.39-10.27,9.6a4.8,4.8,0,0,0-.75,1.46l.39.29,7.77-6.44.4.56C386.06,447.78,380.82,451.7,373.61,452.69Zm54.66-117.27c2.34,2.27,5.22,1.88,7.79,1.32a9.17,9.17,0,0,0,6.53-5.3c1.38-3,.86-8.75-1.74-10.73-2.15-1.63-4.76-3.22-8.39-2.21l1.42,1.12c-1.51,4.48-3,8.85-4.52,13.44l2.56,1.95-3.41-.75C428.38,334.88,428.27,335.4,428.27,335.42ZM185.36,254.63c2-.67,3.43-1.28,4.95-1.63a11.93,11.93,0,0,1,3.67-.26,37,37,0,0,1,4.34.87l-.19-1.17H201l-5.07-4.1,2.35-1a5.26,5.26,0,0,0-5-2.78c-3.73.37-7.44,1-11.13,1.74a11.3,11.3,0,0,0-2.86,1.44l-.06.65C183,248.45,185.81,249.64,185.36,254.63Zm181.71,41-.91,3.05.38.4c1.92-1.13,4.38.14,6.81-1.58l-3-.42a9.32,9.32,0,0,1,1.87-1,25.15,25.15,0,0,1,1.78,2.5l.13-.75a22.58,22.58,0,0,0,4.13,1.22c.36,0,.89-1.25,1.29-2a7.33,7.33,0,0,0,1-2.11c.23-1.24.75-3,.17-3.66s-2.39-.95-3.68-1.06c-.61-.05-1.29.62-2.16,1.08l1.05-2.35-8.91,2.06.08.45,2.38-.42a7.62,7.62,0,0,1-3,1.39c-.39.13-.76.33-1.14.49l.94,1-.79.31.95.5-1.09.48ZM349,441.14c-1.28.6-2.8,1.2-4.23,2s-2.68,1.89-4.14,2.59c-1.79.87-2,.74-2.07,3.34a3.36,3.36,0,0,0,1.37,2.66c3.6,1.74,7.33,3.21,11,4.77l.25-.57-6.64-3.23.21-.46,9.17,3.56c-.38-2.15-.49-1.75-2.45-2.3a100.06,100.06,0,0,1-9.46-3.56l.33-.91c1.36.35,2.72.7,4.08,1l4.71,1.16-1.77-1.52c1.44-2.29.18-4.1-.77-6l1-.15C349.44,442.91,349.29,442.27,349,441.14Zm24.5,37.08-3.47,3.58,3.12.37c0,.2,0,.49.08.76s.14.48.21.72c-.11-3.25,2.75-2.74,4.37-3.77l2.33,3.87c-.16-1.25-.23-1.84-.31-2.43l.44-.17,3.16,4.7c1.1-2.54.64-4.76-1.1-6-1.14.16-2.38,2-3.32-.39l1.6-.58c3.08-1.15,3.76-.76,4.73,2.4.85,2.77,1.72,5.55,2.8,8.23.48,1.2.27,1.71-.82,2.14-2.95,1.17-5.9,2.36-9.08,3.64-.69-2.28-1.29-4.33-2-6.35-.11-.34-.57-.57-.87-.85-.14.36-.48.79-.38,1.07.78,2.41,1.65,4.78,2.56,7.39l12-4.9.41.39-1.76,1.74c.68,1.3,1.34,2.56,2,3.76,1.21-1.49.2-2.59-1.22-3.56,2.17-1.52,2.22-1.87.68-3.69a3.81,3.81,0,0,1-.73-1.26c-1-3.3-2-6.62-3.08-9.93a7.54,7.54,0,0,0-.83-2c-1.73.38-.45-1.32-1.72-1.76ZM425.25,480a38.1,38.1,0,0,1-.61,5.69,55.7,55.7,0,0,1-2.63,7.82c-.27.66-1.53,1.51-2.1,1.36-2.56-.68-5-1.69-7.36-2.52,1-4,1.86-7.64,2.74-11.27l-.81-.2-2.66,10.93c-.22-.17-.46-.28-.54-.45a1.66,1.66,0,0,1-.11-.85c.69-4.19,1.7-8.28,4-11.93.36-.58.87-1.62.63-1.94-1.08-1.45-.31-2.86-.1-4.22.4-2.65,1-5.25,1.6-7.88l-.5-.09c-.82,3.8-1.64,7.59-2.36,11-.67.72-1.37,1.14-1.53,1.71-.64,2.36-1.06,4.78-1.68,7.15-.7,2.63-1.54,5.23-2.25,7.63l12.93,4.92-2,.62c1.79.42,2.35-.05,2.58-1.75a30.5,30.5,0,0,1,3.52-10.63C427.75,482.05,427.65,482,425.25,480ZM369.94,418.5a23.4,23.4,0,0,0-3.69-.28c-.45,0-.85.78-1.27,1.21,1.38.61.51,2.06,1,2.95l1.64-1.33a15.81,15.81,0,0,0-.19,2c0,1-.1,2.1.36,2.82,1.57,2.44,1.63,2.39.73,4.75-.14.38.13.92.21,1.38,2.51-1.16,1.76,1.23,2.26,2a20.79,20.79,0,0,1,1.72,3.94c2.06-1.16,2.52-3.42,1.46-6.3-.86-2.33-1.69-4.68-2.45-7-.51-1.63-.87-3.31-1.32-5.05l-1.31.81-.2-.23Zm-38.63-34h-.51c.12,2.12.14,4.24.39,6.34s1.15,4.22,1,6.28c-.29,4.25-1.12,8.46-1.63,12.69-.38,3.06-.59,6.13-.91,9.19a14,14,0,0,1-.49,2c5.14-11.74,7.35-27.56,3-34.41.64,4,2.51,7.52,1.16,11.42C332.65,393.39,332,388.94,331.31,384.48ZM190.23,261c-3.65-.26-7.21-.64-10.78-.74-3.34-.1-3.81.35-4.38,3.49a1.91,1.91,0,0,0,.45,1.63,2.36,2.36,0,0,0,1.9.07,33.18,33.18,0,0,0,3.35-1.82c1,2.75,1,2.75,6.3,1.14Zm191.36-4a8.59,8.59,0,0,0,.83-1.56c.43-1.52.78-3.07,1.09-4.61a1.63,1.63,0,0,0-.93-.38c-2.56.08-5.18-.36-7.34,1.76-.69.67-2.32.33-2,2.07.2,1.11.2,2.26.46,3.35a1.39,1.39,0,0,0,1.11.77C377.2,257.89,379.6,257.34,381.59,256.92ZM357.28,470.15l2.53-2.18c-6.81-.83-12.6-3.85-18.74-4.17l3.28,4.42c2,1,3.86,3.17,5.78,1.71.75.56,1.25,1.16,1.5,1.07,1.83-.65,3.61-1.44,5.42-2.18Zm-17.14-97.3a32.66,32.66,0,0,0,.06,4.47,2.41,2.41,0,0,0,1.33,1.73c2.6.53,5.25.81,8.39,1.24-1.9-3.67-2.1-7.58-4.74-10.65C343.88,373.05,342.32,374.05,340.14,372.85Zm18.1,78.38c-.58-2.17-1.13-4.19-1.66-6.21-.27-1-.22-2.36-.86-3s-1-.62-.63-1.86-.65-3.12-.78-4.73c-.15-1.82-1.12-1.71-2-.91a3.36,3.36,0,0,0-1.15,2.52c1.09,5.1,2.4,10.15,3.59,15.05Zm55.38-104.86-9.32.74c-.53,2.57-1,5-1.59,7.71l3-.43c.06,1.89.93-.2,1.28.26-.16-1.15,1-.95,1.41-1.41C410.23,351.08,411.85,348.74,413.62,346.37Zm-12,61.08c-2.11,0-3,1-3.07,3.19a3.09,3.09,0,0,0,2.76,3.34c1.76.06,5.09-1.91,5-3S402.94,407.45,401.59,407.45Zm-40.3-15.63c-3.26,1-5,2.44-4.52,4.11.3,1.13,1.26,2.09,2.13,3.45v1.2a6.63,6.63,0,0,0,1.77-.38c2.55-1.41,2.2-3.51,1.3-5.75A22.19,22.19,0,0,1,361.29,391.82Zm17.34-123.94c2.88-2,2.88-2,2.72-3.91-.84-.1-1.62-.16-2.4-.28-3.89-.61-4.68.19-3.93,4.1.08.41.59.73.83,1.14s.48,1,.84,1.78l3.38-.41Zm-213.15,8.55a18.36,18.36,0,0,1,1.82,3.39c.47,1.72,1.21,2.11,2.78,1.21,2.7-1.55,2.92-3.93,2.24-7.12ZM390.79,470.26c-1.94,2.75-5.13.93-7.89,2.33a27.42,27.42,0,0,0,3.52,1.06c3.51.53,7,1,10.57,1.4a4.17,4.17,0,0,0,1.49-.45c-.41-.45-.75-1.06-1.27-1.32-1-.53-2.21-.81-3.27-1.31S391.73,470.77,390.79,470.26ZM350.86,359c.53.42.87.91,1.29,1,1.39.26,2.81.37,4.22.54v-3.21L355,359l-1.3-1.84c1.2-2-.66-2.82-2-3.69-1.15-.77-2.32-.66-2.87,1,2.08.56,0,4.46,3.33,4Zm50.66,111.76,4.82-1.09-2-.63a27.67,27.67,0,0,1,10.56-7.07c1-.43,2.17-1.5,3.13.61.32-1.74.57-3.08.81-4.43l.68,1c-.95.37-1.9.71-2.84,1.1-1.69.7-3.42,1.35-5.06,2.18C407.78,464.34,403.56,465.84,401.52,470.71Zm-18.35-63.85c-3.16,2-2.25,4,.85,6.32.68.5,2.19.87,2.62.5a6.38,6.38,0,0,0,1.75-3.15c.1-.38-1-1.07-1.87-1.94V411l-2.18-.28C384,409.45,383.58,408.2,383.17,406.86ZM417,421.34l-.62-.16-5.26,26.07C414,438.83,416.37,430.28,417,421.34Zm-38-70.4c3.4,1.83,6.63,1.22,8.59-1.62C384.77,347.13,380.23,348,379,350.94Zm52.48,10.34c1.41.74,2.73,1.39,4,2.11a19,19,0,0,0,2.13,1.4,1.89,1.89,0,0,0,1.66-.23,2,2,0,0,0,.51-1.7C438.29,359.23,434.85,359.34,431.45,361.28ZM394.14,254l1.17,1.51,2.31-4.3-2.5-2.26c-.08.81-.13,1.38-.19,2.09-1.47-1.18-3-1.6-4.41-.32a2.11,2.11,0,0,0,0,1.94c1.42.75,3,1.62,4.58.13Zm-135,30.28.4-.53L230.7,264l-.36.53ZM454.92,440.47c2.47-1.35,3.21-3.63,1.83-5.87-.57-.91-1.3-1.47-2.43-.43C452.41,435.94,452.51,438.16,454.92,440.47ZM336.2,453.06c7.44,3.21,14.85,6.48,23,6.5ZM514.56,468c.18-.51.25-1.17.47-1.23,1.62-.41,1.18-1.69,1.06-2.64a20.9,20.9,0,0,0-1-3.86c-.12-.36-.64-.58-1.5-1.33-.26,3.1-.48,5.62-.69,8.18ZM365.19,388l-.75.68c2,2.24,4,4.49,6.06,6.82,1.56-2.47.73-5.18-1.5-5.77l-.21,1.3ZM379,486.67c.82-1.1.7-1.06,0-3.16-.37-1.18-.88-2-2.05-1.44-.94.42-2.85.14-2.41,2,.26,1.07-.3,3.1,2,2.75l.21-1.37Zm15.54-7.73,0-1.09-8.4-.43.91,3.29ZM371.09,314.09a22.34,22.34,0,0,0,3.81,1.7c.28.08,1-1.08,1.34-1.77a13.42,13.42,0,0,0,.56-2.39c-.94,0-2-.39-2.78-.06C373.07,312,372.37,312.94,371.09,314.09Zm-19.28,67.32c-.89,2.21-.33,3.67,1.87,4.92.83-2.39,1.61-4.59,2.38-6.79l-.78-.39c-.71.94-1.42,1.89-2.26,3Zm7.37,65.86-.69,1.3c2.33.3.6,1.5.55,2.36,0,.21.3.45.48.68,1.75-2.42-.12-4.58-.53-6.82s-1-4.72-1.61-7.33c-.61.54-1.39,1-1.33,1.22a7.27,7.27,0,0,0,1.05,1.85c-1.07.66-.64,1.29.36,1.58.06,1,.1,1.67.14,2.38l.71-.57C359.11,444.92,356.15,447,359.18,447.27Zm26.43-205c.56,5,1.13,10,1.68,14.93-.05.05.21-.07.25-.25a24.09,24.09,0,0,0-.12-9.42,4.91,4.91,0,0,1,.33-1.6ZM434.13,383c-.59-1.3-1-2.33-1.54-3.32,0-.09-.89,0-.94.2a10.44,10.44,0,0,0-.7,3.42c0,.68,1,1.3,1.5,1.94Zm-14.51,55.62.64.1q1.49-8.44,3-16.9l-.76-.12Q421,430.12,419.62,438.58ZM346.1,459.06l-.06-.82-5.83-.32,0,.33,1.12.39v.62l-5.45.7C339.26,459.6,343,461.29,346.1,459.06Zm-58.61,5.33c1.66,2.2,8.61,3.85,11.56,2.76ZM422,418.84c2-.08,2.76-.86,2.66-2.43a4.71,4.71,0,0,1,.16-1.17,15.81,15.81,0,0,0-.25-7.85,45.39,45.39,0,0,0-.67,7.69C423.88,416.75,424.16,418.28,422,418.84ZM385.74,269.65H386V247.24h-.22ZM294,484.79a18.42,18.42,0,0,1,3,0c1.73.33,3.44.84,5.17,1.18.43.09.93-.2,1.4-.32l-.06-.57c-2.51-.59-5-1.26-7.54-1.71C295.51,483.32,294.9,484.15,294,484.79Zm60.67-135.45L352.87,351a9.67,9.67,0,0,0,2.08,1.48c1.4.5,3,1.32,4-.78l-1.61-.81-1.25,1.15C355.7,351.35,355.34,350.63,354.71,349.34Zm16.63-97.75h-.52c.58,5.19,1.17,10.39,1.78,15.81.27-.46.62-.78.58-1.06C372.6,261.42,372,256.5,371.34,251.59Zm40.18.65-.61.15,2.37,17.46.46-.08ZM442,421.44l.15-.7c-1,0-2.69-.37-2.93.06a35.4,35.4,0,0,0-2.34,5.92,4.29,4.29,0,0,0,.12,1.61l.49,0c.85-2.45,1.69-4.89,2.53-7.3Zm-73.33,60.7a5.79,5.79,0,0,0-7.5-1.11ZM335.43,494c-2.59-3.69-4.88-6.94-6.81-9.7C329.15,487.57,331.45,491.13,335.43,494Zm154.66-2.69c3-2.35,3.27-4.67,1.42-6.19H484a40.68,40.68,0,0,0,6.18.73c1.28,0,1.81.69,1.51,1.76A26.34,26.34,0,0,1,490.09,491.31ZM385.16,267h.41q-.35-9.48-.68-19l-.51,0Zm34.63,212.59-1,3.25.45.23,1.57-1.26-.52,2.06c1.7-2.55,1.73-4,.23-5.28-.3-.24-1.11.14-2,.29ZM338.2,503.56l-8.62-7.24C331.58,499.81,334.67,502,338.2,503.56Zm60.11-165.44a28.3,28.3,0,0,0-1.67-2.83c-.18-.26-1.29-.21-1.3-.17-.23,1.2-.37,2.42-.48,3.26ZM379.39,464.68l-.38.75c2.05,2.36,5.09,2.52,7.92,3.14ZM125.22,282.34l-.35.34,1.31,4,2.4-1.77Zm249,107.31.39-.57-5.38-3.81-.37.55C370.52,387.21,371.65,389.47,374.18,389.65ZM354,284.17c-1.43,2-1.5,4.15-.92,6.85C354.71,288.65,353.71,286.31,354,284.17Zm29.63-21,.09-.43h-9.14v.43Zm-.68,44.26,0,.6,7.66,1.17.07-.44-4.76-.72,0-.47h3.32l0-.14ZM381,306.5l9.95-.78C387.55,304.9,384.16,304.64,381,306.5Zm-71.64,198,.66.18a24.43,24.43,0,0,1,1.23-3.29c.59-1.08.67-2.79-.37-3.42ZM318,458.9l2.52-1.42,2.49,3.35c.27-2.2-.29-3.36-2.07-3.64C319.8,457,318.23,456.53,318,458.9ZM117,293.68l.5.53,7.34-6.27-.35-.4Zm187.2,197.59-.35-.56-5.29.42-.07.33,3.44,1Zm51-33.46,0,.48,9.37-1.76-.14-.74Zm85.31-13.5c2.3-3.39,2.55-5.26,1-6.46C441.11,439.88,440.79,442,440.42,444.31ZM355.94,336.53l-2.54,3.34a3.74,3.74,0,0,0,1.9-.39c.61-.28,1.2-.59,1.79-.88Zm-2.53-26.82.93-.83c-.45-1.38-.85-2.79-1.4-4.13-.12-.3-.8-.38-1.27-.58v2.88l.55-.66ZM200,261.49l-.21-2.84-3.36,1.49Zm229.23,7.07c-1.09,2.31,1.24,2.06,2.06,3C432.28,270,432.28,270,429.24,268.56ZM296.15,474.49l0,.51,9.91,1,.05-.52Zm97.78-104.18,3.64,4.53C397.62,371.85,397.46,371.65,393.93,370.31ZM130.58,276.6l-3.78.35-.13.35,3.65,1.7ZM471.67,501.16c1.57-2.41,1.72-5.45.63-6.76C472.11,496.48,471.91,498.59,471.67,501.16ZM354.45,347.42l.56-.29a6.89,6.89,0,0,0-.54-2.51c-.18-.28-1.39.11-2.14.19l-.18.56Zm-78.06,123c.59,2.55,2.41,4.31,4.75,5.69Zm209.58-1c.19-2.59-1.32-4.52-3.17-4.11Zm-83.16-42.07-.85,0c.08,1.87.17,3.73.25,5.59h.6Zm-97.24,44.7-.21.78,7.25,1.06.08-.47Zm50.07-168.35c-.37-1.17-.5-2.25-.78-2.29a8.42,8.42,0,0,0-2.44.35l-.08.81Zm65.47,146.21-.57-.09-2,7.11.58.15C419.76,454.7,420.43,452.31,421.11,449.92Zm13-179.55c.76,1.24,1.52,2.47,2.44,3.94C437.62,271.61,435.39,271.22,434.1,270.37ZM306.75,466.51l.24.93,4-1.36-.31-.91Zm78.52-92.65c1.46.91,3.24-.43,3.46-3Z" transform="translate(-90.04 -231.28)"/><path class="cls-1" d="M273,461c-.36.27-.76.83-1.07.79-4-.62-4.65-.09-5.06,3.72-.22,2.08-.39,3.92.66,6,.58,1.12-.42,3-.55,4.54s0,3.11-.1,4.66c-.25,5.52-.58,11-.79,16.54-.11,3,0,6.06,0,9.09H90V383.05a3.12,3.12,0,0,0,3.74-1.85c.89-2,2.65-1.82,4.14-1.91,2.13-.12,3.68-.25,5-2.56.65-1.19,1.08-4,4.05-3.43,1,.2,2.14-3.38,1.77-4.32.85-1.43,1.49-2.69,2.31-3.81,1.06-1.42,2-3.25,3.47-4,2.78-1.39,4.14-4,5.77-6.19,3.67-5,6.93-10.39,10.34-15.63,1.09-1.68,2.1-3.42,3.24-5.07.5-.73,1.3-1.25,1.85-2a14.88,14.88,0,0,0,1.39-2.34c.67-1.33,1.27-2.7,2.07-4.43l1,1.75c.23-.21.4-.29.41-.39a44,44,0,0,1,.6-4.9,11.26,11.26,0,0,1,1.47-2.56,71,71,0,0,1,8.91-12.55,25.51,25.51,0,0,0,3.6-5.73,6.76,6.76,0,0,1,5.06-4c2.07-.39,2.38-1.58,1-3.4-.17-.22,0-.69,0-1,1.58-.82,2.52,2.78,4.53.24l-2.52-.29c1-2.39,1.92-4.69,3-7.34.74-.23,1.8-.49,2.28,1.18.07.27.88.54,1.28.46.71-.15,1.87-.94,1.95-.82a17.42,17.42,0,0,1,1.43,2.79l.81-1.65,3.24.46.14.59-2.65.77,1.84.74c-.94,2.38-1.79,4.66-2.75,6.9a3.55,3.55,0,0,1-1.34,1.65c-1.89,1-1.93.95-.55,2.21l-2.09,1.44,3.29.51c-2.91,12.57-7.72,24.46-11.95,36.63v-8l-.25-.11c-.35,2.45-.85,4.9-1,7.36-.18,2.85,1.49,4.33,4.19,4.37.48-2.93.79-5.85,1.49-8.68.51-2,1.64-3.9,2.31-5.91.76-2.22,1.27-4.53,2-6.78,1.9-6.15,3.86-12.29,5.75-18.45,1.31-4.25,2.53-8.53,3.86-12.78.47-1.51,1.11-3,1.79-4.74,1.44-.14,3.25-.25,5-.52.51-.08,1-.62,1.37-1.14,5-1,3.6-5.59,4.71-8.8.19.06.43.06.56.18a10.57,10.57,0,0,1,.88,1.09c.12-1.84.22-3.43.33-5a5.63,5.63,0,0,0,5.07-5.24c.19-2.79.73-2.65,3.5-3.19,1.46-.28,2.79-2.55,3.66-4.2.59-1.12.13-2.42-1.27-3.51-1.09-.84-1.34-2.76-2-4.29,3.42-1,4.95,1.38,6.81,2.75,4,2.93,7.64,6.3,11.95,8.83,1.43.84,2.46,2.35,3.79,3.41,1,.8,2.24,1.29,3.25,2.07,1.3,1,2.39,2.29,3.73,3.25,1.74,1.26,3.69,2.24,5.45,3.47,3.58,2.52,7.06,5.19,10.66,7.67,2.78,1.91,5.74,3.56,8.54,5.43,3.62,2.43,7.17,5,10.76,7.47,2.64,1.82,5.28,3.63,7.95,5.39,3,1.95,6,3.77,8.91,5.8,2.55,1.77,4.92,3.81,7.44,5.62,1.94,1.39,4,2.56,6,4a10,10,0,0,1,1.68,2.09,3.42,3.42,0,0,1,1.3.12,22.27,22.27,0,0,1,2.54,1.57c1.26.84,2.5,1.7,3.74,2.57,2.62,1.82,5,4,8.08,5.13,1.15.42,1.94,1.8,3,2.62.76.56,1.51,1.56,2.28,1.57,1.84,0,2.22,2.4,4.13,2.25.53,0,1.12.8,1.71,1.19,3.23,2.16,6.63,4.11,9.67,6.52a86.34,86.34,0,0,0,10.29,6.8c.68.4,1,1.43,1.59,2.36l1.15-.36.64.15c-5.37,6.27-1.41,9.21,4.47,11.72-3,1-5.1,2.17-5.67,4.56-.34,1.4.19,3,.37,4.83l3.07-5.43a26.27,26.27,0,0,1,1,3.82c.17,1.77-.56,3.85,2,4.65l-1.76-.3c-.07.15-.2.36-.16.39,2.15,1.88.24,2.86-.86,4.05a10.4,10.4,0,0,0-.94,1.64c-.79-1.29-1.78-2.32-2.07-3.52-.89-3.65-1.5-7.36-2.26-11.23l-1.42.12-.49,2.6c-2.12-.15-3.63,2.84-6.42,2-1.59,2.74,0,5.87.34,8.94l-1.12.05c-.36-2.64-.71-5.29-1.11-8.19L331.81,375l.33.46,3.84-1.82c-.53,1.83-.92,3.22-1.4,4.88h-1.79c0-.74-.08-1.45-.12-2.38-2.85-.34-5.24.82-7.57,2.14-3.83,2.17-7.67,4.33-11.44,6.59-.73.44-1,1.69-1.76,2-4.61,2-7.23,6.86-12.1,8.46-.43,2.18-4,1.69-3.78,4.41l.07-.08c-.56.44-1.37.76-1.65,1.34q-3,6.24-5.81,12.57c-1.23,2.77-2,5.77-3.5,8.41-2.81,5-2.43,10.77-3.94,16.08-.78,2.74-2.07,5.34-2.8,8.1-.39,1.46-.07,3.11-.07,4.72l-2.15.19,1.46,1.86L275.55,454c.18,4.36,2.87,7.68,5.23,11.15l-.5.37c-1.1-1.47-2.54-2.81-3.19-4.47s-2-1.75-2.78-2.72a6.13,6.13,0,0,1-1-2.63,15,15,0,0,1,0-2.7l1.93-.61c-.95-.42-1.58-1-2-.83-.7.22-1.69.81-1.78,1.37a12,12,0,0,0,.91,7.69c.12.22.45.32.69.48ZM167.2,309.52l.81.18,1.62-6.39-1-.24Zm-2.5,11.23-.65-.18-2.48,8.4.82.23Zm182.15,42.16c-1.24-1.62-3.12-1.11-5.26,1.76Z" transform="translate(-90.04 -231.28)"/><path class="cls-1" d="M90,326.41l3.55-4.78,1.06,2.05c-.84.93-1.56,1.86-2.42,2.64a14.85,14.85,0,0,1-2.19,1.4Z" transform="translate(-90.04 -231.28)"/><path class="cls-1" d="M408.54,506.35q.87-5.55,1.75-11.11l.67.07c.05,3.73-1.44,7.33-1.55,11Z" transform="translate(-90.04 -231.28)"/><path class="cls-1" d="M403.75,506.35c.55-1.37,1.07-2.77,1.67-4.12a24.09,24.09,0,0,1,2.09-3.87c-.13,1.05-.26,2.1-.43,3.52-2,.51-1.59,2.58-1.59,4.47Z" transform="translate(-90.04 -231.28)"/><path class="cls-1" d="M90,320.75l4.14-3.32A9.23,9.23,0,0,1,90,322.05Z" transform="translate(-90.04 -231.28)"/><path d="M354.66,258.25,349.6,271l-2.25.54,1.85-5.29a3.73,3.73,0,0,0-2.5,3.72c-.08,1.44-.78,1.71-2,1.42.87-5.28,3.27-8.72,6.21-8.84-.41,1.63-.81,3.25-1.21,4.88l.57.17c.82-2.06,1.65-4.11,2.46-6.17a1.71,1.71,0,0,0,0-.64c0-.14,1.26-2.23,1.29-2.32a4.64,4.64,0,0,0,.14-.83Z" transform="translate(-90.04 -231.28)"/><path d="M201.94,236c-2.48-2.35-3.77,1.72-5.88.47L197.7,235l-.22-.55-2.9,1.05c.19-.51.25-1.28.54-1.37,2.8-1,5.64-1.81,9-2.85C203.25,233.12,202.65,234.42,201.94,236Z" transform="translate(-90.04 -231.28)"/><path d="M352.24,278.15l-1.68.7c-1.69-3.64,1.6-6.32,2.53-9.57a31.91,31.91,0,0,0,0,4.59,5.58,5.58,0,0,1-.94,4.34Z" transform="translate(-90.04 -231.28)"/><path d="M353,273l3.71-13.71.59.15-3.57,13.74Z" transform="translate(-90.04 -231.28)"/><path class="cls-1" d="M104,306.32l2.67-2.19.21.26q-3.56,3.9-7.12,7.81l-.36-.22c.56-1,.92-2.18,1.73-2.85,1-.87.79-1.49.18-2.31Z" transform="translate(-90.04 -231.28)"/><path d="M341.24,291.8c.37-.65.75-1.28,1.09-1.93s.72-1.53,1.07-2.29l.76.19-.54,4.41-2.38-.4Z" transform="translate(-90.04 -231.28)"/><path d="M346.24,323.43c0,.14,0,.28,0,.42l-4.63,2.58C342.23,324.33,343.85,323.33,346.24,323.43Z" transform="translate(-90.04 -231.28)"/><path class="cls-1" d="M222.55,258l3.35,2.77-.44.56-6.94-5.94Z" transform="translate(-90.04 -231.28)"/><path d="M356,260.09l-1.94,5-.93-.39,2.22-4.88Z" transform="translate(-90.04 -231.28)"/><path class="cls-1" d="M322.26,401.5c-1,.62-1.52.76-1.63,1.05-.82,2.24-1.51,4.52-2.34,6.75-.48,1.29-1.08,2.42-2.61.79a18.05,18.05,0,0,0-2.86-2c-.22.67-.6,1.23-.48,1.64.32,1.11,1,2.15-.74,2.72a2.41,2.41,0,0,0,.14,1.46c.65,1.21,1.43,2.36,2.15,3.53l-.64.38-8.92-11.65-.46.32,5.18,7.15-3,.44-2.42-4.65c-.06-.13-.07-.37-.15-.39-1.61-.5-2.43-1.56-1.29-3a2.92,2.92,0,0,1,4.23-.47c.08.06.26,0,.4,0-.52-3.43.49-5.27,3.62-7.06a29.29,29.29,0,0,0,4.44-3.12c2.83-2.41,4.38-2.5,7.3-.21a8.75,8.75,0,0,0,1.65.81c.08-.78.17-1.53.25-2.28h.39q.73,3.9,1.45,7.79l-1.44.67a8.4,8.4,0,0,1,1.19,1.11c.39.55,1,1.23.91,1.8-.74,8.17-1.63,16.31-6.05,23.53,0,.09-.21.13-.88.48.71-4.28,1.35-8.19,2-12.1a8.38,8.38,0,0,0,.18-1.92,21.67,21.67,0,0,1,.79-8.79C323,405.05,322.44,403.46,322.26,401.5Z" transform="translate(-90.04 -231.28)"/><path class="cls-1" d="M358.45,421.78c.79-1.55,2.36-2.13,3.44-1.22l-2.54,1.85.26.43,1.54-.64c-.14.65-.26,1.17-.37,1.69l2.17-.57.13.55-1.74,1.26.3.44,1.27-.74c1,2.61,2,5.15,2.86,7.74s1.65,5.35,2.52,8a16.08,16.08,0,0,0,.94,2c.81,1.66.57,2.92-1.29,3.68a20.33,20.33,0,0,0-2.18,1.21l.29.49,1.89-.88.23.45-3.8,1.86c-.64-1.39-1.19-2.57-1.74-3.75l-.27.08c.27,1,.53,2,.8,2.95-1.6.12-2.54-1.27-3-3.5-.7-3.28-1.71-6.49-2.55-9.73-.35-1.34-1.27-3.17-.73-4,.77-1.12.17-2,.5-3.14L355.63,430c-.23-1.42-.4-2.41-.56-3.41l-.23.12c-.11,1.45.23,3.2-.47,4.27s-2.47,1.62-3.55,2.26c-.65-1.45-1.18-2.63-1.84-4.07l4.24,1.19.8-1.64-5.73-6.47L344,426.58l.06.06c-.37-3.46,3.61-6.56,6.78-4.67-.27-.84-.54-1.7-.81-2.53l2.79.16c.63.42-.17,2.85,2.08,2.62Z" transform="translate(-90.04 -231.28)"/><path class="cls-1" d="M345.63,397c-.73-4.53-2.55-8.8-3.73-13.63,2.76.74,5.55.69,8.05,1.79l-.14.62,1.07-.91,1,3.72,1.75-.74c-.58,5.92-3.31,10.84-4.89,16.1l-.59-.06c.12-1.17.24-2.33.4-3.82-1.82,2.13-3.07,4.51-5.83,4.68-.66,0-1.78-1-2-1.71-1.87-5.7-3.58-11.45-5.29-17.2a32.57,32.57,0,0,1-.66-3.42l3.94.44,0,.49-1.48-.07c2.86,6,4.27,12.16,6.56,18.19.17-1.35.34-2.7.51-4.11-.9-.38-4.39-11-4.54-14.43,1.11.56,2.2,3.07,3.11,6.69.64,2.54,1.48,5,2.23,7.53Z" transform="translate(-90.04 -231.28)"/><path class="cls-1" d="M373.61,452.69c7.21-1,12.45-4.91,16.78-10.19l-.4-.56-7.77,6.44-.39-.29a4.8,4.8,0,0,1,.75-1.46c3.41-3.21,6.9-6.34,10.27-9.6a8.59,8.59,0,0,0,1.28-2.59l-.84-.59q-5.9,5.81-11.78,11.62l-.59-.48a20.08,20.08,0,0,1,1.43-2c4.31-4.78,8.7-9.49,12.94-14.33,1.34-1.53,2.69-3.22,2.34-5.38l-16.05,19.09-.63-.51,16.44-20-.4-.31-19.44,4L374,419.08l.65-.4c.7,1.11,1.44,2.2,2.09,3.34s1.14,1.84,3,1.29c3.65-1.07,7.55-1.32,11.34-1.92.9-.14,1.8-.32,3.2-.57l-4.5-1.38,0-.49,3.3.24.13-.45-2.23-1.06.06-.32,7.35.44c.13,5.63.05,10.92-1.38,16.13-.34,1.23,0,2.65-.11,4a3.28,3.28,0,0,1-1,1.85c-2.56,2.37-5.14,4.71-7.81,6.95-3.44,2.88-7.11,5.43-11.48,6.68a10.68,10.68,0,0,1-2.94,0Z" transform="translate(-90.04 -231.28)"/><path class="cls-1" d="M428.27,335.42s.11-.54.24-1.16l3.41.75-2.56-1.95c1.54-4.59,3-9,4.52-13.44l-1.42-1.12c3.63-1,6.24.58,8.39,2.21,2.6,2,3.12,7.75,1.74,10.73a9.17,9.17,0,0,1-6.53,5.3C433.49,337.3,430.61,337.69,428.27,335.42Z" transform="translate(-90.04 -231.28)"/><path class="cls-1" d="M368.91,250.21l.39-3.67.23,0c.21,1.54.45,3.09.64,4.63.6,4.81,1.16,9.62,1.78,14.42.24,1.83-.59,2.83-2.36,3.33l-.56-1.37L366.26,269l1.34,1.42-3.39,1.23c-.56-1.09-.95-1.84-1.32-2.59-.06-.12-.12-.33-.06-.41,2.27-3.16-.38-6.25-.15-9.4.16-2.08-.3-4.19-.28-6.28,0-1.17.23-2.55,2.09-1.87-.19.18-.39.34-.57.53,0,0,0,.13,0,.2.32.1.64.21,1,.3C366.83,252.63,368.85,251.68,368.91,250.21Zm-4.24,13.1h-.34v2.81l1.51.57-.3-.41,4.81-2c-1.34-2.41-1.64-2.09-3.77-.35-.58.47-1.22.88-2.06,1.48Z" transform="translate(-90.04 -231.28)"/><path class="cls-1" d="M360.2,411c.28,1.82.58,3.63.83,5.45a1.84,1.84,0,0,1-.51,1.5c-.36-.62-.71-1.24-1-1.81-1,3.49-2.68-.61-3.85.56-.34-2.36-.34-2.36,2.22-3.66l-4.25-2.21c.27,1.31.47,2.32.68,3.33l-.47.14c-.37-.8-.74-1.59-1.12-2.39l-.4.09V414l-.41.12c-.85-2.46-1.85-4.89-2.45-7.41-.18-.73.75-1.75,1.25-2.59,1.47-2.51,3-5,4.63-7.73l4,11.41C359.59,408.89,359.89,409.94,360.2,411Z" transform="translate(-90.04 -231.28)"/><path class="cls-1" d="M185.36,254.63c.45-5-2.34-6.18-6.18-6.24l.06-.65a11.3,11.3,0,0,1,2.86-1.44c3.69-.7,7.4-1.37,11.13-1.74a5.26,5.26,0,0,1,5,2.78l-2.35,1,5.07,4.1h-2.86l.19,1.17a37,37,0,0,0-4.34-.87,11.93,11.93,0,0,0-3.67.26C188.79,253.35,187.34,254,185.36,254.63Z" transform="translate(-90.04 -231.28)"/><path class="cls-1" d="M367.07,295.65l-1.64-.32,1.09-.48-.95-.5.79-.31-.94-1c.38-.16.75-.36,1.14-.49a7.62,7.62,0,0,0,3-1.39l-2.38.42-.08-.45,8.91-2.06L375,291.4c.87-.46,1.55-1.13,2.16-1.08,1.29.11,3,.23,3.68,1.06s.06,2.42-.17,3.66a7.33,7.33,0,0,1-1,2.11c-.4.71-.93,2-1.29,2a22.58,22.58,0,0,1-4.13-1.22l-.13.75a25.15,25.15,0,0,0-1.78-2.5,9.32,9.32,0,0,0-1.87,1l3,.42c-2.43,1.72-4.89.45-6.81,1.58l-.38-.4Zm9.56-.51a1.51,1.51,0,0,0,2.65.13,6.93,6.93,0,0,0,.74-2.18Z" transform="translate(-90.04 -231.28)"/><path class="cls-1" d="M349,441.14c.27,1.13.42,1.77.58,2.42l-1,.15c.95,1.88,2.21,3.69.77,6l1.77,1.52-4.71-1.16c-1.36-.33-2.72-.68-4.08-1l-.33.91a100.06,100.06,0,0,0,9.46,3.56c2,.55,2.07.15,2.45,2.3l-9.17-3.56-.21.46,6.64,3.23-.25.57c-3.69-1.56-7.42-3-11-4.77a3.36,3.36,0,0,1-1.37-2.66c.08-2.6.28-2.47,2.07-3.34,1.46-.7,2.72-1.81,4.14-2.59S347.74,441.74,349,441.14Z" transform="translate(-90.04 -231.28)"/><path class="cls-1" d="M373.52,478.22l9.79-2.9c1.27.44,0,2.14,1.72,1.76a7.54,7.54,0,0,1,.83,2c1,3.31,2,6.63,3.08,9.93a3.81,3.81,0,0,0,.73,1.26c1.54,1.82,1.49,2.17-.68,3.69,1.42,1,2.43,2.07,1.22,3.56-.62-1.2-1.28-2.46-2-3.76l1.76-1.74-.41-.39-12,4.9c-.91-2.61-1.78-5-2.56-7.39-.1-.28.24-.71.38-1.07.3.28.76.51.87.85.68,2,1.28,4.07,2,6.35,3.18-1.28,6.13-2.47,9.08-3.64,1.09-.43,1.3-.94.82-2.14-1.08-2.68-2-5.46-2.8-8.23-1-3.16-1.65-3.55-4.73-2.4l-1.6.58c.94,2.4,2.18.55,3.32.39,1.74,1.23,2.2,3.45,1.1,6l-3.16-4.7-.44.17c.08.59.15,1.18.31,2.43l-2.33-3.87c-1.62,1-4.48.52-4.37,3.77-.07-.24-.16-.47-.21-.72s-.06-.56-.08-.76l-3.12-.37Z" transform="translate(-90.04 -231.28)"/><path class="cls-1" d="M425.25,480c2.4,2,2.5,2,.83,5.06a30.5,30.5,0,0,0-3.52,10.63c-.23,1.7-.79,2.17-2.58,1.75l2-.62L409,491.94c.71-2.4,1.55-5,2.25-7.63.62-2.37,1-4.79,1.68-7.15.16-.57.86-1,1.53-1.71.72-3.37,1.54-7.16,2.36-11l.5.09c-.55,2.63-1.2,5.23-1.6,7.88-.21,1.36-1,2.77.1,4.22.24.32-.27,1.36-.63,1.94-2.33,3.65-3.34,7.74-4,11.93a1.66,1.66,0,0,0,.11.85c.08.17.32.28.54.45l2.66-10.93.81.2c-.88,3.63-1.77,7.27-2.74,11.27,2.33.83,4.8,1.84,7.36,2.52.57.15,1.83-.7,2.1-1.36a55.7,55.7,0,0,0,2.63-7.82A38.1,38.1,0,0,0,425.25,480Z" transform="translate(-90.04 -231.28)"/><path class="cls-1" d="M369.94,418.5l-1.07,1.63.2.23,1.31-.81c.45,1.74.81,3.42,1.32,5.05.76,2.37,1.59,4.72,2.45,7,1.06,2.88.6,5.14-1.46,6.3A20.79,20.79,0,0,0,371,434c-.5-.74.25-3.13-2.26-2-.08-.46-.35-1-.21-1.38.9-2.36.84-2.31-.73-4.75-.46-.72-.31-1.86-.36-2.82a15.81,15.81,0,0,1,.19-2L366,422.38c-.47-.89.4-2.34-1-2.95.42-.43.82-1.17,1.27-1.21A23.4,23.4,0,0,1,369.94,418.5Z" transform="translate(-90.04 -231.28)"/><path class="cls-1" d="M331.31,384.48c.67,4.46,1.34,8.91,2,13.48,1.35-3.9-.52-7.41-1.16-11.42,4.35,6.85,2.14,22.67-3,34.41a14,14,0,0,0,.49-2c.32-3.06.53-6.13.91-9.19.51-4.23,1.34-8.44,1.63-12.69.14-2.06-.76-4.17-1-6.28s-.27-4.22-.39-6.34Z" transform="translate(-90.04 -231.28)"/><path class="cls-1" d="M190.23,261l-3.16,3.77c-5.25,1.61-5.27,1.61-6.3-1.14a33.18,33.18,0,0,1-3.35,1.82,2.36,2.36,0,0,1-1.9-.07,1.91,1.91,0,0,1-.45-1.63c.57-3.14,1-3.59,4.38-3.49C183,260.32,186.58,260.7,190.23,261Z" transform="translate(-90.04 -231.28)"/><path class="cls-1" d="M381.59,256.92c-2,.42-4.39,1-6.8,1.4a1.39,1.39,0,0,1-1.11-.77c-.26-1.09-.26-2.24-.46-3.35-.3-1.74,1.33-1.4,2-2.07,2.16-2.12,4.78-1.68,7.34-1.76a1.63,1.63,0,0,1,.93.38c-.31,1.54-.66,3.09-1.09,4.61A8.59,8.59,0,0,1,381.59,256.92Z" transform="translate(-90.04 -231.28)"/><path class="cls-1" d="M357.28,470.15l-.23-1.33c-1.81.74-3.59,1.53-5.42,2.18-.25.09-.75-.51-1.5-1.07-1.92,1.46-3.76-.71-5.78-1.71l-3.28-4.42c6.14.32,11.93,3.34,18.74,4.17Z" transform="translate(-90.04 -231.28)"/><path class="cls-1" d="M340.14,372.85c2.18,1.2,3.74.2,5-3.21,2.64,3.07,2.84,7,4.74,10.65-3.14-.43-5.79-.71-8.39-1.24a2.41,2.41,0,0,1-1.33-1.73A32.66,32.66,0,0,1,340.14,372.85Z" transform="translate(-90.04 -231.28)"/><path class="cls-1" d="M358.24,451.23l-3.52.88c-1.19-4.9-2.5-9.95-3.59-15.05a3.36,3.36,0,0,1,1.15-2.52c.91-.8,1.88-.91,2,.91.13,1.61,1.19,3.36.78,4.73s-.07,1.18.63,1.86.59,2,.86,3C357.11,447,357.66,449.06,358.24,451.23Z" transform="translate(-90.04 -231.28)"/><path class="cls-1" d="M413.62,346.37c-1.77,2.37-3.39,4.71-5.22,6.87-.39.46-1.57.26-1.41,1.41-.35-.46-1.22,1.63-1.28-.26l-3,.43c.55-2.69,1.06-5.14,1.59-7.71Z" transform="translate(-90.04 -231.28)"/><path class="cls-1" d="M350.35,285.23l-1.16,1.55c-.56-2.77-2.82-1.48-4.71-1.32-4,.34-4.68-.22-3.85-4a37.1,37.1,0,0,1,2.14-5.43c1.27,3.42-.72,5.57-1.64,8.25h5.66V278h-.44l-.28,3.41-2.11-.74c.16-1.13.33-2.35.51-3.58l.42,0-.16,2.82.29,0,2-5.31.5,0c.39,1.23,1.33,2.59,1.07,3.66-.66,2.75.38,4.81,1.8,6.89Z" transform="translate(-90.04 -231.28)"/><path class="cls-1" d="M360.2,411c-.31-1-.61-2.09-.92-3.14a12.64,12.64,0,0,1,1.06-1.13,13.65,13.65,0,0,1,2.71-2.09,8.47,8.47,0,0,1,3-.53,14.72,14.72,0,0,1,2.29.18l-.06-.06c-.26.35-.47.94-.8,1-.85.19-1.78.06-2.64.24s-1.57.24-1.29,1.62c.41,2,.35,4.11.58,6.17a9.84,9.84,0,0,0,.65,2l2.19-.91,1.41.88c-2.73,1.68-2.56,1.48-5.08-.65A9.44,9.44,0,0,1,360.2,411Z" transform="translate(-90.04 -231.28)"/><path class="cls-1" d="M399.15,259.08a6.57,6.57,0,0,1,.91.06q.35,4.74.61,9.5c0,.2,0,.53-.15.59a24.86,24.86,0,0,1-5.07,2l.6-.84-1.8-1.17.28-.64c-1.16.13-2.62,2.32-3.36-.27-.27-.91-.32-2,1.05-2.42,1.92-.57,2.84,0,3.83,2.58.83-1.23,1.43-2.91,2.61-3.63,1.85-1.13.54-2.58.9-3.81.17-.57-.25-1.32-.4-2Z" transform="translate(-90.04 -231.28)"/><path class="cls-1" d="M401.59,407.45c1.35,0,4.68,2.5,4.73,3.54s-3.28,3.05-5,3a3.09,3.09,0,0,1-2.76-3.34C398.55,408.41,399.48,407.45,401.59,407.45Z" transform="translate(-90.04 -231.28)"/><path class="cls-1" d="M361.29,391.82a22.19,22.19,0,0,0,.68,2.63c.9,2.24,1.25,4.34-1.3,5.75a6.63,6.63,0,0,1-1.77.38v-1.2c-.87-1.36-1.83-2.32-2.13-3.45C356.33,394.26,358,392.84,361.29,391.82Z" transform="translate(-90.04 -231.28)"/><path class="cls-1" d="M378.63,267.88l1.44,2.42-3.38.41c-.36-.76-.56-1.29-.84-1.78s-.75-.73-.83-1.14c-.75-3.91,0-4.71,3.93-4.1.78.12,1.56.18,2.4.28C381.51,265.86,381.51,265.86,378.63,267.88Z" transform="translate(-90.04 -231.28)"/><path class="cls-1" d="M165.48,276.43l6.84-2.52c.68,3.19.46,5.57-2.24,7.12-1.57.9-2.31.51-2.78-1.21A18.36,18.36,0,0,0,165.48,276.43Z" transform="translate(-90.04 -231.28)"/><path class="cls-1" d="M378.53,284.16c2-2.85,4.82-4.85,7.56-6.82l-6,10.82,2.25.55c-.77.26-1.49.78-2,.64-2.82-.78-2.86-1-2.2-4.72Z" transform="translate(-90.04 -231.28)"/><path class="cls-1" d="M390.79,470.26c.94.51,2,1.18,3.15,1.71s2.23.78,3.27,1.31c.52.26.86.87,1.27,1.32a4.17,4.17,0,0,1-1.49.45c-3.53-.42-7.06-.87-10.57-1.4a27.42,27.42,0,0,1-3.52-1.06C385.66,471.19,388.85,473,390.79,470.26Z" transform="translate(-90.04 -231.28)"/><path class="cls-1" d="M350.86,359l1.31-.45c-3.33.44-1.25-3.46-3.33-4,.55-1.67,1.72-1.78,2.87-1,1.31.87,3.17,1.68,2,3.69L355,359l1.39-1.73v3.21c-1.41-.17-2.83-.28-4.22-.54C351.73,359.86,351.39,359.37,350.86,359Z" transform="translate(-90.04 -231.28)"/><path class="cls-1" d="M296,399.75a22.37,22.37,0,0,0,3.59-.86,42.08,42.08,0,0,0,4.09-2.28l2.53-1.42.38.61c-2.57,1.56-5.16,3.08-7.68,4.71a3.49,3.49,0,0,0-1,1.67c-1,2.58-1.93,5.18-2.89,7.78l-.85-.25,2-10Z" transform="translate(-90.04 -231.28)"/><path class="cls-1" d="M401.52,470.71c2-4.87,6.26-6.37,10.11-8.33,1.64-.83,3.37-1.48,5.06-2.18.94-.39,1.89-.73,2.84-1.1l-.68-1c-.24,1.35-.49,2.69-.81,4.43-1-2.11-2.09-1-3.13-.61A27.67,27.67,0,0,0,404.35,469l2,.63Z" transform="translate(-90.04 -231.28)"/><path class="cls-1" d="M383.17,406.86c.41,1.34.79,2.59,1.17,3.82l2.18.28v-2.37c.87.87,2,1.56,1.87,1.94a6.38,6.38,0,0,1-1.75,3.15c-.43.37-1.94,0-2.62-.5C380.92,410.85,380,408.89,383.17,406.86Z" transform="translate(-90.04 -231.28)"/><path class="cls-1" d="M368.37,404.27c-.76-2.7-1.37-5.46-2.32-8.09s-2.22-5-3.21-7.54c4,4.59,5.38,10.29,6.62,16.09l1.93.19-.91,1.07c2,1.54,2,1.89,0,4.25-.7-2-1.42-4-2.15-6Z" transform="translate(-90.04 -231.28)"/><path class="cls-1" d="M417,421.34c-.59,8.94-3,17.49-5.88,25.91l5.26-26.07Z" transform="translate(-90.04 -231.28)"/><path class="cls-1" d="M379,350.94c1.26-2.95,5.8-3.81,8.59-1.62C385.6,352.16,382.37,352.77,379,350.94Z" transform="translate(-90.04 -231.28)"/><path class="cls-1" d="M431.45,361.28c3.4-1.94,6.84-2,8.31,1.58a2,2,0,0,1-.51,1.7,1.89,1.89,0,0,1-1.66.23,19,19,0,0,1-2.13-1.4C434.18,362.67,432.86,362,431.45,361.28Z" transform="translate(-90.04 -231.28)"/><path class="cls-1" d="M394.14,254l.93-1.21c-1.61,1.49-3.16.62-4.58-.13a2.11,2.11,0,0,1,0-1.94c1.41-1.28,2.94-.86,4.41.32.06-.71.11-1.28.19-2.09l2.5,2.26-2.31,4.3Z" transform="translate(-90.04 -231.28)"/><path class="cls-1" d="M139.48,276.92,136,278.39c-.83-1.09-2.19-2.2-2.56-3.58-.23-.91,1-2.19,1.53-3.31a7.61,7.61,0,0,1,1.86,1.33c1,1.3,1.78,2.73,2.65,4.11Z" transform="translate(-90.04 -231.28)"/><path class="cls-1" d="M406.38,293.75c-.79-1.05-2-2.21-.82-3.48a6.27,6.27,0,0,1,3.39-1.65c1.24-.2,2,1,3,3.9-3.37,3.22-3.85,3.32-5.66,1.17,2.21,1.18,2.23-1.69,3.67-2,.29-.07.4-.93.58-1.38-1.39-1.08-1.77.2-2.58.64C406.72,291.61,406.16,292.38,406.38,293.75Z" transform="translate(-90.04 -231.28)"/><path class="cls-1" d="M259.13,284.23l-28.79-19.7.36-.53,28.83,19.7Z" transform="translate(-90.04 -231.28)"/><path class="cls-1" d="M454.92,440.47c-2.41-2.31-2.51-4.53-.6-6.3,1.13-1,1.86-.48,2.43.43C458.13,436.84,457.39,439.12,454.92,440.47Z" transform="translate(-90.04 -231.28)"/><path class="cls-1" d="M336.2,453.06l23,6.5C351.05,459.54,343.64,456.27,336.2,453.06Z" transform="translate(-90.04 -231.28)"/><path class="cls-1" d="M514.56,468l-1.67-.88c.21-2.56.43-5.08.69-8.18.86.75,1.38,1,1.5,1.33a20.9,20.9,0,0,1,1,3.86c.12.95.56,2.23-1.06,2.64C514.81,466.83,514.74,467.49,514.56,468Z" transform="translate(-90.04 -231.28)"/><path class="cls-1" d="M365.19,388l3.6,3,.21-1.3c2.23.59,3.06,3.3,1.5,5.77-2.07-2.33-4.06-4.58-6.06-6.82Z" transform="translate(-90.04 -231.28)"/><path class="cls-1" d="M379,486.67l-2.17-1.21c-.08.53-.14,1-.21,1.37-2.34.35-1.78-1.68-2-2.75-.44-1.87,1.47-1.59,2.41-2,1.17-.52,1.68.26,2.05,1.44C379.74,485.61,379.86,485.57,379,486.67Z" transform="translate(-90.04 -231.28)"/><path class="cls-1" d="M394.58,478.94l-7.52,1.77-.91-3.29,8.4.43Z" transform="translate(-90.04 -231.28)"/><path class="cls-1" d="M371.09,314.09c1.28-1.15,2-2.12,2.93-2.52.78-.33,1.84,0,2.78.06a13.42,13.42,0,0,1-.56,2.39c-.31.69-1.06,1.85-1.34,1.77A22.34,22.34,0,0,1,371.09,314.09Z" transform="translate(-90.04 -231.28)"/><path class="cls-1" d="M351.81,381.41l1.21.73c.84-1.1,1.55-2.05,2.26-3l.78.39c-.77,2.2-1.55,4.4-2.38,6.79C351.48,385.08,350.92,383.62,351.81,381.41Z" transform="translate(-90.04 -231.28)"/><path class="cls-1" d="M359.18,447.27c-3-.31-.07-2.35-.87-3.35l-.71.57c0-.71-.08-1.41-.14-2.38-1-.29-1.43-.92-.36-1.58a7.27,7.27,0,0,1-1.05-1.85c-.06-.23.72-.68,1.33-1.22.58,2.61,1.18,5,1.61,7.33s2.28,4.4.52,6.82c-.17-.23-.49-.47-.47-.68,0-.86,1.78-2.06-.55-2.36Z" transform="translate(-90.04 -231.28)"/><path class="cls-1" d="M385.61,242.26l2.14,3.66a4.91,4.91,0,0,0-.33,1.6,24.09,24.09,0,0,1,.12,9.42c0,.18-.3.3-.25.25C386.74,252.29,386.17,247.22,385.61,242.26Z" transform="translate(-90.04 -231.28)"/><path class="cls-1" d="M358.45,421.78l-3.52.44c-.23-.68-.82-1.51-.61-2a3.14,3.14,0,0,1,1.81-1.75c.5-.12,1.4.71,1.84,1.32A5.4,5.4,0,0,1,358.45,421.78Z" transform="translate(-90.04 -231.28)"/><path class="cls-1" d="M399.16,259.08c-.21-3.49-.1-7-.73-10.44-.54-2.89-1.95-5.62-3-8.39,0,0,.2-.06.23,0,1.79,3.36,3.81,6.65,4.1,10.56a51.56,51.56,0,0,1,0,6.09,9.62,9.62,0,0,1-.64,2.2Z" transform="translate(-90.04 -231.28)"/><path class="cls-1" d="M434.13,383l-1.68,2.24c-.53-.64-1.46-1.26-1.5-1.94a10.44,10.44,0,0,1,.7-3.42c.05-.16.9-.29.94-.2C433.11,380.63,433.54,381.66,434.13,383Z" transform="translate(-90.04 -231.28)"/><path class="cls-1" d="M419.62,438.58q1.42-8.46,2.84-16.92l.76.12q-1.49,8.45-3,16.9Z" transform="translate(-90.04 -231.28)"/><path class="cls-1" d="M346.1,459.06c-3.15,2.23-6.84.54-10.26.9l5.45-.7v-.62l-1.12-.39,0-.33,5.83.32Z" transform="translate(-90.04 -231.28)"/><path class="cls-1" d="M414.94,268.28l.13,1-.55.08q-1.22-8.76-2.42-17.52l.31-.09a36.57,36.57,0,0,1,1.23,4.73c.34,2.85.39,5.73.65,8.59a28.13,28.13,0,0,0,.71,3.25Z" transform="translate(-90.04 -231.28)"/><path class="cls-1" d="M415,268.35l.67-2.37.66.26-.76.91.12.26,1.75-.84.94,2,1.8-.8.4.51c-.91.76-1.86,2.15-2.74,2.11s-1.93-1.37-2.9-2.15Z" transform="translate(-90.04 -231.28)"/><path class="cls-1" d="M287.49,464.39l11.56,2.76C296.1,468.24,289.15,466.59,287.49,464.39Z" transform="translate(-90.04 -231.28)"/><path class="cls-1" d="M422,418.84c2.21-.56,1.93-2.09,1.9-3.76a45.39,45.39,0,0,1,.67-7.69,15.81,15.81,0,0,1,.25,7.85,4.71,4.71,0,0,0-.16,1.17C424.71,418,424,418.76,422,418.84Z" transform="translate(-90.04 -231.28)"/><path class="cls-1" d="M385.74,269.65V247.24H386v22.42Z" transform="translate(-90.04 -231.28)"/><path class="cls-1" d="M294,484.79c.86-.64,1.47-1.47,1.93-1.39,2.53.45,5,1.12,7.54,1.71l.06.57c-.47.12-1,.41-1.4.32-1.73-.34-3.44-.85-5.17-1.18A18.42,18.42,0,0,0,294,484.79Z" transform="translate(-90.04 -231.28)"/><path class="cls-1" d="M354.71,349.34c.63,1.29,1,2,1.35,2.73l1.25-1.15,1.61.81c-1,2.1-2.57,1.28-4,.78a9.67,9.67,0,0,1-2.08-1.48Z" transform="translate(-90.04 -231.28)"/><path class="cls-1" d="M371.34,251.59c.63,4.91,1.26,9.83,1.84,14.74,0,.28-.31.6-.58,1.06-.61-5.42-1.2-10.62-1.78-15.81Z" transform="translate(-90.04 -231.28)"/><path class="cls-1" d="M411.52,252.24l2.22,17.53-.46.08-2.37-17.46Z" transform="translate(-90.04 -231.28)"/><path class="cls-1" d="M442,421.44l-2-.44c-.84,2.41-1.68,4.85-2.53,7.3l-.49,0a4.29,4.29,0,0,1-.12-1.61,35.4,35.4,0,0,1,2.34-5.92c.24-.43,1.92-.06,2.93-.06Z" transform="translate(-90.04 -231.28)"/><path class="cls-1" d="M368.68,482.14l-7.5-1.11A5.79,5.79,0,0,1,368.68,482.14Z" transform="translate(-90.04 -231.28)"/><path d="M368.91,250.21c-.06,1.47-2.08,2.42-4,1.87-.33-.09-.65-.2-1-.3,0-.07-.07-.18,0-.2.18-.19.38-.35.57-.53C365.82,250.06,367.07,248.55,368.91,250.21Z" transform="translate(-90.04 -231.28)"/><path class="cls-1" d="M335.43,494c-4-2.87-6.28-6.43-6.81-9.7C330.55,487.06,332.84,490.31,335.43,494Z" transform="translate(-90.04 -231.28)"/><path class="cls-1" d="M490.09,491.31a26.34,26.34,0,0,0,1.62-3.7c.3-1.07-.23-1.71-1.51-1.76a40.68,40.68,0,0,1-6.18-.73h7.49C493.36,486.64,493.11,489,490.09,491.31Z" transform="translate(-90.04 -231.28)"/><path class="cls-1" d="M385.16,267l-.78-18.94.51,0q.35,9.48.68,19Z" transform="translate(-90.04 -231.28)"/><path class="cls-1" d="M419.79,479.62l-1.32-.71c.92-.15,1.73-.53,2-.29,1.5,1.23,1.47,2.73-.23,5.28l.52-2.06-1.57,1.26-.45-.23Z" transform="translate(-90.04 -231.28)"/><path class="cls-1" d="M338.2,503.56c-3.53-1.6-6.62-3.75-8.62-7.24Z" transform="translate(-90.04 -231.28)"/><path class="cls-1" d="M398.31,338.12l-3.45.26c.11-.84.25-2.06.48-3.26,0,0,1.12-.09,1.3.17A28.3,28.3,0,0,1,398.31,338.12Z" transform="translate(-90.04 -231.28)"/><path class="cls-1" d="M379.39,464.68l7.54,3.89c-2.83-.62-5.87-.78-7.92-3.14Z" transform="translate(-90.04 -231.28)"/><path class="cls-1" d="M125.22,282.34l3.36,2.57-2.4,1.77-1.31-4Z" transform="translate(-90.04 -231.28)"/><path class="cls-1" d="M374.18,389.65c-2.53-.18-3.66-2.44-5.36-3.83l.37-.55,5.38,3.81Z" transform="translate(-90.04 -231.28)"/><path class="cls-1" d="M354,284.17c-.27,2.14.73,4.48-.92,6.85C352.48,288.32,352.55,286.16,354,284.17Z" transform="translate(-90.04 -231.28)"/><path class="cls-1" d="M383.61,263.17h-9.05v-.43h9.14Z" transform="translate(-90.04 -231.28)"/><path class="cls-1" d="M382.93,307.43h6.29l0,.14h-3.32l0,.47,4.76.72-.07.44L382.91,308Z" transform="translate(-90.04 -231.28)"/><path class="cls-1" d="M381,306.5c3.15-1.86,6.54-1.6,9.95-.78Z" transform="translate(-90.04 -231.28)"/><path class="cls-1" d="M309.37,504.54l1.52-6.53c1,.63,1,2.34.37,3.42a24.43,24.43,0,0,0-1.23,3.29Z" transform="translate(-90.04 -231.28)"/><path class="cls-1" d="M318,458.9c.27-2.37,1.84-1.88,2.94-1.71,1.78.28,2.34,1.44,2.07,3.64l-2.49-3.35Z" transform="translate(-90.04 -231.28)"/><path class="cls-1" d="M117,293.68l7.49-6.14.35.4-7.34,6.27Z" transform="translate(-90.04 -231.28)"/><path class="cls-1" d="M304.15,491.27l-2.27,1.2-3.44-1,.07-.33,5.29-.42Z" transform="translate(-90.04 -231.28)"/><path class="cls-1" d="M355.11,457.81l9.19-2,.14.74-9.37,1.76Z" transform="translate(-90.04 -231.28)"/><path class="cls-1" d="M440.42,444.31c.37-2.36.69-4.43,1-6.46C443,439.05,442.72,440.92,440.42,444.31Z" transform="translate(-90.04 -231.28)"/><path class="cls-1" d="M355.94,336.53l1.15,2.07c-.59.29-1.18.6-1.79.88a3.74,3.74,0,0,1-1.9.39Z" transform="translate(-90.04 -231.28)"/><path class="cls-1" d="M353.41,309.71l-1.19-3.32-.55.66v-2.88c.47.2,1.15.28,1.27.58.55,1.34.95,2.75,1.4,4.13Z" transform="translate(-90.04 -231.28)"/><path class="cls-1" d="M200,261.49l-3.57-1.35,3.36-1.49Z" transform="translate(-90.04 -231.28)"/><path class="cls-1" d="M344,426.58c.39,1.4.79,2.79,1.29,4.55l-3.44-3.1,2.21-1.39Z" transform="translate(-90.04 -231.28)"/><path class="cls-1" d="M429.24,268.56c3,1.46,3,1.46,2.06,3C430.48,270.62,428.15,270.87,429.24,268.56Z" transform="translate(-90.04 -231.28)"/><path class="cls-1" d="M296.15,474.49l9.91,1L306,476l-9.91-1Z" transform="translate(-90.04 -231.28)"/><path class="cls-1" d="M393.93,370.31c3.53,1.34,3.69,1.54,3.64,4.53Z" transform="translate(-90.04 -231.28)"/><path class="cls-1" d="M130.58,276.6l-.26,2.4-3.65-1.7.13-.35Z" transform="translate(-90.04 -231.28)"/><path class="cls-1" d="M345.13,309.22l-.61-10.16.59,0V309.2Z" transform="translate(-90.04 -231.28)"/><path class="cls-1" d="M471.67,501.16c.24-2.57.44-4.68.63-6.76C473.39,495.71,473.24,498.75,471.67,501.16Z" transform="translate(-90.04 -231.28)"/><path class="cls-1" d="M354.45,347.42l-2.3-2.05.18-.56c.75-.08,2-.47,2.14-.19a6.89,6.89,0,0,1,.54,2.51Z" transform="translate(-90.04 -231.28)"/><path class="cls-1" d="M276.39,470.42l4.75,5.69C278.8,474.73,277,473,276.39,470.42Z" transform="translate(-90.04 -231.28)"/><path class="cls-1" d="M486,469.43l-3.17-4.11C484.65,464.91,486.16,466.84,486,469.43Z" transform="translate(-90.04 -231.28)"/><path class="cls-1" d="M402.81,427.36v5.56h-.6c-.08-1.86-.17-3.72-.25-5.59Z" transform="translate(-90.04 -231.28)"/><path class="cls-1" d="M350.34,285.24v9.81l-.69,0c.23-3.27.47-6.53.7-9.8Z" transform="translate(-90.04 -231.28)"/><path class="cls-1" d="M273.08,461.09l-.87-2.38.3-.45,3.51,2.27-3,.5Z" transform="translate(-90.04 -231.28)"/><path class="cls-1" d="M305.57,472.06l7.12,1.37-.08.47-7.25-1.06Z" transform="translate(-90.04 -231.28)"/><path class="cls-1" d="M355.64,303.71l-3.3-1.13.08-.81a8.42,8.42,0,0,1,2.44-.35C355.14,301.46,355.27,302.54,355.64,303.71Z" transform="translate(-90.04 -231.28)"/><path class="cls-1" d="M421.11,449.92c-.68,2.39-1.35,4.78-2,7.17l-.58-.15,2-7.11Z" transform="translate(-90.04 -231.28)"/><path class="cls-1" d="M434.1,270.37c1.29.85,3.52,1.24,2.44,3.94C435.62,272.84,434.86,271.61,434.1,270.37Z" transform="translate(-90.04 -231.28)"/><path class="cls-1" d="M306.75,466.51l3.95-1.34.31.91-4,1.36Z" transform="translate(-90.04 -231.28)"/><path class="cls-1" d="M385.27,373.86l3.46-3C388.51,373.43,386.73,374.77,385.27,373.86Z" transform="translate(-90.04 -231.28)"/><path d="M378.53,284.16l-.47.47Z" transform="translate(-90.04 -231.28)"/><path d="M167.2,309.52l1.42-6.45,1,.24L168,309.7Z" transform="translate(-90.04 -231.28)"/><path d="M164.7,320.75l-2.31,8.45-.82-.23,2.48-8.4Z" transform="translate(-90.04 -231.28)"/><path d="M346.85,362.91l-5.26,1.76C343.73,361.8,345.61,361.29,346.85,362.91Z" transform="translate(-90.04 -231.28)"/><path d="M364.67,263.31l-.15,2.14c.84-.6,1.48-1,2.06-1.48,2.13-1.74,2.43-2.06,3.77.35l-4.81,2,.3.41-1.51-.57v-2.81Z" transform="translate(-90.04 -231.28)"/><path d="M376.63,295.14l3.39-2.05a6.93,6.93,0,0,1-.74,2.18A1.51,1.51,0,0,1,376.63,295.14Z" transform="translate(-90.04 -231.28)"/><path d="M406.38,293.75c-.22-1.37.34-2.14,1.6-2.83.81-.44,1.19-1.72,2.58-.64-.18.45-.29,1.31-.58,1.38-1.44.34-1.46,3.21-3.67,2Z" transform="translate(-90.04 -231.28)"/></svg>