<svg id="Layer_1" data-name="Layer 1" xmlns="http://www.w3.org/2000/svg" viewBox="0 0 298.52 695.31"><defs><style>.cls-1{fill:#fff;}</style></defs><title>Leather_Couple</title><path d="M202,408.11l4.54-2.94c0,5.38,1.19,9.48,6.81,11.89-.31-3.19-.58-5.9-.85-8.61l.64-.47q1.86,3.4,3.73,6.8l.81,0V400c3-.55,7.83,4,10.86-2.65l-8.44-.79,9.84-15.17-5.33,1.23c3.79-3.49,5.6-3,7.78,1.4,1.58-3.06,3-6.2,4.77-9.16,1.54-2.59,2.88-6.08,5.25-7.24,4.12-2,5.11-4.86,4.67-8.7-1-8.92,1.12-17.14,5.14-25a18.94,18.94,0,0,1,2.28-3.81c3.65-4.21,7.33-8.39,11.17-12.41a12.66,12.66,0,0,1,4.83-2.74c5-9,13.26-13.79,23.13-12,8.43,1.55,19.65-1.81,24.27,12,3.64-4.28,6.37-7.14,8.65-10.33a13.72,13.72,0,0,0,2.43-6q2-15,3.5-30c1-9.54,1.45-19.13,2.7-28.62a45.33,45.33,0,0,1,3.89-14c7.7-15.62,15.59-31.16,24.15-46.33,2.17-3.85,6.78-6.6,10.74-9.12,7.49-4.76,15.33-9,23.89-13.94,1.85,5.72,3.43,10.6,5.25,16.25L396.87,170C386.35,179,386.35,179,389.92,185l11.55-10.8c1,2.07,2.21,3.64,2.44,5.33,2.44,18.35,4.87,36.69,7,55.08,1.6,13.91,3,27.86,4,41.83.84,11.12,1.22,22.29,1.46,33.44a62.27,62.27,0,0,1-1.15,14.24c-4.39,20.4-9.19,40.72-13.6,61.12-.45,2.1.18,6.25,1.12,6.51,4.4,1.22,3.35-3.32,3.8-5.23,4-16.79,8.47-33.53,11-50.56,2.94-19.58,4.93-39.38,2.64-59.32-2.23-19.34-3.84-38.76-6.09-58.1-1-8.41-3-16.69-4.33-25.07-.38-2.45.62-5.13.15-7.53-1.28-6.55-3.16-13-4.52-19.53-.76-3.65-1-7.42-1.43-11.18,4.58-1,8.78-.48,12.32,4,2.44,3.07,6.61,4.83,8.79,8a76,76,0,0,1,7.69,15.15c1.68,4.28,1.79,9.18,3.56,13.4,3.47,8.26,3.43,16.45,1.18,24.88a12.2,12.2,0,0,0-.52,3.92c.71,10.81-3.27,20.92-4.49,31.39s-.29,21.08-.34,31.63c0,5.08.77,10.38-.37,15.21-1.91,8.13.25,15.36,2.82,22.73.43,1.21,1.39,2.5,1.23,3.63-1.24,8.53,4,14.93,6.77,22.21,3,7.88,6.45,15.58,6.48,24.55,0,11.47-.77,22.53-5.76,33-1.85,3.88-3.83,7.72-5.95,11.47-4.79,8.45-6.36,17.53-6.75,27.18-.47,11.69-1.8,23.37-3.22,35-2.34,19.19-8,38-6.46,57.62a27.21,27.21,0,0,0,.53,4.43c2.28,9.14,5.2,18.15,6.83,27.4,2.65,15,4.21,30.12,1.07,45.46-2.24,11-3,22.26-4.53,33.38A85.25,85.25,0,0,1,422.59,661a71.35,71.35,0,0,0-.26,36.67,12.4,12.4,0,0,1,.31,3.75A59.68,59.68,0,0,0,426.23,725c.43,1.2.83,3.15.22,3.87-4,4.64-1.23,9-.34,13.77,1.43,7.56-1.19,10-8.85,9.89-4.49-.08-9,.2-13.46.2-1.81,0-3.91.19-5.38-.62-9.83-5.41-19.2-1.1-28.68,1.06a17.08,17.08,0,0,1-3.33.88c-14,.24-27.78.05-40.74-6.61-6.14-3.16-12.85-5.27-19.41-7.52-4.28-1.47-5.16-4.23-2.65-7.87,1.7-2.46,2.21-5.71,3.75-8.32,4.44-7.54,6.34-15.78,7.47-24.31,1-7.95.52-9.2-7.27-8.28-17,2-29.49-5.14-40.11-17.42-2.22-2.57-2.89-5-1.22-7.64,2.77-4.37,2.8-8.56.4-12.32-4.93,1.09-9.77,2.82-14.67,3.06-4.49.22-9.08-1-13.55-2-.9-.19-1.66-1.8-2.17-2.9-1.4-3.05-2.64-6.18-4-9.35h1.79c-.63-1.4-1.21-2.66-2-4.46,1.69-3.42,3.68-7.46,5.85-11.88l-4.16-2.53c.34,2,.63,3.66.91,5.32l-1.29.68-8.44-10.55-4.63,2.26v-5.91c-2.45,8.86-1,17.47.42,26.17.71,4.5,1.42,9.8-.27,13.7-2.69,6.2-1.12,11.85-.58,17.78.76,8.54,1.4,17.09,2.29,25.61.23,2.23,1.5,4.35,1.78,6.58.55,4.43.64,8.91,1.14,13.35.26,2.26,1.06,4.45,1.5,6.7.77,3.93,2,7.88,1.91,11.81,0,1.57-2.67,3.39-4.47,4.57a9,9,0,0,1-4.79,1.14c-9.68-.18-17.56,5.38-26.22,8.29-11.31,3.8-22.72,2.58-34.13,2.49-2.34,0-5.1-1.59-6.85-3.29a6.38,6.38,0,0,1-1.13-5.67c.4-1.06,3.3-1.25,5.12-1.66s3.41-.57,5.12-.85c.21,0,.57-.21.59-.19.14.29.22.85.34.86,1.14.07,2.3,0,3.45,0l0-2.21L154.3,740c-.2-4.09,3.87-10.77,8.52-11.7l-4.33,3.79c4,3.23,7.62,2.12,11.57.45-2.34-4.76-.73-8.7,1.78-12.64,2.81-4.4,6.56-8.71,7.58-13.55.73-3.46.79-7.63,3.87-8.44s3.22-2.85,4.17-4.49a7.85,7.85,0,0,0,.58-5.21c-1.72-7.7-3.84-15.3-5.59-23-1.91-8.4-5.67-12.16-14-13.84l6.17-.45c1.72-6.72-.12-13.15-2.3-19.28-4.17-11.72-10.28-22.91-13-34.91-2.47-10.8-1.93-22.4-1.81-33.64,0-3,2.74-7,5.39-8.59,3.93-2.39,9-2.9,13.42-4.49,2.79-1,5.4-2.5,8.29-3.87-2.48-4.74-5.07-5.2-8.4-2.46l-.52-1.34c2.26-1.08,4.45-2.74,6.82-3.07,2.61-.37,5.39.49,9.3,1-2.27-5.53-4.44-10.08-6-14.83-1.81-5.44-3.12-11.06-4.63-16.61-.6-2.19-1.77-4.44-1.62-6.59a47.25,47.25,0,0,1,2.13-10.35c.51-1.67,2.58-3,2.82-4.59,1.19-8,1.6-16.05,3-24,2.92-16.18-.62-33.54,8.58-48.56,1.55-2.52,4-4.47,6.09-6.69-1.37,6.68-3,13.33-4,20.06-.64,4,2.45,5.46,6,6.05l-4.31-5.37,1-1.27,7.51,4.14-4.77-17.31,5.51,6.79a57,57,0,0,0-5-12.37C203.87,408.28,202.71,408.31,202,408.11ZM236.4,541.66c-6.82-3.92-12.56-1.45-19.13,3.25l19.24-3.34-12.43,5.51.15,1.34,9.35,1.34c-.39.76-.84,1.82-1.45,2.78s-1.42,1.85-2.2,2.84c5.52,2.08,7.56,5.68,5.45,8.92,6,1.2-.23,5.83,2.89,8.6V559.24l3.7,2.84,9.09-6.3L237,544.61C236.85,543.74,236.64,542.69,236.4,541.66Zm136,154.07c-2.19-7.93-1.31-11.12,2.48-13,.92-2.84,1.43-4.93,2.28-6.86s2.79-3.9,3.14-6c1.57-9.31,3-18.67,3.91-28.06.35-3.55-.79-7.25-1.28-11.1.45-1.75,1.47-4,1.52-6.24.12-5.4-.55-10.83-.3-16.22.4-8.6,2.08-17.2,1.71-25.73-.28-6.65-2.85-13.19-4.4-19.78a208.86,208.86,0,0,0,1.63,23c1.52,11.45-2.33,21.87-5.71,32.38-1.5,4.68-2.83,9.7-5.56,13.66-4.59,6.64-9.72,13.07-17.61,16.41-2,.84-3.63,2.44-5.8,4,2.71,1.56,5.49,2.38,7.09,4.23,7.66,8.85,10.92,21.61,4.53,33.09-.84,1.52-1.23,4.21-.44,5.47s3.34,1.84,5.14,1.89C367.12,696.93,369.55,696.19,372.37,695.73ZM332.76,344.14c-5.89.71-9.08,4.14-11.08,9.41-3.05,8-6.47,15.9-9.69,23.86a10.88,10.88,0,0,0-1.23,4.27c.07,1.5.63,3.5,1.69,4.25.72.51,3-.45,4.06-1.35,3.58-3,7.85-2.49,10.47,1.74,1,1.65,1.46,3.65,2.32,5.87,5.44,1.22,11.8,1.52,14.68,9.06,2.08-3.95,4.08-6.37,1.9-10.05-1.1-1.86-.89-4.49-1.32-6.76-1-5.35-1.66-10.82-3.24-16C338.88,360.42,335.78,352.6,332.76,344.14ZM406,625.8l1.86-.35c3.37-11.39,1.56-23.17,1.84-34.79.28-11.44-7.31-21.08-8.08-32.26a25.58,25.58,0,0,1-2.57-4.27c-1.64-4.24-1.87-9.8-4.8-12.59-4-3.78-4-5.18,1-7.28-6.11-5.33,2.68-3.67,2.62-6.17-5.7-4,1.3-4.47,1.6-6-4.3-6.33,7.17-4.52,4.25-9.18-4.22,2-9.65,3.23-9.36,10.22-2.17-24.56-1.17-48.9-5.64-72.76-.41,15.45-.48,30.84-.38,46.24,0,7.15,1.19,14.38.41,21.41-.74,6.75,5.59,13.62-.62,20.22-1.39,1.48-1.48,4.1-2.69,5.83-3,4.26-5.72,8.9-9.53,12.28-4.86,4.31-10.69,7.52-16.09,11.21l1.76,2.11c1.15-1.27,2.24-2.6,3.48-3.78a19,19,0,0,1,2.65-1.8c.44.91.89,1.82,1.51,3.07.8-.92,2-1.73,2.35-2.82,1.12-3.93,1.06-4,4.77-1.83.63-2.36-.49-7.09,4.89-3.9.81-2.64-1.23-7.33,4.31-6.72.07,0,.39-.71.28-.85-3.58-4.51,2.55-3,2.75-3.76.17-2.66.26-4.14.36-5.61a14.08,14.08,0,0,1,2.25,3.12c3.42,9.31,6.72,18.66,10.06,28,.94,2.63,2.63,5.25,2.69,7.91.27,13.21,0,26.43.2,39.65C404.18,622.15,405.37,624,406,625.8ZM393,261.12l-1.62-.05c-.46,1.68-.95,3.36-1.37,5.06-3.32,13.2-3.38,26.65-2.94,40.12.1,2.93-.38,4.57-3.9,4.47-12.27-.36-24.56-.55-36.84-.66-5.39-.05-10.79.27-16.19.44a7.43,7.43,0,0,0-1.32.39l.26,3.83h58.4l3.8,58.76a37,37,0,0,0,1.84-10.79c.08-14.07-.16-28.14,0-42.21,0-2.47,1.48-4.93,2.27-7.39-.31-1.95-2.68-4.16-3.06-6.66-1.69-11-2-22.08.52-33.15C393.71,269.41,393,265.18,393,261.12ZM227.94,539c-2.24-3.52-4-6.75-6.22-9.72-5.48-7.47-11.48-14.58-16.57-22.31-2.91-4.43-6.25-5.08-10.6-3.72-2.82.88-4.68,2.4-2.57,5.79,4.38,7.05,8,14.69,13.07,21.16,4.92,6.25,10.14,14.09,20.49,8.85C226.29,538.67,227.4,539,227.94,539Zm62.38-218.76,7.84-4.61-19.3-7.09c-1.07,1.65-2,4.73-3.47,5-4.32.89-3.43,3.39-3.5,5.37-3.87,3.16-7.74,6.33-11.65,9.51,7.91,9.26,7.91,9.26,11.48,6.86,1.76,1.07,3,2.43,4.34,2.52,4.22.29,8.48.11,14.08.11l-11.71-8.66c9.24.2,9.24.2,7.07-3.82l10.07-1.93ZM338.6,549.18c-3.62-.31-7.25-1.06-9.08,3.57-.24.63-1.61,1.1-2.48,1.14-3.66.16-7.44-.39-11,.27-18.41,3.43-28.75-3.28-37.83-17.72-2.43-3.87-4.11-8.21-6.13-12.33l-1.17.43a38.06,38.06,0,0,0,.77,4.56,32.42,32.42,0,0,0,1.7,3.95l-3.94-.72-.29,1.19,8.31,4-3.41.66a7,7,0,0,0,1.15,1.76c.84.71,2,1.05,2.74,1.83,2.11,2.33,3.79,5.08,6.12,7.12s5.5,3,7.75,5.06c3.27,3,6.82,4.45,11.18,4,.91-.09,1.8-.46,2.7-.48,3.4-.08,6.8,0,10.19-.1,1.4,0,2.79-.27,4.18-.41l.27,1.09,3.34-3.74c.43,2,.7,3.33,1.11,5.29l8.75-6.23C338,554.76,338.78,554.27,338.6,549.18ZM193.22,481.27h-5c1,5.09,9.76,9.64,13.4,7.2-.83-1.19-2.52-2.54-2.34-3.56.93-5.33,2.36-10.58,3.56-15.87a3.4,3.4,0,0,0,0-2.27c-1.51-2.25-7.66-3-10.63-1.27,1.15,1.24,2.54,2.29,3.29,3.68a6,6,0,0,1,.39,3.89C195.33,475.54,194.35,477.9,193.22,481.27Zm110.34,95.07-6.76,2.43,9.61,5.17-1.88-3.2,20.83-17.65c-2.66-2.54-10.62-.8-13.23,3.26l2.82,1.14c-1,.48-1.95,1-3,1.43-.22.09-.59-.28-.9-.33C308.26,568.16,303.23,573.48,303.56,576.34Zm72.53-146.88c4.37-1.85,10.14-10.38,10.07-14.89-.05-3.76-.05-3.76-2.25-3C378.56,413.45,373.9,424.1,376.09,429.46Zm-119.3,70.72c-5.2-2.86-4.3-8.25-3.69-14.73-4,9.41-2.36,13.78,5.14,17.66,1.27.65,1.82,2.86,2.48,4.44.24.58-.5,1.78-.19,2.09,4.29,4.31,5.65,9.54,5.58,15.46,0,1.58,1.24,3.18,2.12,5.27,2.77-12.61-5.67-21.47-8.47-33.39C258.37,498.49,257.64,499.27,256.79,500.18Zm36.12-139.53-14.57-3.2c.13,3.6,3,6.75,5.18,9.93l-2.29,2.4C288.6,370.53,291,366.5,292.91,360.65ZM253.77,627.37c-2.42-8.83-2.42-8.82-9.51-3.17-.5.39-1.46.46-1.65.92-.88,2.12-1.57,4.32-2.32,6.49,1.72.12,3.66.82,5.12.26A68.86,68.86,0,0,0,253.77,627.37Zm-9.86-208.44c-4-.37-7.4-.84-10.77-.94-2.3-.07-5.76-.49-6.7.76-2.35,3.1-3.47,7.08-1.22,12.46.55-2.79.85-4.26,1-4.91l7.47-2.56-.23-1.35-8.8,1.15c1.76-1.6,2.46-2.79,3.2-2.81,5-.17,10-.09,15.84-.09-1.13,4.49-1.95,7.81-2.74,11,3.16-.91,4.31-4.69,3.87-14.07Zm29,154.19.48-1.57c-3.09-1.82-6.23-5.16-9.25-5-3.41.12-6.71,3.34-10.16,5.28.1,2.1.19,4.11.35,7.56C259.9,572.89,265.83,571.18,272.86,573.12ZM414.5,400c.08-.45.15-.9.22-1.35l-28.29-8.25-.46,1.43a5.55,5.55,0,0,0,.88,1,16.74,16.74,0,0,0,10.85,3.58c5.47-.14,7,4.6,7.06,9.72.59-2.29,1.18-4.58,1.68-6.57ZM239.1,436.83c-4.51-4.49-10.81,1.37-14.21-3.42-2.85-4-4.95-8.59-7.66-13.4,1,13.61,17.62,27.93,27.34,28.41L228.27,438l.52-1.13Zm10.5-82.12-1,.33c.7,1.95,1.1,4.13,2.26,5.77.46.65,3.37.69,3.83.05a88,88,0,0,0,6.16-10.33c.22-.42-.8-2.09-1.43-2.21a3.37,3.37,0,0,0-2.93.91,66.3,66.3,0,0,0-3.16,6.91l-1.75-2-1.15,2.47Zm75.26-34.16,1.83.08q.93-6.39,1.87-12.78L327,307.4c-.91,1.27-1.74,2.59-2.73,3.79s-2.21,2.4-3.42,3.69C322.25,316.88,323.55,318.72,324.86,320.55ZM313.26,443.3c3.37-1.43,6.57-8,5.71-11.34s-8.93-5.22-14.24-3.9c2,.86,3.6,2,5.35,2.24,7.6,1,7.85,1.17,5.83,8.28C315.43,440.27,314.17,441.73,313.26,443.3ZM232.7,452l.1-1.92c-5-.83-9.22-2.34-8.07-9-2.53,4.57-2.18,10.29,1,11.76C227.51,453.71,230.33,452.39,232.7,452Zm106.68-25.77c-1.66,4.47-3.26,8.79-4.86,13.12l1.88.87L343.26,429ZM207.64,454.43c-.15-7.84-7.4-5.45-11.36-8.91-.59,5.08,4.87,4.46,5.12,5.93C202.21,456.19,207.77,449.11,207.64,454.43Zm123.53-22.64c-.24-1.27,0-3.12-.8-3.7-2.07-1.58-4.48-3.41-6.89-3.61-1.54-.13-3.32,2.43-5,3.79l.85.94C322,426.63,325.66,427.55,331.17,431.79ZM201.86,495.35l.14-.82c-2.24-.83-4.94-1.13-6.63-2.59-4.51-3.87-5.6-.74-7.21,3.41ZM246.12,569l.84,1.74,10.7-6.39C253.54,561.27,251.2,562.41,246.12,569Zm7.11-8.52c-.47-.74-1.07-1.74-1.1-1.72-3,1.68-6,3.43-9,5.19.33.54.54,1.39,1,1.55a2.78,2.78,0,0,0,2.11-.25C248.54,563.73,250.77,562.12,253.23,560.43ZM291.6,351.9c-1-4.47-4.18-5.21-7.72-4.75-.89.11-1.58,1.85-2.48,3Zm-24,135.27c3.07,6.74.06,10.91-6.11,14.21,4.91,2,5.84-2.23,7.06-4C270.78,494.26,271.21,490.31,267.64,487.17Zm-12.77-34.34c8.43,5.87,12.32,6.61,14.36,3.4Zm-50.36,11.68c-.42-5.51-3.77-7.83-9.85-6.76Zm193.84,46.33,7.18-2.08-4.14-1.46q1.58-2,3.16-4.07C401.69,501.91,398.75,506,398.35,510.84Zm-98.94,99.89c-1,3.75-2.22,8.49-3.34,12.81C301.57,620.32,302.57,615.45,299.41,610.73Zm-43.2-244.34c2.24-.42,4.19-.31,4.44-.92,1.35-3.18,2.27-6.55,3.34-9.85l-.77-.31ZM364.26,721.91c.21.51.43,1,.64,1.52l15-7.32-.65-1.35Zm-178.85-.23.72-.9c-.93-1-1.86-2.09-3-3.31l5.79-1.1-.33-1.36-8.25,1.42-.38,1.41Z" transform="translate(-150.63 -58.79)"/><path d="M398.78,132.43,359.46,154l.73,1.62,18.91-9c.29,1.65.65,3.75,1,5.9,5.84-1.21,1.08-3.88.86-6.23q7.65-3.12,15.33-6.24a15.14,15.14,0,0,0,2.8-1c3.64-2.45,6.08-1.4,7.77,2.39a4.58,4.58,0,0,0,1.92,2.13c-.65-2.19-1.31-4.38-2.24-7.52,4.65,2.35,6.52,4.49,4.46,9-1,2.24-.72,5.1-1,7.95-3.23-.87-8,2.42-8.93-3.91l3.47-1-.61-1.67c-11.84,3.24-22.41,9.64-33.7,14.24.16.42.31.84.46,1.26l25-9.4.65,1.07-32,20.38c-2.35-6.75-4.09-12.29-6.28-17.63-.57-1.38-2.49-2.38-4-3.14-.94-.48-2.28-.24-3.45-.22-16.38.28-13.37.29-19.66-16.37-.71-1.87-3.11-3.72-2.82-5.22.77-4.08-3.17-6-3.34-9.87-.34-7.84-2.13-15.63-3.44-23.41-1.83-10.86,2.63-19.35,9.87-26.82,1-1,2.15-2,3.23-3l1.12.9-6.17,7.48c1.61,6.18,4.88,7.15,10.07,2.64a2.38,2.38,0,0,1,1.86-.4c1.82.44,3.64,1.6,5.37,1.45,1.46-.12,2.79-1.68,5-3.13l-2.8-5.45-1.2,4.53-3.46-2.82c2.85-1.84,5.33-4.36,8.28-5.12,3.44-.89,7.29-.36,10.94-.13.59,0,1.31,1.71,1.56,2.72.56,2.18.85,4.42,1.3,6.92,3.91-5.88.6-12.06-5.12-14.31-8.08-3.18-14.87-1-22,2.08a30.27,30.27,0,0,1,24.17-6.56c8.35,1.25,16.51,3.83,24.07,5.66,2.35,5.11,4.87,9.36,6.28,14a67.41,67.41,0,0,1,3.21,16.27c.49,9.63-.08,19.31.15,29C397.07,127.05,398.25,130.06,398.78,132.43Zm-69.58-24c1.91,6.1,4.2,7.48,8.56,5s7.92-5.72,12.8-9.36c-6.24-3.32-11.08-1.8-16.38-1.95l1.1,4.06,9.64-1.5C340.45,109.22,336.39,115.19,329.2,108.45Zm30.91-27.86c-2.13-10-2.54-10.36-9.19-8.4Z" transform="translate(-150.63 -58.79)"/><path class="cls-1" d="M372.37,695.73c-2.82.46-5.25,1.2-7.67,1.14-1.8,0-4.34-.64-5.14-1.89s-.4-4,.44-5.47c6.39-11.48,3.13-24.24-4.53-33.09-1.6-1.85-4.38-2.67-7.09-4.23,2.17-1.52,3.82-3.12,5.8-4,7.89-3.34,13-9.77,17.61-16.41,2.73-4,4.06-9,5.56-13.66,3.38-10.51,7.23-20.93,5.71-32.38a208.86,208.86,0,0,1-1.63-23c1.55,6.59,4.12,13.13,4.4,19.78.37,8.53-1.31,17.13-1.71,25.73-.25,5.39.42,10.82.3,16.22-.05,2.26-1.07,4.49-1.52,6.24.49,3.85,1.63,7.55,1.28,11.1-.92,9.39-2.34,18.75-3.91,28.06-.35,2.12-2.23,4-3.14,6s-1.36,4-2.28,6.86C371.06,684.61,370.18,687.8,372.37,695.73Z" transform="translate(-150.63 -58.79)"/><path class="cls-1" d="M332.76,344.14c3,8.46,6.12,16.28,8.56,24.3,1.58,5.18,2.21,10.65,3.24,16,.43,2.27.22,4.9,1.32,6.76,2.18,3.68.18,6.1-1.9,10.05-2.88-7.54-9.24-7.84-14.68-9.06-.86-2.22-1.3-4.22-2.32-5.87-2.62-4.23-6.89-4.73-10.47-1.74-1.07.9-3.34,1.86-4.06,1.35-1.06-.75-1.62-2.75-1.69-4.25a10.88,10.88,0,0,1,1.23-4.27c3.22-8,6.64-15.84,9.69-23.86C323.68,348.28,326.87,344.85,332.76,344.14Z" transform="translate(-150.63 -58.79)"/><path class="cls-1" d="M406,625.8c-.65-1.83-1.84-3.65-1.86-5.49-.16-13.22.07-26.44-.2-39.65-.06-2.66-1.75-5.28-2.69-7.91-3.34-9.34-6.64-18.69-10.06-28a14.08,14.08,0,0,0-2.25-3.12c-.1,1.47-.19,3-.36,5.61-.2.76-6.33-.75-2.75,3.76.11.14-.21.86-.28.85-5.54-.61-3.5,4.08-4.31,6.72-5.38-3.19-4.26,1.54-4.89,3.9-3.71-2.16-3.65-2.1-4.77,1.83-.31,1.09-1.55,1.9-2.35,2.82-.62-1.25-1.07-2.16-1.51-3.07a19,19,0,0,0-2.65,1.8c-1.24,1.18-2.33,2.51-3.48,3.78l-1.76-2.11c5.4-3.69,11.23-6.9,16.09-11.21,3.81-3.38,6.55-8,9.53-12.28,1.21-1.73,1.3-4.35,2.69-5.83,6.21-6.6-.12-13.47.62-20.22.78-7-.37-14.26-.41-21.41-.1-15.4,0-30.79.38-46.24,4.47,23.86,3.47,48.2,5.64,72.76-.29-7,5.14-8.17,9.36-10.22,2.92,4.66-8.55,2.85-4.25,9.18-.3,1.57-7.3,2.09-1.6,6,.06,2.5-8.73.84-2.62,6.17-5,2.1-5,3.5-1,7.28,2.93,2.79,3.16,8.35,4.8,12.59a25.58,25.58,0,0,0,2.57,4.27c.77,11.18,8.36,20.82,8.08,32.26-.28,11.62,1.53,23.4-1.84,34.79Z" transform="translate(-150.63 -58.79)"/><path class="cls-1" d="M393,261.12c0,4.06.73,8.29-.14,12.16-2.48,11.07-2.21,22.12-.52,33.15.38,2.5,2.75,4.71,3.06,6.66-.79,2.46-2.24,4.92-2.27,7.39-.17,14.07.07,28.14,0,42.21a37,37,0,0,1-1.84,10.79l-3.8-58.76h-58.4l-.26-3.83a7.43,7.43,0,0,1,1.32-.39c5.4-.17,10.8-.49,16.19-.44,12.28.11,24.57.3,36.84.66,3.52.1,4-1.54,3.9-4.47-.44-13.47-.38-26.92,2.94-40.12.42-1.7.91-3.38,1.37-5.06Z" transform="translate(-150.63 -58.79)"/><path class="cls-1" d="M227.94,539c-.54,0-1.65-.33-2.4,0-10.35,5.24-15.57-2.6-20.49-8.85C200,523.73,196.36,516.09,192,509c-2.11-3.39-.25-4.91,2.57-5.79,4.35-1.36,7.69-.71,10.6,3.72,5.09,7.73,11.09,14.84,16.57,22.31C223.9,532.25,225.7,535.48,227.94,539Z" transform="translate(-150.63 -58.79)"/><path class="cls-1" d="M290.32,320.24l5.25,3.29-10.07,1.93c2.17,4,2.17,4-7.07,3.82l11.71,8.66c-5.6,0-9.86.18-14.08-.11-1.33-.09-2.58-1.45-4.34-2.52-3.57,2.4-3.57,2.4-11.48-6.86,3.91-3.18,7.78-6.35,11.65-9.51.07-2-.82-4.48,3.5-5.37,1.49-.3,2.4-3.38,3.47-5l19.3,7.09Z" transform="translate(-150.63 -58.79)"/><path class="cls-1" d="M338.6,549.18c.18,5.09-.58,5.58-5.06,4.16l-8.75,6.23c-.41-2-.68-3.26-1.11-5.29L320.34,558l-.27-1.09c-1.39.14-2.78.38-4.18.41-3.39.08-6.79,0-10.19.1-.9,0-1.79.39-2.7.48-4.36.46-7.91-1-11.18-4-2.25-2-5.45-3-7.75-5.06s-4-4.79-6.12-7.12c-.71-.78-1.9-1.12-2.74-1.83a7,7,0,0,1-1.15-1.76l3.41-.66-8.31-4,.29-1.19,3.94.72a32.42,32.42,0,0,1-1.7-3.95,38.06,38.06,0,0,1-.77-4.56l1.17-.43c2,4.12,3.7,8.46,6.13,12.33,9.08,14.44,19.42,21.15,37.83,17.72,3.55-.66,7.33-.11,11-.27.87,0,2.24-.51,2.48-1.14C331.35,548.12,335,548.87,338.6,549.18Z" transform="translate(-150.63 -58.79)"/><path class="cls-1" d="M236.44,541.63c.2,1.06.41,2.11.57,3l14.05,11.17-9.09,6.3-3.7-2.84V572.9c-3.12-2.77,3.15-7.4-2.89-8.6,2.11-3.24.07-6.84-5.45-8.92.78-1,1.57-1.86,2.2-2.84s1.06-2,1.45-2.78l-9.35-1.34-.15-1.34,12.43-5.51Z" transform="translate(-150.63 -58.79)"/><path class="cls-1" d="M193.22,481.27c1.13-3.37,2.11-5.73,2.67-8.2a6,6,0,0,0-.39-3.89c-.75-1.39-2.14-2.44-3.29-3.68,3-1.72,9.12-1,10.63,1.27a3.4,3.4,0,0,1,0,2.27c-1.2,5.29-2.63,10.54-3.56,15.87-.18,1,1.51,2.37,2.34,3.56-3.64,2.44-12.42-2.11-13.4-7.2Z" transform="translate(-150.63 -58.79)"/><path class="cls-1" d="M303.56,576.34c-.33-2.86,4.7-8.18,7.52-7.75.31,0,.68.42.9.33,1-.42,2-.95,3-1.43l-2.82-1.14c2.61-4.06,10.57-5.8,13.23-3.26l-20.83,17.65,1.88,3.2-9.61-5.17Z" transform="translate(-150.63 -58.79)"/><path class="cls-1" d="M202,408.11c.73.2,1.89.17,2.12.62a57,57,0,0,1,5,12.37l-5.51-6.79,4.77,17.31-7.51-4.14-1,1.27,4.31,5.37c-3.6-.59-6.69-2-6-6.05,1.08-6.73,2.66-13.38,4-20.06Z" transform="translate(-150.63 -58.79)"/><path class="cls-1" d="M376.09,429.46c-2.19-5.36,2.47-16,7.82-17.88,2.2-.77,2.2-.77,2.25,3C386.23,419.08,380.46,427.61,376.09,429.46Z" transform="translate(-150.63 -58.79)"/><path class="cls-1" d="M256.79,500.18c.85-.91,1.58-1.69,3-3.2,2.8,11.92,11.24,20.78,8.47,33.39-.88-2.09-2.14-3.69-2.12-5.27.07-5.92-1.29-11.15-5.58-15.46-.31-.31.43-1.51.19-2.09-.66-1.58-1.21-3.79-2.48-4.44-7.5-3.88-9.18-8.25-5.14-17.66C252.49,491.93,251.59,497.32,256.79,500.18Z" transform="translate(-150.63 -58.79)"/><path class="cls-1" d="M292.91,360.65c-1.91,5.85-4.31,9.88-11.68,9.13l2.29-2.4c-2.17-3.18-5-6.33-5.18-9.93Z" transform="translate(-150.63 -58.79)"/><path class="cls-1" d="M253.77,627.38a70.2,70.2,0,0,1-8.36,4.49c-1.46.56-3.4-.14-5.12-.26.75-2.17,1.44-4.37,2.32-6.49.19-.46,1.15-.53,1.65-.92C251.35,618.55,251.35,618.54,253.77,627.38Z" transform="translate(-150.63 -58.79)"/><path class="cls-1" d="M243.91,418.93l.89-1.39c.44,9.38-.71,13.16-3.87,14.07.79-3.16,1.61-6.48,2.74-11-5.85,0-10.85-.08-15.84.09-.74,0-1.44,1.21-3.2,2.81l8.8-1.15.23,1.35-7.47,2.56c-.12.65-.42,2.12-1,4.91-2.25-5.38-1.13-9.36,1.22-12.46.94-1.25,4.4-.83,6.7-.76C236.51,418.09,239.87,418.56,243.91,418.93Z" transform="translate(-150.63 -58.79)"/><path class="cls-1" d="M272.86,573.12c-7-1.94-13-.23-18.58,6.22-.16-3.45-.25-5.46-.35-7.56,3.45-1.94,6.75-5.16,10.16-5.28,3-.11,6.16,3.23,9.25,5Z" transform="translate(-150.63 -58.79)"/><path class="cls-1" d="M414.5,400l-8.06-.41c-.5,2-1.09,4.28-1.68,6.57,0-5.12-1.59-9.86-7.06-9.72a16.74,16.74,0,0,1-10.85-3.58,5.55,5.55,0,0,1-.88-1l.46-1.43,28.29,8.25C414.65,399.08,414.58,399.53,414.5,400Z" transform="translate(-150.63 -58.79)"/><path class="cls-1" d="M239.1,436.83H228.79l-.52,1.13,16.3,10.46c-9.72-.48-26.3-14.8-27.34-28.41,2.71,4.81,4.81,9.37,7.66,13.4C228.29,438.2,234.59,432.34,239.1,436.83Z" transform="translate(-150.63 -58.79)"/><path class="cls-1" d="M249.6,354.71l.85,1.87,1.15-2.47,1.75,2a66.3,66.3,0,0,1,3.16-6.91,3.37,3.37,0,0,1,2.93-.91c.63.12,1.65,1.79,1.43,2.21a88,88,0,0,1-6.16,10.33c-.46.64-3.37.6-3.83-.05-1.16-1.64-1.56-3.82-2.26-5.77Z" transform="translate(-150.63 -58.79)"/><path class="cls-1" d="M324.86,320.55c-1.31-1.83-2.61-3.67-4-5.67,1.21-1.29,2.39-2.43,3.42-3.69s1.82-2.52,2.73-3.79l1.58.45q-.93,6.39-1.87,12.78Z" transform="translate(-150.63 -58.79)"/><path class="cls-1" d="M313.26,443.3c.91-1.57,2.17-3,2.65-4.72,2-7.11,1.77-7.26-5.83-8.28-1.75-.24-3.37-1.38-5.35-2.24,5.31-1.32,13.42.71,14.24,3.9S316.63,441.87,313.26,443.3Z" transform="translate(-150.63 -58.79)"/><path class="cls-1" d="M232.7,452c-2.37.35-5.19,1.67-7,.83-3.14-1.47-3.49-7.19-1-11.76-1.15,6.67,3.11,8.18,8.07,9Z" transform="translate(-150.63 -58.79)"/><path class="cls-1" d="M339.38,426.27l3.88,2.68-6.86,11.31-1.88-.87C336.12,435.06,337.72,430.74,339.38,426.27Z" transform="translate(-150.63 -58.79)"/><path class="cls-1" d="M207.64,454.43c.13-5.32-5.43,1.76-6.24-3-.25-1.47-5.71-.85-5.12-5.93C200.24,449,207.49,446.59,207.64,454.43Z" transform="translate(-150.63 -58.79)"/><path class="cls-1" d="M331.17,431.79c-5.51-4.24-9.13-5.16-11.83-2.58l-.85-.94c1.67-1.36,3.45-3.92,5-3.79,2.41.2,4.82,2,6.89,3.61C331.14,428.67,330.93,430.52,331.17,431.79Z" transform="translate(-150.63 -58.79)"/><path class="cls-1" d="M201.86,495.35h-13.7c1.61-4.15,2.7-7.28,7.21-3.41,1.69,1.46,4.39,1.76,6.63,2.59Z" transform="translate(-150.63 -58.79)"/><path class="cls-1" d="M246.12,569c5.08-6.54,7.42-7.68,11.54-4.65L247,570.69Z" transform="translate(-150.63 -58.79)"/><path class="cls-1" d="M236.51,541.57l-19.24,3.34c6.57-4.7,12.31-7.17,19.15-3.27Z" transform="translate(-150.63 -58.79)"/><path class="cls-1" d="M253.23,560.43c-2.46,1.69-4.69,3.3-7,4.77a2.78,2.78,0,0,1-2.11.25c-.46-.16-.67-1-1-1.55,3-1.76,6-3.51,9-5.19C252.16,558.69,252.76,559.69,253.23,560.43Z" transform="translate(-150.63 -58.79)"/><path class="cls-1" d="M291.6,351.9l-10.2-1.75c.9-1.15,1.59-2.89,2.48-3C287.42,346.69,290.6,347.43,291.6,351.9Z" transform="translate(-150.63 -58.79)"/><path class="cls-1" d="M267.64,487.17c3.57,3.14,3.14,7.09.95,10.22-1.22,1.76-2.15,6-7.06,4C267.7,498.08,270.71,493.91,267.64,487.17Z" transform="translate(-150.63 -58.79)"/><path class="cls-1" d="M254.87,452.83l14.36,3.4C267.19,459.44,263.3,458.7,254.87,452.83Z" transform="translate(-150.63 -58.79)"/><path class="cls-1" d="M204.51,464.51l-9.85-6.76C200.74,456.68,204.09,459,204.51,464.51Z" transform="translate(-150.63 -58.79)"/><path class="cls-1" d="M398.35,510.84c.4-4.85,3.34-8.93,6.19-7.61l-3.16,4.07,4.15,1.46Z" transform="translate(-150.63 -58.79)"/><path class="cls-1" d="M299.41,610.73c3.16,4.72,2.16,9.59-3.34,12.81C297.19,619.22,298.43,614.48,299.41,610.73Z" transform="translate(-150.63 -58.79)"/><path class="cls-1" d="M256.21,366.39l7-11.08.77.31c-1.07,3.3-2,6.67-3.34,9.85C260.4,366.08,258.45,366,256.21,366.39Z" transform="translate(-150.63 -58.79)"/><path class="cls-1" d="M364.26,721.91l14.95-7.15.65,1.35-15,7.32C364.69,722.93,364.47,722.42,364.26,721.91Z" transform="translate(-150.63 -58.79)"/><path class="cls-1" d="M185.41,721.68,180,717.84l.38-1.41,8.25-1.42.33,1.36-5.79,1.1c1.1,1.22,2,2.27,3,3.31Z" transform="translate(-150.63 -58.79)"/><path class="cls-1" d="M329.2,108.45c7.19,6.74,11.25.77,15.72-3.71l-9.64,1.5-1.1-4.06c5.3.15,10.14-1.37,16.38,1.95-4.88,3.64-8.57,7-12.8,9.36S331.11,114.55,329.2,108.45Z" transform="translate(-150.63 -58.79)"/><path class="cls-1" d="M360.11,80.59l-9.19-8.4C357.57,70.23,358,70.62,360.11,80.59Z" transform="translate(-150.63 -58.79)"/></svg>