<svg id="Layer_1" data-name="Layer 1" xmlns="http://www.w3.org/2000/svg" viewBox="0 0 440.55 784.74"><defs><style>.cls-1{fill:#fff;}</style></defs><title>Spike_Woman</title><path d="M117,787q-.52-5.68-1-11.36c-.21-2.2-.36-4.42-.66-6.61-2.34-17.13-5.39-34.19-6.87-51.39-1.5-17.44-2-35-1.83-52.53.07-7.68,2.89-15.32,4.31-23,3.16-17,9.41-32.92,16.29-48.73,3.15-7.24,6.34-14.63,6.71-23.14.3-6.78,3.84-13.37,5.66-20.13,2.06-7.67,3.49-15.51,5.75-23.12,3.73-12.56,7.92-25,11.9-37.47,2.45-7.69,4.8-15.41,7.34-23.06.92-2.76,2.29-5.35,3.41-8,5.08-12.2,10.29-24.34,15.17-36.62,3.64-9.15,6.86-18.47,10.39-28-8.46,0-16.43.29-24.36-.15a17.42,17.42,0,0,1-8.89-3.26c-4.39-3.23-8.22-7.24-12.24-11-3.25-3-3.16-5.9.24-8.84,5-4.35,9.84-9,15-13.15,1.34-1.09,3.62-1.38,5.47-1.4,9.66-.13,19.33.07,29-.17,1.46,0,2.89-1.72,4.33-2.64-1.41-1.74-2.52-4.57-4.29-5.06-18.4-5.11-36.9-9.84-55.38-14.66-3.86-1-7.74-1.95-11.62-2.88-3.39-.81-4.85-2.64-3.46-6,24.46-2.63,48.77-5.57,72.5-9.28-2.38-9.23-4.32-17.35-6.59-25.38-1.94-6.86,0-13.33,2.32-19.43,2.18-5.63,5.56-10.86,8.88-16,3.85-5.93,3-7.73-3.82-10-18-6-35.82-12.47-53.72-18.72-6.91-2.41-13.89-4.62-20.7-7.28a6,6,0,0,1-3-4.17c-.12-.79,2.27-2.68,3.66-2.83,15.63-1.71,31.26-3.51,46.94-4.61,12.23-.85,24.56-.32,36.76-1.41,2.78-.24,6.8-4.22,7.51-7.14,4.41-18.23,14.41-33.11,26.39-47,.66-.75,1.31-1.51,1.91-2.31,4.58-6,4-5.62-.52-11.52-7.29-9.45-14-19.37-20.52-29.4-9-13.81-17.53-27.87-26.12-41.91-1-1.64-1-3.87-1.51-5.83l1.59-.35c.21.64.41,1.28.28.87,2.51.35,4.53.09,5.93.9,26.13,15.16,52.15,30.48,78.3,45.58,1.85,1.08,5.11,1.71,6.77.81,16-8.6,33.18-8.72,50.53-8.11,6.23.22,7.36-1.33,8.59-7.29,1.85-8.93,4.65-17.67,7.18-26.46q6.43-22.29,13.06-44.52c1.56-5.26,3.1-10.53,5-15.66.59-1.56,2.47-2.63,3.77-3.92,1,1.69,2.43,3.28,2.81,5.1,1.58,7.44,2.73,15,4.2,22.45,4.16,21.05,9.08,42,12.23,63.17,1.17,7.87,3.46,11.29,11,13.66,17.05,5.32,31.22,15.8,43.95,28.15,2.22,2.16,4.05,2,6.25.54,10.22-6.82,20.19-14.06,30.69-20.41,17.37-10.5,35.07-20.45,52.64-30.61.22-.13.61,0,1.88.12l-6.09,5.62c.26.34.53.68.79,1l8-5.51c-.05,1,.18,1.93-.17,2.43-3.87,5.39-8.09,10.54-11.7,16.09-4.14,6.37-7.63,13.17-11.64,19.62q-13.46,21.62-27.19,43c-1.5,2.35-3.62,4.3-5.36,6.34,3.81,4.64,8.92,8.68,11,13.92,2.71,6.89,3.72,14.68,4.21,22.16.64,9.56-.89,19.32.22,28.79,1.21,10.31-1.27,20.18-1.51,30.27,0,1.65-1.77,3.24-2.62,4.9A12.78,12.78,0,0,0,500.7,277c-.9,6.84-1.63,13.71-2.38,20.28-12.32,2.58-16.53,7-14.75,12.43-1.77,2.61-3,4.23-4,6-2.26,4-4.39,8.14-6.57,12.23l-2.06-.43c0-3.14-.35-6.32.07-9.39.9-6.68-.44-8.62-9.11-11.38-.71,4.13-1.32,8.22-2.14,12.26-2.87,14.19-6,28.34-8.62,42.57-.57,3.09.1,6.49.74,9.63.1.47,3.19.33,6.24.58,2.12,2.86,7.22,3.59,11.59.24,2.92-2.23,4.74-1.56,5.78,1.91a16.72,16.72,0,0,0,1.94,3.39l.37-1.83c2.29-1.1,4.49-2.6,6.9-3.22,8-2.08,16.13-3.85,24.2-5.7a26.5,26.5,0,0,1,3-.33c-.39,1.24-.68,2.14-1.06,3.37,4.6.62,5.46-3.29,7.57-6.58-.15,5.42-2.9,8.17-6.65,9.93-3.54,1.67-7.29,2.88-11,4.32.38.58.7,1.1.71,1.09,5.85-3.45,11,1.26,16.53,1.45,4,.14,6.6,4.57,5.18,8.45a44.54,44.54,0,0,1-3.33,6c10,11.16,5.06,23.43,1.29,35.35a165.69,165.69,0,0,1-9.94,24.32A17.55,17.55,0,0,1,495.51,464c-2.83.07-5.74-1.13-8.54-2-2.58-.79-5.1-1.83-7.59-2.86-3.32-1.38-4.25.71-5.38,3.21-2.53,5.6-5.13,11.18-8.07,16.57a20.58,20.58,0,0,1-16.21,11.14c-6.56.84-13.09,2-19.66,2.74a11.87,11.87,0,0,1-5.83-1c-4-1.77-7.73-3.35-12.31-2.27-1.36.32-3.41-1-4.73-2.07-2.28-1.87-4.76-3.85-6.16-6.34a10.67,10.67,0,0,1-.67-7.07c.38-1.62,2.47-2.84,4.1-4.56-14.55-4.2-28.35-6.49-39.73,6.52a9.43,9.43,0,0,1-2,1.4c2.32-10,11.78-11.81,19.1-16.61l-2-1.57,2.57-5.46-11.23-4.95c-.23-.54-1.05-2.41-2-4.52,5.08-1.89,5-4.68,1.64-8.31a60.75,60.75,0,0,1-5.74-7.5c-.51-.76-.28-2-.4-3,.89-.07,1.9-.45,2.65-.16,5.15,2,10.3,4.09,15.34,6.37,1.44.66,2.45,2.19,3.78,3.16,2.83,2.06,5.69,4.08,8.61,6a35.35,35.35,0,0,0,5.18,2.78c4.2,1.83,8.13,5.4,13,3,0-9.76.17-19-.07-28.17-.13-5.39-5.46-10.43-10.84-11.31-6.72-1.1-13.45-2.22-20.09-3.72-13.43-3-26.77-3.92-40.82,1.12,1.19,2.74,2.26,5.61,3.65,8.32,1.48,2.89,5,6,4.54,8.39a33.77,33.77,0,0,0,.9,15.65c2.37,8.15,4.52,16.13,5.1,24.74.38,5.61.65,12.45,7.26,15.71a16,16,0,0,0-2.16,13.68,98.5,98.5,0,0,1,3,14,16,16,0,0,1-1.91,8.67c2.36,5.47,4.77,10.92,7,16.42.38.91-.15,2.84.22,3,2.27.83-2.38,5.72,2.79,4.69a4.06,4.06,0,0,1,.87,2.55c-2,6.1,2.13,10.14,4.61,14.79.66,1.23.61,2.83.88,4.26l-7.65-11.53c1.74,8.83,5.29,17.06,9.32,25.13l.72,7,.18-.15-6.12-3.87-.94.44L388,598.46l.95-.41c-.33-1.68-.66-3.37-1-5,.44-.4,1.34-1,1.27-1.17-3.11-6.35-6.3-12.66-9.47-19,.42-.6,1.32-1.39,1.18-1.76-1.12-2.88-2.64-5.61-3.6-8.53-.31-.94.67-2.3,1.06-3.47,4,8.12,8,16.23,12,24.38,3.31,6.82,6.54,13.69,9.8,20.55.21.44.54,1,.42,1.4-2.7,8,3.59,12.41,7.46,17.31,6.51,8.25,13.16,16.38,22,22.65,7.05,5,12.55,12.14,19.22,17.76,8.09,6.81,16.79,12.9,25,19.54,7,5.62,15,10.63,20.12,17.66s11.81,11.88,17.27,18.18c5.93,6.85,12.21,13.56,17,21.17,5.92,9.35,10.49,19.56,16.25,30.54l-4.63-1.66v10.14l-1,.13-2-4.76-1.12.3L539,787H404c1.81-4.38,3.35-8.9,5.51-13.1,2.93-5.69,2.7-7.67-2.5-11.9-1.36,6.5-2.75,13.1-4.13,19.71l-1.15-.23q1.38-7.43,2.75-14.85l-1.18-.19L390.08,778.3,394,787H345c18.66-23.12,24.66-49.37,18.83-78.3-4-19.83-13.45-37-26.11-52.71-8.62-10.68-19-20.1-23.84-33.59-3.45-9.5-9.54-17.55-17-24.42-7-6.44-14-12.76-21.26-18.89-4.47-3.81-9.46-6.67-15.78-6.21-7.56.55-15.14.85-22.71,1.25l-.11-.88,30.86-3.06c-8-7.48-17.19-9.7-26.43-7.87-19.83,3.91-40,6.56-58.49,16-15,7.64-27.11,18-35.64,32.41-9,15.27-11.17,32.53-13.81,49.61a12.6,12.6,0,0,0-.07,4.89c2.29,9.08,2.35,9.07-1.83,17.93.58-4.22,1.06-7.78,1.54-11.33l-2-.21c-.84,7.41-1.69,14.82-2.54,22.28L138,679.55a6.75,6.75,0,0,1-1,4.76c-5.55,7.86-5.71,16.76-5.21,25.81.33,5.91.73,11.82,1,17.73.37,9-1.94,17.87,2.73,26.91,2.24,4.35,1.34,10.67,3.7,15.88s3.9,10.89,5.8,16.36ZM412.22,404.63l-5.21-2.9-1,1.64,8.34,6.74,1.09-1-2.75-4.25,19.3-5.29c1.86-3.16,3.06-6.64,5.43-8.91,6.24-6,5.15-17-1.62-19-4.58-1.31-9.16-2.66-13.8-3.74-3.69-.86-5.66,1.31-6.41,4.64-1.24,5.46-2.74,10.91-3.33,16.45C411.7,394.18,412.19,399.43,412.22,404.63Zm-72.06-50.54c8.4,1,16.79,2.18,25.22,2.83,5.5.43,11.15-.62,16.57.16,10.16,1.46,20.15,4.18,30.32,5.48,3.07.39,6.52-2.17,10.94-3.8l-5.51-1.47c2.91-5.9,7-11.2,8.14-17.07,3.89-20.26,13.37-39.36,12.27-60.68-.34-6.62-1.15-9-7.56-10.76a48.42,48.42,0,0,0-4.78-1.43c-5.85-1.07-11.77-3-17.56-2.71-5.11.28-10.83,1.18-13.91,7.39-1,2.08-5.83,2.3-8.91,3.36l5,1.53-7.8,2.57c5.62,3.81,10.27,4.79,15.27,1.23-6.8,8-17,10.79-25.2,6.18-5.8-3.28-10.74-8.09-16.05-12.24-1.68-1.32-3.3-2.73-5-4-2.48-1.91-5-3.77-6.77-5.09,5.88-.8,11.75-1.16,17.39-2.48,5.83-1.36,11.11-4,12.46-12.31-2.53.82-4.79,1-6.36,2.16-15.2,11-40.39,7.29-50.21-12-.71-1.4-2.83-2.08-4.29-3.1l-1.47,1.42c4.25,5.9,8.51,11.8,12.91,17.92a10.8,10.8,0,0,1-2.09,1.38c-9.63,3.91-15.93,11-20.26,20.3-3.7,8-2.36,16.3-2.85,24.54-.76,12.76,2.83,23.62,12.31,32.39a49.27,49.27,0,0,1,3.58,4.16c6.74,7.73,13.91,14.27,26,8.14a25.84,25.84,0,0,0-1.58,3.45,15.3,15.3,0,0,0-.16,2.72l-47.17-4a13.71,13.71,0,0,0,4.23,1.28c11.7,1.16,23.41,2.34,35.13,3.3C335,355,337.59,354.33,340.16,354.09Zm121.73-165-6.11-1c-.22-1.1-.49-2.48-.76-3.85l-1.47-.18c-.53,2.67-1.89,5.51-1.37,7.95a12.75,12.75,0,0,0,4.56,6.76c1.86,1.46,4.72,1.65,7.57,2.53l-6.6,1.54a108.05,108.05,0,0,0,2.1,10.71c2,6.62,4.08,13.24,6.71,19.62.65,1.57,3.45,2.79,5.43,3.13,3.05.53,6.24.16,9.37.17h13.23c.84-7.26-4.45-23.57-10-31.56-2.42-3.52-5.72-7.06-6.46-11-1.2-6.39-4-10.77-10-12.51a8,8,0,0,0-6.7,1.53C460.41,183.89,461.66,187.08,461.89,189.05Zm6.7,90.18c1.66-2.14,2.82-3.2,3.44-4.52a65.44,65.44,0,0,0,2.25-6.35L470,272c-.78-8.39-1.34-17-2.54-25.62-.39-2.75-2.28-7.34-3.86-7.51a47.76,47.76,0,0,0-17,1.12c-1.78.46-2.65,5.37-3.43,8.38a50.67,50.67,0,0,0-1.17,8.89c-.76,10.17,10.14,19.63,20.05,16.86C466.29,273,467.48,274.44,468.59,279.23Zm-232.31,253-.68-1.6c-.61.06-1.35.38-1.8.14-2.27-1.2-4.47-2.53-6.68-3.84-2.58-1.54-8.69-.63-9,1.84-.65,5.42-4.22,4-7.41,4.2a11.76,11.76,0,0,0-4.29.95c-4.3,2.05-8.51,4.3-13.94,7.08,2.43,1,4.78,3,6.83,2.73,13.38-1.84,26.7-4.17,40-6.34-2.06-4.88-7.24.61-10.36-1.84ZM192.13,550.5l57.18-2.26c-2.72-1.3-6.89-.61-8.27-2.26-3.85-4.58-6.92-2.34-10.33,0C229.09,541.22,208.14,544.22,192.13,550.5ZM438.61,191.68c2,1,4.11,2.57,6.41,3.07,1.16.25,2.85-1.23,4-2.22.59-.49,1.11-2,.8-2.46-2.66-3.9-5.51-7.67-8.78-12.14l-12.62,16.58,1,1.26Zm40.77-13.07-1.38.57L495.82,219C497.9,211.72,486.61,184,479.38,178.61ZM296.67,435.87l-1.53.46,10.32,51.93c.84-3,2.05-4.95,1.7-6.52C303.81,466.42,300.2,451.15,296.67,435.87ZM241,359.45l.78.27c.64-4.76,1.28-9.51,2-14.66l3-1.17-4-3.46.79-.9,2.42,2.28,1-1.35c-2.47-1.53-4.84-4.14-7.44-4.4-9.73-1-19.53-1.24-29.31-1.64-1,0-2.11.77-3.75,1.41,3.07.35,5.61,1.44,7.38.69,7.3-3.08,13.91-.16,20.85,1.26,5.23,1.06,7,4.21,7.08,8.66S241.22,355.11,241,359.45Zm-65,14.34c0,5.21,2.6,8.74,5.91,8.1,1.9-.38,3.44-2.65,5.14-4.08-2.09-2.34.69-7.81-5-7.82C178.66,370,176.21,371.16,175.91,373.79ZM143.08,550.42l1.79.5q4.88-17.32,9.76-34.67l-2-.57C148.15,526.9,144.46,538.33,143.08,550.42Zm365.61-134.7-1.57.12c.45,7.19-6.21,13.94-.48,22.21,1.48-1.43,3.95-2.75,3.9-4C510.29,428,509.37,421.84,508.69,415.72Zm-281.28-59c-2.82.36-5.63,1.54-5.67,5.56,0,4.55,2.78,8,6.35,8.05s6.93-3.51,7-7.6C235.13,359.32,232.18,356.81,227.41,356.75Zm73,13.95c-.36,5.32,1.72,7.85,6,8.1s6.65-2,7.17-6.83c.3-2.84-3.73-7-7.14-6.86C302.54,365.25,299.89,367,300.43,370.7ZM405,378.15c7.12-4.2,7.22-4.59,2-10.22-.48,1.45-.9,2.76-1.4,4.28-1-2.89-1.9-5.51-2.81-8.13l-1.55.52C402.85,369,397.86,374.67,405,378.15Zm-53.89,4.29c3.85,0,7.35-3.17,6.12-7.06-.83-2.63-4.21-5.31-7-6.22-3.41-1.1-6.28,2.42-6.25,6.35Q344,382.35,351.14,382.44ZM492,129.48l6.33,2.27c1.72-2.17,3.22-4.08,5.15-6.53l2.84.14.39-1.54-10.27-3.53C500.74,128.65,489.89,123.53,492,129.48ZM267,373.85c4.61.61,6-2.1,6.14-5.86a6.5,6.5,0,0,0-6.54-7.13c-4.28-.1-6.83,2.58-6.38,7.31C260.57,372.09,263.45,373.6,267,373.85Zm245.14,41.5c.94,5.32,1.78,10.11,2.62,14.9l1.49,0c.26-5.38.52-10.77.82-16.82Zm-46.64,41.74c-3.33,2.7-6.31,5-9.11,7.48a4.56,4.56,0,0,0-.89,2.84c0,.22,1.3.86,1.92.76C460,467.75,465.23,460.69,465.48,457.09ZM198.66,225.74V214.29l-4.12,4.55L191,215.79c-.37,1.79-.65,3.17-.76,3.72Zm93,180.77c-2.53-12.6-2.53-12.6-9.79-13.2C285.47,398.12,288.37,402,291.7,406.51ZM130.3,763.28c-2.33,5.54-.18,14.51,4,17.26C133,774.69,131.73,769.4,130.3,763.28Zm347.62-5,.91-1.18L459.28,739.6c-.39.47-.79.93-1.19,1.4Zm-.3-619.56c3.39,7.51,5.21,7.87,11,1.82ZM231.21,227.53c4.33,8.78,13.72,8.15,19.13-.82C244.34,233.29,238.07,234.62,231.21,227.53Zm145-152.15,4.17-4.52-.81-1.28-6.46,2.9c-.12,2.44-.18,3.77-.26,5.44l6.92-1.65-.12-.89ZM480.76,745.09l-1.1,1.07,12.58,13.43,1.39-1.36Zm-17.32-27.8,1.39-1.13-15.26-12.51-.86,1ZM449.85,451.11l-.16-1.29c-2.65-.61-5.28-1.37-8-1.74-.74-.1-1.64,1-2.46,1.49.72.83,1.45,2.37,2.17,2.37A77.22,77.22,0,0,0,449.85,451.11ZM373.56,81.2l-3.79,2.86.61,1,9.29-2.52-3.09-3.93-7.15,1.46Zm-.88,11.54,9.2-1.75C378.11,86.76,376.81,86.82,372.68,92.74ZM213.84,388.28l0,.83h22.84v.55Zm82-259.69c.08.76.17,1.53.26,2.3l12.67-1-.15-2Zm-26.52-14.28-1.35-.76-6.46,10.91,2.06,1.16Q266.46,120,269.34,114.31ZM227.25,384.76c8.94,2.3,11.66,1.69,11.35-1.93ZM385.42,128c.24,5.94,3.43,8.35,7.62,6.21Zm48.41,301.67.52-1.84c-2.09-.84-4.36-2.64-6.22-2.29-2.29.44-4.23,2.67-6.33,4.12.33.52.66,1,1,1.56C426.11,428.37,429.34,425,433.83,429.62ZM380,641.52l-1.44,1.19,8.86,11.47.93-.68Q384.14,647.52,380,641.52ZM376.67,56.6l6.94-2-3.71-1.64,2.57-2.78C377.17,49.43,376.8,52.44,376.67,56.6ZM172.76,387.68l-11-3.08C163.81,390.93,168.85,387.88,172.76,387.68Zm247,297-1.3,1,9.27,13.09,1-.73Zm28.37-249.08c0-.59,0-1.19,0-1.78h-8.94v1.78Zm-10,286.33,1.61-.73-7.51-10.92-.89.52Q434.8,716.32,438.18,721.88Zm28-341.89c-3.46,3.48-2.9,8.14,1.32,11.2C467.12,387.67,466.65,383.78,466.21,380ZM199.7,327.79l-1.91-1.26c-1.45,1.23-4.13,2.5-4.08,3.66.1,2.33,1.7,4.59,2.68,6.87l1.65-.55C195.61,333.17,192.57,329.74,199.7,327.79Zm299-55.22.36-2L488.43,269c-.05.47-.09.94-.14,1.41Z" transform="translate(-106.58 -2.26)"/><path class="cls-1" d="M145,787c-1.9-5.47-3.43-11.11-5.8-16.36s-1.46-11.53-3.7-15.88c-4.67-9-2.36-17.93-2.73-26.91-.25-5.91-.65-11.82-1-17.73-.5-9-.34-18,5.21-25.81a6.75,6.75,0,0,0,1-4.76l-9.37,14.32c.85-7.46,1.7-14.87,2.54-22.28l2,.21c-.48,3.55-1,7.11-1.54,11.33,4.18-8.86,4.12-8.85,1.83-17.93a12.6,12.6,0,0,1,.07-4.89c2.64-17.08,4.79-34.34,13.81-49.61,8.53-14.43,20.63-24.77,35.64-32.41,18.5-9.41,38.66-12.06,58.49-16,9.24-1.83,18.41.39,26.43,7.87l-30.86,3.06.11.88c7.57-.4,15.15-.7,22.71-1.25,6.32-.46,11.31,2.4,15.78,6.21,7.23,6.13,14.31,12.45,21.26,18.89,7.43,6.87,13.52,14.92,17,24.42,4.89,13.49,15.22,22.91,23.84,33.59,12.66,15.67,22.12,32.88,26.11,52.71,5.83,28.93-.17,55.18-18.83,78.3Zm2.5-5.27,2.49-.39q-2.09-11.52-4.18-23.05l-2.55.46Q145.39,770.24,147.5,781.73Z" transform="translate(-106.58 -2.26)"/><path class="cls-1" d="M394,787l-3.92-8.7,13.22-11.86,1.18.19q-1.38,7.43-2.75,14.85l1.15.23c1.38-6.61,2.77-13.21,4.13-19.71,5.2,4.23,5.43,6.21,2.5,11.9-2.16,4.2-3.7,8.72-5.51,13.1Z" transform="translate(-106.58 -2.26)"/><path class="cls-1" d="M379.82,572.92c-4-8.06-7.57-16.29-9.31-25.12l7.65,11.53.18-.23c-.39,1.17-1.37,2.53-1.06,3.47,1,2.92,2.48,5.65,3.6,8.53.14.37-.76,1.16-1.18,1.76Z" transform="translate(-106.58 -2.26)"/><path d="M132.05,539.26l5.76-27.49,1.29.26-5.7,27.32Z" transform="translate(-106.58 -2.26)"/><path class="cls-1" d="M340.27,354.2a14.48,14.48,0,0,1,.15-2.73A25.84,25.84,0,0,1,342,348c-12.09,6.13-19.26-.41-26-8.14a49.27,49.27,0,0,0-3.58-4.16c-9.48-8.77-13.07-19.63-12.31-32.39.49-8.24-.85-16.55,2.85-24.54,4.33-9.34,10.63-16.39,20.26-20.3a10.8,10.8,0,0,0,2.09-1.38c-4.4-6.12-8.66-12-12.91-17.92l1.47-1.42c1.46,1,3.58,1.7,4.29,3.1,9.82,19.33,35,23.08,50.21,12,1.57-1.15,3.83-1.34,6.36-2.16-1.35,8.3-6.63,10.95-12.46,12.31-5.64,1.32-11.51,1.68-17.39,2.48,1.77,1.32,4.29,3.18,6.77,5.09,1.69,1.3,3.31,2.71,5,4,5.31,4.15,10.25,9,16.05,12.24,8.16,4.61,18.4,1.87,25.2-6.18-5,3.56-9.65,2.58-15.27-1.23l7.8-2.57-5-1.53c3.08-1.06,7.88-1.28,8.91-3.36,3.08-6.21,8.8-7.11,13.91-7.39,5.79-.33,11.71,1.64,17.56,2.71a48.42,48.42,0,0,1,4.78,1.43c6.41,1.8,7.22,4.14,7.56,10.76,1.1,21.32-8.38,40.42-12.27,60.68-1.13,5.87-5.23,11.17-8.14,17.07l5.51,1.47c-4.42,1.63-7.87,4.19-10.94,3.8-10.17-1.3-20.16-4-30.32-5.48-5.42-.78-11.07.27-16.57-.16-8.43-.65-16.82-1.86-25.22-2.83ZM340,314.15c1.56-2.53,3.31-4.48,3.95-6.75.4-1.4-.91-3.27-1.45-4.93-1.42.77-3.46,1.19-4.13,2.38C336.64,307.88,336.44,311.12,340,314.15Zm.67-39.15c-4.58-6.92-10.17-4.19-15.2-4.05l7.75.5-2.93,4.8ZM318,299.17l1.2,1.6,19.2-14.23-1.06-1.31Z" transform="translate(-106.58 -2.26)"/><path class="cls-1" d="M362.82,477.26c-6.61-3.26-6.88-10.1-7.26-15.71-.58-8.61-2.73-16.59-5.1-24.74a33.77,33.77,0,0,1-.9-15.65c.44-2.44-3.06-5.5-4.54-8.39-1.39-2.71-2.46-5.58-3.65-8.32,14.05-5,27.39-4.15,40.82-1.12,6.64,1.5,13.37,2.62,20.09,3.72,5.38.88,10.71,5.92,10.84,11.31.24,9.2.07,18.41.07,28.17-4.86,2.43-8.79-1.14-13-3a35.35,35.35,0,0,1-5.18-2.78c-2.92-1.9-5.78-3.92-8.61-6-1.33-1-2.34-2.5-3.78-3.16-5-2.28-10.19-4.34-15.34-6.37-.75-.29-1.76.09-2.65.16.12,1-.11,2.27.4,3a60.75,60.75,0,0,0,5.74,7.5c3.39,3.63,3.44,6.42-1.64,8.31.92,2.11,1.74,4,2,4.52l11.23,4.95-2.57,5.46,2,1.57c-7.32,4.8-16.78,6.62-19.1,16.61Z" transform="translate(-106.58 -2.26)"/><path class="cls-1" d="M461.89,189.05c-.23-2-1.48-5.16-.51-6.12a8,8,0,0,1,6.7-1.53c6,1.74,8.84,6.12,10,12.51.74,3.93,4,7.47,6.46,11,5.52,8,10.81,24.3,10,31.56H481.32c-3.13,0-6.32.36-9.37-.17-2-.34-4.78-1.56-5.43-3.13-2.63-6.38-4.72-13-6.71-19.62a108.05,108.05,0,0,1-2.1-10.71l6.6-1.54c-2.85-.88-5.71-1.07-7.57-2.53a12.75,12.75,0,0,1-4.56-6.76c-.52-2.44.84-5.28,1.37-7.95l1.47.18c.27,1.37.54,2.75.76,3.85Z" transform="translate(-106.58 -2.26)"/><path class="cls-1" d="M468.59,279.23c-1.11-4.79-2.3-6.27-6.51-5.09-9.91,2.77-20.81-6.69-20.05-16.86a50.67,50.67,0,0,1,1.17-8.89c.78-3,1.65-7.92,3.43-8.38a47.76,47.76,0,0,1,17-1.12c1.58.17,3.47,4.76,3.86,7.51,1.2,8.57,1.76,17.23,2.54,25.62l4.27-3.66a65.44,65.44,0,0,1-2.25,6.35C471.41,276,470.25,277.09,468.59,279.23Z" transform="translate(-106.58 -2.26)"/><path class="cls-1" d="M412.22,404.63c0-5.2-.52-10.45,0-15.59.59-5.54,2.09-11,3.33-16.45.75-3.33,2.72-5.5,6.41-4.64,4.64,1.08,9.22,2.43,13.8,3.74,6.77,1.93,7.86,13,1.62,19-2.37,2.27-3.57,5.75-5.43,8.91l-19.3,5.29A2.82,2.82,0,0,0,412.22,404.63Z" transform="translate(-106.58 -2.26)"/><path class="cls-1" d="M236.28,532.22,229,535.54c3.12,2.45,8.3-3,10.36,1.84-13.33,2.17-26.65,4.5-40,6.34-2.05.28-4.4-1.71-6.83-2.73,5.43-2.78,9.64-5,13.94-7.08a11.76,11.76,0,0,1,4.29-.95c3.19-.16,6.76,1.22,7.41-4.2.29-2.47,6.4-3.38,9-1.84,2.21,1.31,4.41,2.64,6.68,3.84.45.24,1.19-.08,1.8-.14Z" transform="translate(-106.58 -2.26)"/><path class="cls-1" d="M192.13,550.5c16-6.28,37-9.28,38.58-4.56,3.41-2.3,6.48-4.54,10.33,0,1.38,1.65,5.55,1,8.27,2.26Z" transform="translate(-106.58 -2.26)"/><path class="cls-1" d="M438.61,191.68l-9.11,4.09-1-1.26,12.62-16.58c3.27,4.47,6.12,8.24,8.78,12.14.31.46-.21,2-.8,2.46-1.19,1-2.88,2.47-4,2.22C442.72,194.25,440.64,192.72,438.61,191.68Z" transform="translate(-106.58 -2.26)"/><path class="cls-1" d="M479.38,178.61c7.23,5.43,18.52,33.11,16.44,40.41L478,179.18Z" transform="translate(-106.58 -2.26)"/><path class="cls-1" d="M296.67,435.87c3.53,15.28,7.14,30.55,10.49,45.87.35,1.57-.86,3.49-1.7,6.52l-10.32-51.93Z" transform="translate(-106.58 -2.26)"/><path class="cls-1" d="M241,359.45c.27-4.34.86-8.69.74-13s-1.85-7.6-7.08-8.66c-6.94-1.42-13.55-4.34-20.85-1.26-1.77.75-4.31-.34-7.38-.69,1.64-.64,2.71-1.45,3.75-1.41,9.78.4,19.58.65,29.31,1.64,2.6.26,5,2.87,7.44,4.4l-1,1.35-2.42-2.28-.79.9,4,3.46-3,1.17c-.69,5.15-1.33,9.9-2,14.66Z" transform="translate(-106.58 -2.26)"/><path class="cls-1" d="M175.91,373.79c.3-2.63,2.75-3.8,6.06-3.8,5.68,0,2.9,5.48,5,7.82-1.7,1.43-3.24,3.7-5.14,4.08C178.51,382.53,175.89,379,175.91,373.79Z" transform="translate(-106.58 -2.26)"/><path class="cls-1" d="M143.08,550.42c1.38-12.09,5.07-23.52,9.55-34.74l2,.57q-4.87,17.34-9.76,34.67Z" transform="translate(-106.58 -2.26)"/><path class="cls-1" d="M508.69,415.72c.68,6.12,1.6,12.23,1.85,18.36,0,1.22-2.42,2.54-3.9,4-5.73-8.27.93-15,.48-22.21Z" transform="translate(-106.58 -2.26)"/><path class="cls-1" d="M227.41,356.75c4.77.06,7.72,2.57,7.67,6-.06,4.09-3.35,7.68-7,7.6s-6.39-3.5-6.35-8.05C221.78,358.29,224.59,357.11,227.41,356.75Zm7,7.64c-2.69-2.27-4.12-4.43-5.71-4.55s-4.18,1.84-4.34,3.13c-.19,1.58,1.74,4.87,2.68,4.84C229.1,367.76,231.1,366.07,234.43,364.39Z" transform="translate(-106.58 -2.26)"/><path class="cls-1" d="M300.43,370.7c-.54-3.69,2.11-5.45,6-5.59,3.41-.12,7.44,4,7.14,6.86-.52,4.83-2.88,7.08-7.17,6.83S300.07,376,300.43,370.7Zm6.18-4.7c-2.17,3-4.23,4.58-4.37,6.36-.1,1.22,2.64,3.87,3.8,3.71,1.91-.27,3.57-2.31,5.34-3.6C310.08,370.7,308.77,368.94,306.61,366Z" transform="translate(-106.58 -2.26)"/><path class="cls-1" d="M405,378.15c-7.17-3.48-2.18-9.14-3.8-13.55l1.55-.52c.91,2.62,1.81,5.24,2.81,8.13.5-1.52.92-2.83,1.4-4.28C412.25,373.56,412.15,374,405,378.15Z" transform="translate(-106.58 -2.26)"/><path class="cls-1" d="M351.14,382.44q-7.09-.09-7.15-6.93c0-3.93,2.84-7.45,6.25-6.35,2.81.91,6.19,3.59,7,6.22C358.49,379.27,355,382.48,351.14,382.44Zm-.27-.63c2-2.66,4.28-4.38,4.1-5.76-.24-1.75-2.49-3.22-3.87-4.81-1.75,1.67-3.94,3.1-5,5.13C345.8,377,348.55,379.23,350.87,381.81Z" transform="translate(-106.58 -2.26)"/><path class="cls-1" d="M492,129.48c-2.06-5.95,8.79-.83,4.44-9.19l10.27,3.53-.39,1.54-2.84-.14c-1.93,2.45-3.43,4.36-5.15,6.53Z" transform="translate(-106.58 -2.26)"/><path class="cls-1" d="M267,373.85c-3.53-.25-6.41-1.76-6.78-5.68-.45-4.73,2.1-7.41,6.38-7.31a6.5,6.5,0,0,1,6.54,7.13C273,371.75,271.59,374.46,267,373.85Zm5.68-6.69L266,362.32c-1.29,1.87-3.34,3.64-3.57,5.63-.13,1.18,2.69,3.86,4,3.76C268.22,371.58,269.83,369.38,272.66,367.16Z" transform="translate(-106.58 -2.26)"/><path class="cls-1" d="M387.9,593c.34,1.68.67,3.37,1,5l-.95.41-14.28-22.15.94-.44,6.12,3.87q3.67,6.69,7.34,13.37Z" transform="translate(-106.58 -2.26)"/><path class="cls-1" d="M512.12,415.35l4.93-1.88c-.3,6-.56,11.44-.82,16.82l-1.49,0C513.9,425.46,513.06,420.67,512.12,415.35Z" transform="translate(-106.58 -2.26)"/><path class="cls-1" d="M340.16,354.09c-2.57.24-5.17.87-7.71.66-11.72-1-23.43-2.14-35.13-3.3a13.71,13.71,0,0,1-4.23-1.28l47.18,4Z" transform="translate(-106.58 -2.26)"/><path class="cls-1" d="M465.48,457.09c-.25,3.6-5.47,10.66-8.08,11.08-.62.1-1.93-.54-1.92-.76a4.56,4.56,0,0,1,.89-2.84C459.17,462.07,462.15,459.79,465.48,457.09Z" transform="translate(-106.58 -2.26)"/><path class="cls-1" d="M198.66,225.74l-8.42-6.23c.11-.55.39-1.93.76-3.72l3.54,3.05,4.12-4.55Z" transform="translate(-106.58 -2.26)"/><path class="cls-1" d="M291.7,406.51c-3.33-4.5-6.23-8.39-9.79-13.2C289.17,393.91,289.17,393.91,291.7,406.51Z" transform="translate(-106.58 -2.26)"/><path class="cls-1" d="M130.3,763.28c1.43,6.12,2.67,11.41,4,17.26C130.12,777.79,128,768.82,130.3,763.28Z" transform="translate(-106.58 -2.26)"/><path class="cls-1" d="M477.92,758.24,458.09,741c.4-.47.8-.93,1.19-1.4l19.55,17.46Z" transform="translate(-106.58 -2.26)"/><path class="cls-1" d="M477.62,138.68l11,1.82C482.83,146.55,481,146.19,477.62,138.68Z" transform="translate(-106.58 -2.26)"/><path class="cls-1" d="M231.21,227.53c6.86,7.09,13.13,5.76,19.13-.82C244.93,235.68,235.54,236.31,231.21,227.53Z" transform="translate(-106.58 -2.26)"/><path class="cls-1" d="M379.7,572.86c3.17,6.31,6.36,12.62,9.47,19,.07.15-.83.77-1.27,1.17l.17.11-7.52-13.22-.72-7Z" transform="translate(-106.58 -2.26)"/><path class="cls-1" d="M376.21,75.38h3.44l.12.89-6.92,1.65c.08-1.67.14-3,.26-5.44l6.46-2.9.81,1.28Z" transform="translate(-106.58 -2.26)"/><path class="cls-1" d="M480.76,745.09l12.87,13.14-1.39,1.36-12.58-13.43Z" transform="translate(-106.58 -2.26)"/><path class="cls-1" d="M463.44,717.29l-14.73-12.67.86-1,15.26,12.51Z" transform="translate(-106.58 -2.26)"/><path class="cls-1" d="M449.85,451.11a77.22,77.22,0,0,1-8.41.83c-.72,0-1.45-1.54-2.17-2.37.82-.53,1.72-1.59,2.46-1.49,2.68.37,5.31,1.13,8,1.74Z" transform="translate(-106.58 -2.26)"/><path class="cls-1" d="M373.56,81.2l-4.13-1.09,7.15-1.46,3.09,3.93-9.29,2.52-.61-1Z" transform="translate(-106.58 -2.26)"/><path class="cls-1" d="M412.22,404.63a2.82,2.82,0,0,1,.46.23l2.75,4.25-1.09,1L406,403.37l1-1.64Z" transform="translate(-106.58 -2.26)"/><path class="cls-1" d="M372.68,92.74c4.13-5.92,5.43-6,9.2-1.75Z" transform="translate(-106.58 -2.26)"/><path class="cls-1" d="M213.84,388.28l22.82,1.38v-.55H213.82Z" transform="translate(-106.58 -2.26)"/><path class="cls-1" d="M295.86,128.59l12.78-.71.15,2-12.67,1C296,130.12,295.94,129.35,295.86,128.59Z" transform="translate(-106.58 -2.26)"/><path class="cls-1" d="M269.34,114.31q-2.88,5.66-5.75,11.31l-2.06-1.16L268,113.55Z" transform="translate(-106.58 -2.26)"/><path class="cls-1" d="M227.25,384.76l11.35-1.93C238.91,386.45,236.19,387.06,227.25,384.76Z" transform="translate(-106.58 -2.26)"/><path class="cls-1" d="M385.42,128l7.62,6.21C388.85,136.3,385.66,133.89,385.42,128Z" transform="translate(-106.58 -2.26)"/><path d="M380.55,579.89l7.52,13.22q-3.68-6.68-7.34-13.37Z" transform="translate(-106.58 -2.26)"/><path class="cls-1" d="M433.83,429.62c-4.49-4.63-7.72-1.25-11.05,1.55-.32-.52-.65-1-1-1.56,2.1-1.45,4-3.68,6.33-4.12,1.86-.35,4.13,1.45,6.22,2.29Z" transform="translate(-106.58 -2.26)"/><path class="cls-1" d="M380,641.52q4.17,6,8.35,12l-.93.68-8.86-11.47Z" transform="translate(-106.58 -2.26)"/><path class="cls-1" d="M376.67,56.6c.13-4.16.5-7.17,5.8-6.45l-2.57,2.78,3.71,1.64Z" transform="translate(-106.58 -2.26)"/><path class="cls-1" d="M172.76,387.68c-3.91.2-8.95,3.25-11-3.08Z" transform="translate(-106.58 -2.26)"/><path class="cls-1" d="M419.77,684.63l9,13.34-1,.73-9.27-13.09Z" transform="translate(-106.58 -2.26)"/><path class="cls-1" d="M448.14,435.55H439.2v-1.78h8.94C448.13,434.36,448.14,435,448.14,435.55Z" transform="translate(-106.58 -2.26)"/><path class="cls-1" d="M438.18,721.88q-3.39-5.57-6.79-11.13l.89-.52,7.51,10.92Z" transform="translate(-106.58 -2.26)"/><path class="cls-1" d="M466.21,380c.44,3.79.91,7.68,1.32,11.2C463.31,388.13,462.75,383.47,466.21,380Z" transform="translate(-106.58 -2.26)"/><path class="cls-1" d="M199.7,327.79c-7.13,1.95-4.09,5.38-1.66,8.72l-1.65.55c-1-2.28-2.58-4.54-2.68-6.87-.05-1.16,2.63-2.43,4.08-3.66Z" transform="translate(-106.58 -2.26)"/><path class="cls-1" d="M498.68,272.57l-10.39-2.14c0-.47.09-.94.14-1.41L499,270.55Z" transform="translate(-106.58 -2.26)"/><path d="M147.5,781.73q-2.12-11.49-4.24-23l2.55-.46q2.1,11.52,4.18,23.05Z" transform="translate(-106.58 -2.26)"/><path d="M340,314.15c-3.55-3-3.35-6.27-1.63-9.3.67-1.19,2.71-1.61,4.13-2.38.54,1.66,1.85,3.53,1.45,4.93C343.3,309.67,341.55,311.62,340,314.15Z" transform="translate(-106.58 -2.26)"/><path d="M340.66,275l-10.38,1.25,2.93-4.8-7.75-.5C330.49,270.81,336.08,268.08,340.66,275Z" transform="translate(-106.58 -2.26)"/><path d="M318,299.17l19.34-13.94,1.06,1.31-19.2,14.23Z" transform="translate(-106.58 -2.26)"/><path d="M234.43,364.39c-3.33,1.68-5.33,3.37-7.37,3.42-.94,0-2.87-3.26-2.68-4.84.16-1.29,2.89-3.25,4.34-3.13S231.74,362.12,234.43,364.39Z" transform="translate(-106.58 -2.26)"/><path d="M306.61,366c2.16,2.94,3.47,4.7,4.77,6.47-1.77,1.29-3.43,3.33-5.34,3.6-1.16.16-3.9-2.49-3.8-3.71C302.38,370.58,304.44,369,306.61,366Z" transform="translate(-106.58 -2.26)"/><path d="M350.87,381.81c-2.32-2.58-5.07-4.8-4.75-5.44,1-2,3.23-3.46,5-5.13,1.38,1.59,3.63,3.06,3.87,4.81C355.15,377.43,352.88,379.15,350.87,381.81Z" transform="translate(-106.58 -2.26)"/><path d="M272.66,367.16c-2.83,2.22-4.44,4.42-6.2,4.55-1.33.1-4.15-2.58-4-3.76.23-2,2.28-3.76,3.57-5.63Z" transform="translate(-106.58 -2.26)"/></svg>